<?xml version="1.0" encoding="utf-8"?>
<!-- Generator: Adobe Illustrator 16.0.0, SVG Export Plug-In . SVG Version: 6.00 Build 0)  -->
<!DOCTYPE svg PUBLIC "-//W3C//DTD SVG 1.1//EN" "http://www.w3.org/Graphics/SVG/1.1/DTD/svg11.dtd">
<svg version="1.1" id="Layer_1" xmlns="http://www.w3.org/2000/svg" xmlns:xlink="http://www.w3.org/1999/xlink" x="0px" y="0px"
	 width="720px" height="720px" viewBox="0 0 720 720" enable-background="new 0 0 720 720" xml:space="preserve">
<g>
	<defs>
		<rect id="SVGID_1_" width="720" height="720"/>
	</defs>
	<clipPath id="SVGID_2_">
		<use xlink:href="#SVGID_1_"  overflow="visible"/>
	</clipPath>
	<g clip-path="url(#SVGID_2_)">
		<defs>
			<rect id="SVGID_3_" x="201.918" y="83.058" width="316.16" height="553.879"/>
		</defs>
		<clipPath id="SVGID_4_">
			<use xlink:href="#SVGID_3_"  overflow="visible"/>
		</clipPath>
		<g clip-path="url(#SVGID_4_)">
			<defs>
				<rect id="SVGID_5_" x="201.918" y="83.058" width="316.16" height="553.879"/>
			</defs>
			<clipPath id="SVGID_6_">
				<use xlink:href="#SVGID_5_"  overflow="visible"/>
			</clipPath>
			<path clip-path="url(#SVGID_6_)" d="M513.337,407.998c0,0,6.29,10.04,0.51,18.72l-4.77-2.04l-0.17,13.96l4.09-5.11
				c0,0,8,13.79-0.181,23.15l-4.76-1.87l-0.34,12.93l4.42-2.89c0,0,9.71,11.57-0.34,19.4l-4.76-3.4l0.34,14.64l4.08-3.069
				c0,0,8.68,11.58-0.34,17.88c-0.34,0.24-0.66,0.46-0.95,0.66l-3.811-3.221l0.171,13.28l4.93-3.399c0,0,10.899,13.439,0.51,18.55
				c-10.38,5.109-0.85,0-0.85,0l-5.101-2.55l-6.75,3.909l3.03-357.779l10.7-6.13c0,0,6.46,17.02,0,28.59l-3.11-1.36l0.04,4.47
				l3.07-1.11c0,0,9.479,12.81,0,24.04l-3.24-1.4v6.17l3.36-1.45c0,0,11.189,9.71-0.04,25.92l-3.11-1.96v8.47l2.94-2.3
				c0,0,10.89,11.15,0,20.68l-3.57-1.62l-0.09,8.17l3.83-1.36c0,0,6.3,11.409,0,21.32l-3.96-1.49l0.17,8.43l4.09-2.13
				c0,0,4.979,12.98,0,21.36l-3.66-1.831l0.17,8.171l3.62-1.78c0,0,6.59,10.51,0,22.72l-3.32-1.83v7.79l3.36-1.54
				c0,0,7.57,10.6,0,23.62l-3.36-2.68l-0.26,6.979l2.89-1.32c0,0,7.49,5.11,0.86,11.57l-3.49-2.55v7.83L513.337,407.998z"/>
			<path clip-path="url(#SVGID_6_)" fill="#FEF3B7" d="M510.167,510.958l0.02,0.02c0,0-2.541,1.76-3.189,2.2
				C507.327,512.948,508.257,512.288,510.167,510.958"/>
			<polygon clip-path="url(#SVGID_6_)" fill="#FEF3B7" points="503.027,93.618 502.297,179.748 499.267,537.527 498.606,615.487 
				454.347,615.487 453.106,140.888 453.377,140.928 453.377,100.758 453.006,100.758 452.987,93.618 			"/>
			<path clip-path="url(#SVGID_6_)" fill="#FEF3B7" d="M453.106,140.888l1.24,474.6l-2.72,8.851c0,0-0.68,6.47-4.43,8.85v3.75
				h-82.801v-0.399c2.37-0.59,3.54-2.761,3.511-4.92c0.529-2.5-0.62-5.41-3.471-6.061v-0.54h48.811v-99.399h-48.46v-0.73
				c1.91-0.52,3.479-2.06,3.42-4.64c-0.19-8.101,0.479-16.08-1.46-24.05c-0.101-0.431-0.26-0.811-0.43-1.16
				c2.76-8.13,5.159-17.061,4.71-25.67c-0.23-4.4-0.761-8.79-0.79-13.2c-0.03-4.66,0.25-9.09-0.551-13.71
				c-0.09-0.51-0.229-0.96-0.42-1.351c1.971-2.84,3.49-5.83,4.09-9.38c0.9-5.27-0.09-10.8-0.63-16.069
				c-0.58-5.79-1.6-11.54-2.199-17.32c-0.691-6.65-0.471-13.38-0.921-20.04c-0.079-1.19-0.479-2.16-1.1-2.91
				c0.311-0.479,0.54-1.07,0.67-1.76c1.94-10.53,0.99-21.65,0.59-32.3c-0.21-5.54-1.1-11.01-1.399-16.53
				c-0.32-5.76,0.739-11.41,1.5-17.1c0.14-1.09-0.04-1.99-0.431-2.71c0.091-0.18,0.17-0.36,0.25-0.56
				c0.94-2.44,2.351-3.49,2.141-6.44c-0.221-3.11-0.88-6.49-1.65-9.5c-0.859-3.38-2.17-7.02-2.49-10.5
				c-0.31-3.32,0.73-6.81,1.03-10.12c0.11-1.24-0.189-2.23-0.72-2.99c0.2-0.51,0.32-1.09,0.339-1.73
				c0.171-4.95,1.551-9.58,1.381-14.59c-0.18-5.47-2-10.44-2.49-15.78c-0.479-5.38,1.54-11.14,2.32-16.44
				c0.8-5.49,1.31-10.96,1.08-16.51c-0.12-3-2.37-4.6-4.71-4.8v-0.76c3.68-0.85,7.72-2.22,12.1-4.31c0,0,9.521,8.5,9.53,8.51
				c-0.07-0.06,1.92-4.18,2.021-4.45c1.43-3.66,2.46-7.49,2.96-11.39c0.68-5.35,0.239-10.94-1.691-16
				c-4.039-10.57-13.889-17.49-24.769-19.93v-1.11c2.769-0.34,5.26-2.66,4.13-6.07c-0.561-1.68-0.79-3.39-1.471-5.04
				c-0.5-1.18-1.52-2.3-1.67-3.59c-0.149-1.21,0.62-3.14,0.75-4.38c0.21-1.94-0.109-3.78-0.2-5.72c-0.159-3.94,1.061-7.9,1.58-11.81
				c0.591-4.39,0.891-8.77,0.931-13.19c0.029-2.74-1.771-4.32-3.851-4.72v-0.52h80.931v-7.49h5.79v10.56l0.02,7.14h-37.76v23.15
				l-2.04,16h5.1l2.05-13.61h25.87l0.681,13.61L453.106,140.888z"/>
			<polygon clip-path="url(#SVGID_6_)" fill="#FEF3B7" points="453.377,100.758 453.377,140.928 453.106,140.888 453.007,100.758 
							"/>
			<path clip-path="url(#SVGID_6_)" fill="#49463A" d="M453.007,100.758l0.1,40.13l-6.199-0.98l-0.681-13.61h-25.87l-2.05,13.61
				h-5.1l2.041-16v-23.15H453.007z M446.227,120.848l1.36-17.36h-27.57v17.36H446.227z"/>
			<polygon clip-path="url(#SVGID_6_)" fill="#FEF3B7" points="447.587,103.488 446.227,120.848 420.017,120.848 420.017,103.488 
							"/>
			<polygon clip-path="url(#SVGID_6_)" points="413.247,525.618 413.247,625.018 364.437,625.018 364.787,525.618 			"/>
			<path clip-path="url(#SVGID_6_)" fill="#C1B78F" d="M390.837,166.628c1.93,5.06,2.37,10.65,1.69,16
				c-0.5,3.9-1.53,7.73-2.961,11.39c-0.1,0.27-2.09,4.39-2.02,4.45c-0.01-0.01-9.53-8.51-9.53-8.51c-4.38,2.09-8.42,3.46-12.1,4.31
				v-0.63c0.74-0.36,1.43-0.94,1.99-1.76c1.439-2.11,1.35-5.22,1.279-7.72c-0.04-1.6-0.439-2.79-0.949-4.271
				c-0.75-2.21-0.69-3.29-0.261-5.59c1.271-6.69,2-14.2,1-21.07c0.67-2.42-0.29-5.36-2.91-6.25v-0.28
				C376.947,149.138,386.797,156.058,390.837,166.628"/>
			<path clip-path="url(#SVGID_6_)" fill="#FEF3B7" d="M372.727,415.658c0.54,5.27,1.53,10.8,0.63,16.069
				c-0.6,3.55-2.119,6.54-4.09,9.38c0.19,0.391,0.33,0.841,0.42,1.351c0.801,4.62,0.521,9.05,0.551,13.71
				c0.029,4.41,0.56,8.8,0.79,13.2c0.449,8.609-1.95,17.54-4.71,25.67c0.17,0.349,0.329,0.729,0.431,1.16
				c1.938,7.97,1.269,15.949,1.459,24.05c0.06,2.58-1.51,4.12-3.42,4.639c-0.82,0.221-1.7,0.25-2.55,0.081
				c-2.101-0.39-3.97-1.97-4.031-4.72c-0.16-7.15,0.61-14.37-1.1-21.391c-0.2-0.81-0.2-1.56-0.06-2.239
				c-0.72-1.021-1-2.391-0.45-3.99c2.5-7.351,4.84-15.47,4.431-23.26c-0.2-3.801-0.631-7.601-0.771-11.41
				c-0.15-4.28,0.521-8.59-0.21-12.851c-0.14-0.79-0.11-1.52,0.05-2.18c-0.69-0.84-1.14-1.87-1.13-2.97
				c0.06-5.49,0.61-11,0.33-16.48c-0.27-5.18-1.7-9.91-0.79-15.109c0.36-2.021,1.58-3.11,3.04-3.471
				c-0.88-8.87-1.34-17.649-1.94-26.6c-0.089-1.34,0.28-2.4,0.921-3.18c-0.851-1.061-1.301-2.481-0.99-4.15
				c1.849-10.031,0.649-21.29,0.149-31.439c-0.26-5.551-1.31-11.051-1.399-16.61c-0.071-5.111,0.909-10.171,1.579-15.22
				c0.09-0.69,0.3-1.311,0.59-1.851c-0.771-1.029-1.05-2.419-0.41-4.069c1.03-2.69,1.63-3.23,1.22-6.08
				c-0.479-3.311-1.22-6.48-2.04-9.75c-0.74-2.911-1.63-5.86-1.62-8.891c0-3.089,0.83-6.119,1.11-9.19
				c0.06-0.649,0.22-1.239,0.46-1.759c-0.55-0.761-0.88-1.741-0.84-2.96c0.181-5.25,1.53-10.14,1.34-15.421
				c-0.179-5.21-2.23-9.98-2.49-15.15c-0.26-5.419,1.43-10.909,2.3-16.219c0.9-5.491,1.37-10.971,1.141-16.531
				c-0.1-2.449,1.28-3.96,3.05-4.54c0.71-0.239,1.48-0.329,2.24-0.259c2.34,0.199,4.59,1.799,4.71,4.799
				c0.229,5.551-0.28,11.02-1.08,16.511c-0.78,5.299-2.799,11.06-2.32,16.44c0.49,5.339,2.311,10.31,2.49,15.779
				c0.17,5.011-1.21,9.641-1.38,14.591c-0.02,0.639-0.14,1.219-0.339,1.73c0.529,0.759,0.829,1.75,0.719,2.989
				c-0.3,3.311-1.34,6.801-1.03,10.121c0.32,3.48,1.631,7.12,2.49,10.5c0.771,3.009,1.43,6.39,1.65,9.5c0.21,2.95-1.2,4-2.141,6.44
				c-0.08,0.2-0.159,0.379-0.25,0.56c0.391,0.72,0.57,1.62,0.431,2.71c-0.761,5.689-1.82,11.339-1.5,17.1
				c0.3,5.52,1.189,10.989,1.399,16.529c0.4,10.65,1.351,21.771-0.59,32.301c-0.13,0.689-0.359,1.28-0.67,1.759
				c0.62,0.75,1.021,1.721,1.1,2.911c0.45,6.66,0.23,13.39,0.921,20.04C371.127,404.118,372.146,409.868,372.727,415.658"/>
			<path clip-path="url(#SVGID_6_)" fill="#FEF3B7" d="M370.197,139.518c1.13,3.41-1.36,5.73-4.13,6.07
				c-0.73,0.09-1.471,0.05-2.171-0.15c-1.449-0.4-2.739-1.44-3.34-3.26c-1-3.02-2.699-6.08-3.279-9.18
				c-0.65-3.54,0.75-6.98,0.47-10.54c-0.35-4.51,0.619-8.51,1.34-12.94c0.73-4.55,0.99-9.14,1.03-13.73
				c0.029-2.77,1.899-4.35,4.02-4.73c0.7-0.14,1.431-0.13,2.13,0.01c2.08,0.4,3.88,1.98,3.851,4.72c-0.04,4.42-0.34,8.8-0.931,13.19
				c-0.52,3.91-1.739,7.87-1.58,11.81c0.091,1.94,0.41,3.78,0.2,5.72c-0.131,1.24-0.899,3.17-0.75,4.38
				c0.15,1.29,1.17,2.41,1.67,3.59C369.407,136.127,369.637,137.837,370.197,139.518"/>
			<path clip-path="url(#SVGID_6_)" fill="#C1B78F" d="M369.187,184.158c0.07,2.5,0.16,5.61-1.279,7.72
				c-0.561,0.82-1.25,1.4-1.991,1.76c-0.709,0.35-1.469,0.5-2.229,0.5c-3.529-0.04-6.939-3.59-4.419-7.3
				c-1.081,1.59,0.029-0.94-0.121-2.06c-0.109-0.76-0.31-1.06-0.51-1.83c-0.849-3.24-1.48-5.32-0.86-8.79
				c1.181-6.58,2.551-14.09,1.12-20.75c-0.46-2.13,0.351-3.85,1.671-4.94c0.729-0.95,1.84-1.63,3.319-1.75
				c0.15-0.01,0.311-0.02,0.47-0.02c0.631,0,1.211,0.1,1.711,0.28c2.619,0.89,3.579,3.83,2.909,6.25c1,6.87,0.271,14.38-1,21.07
				c-0.43,2.3-0.489,3.38,0.261,5.59C368.747,181.368,369.146,182.558,369.187,184.158"/>
			<path clip-path="url(#SVGID_6_)" fill="#FEF3B7" d="M364.437,625.558c2.851,0.65,4,3.561,3.471,6.061
				c0.029,2.159-1.141,4.33-3.511,4.92c-0.399,0.109-0.84,0.16-1.319,0.16c-0.48,0-0.92-0.061-1.33-0.16
				c-2.77-0.69-3.891-3.57-3.371-6.04c-0.03-2.13,1.11-4.28,3.42-4.891c0.43-0.13,0.9-0.189,1.41-0.189
				C363.646,625.418,364.057,625.468,364.437,625.558"/>
			<path clip-path="url(#SVGID_6_)" fill="#FEF3B7" d="M366.267,90.548v0.52c-0.699-0.14-1.43-0.15-2.13-0.01v-0.51H366.267z"/>
			<path clip-path="url(#SVGID_6_)" fill="#FEF3B7" d="M366.067,146.698v0.28c-0.5-0.18-1.08-0.28-1.711-0.28
				c-0.159,0-0.319,0.01-0.47,0.02v-0.45C364.617,146.398,365.347,146.538,366.067,146.698"/>
			<path clip-path="url(#SVGID_6_)" fill="#FEF3B7" d="M366.067,145.588v1.11c-0.721-0.16-1.45-0.3-2.181-0.43l0.01-0.83
				C364.597,145.638,365.338,145.678,366.067,145.588"/>
			<path clip-path="url(#SVGID_6_)" fill="#FEF3B7" d="M365.917,194.268v0.76c-0.76-0.07-1.53,0.021-2.24,0.26v-0.57
				c0.01,0.01,0.01,0.01,0.01,0C364.417,194.587,365.157,194.438,365.917,194.268"/>
			<path clip-path="url(#SVGID_6_)" fill="#FEF3B7" d="M365.917,193.638v0.63c-0.76,0.17-1.5,0.32-2.23,0.45v-0.58
				C364.447,194.138,365.207,193.988,365.917,193.638"/>
			<path clip-path="url(#SVGID_6_)" fill="#FEF3B7" d="M364.787,524.888v0.73h-2.55v-0.65
				C363.087,525.138,363.967,525.107,364.787,524.888"/>
			<polygon clip-path="url(#SVGID_6_)" fill="#191812" points="364.787,525.618 364.437,625.018 361.797,625.018 362.237,525.618 
							"/>
			<path clip-path="url(#SVGID_6_)" fill="#FEF3B7" d="M364.437,625.018v0.54c-0.38-0.09-0.79-0.14-1.229-0.14
				c-0.51,0-0.98,0.06-1.41,0.189v-0.59H364.437z"/>
			<path clip-path="url(#SVGID_6_)" fill="#FEF3B7" d="M364.396,636.538v0.399h-2.649v-0.399c0.41,0.1,0.85,0.16,1.33,0.16
				C363.557,636.698,363.997,636.647,364.396,636.538"/>
			<path clip-path="url(#SVGID_6_)" fill="#FEF3B7" d="M364.137,90.548v0.51c-2.12,0.38-3.989,1.96-4.02,4.73
				c-0.04,4.59-0.3,9.18-1.03,13.73c-0.72,4.43-1.69,8.43-1.34,12.94c0.28,3.56-1.12,7-0.47,10.54c0.58,3.1,2.28,6.16,3.28,9.18
				c0.601,1.82,1.891,2.86,3.341,3.26l-0.011,0.83c-6.07-1.02-12.35-0.65-18.03,1.23c-10.45,3.46-19.52,11.48-22.48,22.26
				c-2.69,9.83-1.52,20.33,4.89,28.5c0.05,0.06,0.73,0.88,0.73,0.89l9.53-9.19c0,0,8.69,7.729,25.15,4.76v0.57
				c-1.77,0.58-3.149,2.09-3.05,4.54c0.229,5.56-0.24,11.04-1.14,16.53c-0.87,5.31-2.56,10.8-2.3,16.22
				c0.26,5.17,2.31,9.94,2.49,15.15c0.19,5.28-1.16,10.17-1.34,15.42c-0.04,1.22,0.29,2.2,0.84,2.96c-0.24,0.52-0.4,1.11-0.46,1.76
				c-0.28,3.07-1.11,6.1-1.11,9.19c-0.01,3.03,0.88,5.98,1.62,8.89c0.82,3.27,1.56,6.44,2.04,9.75c0.41,2.85-0.189,3.39-1.22,6.08
				c-0.64,1.65-0.36,3.04,0.41,4.07c-0.29,0.54-0.5,1.16-0.59,1.85c-0.67,5.05-1.65,10.11-1.58,15.22
				c0.09,5.56,1.14,11.06,1.4,16.61c0.5,10.15,1.7,21.41-0.15,31.44c-0.31,1.67,0.14,3.09,0.99,4.15
				c-0.64,0.779-1.01,1.84-0.92,3.18c0.6,8.95,1.06,17.729,1.94,26.6c-1.46,0.36-2.68,1.45-3.04,3.471
				c-0.91,5.199,0.52,9.93,0.79,15.109c0.28,5.48-0.27,10.99-0.33,16.48c-0.01,1.1,0.44,2.13,1.13,2.97
				c-0.16,0.66-0.189,1.39-0.05,2.18c0.73,4.261,0.06,8.57,0.21,12.851c0.141,3.81,0.57,7.609,0.771,11.41
				c0.41,7.79-1.93,15.909-4.43,23.26c-0.55,1.6-0.27,2.97,0.45,3.99c-0.14,0.68-0.14,1.43,0.06,2.239
				c1.71,7.021,0.94,14.24,1.1,21.391c0.06,2.75,1.93,4.33,4.03,4.72v0.65h-48.39v99.399h47.95v0.59
				c-2.31,0.61-3.45,2.761-3.42,4.891c-0.52,2.47,0.6,5.35,3.37,6.04v0.399h-88.75v-3.75c-3.75-2.38-4.43-8.85-4.43-8.85
				l-2.72-8.851l1.36-521.87v-10.56h5.79v7.49H364.137z M307.377,139.908l-2.04-16v-23.15h-38.13v40.17l6.47-1.02l0.68-13.61h25.87
				l2.04,13.61H307.377z"/>
			<path clip-path="url(#SVGID_6_)" fill="#C1B78F" d="M363.887,146.268v0.45c-1.479,0.12-2.59,0.8-3.319,1.75
				c-1.321,1.09-2.131,2.81-1.671,4.94c1.43,6.66,0.06,14.17-1.12,20.75c-0.62,3.47,0.01,5.55,0.86,8.79
				c0.2,0.77,0.4,1.07,0.51,1.83c0.15,1.12-0.96,3.65,0.12,2.06c-2.52,3.71,0.891,7.26,4.42,7.3v0.58c0,0.01,0,0.01-0.01,0
				c-16.46,2.97-25.15-4.76-25.15-4.76l-9.53,9.19c0-0.01-0.68-0.83-0.73-0.89c-6.41-8.17-7.58-18.67-4.89-28.5
				c2.96-10.78,12.03-18.8,22.48-22.26C351.537,145.618,357.817,145.248,363.887,146.268"/>
			<polygon clip-path="url(#SVGID_6_)" points="362.237,525.618 361.797,625.018 313.846,625.018 313.846,525.618 			"/>
			<path clip-path="url(#SVGID_6_)" fill="#49463A" d="M305.337,123.908l2.04,16h-5.11l-2.04-13.61h-25.87l-0.68,13.61l-6.47,1.02
				v-40.17h38.13V123.908z M300.567,120.848v-17.36h-27.57l1.36,17.36H300.567z"/>
			<polygon clip-path="url(#SVGID_6_)" fill="#FEF3B7" points="300.567,103.488 300.567,120.848 274.357,120.848 272.997,103.488 
							"/>
			<polygon clip-path="url(#SVGID_6_)" fill="#FEF3B7" points="267.207,93.618 265.847,615.487 221.587,615.487 217.167,93.618 			
				"/>
			<path clip-path="url(#SVGID_6_)" d="M217.707,177.438l3.03,357.79l-6.75-3.92l-5.11,2.561c0,0,9.54,5.1-0.85,0
				c-10.38-5.11,0.51-18.561,0.51-18.561l4.94,3.41l0.17-13.28l-3.82,3.221c-0.29-0.21-0.61-0.431-0.95-0.671
				c-9.02-6.289-0.34-17.869-0.34-17.869l4.09,3.069l0.34-14.64l-4.77,3.4c-10.04-7.83-0.34-19.4-0.34-19.4l4.43,2.89l-0.34-12.939
				l-4.77,1.88c-8.17-9.37-0.17-23.15-0.17-23.15l4.09,5.101l-0.17-13.95l-4.77,2.04c-5.79-8.681,0.51-18.72,0.51-18.72l3.14,2.21
				v-7.83l-3.48,2.55c-6.64-6.47,0.85-11.57,0.85-11.57l2.89,1.32l-0.26-6.98l-3.35,2.681c-7.58-13.021,0-23.62,0-23.62l3.35,1.529
				v-7.779l-3.31,1.83c-6.6-12.22,0-22.73,0-22.73l3.62,1.79l0.17-8.17l-3.66,1.83c-4.98-8.38,0-21.36,0-21.36l4.08,2.13l0.17-8.43
				l-3.95,1.49c-6.3-9.92,0-21.32,0-21.32l3.83,1.36l-0.09-8.17l-3.57,1.62c-10.9-9.53,0-20.68,0-20.68l2.93,2.3v-8.47l-3.1,1.96
				c-11.24-16.22-0.05-25.92-0.05-25.92l3.37,1.45v-6.17l-3.24,1.4c-9.49-11.23,0-24.04,0-24.04l3.06,1.1l0.05-4.46l-3.11,1.36
				c-6.47-11.58,0-28.6,0-28.6L217.707,177.438z"/>
			<path clip-path="url(#SVGID_6_)" fill="#FEF3B7" d="M209.827,508.658c2.14,1.489,3.06,2.13,3.27,2.279
				c-0.41-0.26-3.29-2.27-3.29-2.27L209.827,508.658z"/>
		</g>
	</g>
	<path clip-path="url(#SVGID_2_)" fill="none" stroke="#000000" stroke-miterlimit="10" d="M364.137,90.548h-91.14v-7.49h-5.79
		v10.56h-50.04l4.42,521.869h44.26l2.72,8.851c0,0,0.68,6.47,4.43,8.85v3.75h88.75"/>
	<path clip-path="url(#SVGID_2_)" fill="none" stroke="#000000" stroke-miterlimit="10" d="M499.267,537.527l-0.66,77.96h-44.26
		l-2.72,8.851c0,0-0.68,6.47-4.43,8.85v3.75h-82.801h-2.65"/>
	<polyline clip-path="url(#SVGID_2_)" fill="none" stroke="#000000" stroke-miterlimit="10" points="364.137,90.548 366.267,90.548 
		447.197,90.548 447.197,83.058 452.987,83.058 452.987,93.618 503.027,93.618 502.297,179.748 	"/>
	
		<line clip-path="url(#SVGID_2_)" fill="none" stroke="#000000" stroke-miterlimit="10" x1="267.207" y1="93.618" x2="265.847" y2="615.487"/>
	
		<line clip-path="url(#SVGID_2_)" fill="none" stroke="#000000" stroke-miterlimit="10" x1="453.007" y1="100.758" x2="452.986" y2="93.618"/>
	
		<line clip-path="url(#SVGID_2_)" fill="none" stroke="#000000" stroke-miterlimit="10" x1="454.347" y1="615.487" x2="453.106" y2="140.887"/>
	<polygon clip-path="url(#SVGID_2_)" fill="none" stroke="#000000" stroke-miterlimit="10" points="267.207,100.758 
		305.337,100.758 305.337,123.908 307.377,139.908 302.267,139.908 300.227,126.298 274.357,126.298 273.677,139.908 
		267.207,140.928 	"/>
	<polygon clip-path="url(#SVGID_2_)" fill="none" stroke="#000000" stroke-miterlimit="10" points="272.997,103.488 
		274.357,120.848 300.567,120.848 300.567,103.488 	"/>
	<polygon clip-path="url(#SVGID_2_)" fill="none" stroke="#000000" stroke-miterlimit="10" points="453.106,140.888 
		453.377,140.928 453.377,100.758 453.007,100.758 415.247,100.758 415.247,123.908 413.207,139.908 418.307,139.908 
		420.356,126.298 446.227,126.298 446.907,139.908 	"/>
	<polygon clip-path="url(#SVGID_2_)" fill="none" stroke="#000000" stroke-miterlimit="10" points="447.587,103.488 
		446.227,120.848 420.017,120.848 420.017,103.488 	"/>
	<path clip-path="url(#SVGID_2_)" fill="none" stroke="#000000" stroke-miterlimit="10" d="M506.997,513.178
		c0.649-0.44,3.189-2.2,3.189-2.2l-0.02-0.02l-3.811-3.221l0.171,13.28l4.93-3.399c0,0,10.899,13.439,0.51,18.55
		c-10.38,5.109-0.85,0-0.85,0l-5.1-2.55l-6.75,3.909"/>
	<path clip-path="url(#SVGID_2_)" fill="none" stroke="#000000" stroke-miterlimit="10" d="M502.297,179.748l10.7-6.13
		c0,0,6.46,17.02,0,28.59l-3.11-1.36l0.04,4.47l3.07-1.11c0,0,9.479,12.81,0,24.04l-3.24-1.4v6.17l3.36-1.45
		c0,0,11.189,9.71-0.04,25.92l-3.11-1.96v8.47l2.94-2.3c0,0,10.89,11.15,0,20.68l-3.57-1.62l-0.09,8.17l3.83-1.36
		c0,0,6.3,11.41,0,21.32l-3.96-1.49l0.17,8.43l4.09-2.13c0,0,4.979,12.98,0,21.36l-3.66-1.83l0.17,8.17l3.62-1.78
		c0,0,6.59,10.51,0,22.72l-3.32-1.83v7.79l3.36-1.54c0,0,7.57,10.6,0,23.62l-3.36-2.68l-0.26,6.979l2.892-1.32
		c0,0,7.488,5.11,0.858,11.57l-3.49-2.55v7.83l3.15-2.21c0,0,6.29,10.041,0.51,18.72l-4.77-2.04l-0.17,13.96l4.09-5.11
		c0,0,8,13.79-0.179,23.15l-4.762-1.87l-0.34,12.93l4.42-2.89c0,0,9.71,11.57-0.34,19.4l-4.76-3.4l0.34,14.64l4.08-3.069
		c0,0,8.68,11.58-0.34,17.88c-0.34,0.241-0.66,0.46-0.95,0.66c-1.91,1.331-2.84,1.99-3.17,2.22l-0.021,0.021
		c-0.01,0-0.01,0-0.02,0.01c-0.07,0.05-0.11,0.069-0.11,0.069"/>
	<path clip-path="url(#SVGID_2_)" fill="none" stroke="#000000" stroke-miterlimit="10" d="M213.097,510.938
		c-0.41-0.26-3.29-2.27-3.29-2.27l0.02-0.01l3.82-3.221l-0.17,13.28l-4.94-3.41c0,0-10.89,13.45-0.51,18.561
		c10.39,5.1,0.85,0,0.85,0l5.11-2.561l6.75,3.92"/>
	<path clip-path="url(#SVGID_2_)" fill="none" stroke="#000000" stroke-miterlimit="10" d="M217.707,177.438l-10.7-6.13
		c0,0-6.47,17.02,0,28.6l3.11-1.36l-0.05,4.46l-3.06-1.1c0,0-9.49,12.81,0,24.04l3.24-1.4v6.17l-3.37-1.45c0,0-11.19,9.7,0.05,25.92
		l3.1-1.96v8.47l-2.93-2.3c0,0-10.9,11.15,0,20.68l3.57-1.62l0.09,8.17l-3.83-1.36c0,0-6.3,11.4,0,21.32l3.95-1.49l-0.17,8.43
		l-4.08-2.13c0,0-4.98,12.98,0,21.36l3.66-1.83l-0.17,8.17l-3.62-1.79c0,0-6.6,10.51,0,22.73l3.31-1.83v7.779l-3.35-1.529
		c0,0-7.58,10.6,0,23.62l3.35-2.681l0.26,6.98l-2.89-1.32c0,0-7.49,5.101-0.85,11.57l3.48-2.55v7.83l-3.14-2.21
		c0,0-6.3,10.039-0.51,18.72l4.77-2.04l0.17,13.95l-4.09-5.101c0,0-8,13.78,0.17,23.15l4.77-1.88l0.34,12.939l-4.43-2.89
		c0,0-9.7,11.57,0.34,19.4l4.77-3.4l-0.34,14.64l-4.09-3.069c0,0-8.68,11.58,0.34,17.869c0.34,0.24,0.66,0.461,0.95,0.671
		c2.14,1.489,3.06,2.13,3.27,2.279l0.01,0.011c0.02,0.02,0.04,0.029,0.04,0.029"/>
	<polygon clip-path="url(#SVGID_2_)" fill="none" stroke="#000000" stroke-miterlimit="10" points="364.787,525.618 
		413.247,525.618 413.247,625.018 364.437,625.018 361.797,625.018 313.847,625.018 313.847,525.618 362.237,525.618 	"/>
	<path clip-path="url(#SVGID_2_)" fill="none" stroke="#000000" stroke-miterlimit="10" d="M363.687,194.718
		c0.729-0.13,1.471-0.28,2.229-0.45c3.681-0.85,7.721-2.22,12.101-4.31c0,0,9.521,8.5,9.53,8.51c-0.07-0.06,1.92-4.18,2.021-4.45
		c1.43-3.66,2.46-7.49,2.96-11.39c0.68-5.35,0.239-10.94-1.69-16c-4.04-10.57-13.89-17.49-24.77-19.93
		c-0.721-0.16-1.45-0.3-2.181-0.43c-6.07-1.02-12.349-0.65-18.03,1.23c-10.45,3.46-19.52,11.479-22.48,22.26
		c-2.69,9.83-1.52,20.33,4.891,28.5c0.049,0.06,0.73,0.88,0.73,0.89l9.529-9.19c0,0,8.69,7.73,25.15,4.76"/>
</g>
</svg>
