<?xml version="1.0" encoding="utf-8"?>
<!-- Generator: Adobe Illustrator 25.0.1, SVG Export Plug-In . SVG Version: 6.00 Build 0)  -->
<svg version="1.1" xmlns="http://www.w3.org/2000/svg" xmlns:xlink="http://www.w3.org/1999/xlink" x="0px" y="0px"
	 viewBox="0 0 720 720" style="enable-background:new 0 0 720 720;" xml:space="preserve">
<style type="text/css">
	.st0{display:none;}
	.st1{display:inline;}
	.st2{clip-path:url(#SVGID_2_);}
	.st3{clip-path:url(#SVGID_4_);}
	.st4{clip-path:url(#SVGID_6_);}
	.st5{clip-path:url(#SVGID_8_);fill:#FEF3B7;}
	.st6{clip-path:url(#SVGID_10_);fill:#FEF3B7;}
	.st7{clip-path:url(#SVGID_12_);fill:#FEF3B7;}
	.st8{clip-path:url(#SVGID_14_);fill:#FEF3B7;}
	.st9{clip-path:url(#SVGID_16_);fill:#49463A;}
	.st10{clip-path:url(#SVGID_18_);fill:#FEF3B7;}
	.st11{clip-path:url(#SVGID_20_);}
	.st12{clip-path:url(#SVGID_22_);fill:#C1B78F;}
	.st13{clip-path:url(#SVGID_24_);fill:#FEF3B7;}
	.st14{clip-path:url(#SVGID_26_);fill:#FEF3B7;}
	.st15{clip-path:url(#SVGID_28_);fill:#C1B78F;}
	.st16{clip-path:url(#SVGID_30_);fill:#FEF3B7;}
	.st17{clip-path:url(#SVGID_32_);fill:#FEF3B7;}
	.st18{clip-path:url(#SVGID_34_);fill:#FEF3B7;}
	.st19{clip-path:url(#SVGID_36_);fill:#FEF3B7;}
	.st20{clip-path:url(#SVGID_38_);fill:#FEF3B7;}
	.st21{clip-path:url(#SVGID_40_);fill:#FEF3B7;}
	.st22{clip-path:url(#SVGID_42_);fill:#FEF3B7;}
	.st23{clip-path:url(#SVGID_44_);fill:#191812;}
	.st24{clip-path:url(#SVGID_46_);fill:#FEF3B7;}
	.st25{clip-path:url(#SVGID_48_);fill:#FEF3B7;}
	.st26{clip-path:url(#SVGID_50_);fill:#FEF3B7;}
	.st27{clip-path:url(#SVGID_52_);fill:#C1B78F;}
	.st28{clip-path:url(#SVGID_54_);}
	.st29{clip-path:url(#SVGID_56_);fill:#49463A;}
	.st30{clip-path:url(#SVGID_58_);fill:#FEF3B7;}
	.st31{clip-path:url(#SVGID_60_);fill:#FEF3B7;}
	.st32{clip-path:url(#SVGID_62_);}
	.st33{clip-path:url(#SVGID_64_);fill:#FEF3B7;}
	.st34{clip-path:url(#SVGID_66_);fill:none;stroke:#000000;stroke-miterlimit:10;}
	.st35{clip-path:url(#SVGID_68_);fill:none;stroke:#000000;stroke-miterlimit:10;}
	.st36{clip-path:url(#SVGID_70_);fill:none;stroke:#000000;stroke-miterlimit:10;}
	.st37{clip-path:url(#SVGID_72_);fill:none;stroke:#000000;stroke-miterlimit:10;}
	.st38{clip-path:url(#SVGID_74_);fill:none;stroke:#000000;stroke-miterlimit:10;}
	.st39{clip-path:url(#SVGID_76_);fill:none;stroke:#000000;stroke-miterlimit:10;}
	.st40{clip-path:url(#SVGID_78_);fill:none;stroke:#000000;stroke-miterlimit:10;}
	.st41{clip-path:url(#SVGID_80_);fill:none;stroke:#000000;stroke-miterlimit:10;}
	.st42{clip-path:url(#SVGID_82_);fill:none;stroke:#000000;stroke-miterlimit:10;}
	.st43{clip-path:url(#SVGID_84_);fill:none;stroke:#000000;stroke-miterlimit:10;}
	.st44{clip-path:url(#SVGID_86_);fill:none;stroke:#000000;stroke-miterlimit:10;}
	.st45{clip-path:url(#SVGID_88_);fill:none;stroke:#000000;stroke-miterlimit:10;}
	.st46{clip-path:url(#SVGID_90_);fill:none;stroke:#000000;stroke-miterlimit:10;}
	.st47{clip-path:url(#SVGID_92_);fill:none;stroke:#000000;stroke-miterlimit:10;}
	.st48{clip-path:url(#SVGID_94_);fill:none;stroke:#000000;stroke-miterlimit:10;}
	.st49{clip-path:url(#SVGID_96_);fill:none;stroke:#000000;stroke-miterlimit:10;}
	.st50{clip-path:url(#SVGID_98_);}
	.st51{clip-path:url(#SVGID_100_);}
	.st52{clip-path:url(#SVGID_102_);fill:#CEC18D;}
	.st53{clip-path:url(#SVGID_104_);fill:#CEC18D;}
	.st54{clip-path:url(#SVGID_106_);fill:#CEC18D;}
	.st55{clip-path:url(#SVGID_108_);fill:#CEC18D;}
	.st56{clip-path:url(#SVGID_110_);fill:#FEF3B7;}
	.st57{clip-path:url(#SVGID_112_);fill:#191813;}
	.st58{clip-path:url(#SVGID_114_);fill:#D8CD9E;}
	.st59{clip-path:url(#SVGID_116_);fill:#191813;}
	.st60{clip-path:url(#SVGID_118_);fill:#E8DCAA;}
	.st61{clip-path:url(#SVGID_120_);fill:#FEF3B7;}
	.st62{clip-path:url(#SVGID_122_);fill:#FEF3B7;}
	.st63{clip-path:url(#SVGID_124_);fill:#FEF3B7;}
	.st64{clip-path:url(#SVGID_126_);fill:#E8DCAA;}
	.st65{clip-path:url(#SVGID_128_);fill:#E8DCAA;}
	.st66{clip-path:url(#SVGID_130_);fill:#FEF3B7;}
	.st67{clip-path:url(#SVGID_132_);fill:#E8DCAA;}
	.st68{clip-path:url(#SVGID_134_);fill:#191813;}
	.st69{clip-path:url(#SVGID_136_);fill:#D8CD9E;}
	.st70{clip-path:url(#SVGID_138_);fill:#FEF3B7;}
	.st71{clip-path:url(#SVGID_140_);fill:#191813;}
	.st72{clip-path:url(#SVGID_142_);fill:#E8DCAA;}
	.st73{clip-path:url(#SVGID_144_);fill:#E8DCAA;}
	.st74{clip-path:url(#SVGID_146_);fill:#E8DCAA;}
	.st75{clip-path:url(#SVGID_148_);fill:#FEF3B7;}
	.st76{clip-path:url(#SVGID_150_);fill:#FEF3B7;}
	.st77{clip-path:url(#SVGID_152_);fill:#E8DCAA;}
	.st78{clip-path:url(#SVGID_154_);fill:#FEF3B7;}
	.st79{clip-path:url(#SVGID_156_);fill:#E8DCAA;}
	.st80{clip-path:url(#SVGID_158_);fill:#FEF3B7;}
	.st81{clip-path:url(#SVGID_160_);fill:#FEF3B7;}
	.st82{clip-path:url(#SVGID_162_);fill:#FEF3B7;}
	.st83{clip-path:url(#SVGID_164_);fill:#FEF3B7;}
	.st84{clip-path:url(#SVGID_166_);fill:#E8DCAA;}
	.st85{clip-path:url(#SVGID_168_);fill:#191813;}
	.st86{clip-path:url(#SVGID_170_);fill:#E8DCAA;}
	.st87{clip-path:url(#SVGID_172_);fill:#FEF3B7;}
	.st88{clip-path:url(#SVGID_174_);fill:#FEF3B7;}
	.st89{clip-path:url(#SVGID_176_);fill:#FEF3B7;}
	.st90{clip-path:url(#SVGID_178_);fill:#FEF3B7;}
	.st91{clip-path:url(#SVGID_180_);fill:#D8CD9E;}
	.st92{clip-path:url(#SVGID_182_);fill:#E8DCAA;}
	.st93{clip-path:url(#SVGID_184_);fill:#E8DCAA;}
	.st94{clip-path:url(#SVGID_186_);fill:#E8DCAA;}
	.st95{clip-path:url(#SVGID_188_);fill:#FEF3B7;}
	.st96{clip-path:url(#SVGID_190_);fill:#E8DCAA;}
	.st97{clip-path:url(#SVGID_192_);fill:#E8DCAA;}
	.st98{clip-path:url(#SVGID_194_);fill:#E8DCAA;}
	.st99{clip-path:url(#SVGID_196_);fill:#CEC18D;}
	.st100{clip-path:url(#SVGID_198_);fill:#FEF3B7;}
	.st101{clip-path:url(#SVGID_200_);fill:#FEF3B7;}
	.st102{clip-path:url(#SVGID_202_);fill:#CEC18D;}
	.st103{clip-path:url(#SVGID_204_);fill:#FEF3B7;}
	.st104{clip-path:url(#SVGID_206_);fill:#191813;}
	.st105{clip-path:url(#SVGID_208_);fill:#CEC18D;}
	.st106{clip-path:url(#SVGID_210_);fill:#FEF3B7;}
	.st107{clip-path:url(#SVGID_212_);fill:#CEC18D;}
	.st108{clip-path:url(#SVGID_214_);fill:#CEC18D;}
	.st109{clip-path:url(#SVGID_216_);fill:#191813;}
	.st110{fill:none;stroke:#000000;stroke-miterlimit:10;}
	.st111{clip-path:url(#SVGID_218_);fill:none;stroke:#000000;stroke-miterlimit:10;}
	.st112{clip-path:url(#SVGID_220_);fill:none;stroke:#000000;stroke-miterlimit:10;}
	.st113{clip-path:url(#SVGID_222_);fill:none;stroke:#000000;stroke-miterlimit:10;}
	.st114{clip-path:url(#SVGID_224_);fill:none;stroke:#000000;stroke-miterlimit:10;}
	.st115{clip-path:url(#SVGID_226_);fill:none;stroke:#000000;stroke-miterlimit:10;}
	.st116{clip-path:url(#SVGID_228_);fill:none;stroke:#000000;stroke-miterlimit:10;}
	.st117{clip-path:url(#SVGID_230_);fill:none;stroke:#000000;stroke-miterlimit:10;}
	.st118{clip-path:url(#SVGID_232_);fill:none;stroke:#000000;stroke-miterlimit:10;}
	.st119{clip-path:url(#SVGID_234_);fill:none;stroke:#000000;stroke-miterlimit:10;}
	.st120{clip-path:url(#SVGID_236_);fill:none;stroke:#000000;stroke-miterlimit:10;}
	.st121{clip-path:url(#SVGID_238_);fill:none;stroke:#000000;stroke-miterlimit:10;}
	.st122{clip-path:url(#SVGID_240_);fill:none;stroke:#000000;stroke-miterlimit:10;}
	.st123{clip-path:url(#SVGID_242_);fill:none;stroke:#000000;stroke-miterlimit:10;}
	.st124{clip-path:url(#SVGID_244_);fill:none;stroke:#000000;stroke-miterlimit:10;}
	.st125{clip-path:url(#SVGID_246_);fill:none;stroke:#000000;stroke-miterlimit:10;}
	.st126{clip-path:url(#SVGID_248_);fill:none;stroke:#000000;stroke-miterlimit:10;}
	.st127{clip-path:url(#SVGID_250_);fill:none;stroke:#000000;stroke-miterlimit:10;}
	.st128{clip-path:url(#SVGID_252_);fill:none;stroke:#000000;stroke-miterlimit:10;}
	.st129{clip-path:url(#SVGID_254_);fill:none;stroke:#000000;stroke-miterlimit:10;}
	.st130{clip-path:url(#SVGID_256_);fill:none;stroke:#000000;stroke-miterlimit:10;}
	.st131{clip-path:url(#SVGID_258_);fill:none;stroke:#000000;stroke-miterlimit:10;}
</style>
<g id="Layer_2" class="st0">
	<g class="st1">
		<g>
			<defs>
				<rect id="SVGID_1_" x="6.5" y="48.1" width="720" height="720"/>
			</defs>
			<clipPath id="SVGID_2_">
				<use xlink:href="#SVGID_1_"  style="overflow:visible;"/>
			</clipPath>
			<g class="st2">
				<g>
					<defs>
						<rect id="SVGID_3_" x="208.4" y="131.1" width="316.2" height="553.9"/>
					</defs>
					<clipPath id="SVGID_4_">
						<use xlink:href="#SVGID_3_"  style="overflow:visible;"/>
					</clipPath>
					<g class="st3">
						<g>
							<defs>
								<rect id="SVGID_5_" x="208.4" y="131.1" width="316.2" height="553.9"/>
							</defs>
							<clipPath id="SVGID_6_">
								<use xlink:href="#SVGID_5_"  style="overflow:visible;"/>
							</clipPath>
							<path class="st4" d="M519.8,456.1c0,0,6.3,10,0.5,18.7l-4.8-2l-0.2,14l4.1-5.1c0,0,8,13.8-0.2,23.1l-4.8-1.9l-0.3,12.9
								l4.4-2.9c0,0,9.7,11.6-0.3,19.4l-4.8-3.4l0.3,14.6l4.1-3.1c0,0,8.7,11.6-0.3,17.9c-0.3,0.2-0.7,0.5-1,0.7l-3.8-3.2l0.2,13.3
								l4.9-3.4c0,0,10.9,13.4,0.5,18.5c-10.4,5.1-0.8,0-0.8,0l-5.1-2.5l-6.7,3.9l3-357.8l10.7-6.1c0,0,6.5,17,0,28.6l-3.1-1.4
								l0,4.5l3.1-1.1c0,0,9.5,12.8,0,24l-3.2-1.4v6.2l3.4-1.4c0,0,11.2,9.7,0,25.9l-3.1-2v8.5l2.9-2.3c0,0,10.9,11.1,0,20.7
								l-3.6-1.6l-0.1,8.2l3.8-1.4c0,0,6.3,11.4,0,21.3l-4-1.5l0.2,8.4l4.1-2.1c0,0,5,13,0,21.4l-3.7-1.8l0.2,8.2l3.6-1.8
								c0,0,6.6,10.5,0,22.7l-3.3-1.8v7.8l3.4-1.5c0,0,7.6,10.6,0,23.6l-3.4-2.7l-0.3,7l2.9-1.3c0,0,7.5,5.1,0.9,11.6l-3.5-2.5v7.8
								L519.8,456.1z"/>
						</g>
						<g>
							<defs>
								<rect id="SVGID_7_" x="208.4" y="131.1" width="316.2" height="553.9"/>
							</defs>
							<clipPath id="SVGID_8_">
								<use xlink:href="#SVGID_7_"  style="overflow:visible;"/>
							</clipPath>
							<path class="st5" d="M516.7,559L516.7,559c0,0-2.5,1.8-3.2,2.2C513.8,561,514.8,560.3,516.7,559"/>
						</g>
						<g>
							<defs>
								<rect id="SVGID_9_" x="208.4" y="131.1" width="316.2" height="553.9"/>
							</defs>
							<clipPath id="SVGID_10_">
								<use xlink:href="#SVGID_9_"  style="overflow:visible;"/>
							</clipPath>
							<polygon class="st6" points="509.5,141.7 508.8,227.8 505.8,585.6 505.1,663.5 460.8,663.5 459.6,188.9 459.9,189 
								459.9,148.8 459.5,148.8 459.5,141.7 							"/>
						</g>
						<g>
							<defs>
								<rect id="SVGID_11_" x="208.4" y="131.1" width="316.2" height="553.9"/>
							</defs>
							<clipPath id="SVGID_12_">
								<use xlink:href="#SVGID_11_"  style="overflow:visible;"/>
							</clipPath>
							<path class="st7" d="M459.6,188.9l1.2,474.6l-2.7,8.9c0,0-0.7,6.5-4.4,8.8v3.8h-82.8v-0.4c2.4-0.6,3.5-2.8,3.5-4.9
								c0.5-2.5-0.6-5.4-3.5-6.1v-0.5h48.8v-99.4h-48.5v-0.7c1.9-0.5,3.5-2.1,3.4-4.6c-0.2-8.1,0.5-16.1-1.5-24
								c-0.1-0.4-0.3-0.8-0.4-1.2c2.8-8.1,5.2-17.1,4.7-25.7c-0.2-4.4-0.8-8.8-0.8-13.2c0-4.7,0.3-9.1-0.6-13.7
								c-0.1-0.5-0.2-1-0.4-1.4c2-2.8,3.5-5.8,4.1-9.4c0.9-5.3-0.1-10.8-0.6-16.1c-0.6-5.8-1.6-11.5-2.2-17.3
								c-0.7-6.6-0.5-13.4-0.9-20c-0.1-1.2-0.5-2.2-1.1-2.9c0.3-0.5,0.5-1.1,0.7-1.8c1.9-10.5,1-21.6,0.6-32.3
								c-0.2-5.5-1.1-11-1.4-16.5c-0.3-5.8,0.7-11.4,1.5-17.1c0.1-1.1,0-2-0.4-2.7c0.1-0.2,0.2-0.4,0.3-0.6c0.9-2.4,2.4-3.5,2.1-6.4
								c-0.2-3.1-0.9-6.5-1.6-9.5c-0.9-3.4-2.2-7-2.5-10.5c-0.3-3.3,0.7-6.8,1-10.1c0.1-1.2-0.2-2.2-0.7-3c0.2-0.5,0.3-1.1,0.3-1.7
								c0.2-5,1.6-9.6,1.4-14.6c-0.2-5.5-2-10.4-2.5-15.8c-0.5-5.4,1.5-11.1,2.3-16.4c0.8-5.5,1.3-11,1.1-16.5
								c-0.1-3-2.4-4.6-4.7-4.8v-0.8c3.7-0.9,7.7-2.2,12.1-4.3c0,0,9.5,8.5,9.5,8.5c-0.1-0.1,1.9-4.2,2-4.4c1.4-3.7,2.5-7.5,3-11.4
								c0.7-5.4,0.2-10.9-1.7-16c-4-10.6-13.9-17.5-24.8-19.9v-1.1c2.8-0.3,5.3-2.7,4.1-6.1c-0.6-1.7-0.8-3.4-1.5-5
								c-0.5-1.2-1.5-2.3-1.7-3.6c-0.1-1.2,0.6-3.1,0.8-4.4c0.2-1.9-0.1-3.8-0.2-5.7c-0.2-3.9,1.1-7.9,1.6-11.8
								c0.6-4.4,0.9-8.8,0.9-13.2c0-2.7-1.8-4.3-3.9-4.7v-0.5h80.9v-7.5h5.8v10.6l0,7.1h-37.8V172l-2,16h5.1l2-13.6h25.9l0.7,13.6
								L459.6,188.9z"/>
						</g>
						<g>
							<defs>
								<rect id="SVGID_13_" x="208.4" y="131.1" width="316.2" height="553.9"/>
							</defs>
							<clipPath id="SVGID_14_">
								<use xlink:href="#SVGID_13_"  style="overflow:visible;"/>
							</clipPath>
							<polygon class="st8" points="459.9,148.8 459.9,189 459.6,188.9 459.5,148.8 							"/>
						</g>
						<g>
							<defs>
								<rect id="SVGID_15_" x="208.4" y="131.1" width="316.2" height="553.9"/>
							</defs>
							<clipPath id="SVGID_16_">
								<use xlink:href="#SVGID_15_"  style="overflow:visible;"/>
							</clipPath>
							<path class="st9" d="M459.5,148.8l0.1,40.1l-6.2-1l-0.7-13.6h-25.9l-2,13.6h-5.1l2-16v-23.2H459.5z M452.7,168.9l1.4-17.4
								h-27.6v17.4H452.7z"/>
						</g>
						<g>
							<defs>
								<rect id="SVGID_17_" x="208.4" y="131.1" width="316.2" height="553.9"/>
							</defs>
							<clipPath id="SVGID_18_">
								<use xlink:href="#SVGID_17_"  style="overflow:visible;"/>
							</clipPath>
							<polygon class="st10" points="454.1,151.5 452.7,168.9 426.5,168.9 426.5,151.5 							"/>
						</g>
						<g>
							<defs>
								<rect id="SVGID_19_" x="208.4" y="131.1" width="316.2" height="553.9"/>
							</defs>
							<clipPath id="SVGID_20_">
								<use xlink:href="#SVGID_19_"  style="overflow:visible;"/>
							</clipPath>
							<polygon class="st11" points="419.7,573.7 419.7,673.1 370.9,673.1 371.3,573.7 							"/>
						</g>
						<g>
							<defs>
								<rect id="SVGID_21_" x="208.4" y="131.1" width="316.2" height="553.9"/>
							</defs>
							<clipPath id="SVGID_22_">
								<use xlink:href="#SVGID_21_"  style="overflow:visible;"/>
							</clipPath>
							<path class="st12" d="M397.3,214.7c1.9,5.1,2.4,10.6,1.7,16c-0.5,3.9-1.5,7.7-3,11.4c-0.1,0.3-2.1,4.4-2,4.4
								c0,0-9.5-8.5-9.5-8.5c-4.4,2.1-8.4,3.5-12.1,4.3v-0.6c0.7-0.4,1.4-0.9,2-1.8c1.4-2.1,1.4-5.2,1.3-7.7c0-1.6-0.4-2.8-0.9-4.3
								c-0.8-2.2-0.7-3.3-0.3-5.6c1.3-6.7,2-14.2,1-21.1c0.7-2.4-0.3-5.4-2.9-6.3v-0.3C383.4,197.2,393.3,204.1,397.3,214.7"/>
						</g>
						<g>
							<defs>
								<rect id="SVGID_23_" x="208.4" y="131.1" width="316.2" height="553.9"/>
							</defs>
							<clipPath id="SVGID_24_">
								<use xlink:href="#SVGID_23_"  style="overflow:visible;"/>
							</clipPath>
							<path class="st13" d="M379.2,463.7c0.5,5.3,1.5,10.8,0.6,16.1c-0.6,3.5-2.1,6.5-4.1,9.4c0.2,0.4,0.3,0.8,0.4,1.4
								c0.8,4.6,0.5,9,0.6,13.7c0,4.4,0.6,8.8,0.8,13.2c0.4,8.6-2,17.5-4.7,25.7c0.2,0.3,0.3,0.7,0.4,1.2c1.9,8,1.3,15.9,1.5,24
								c0.1,2.6-1.5,4.1-3.4,4.6c-0.8,0.2-1.7,0.3-2.5,0.1c-2.1-0.4-4-2-4-4.7c-0.2-7.2,0.6-14.4-1.1-21.4c-0.2-0.8-0.2-1.6-0.1-2.2
								c-0.7-1-1-2.4-0.5-4c2.5-7.4,4.8-15.5,4.4-23.3c-0.2-3.8-0.6-7.6-0.8-11.4c-0.1-4.3,0.5-8.6-0.2-12.9c-0.1-0.8-0.1-1.5,0-2.2
								c-0.7-0.8-1.1-1.9-1.1-3c0.1-5.5,0.6-11,0.3-16.5c-0.3-5.2-1.7-9.9-0.8-15.1c0.4-2,1.6-3.1,3-3.5c-0.9-8.9-1.3-17.6-1.9-26.6
								c-0.1-1.3,0.3-2.4,0.9-3.2c-0.9-1.1-1.3-2.5-1-4.1c1.8-10,0.6-21.3,0.1-31.4c-0.3-5.6-1.3-11.1-1.4-16.6
								c-0.1-5.1,0.9-10.2,1.6-15.2c0.1-0.7,0.3-1.3,0.6-1.9c-0.8-1-1-2.4-0.4-4.1c1-2.7,1.6-3.2,1.2-6.1c-0.5-3.3-1.2-6.5-2-9.8
								c-0.7-2.9-1.6-5.9-1.6-8.9c0-3.1,0.8-6.1,1.1-9.2c0.1-0.6,0.2-1.2,0.5-1.8c-0.5-0.8-0.9-1.7-0.8-3c0.2-5.3,1.5-10.1,1.3-15.4
								c-0.2-5.2-2.2-10-2.5-15.1c-0.3-5.4,1.4-10.9,2.3-16.2c0.9-5.5,1.4-11,1.1-16.5c-0.1-2.4,1.3-4,3-4.5
								c0.7-0.2,1.5-0.3,2.2-0.3c2.3,0.2,4.6,1.8,4.7,4.8c0.2,5.6-0.3,11-1.1,16.5c-0.8,5.3-2.8,11.1-2.3,16.4
								c0.5,5.3,2.3,10.3,2.5,15.8c0.2,5-1.2,9.6-1.4,14.6c0,0.6-0.1,1.2-0.3,1.7c0.5,0.8,0.8,1.8,0.7,3c-0.3,3.3-1.3,6.8-1,10.1
								c0.3,3.5,1.6,7.1,2.5,10.5c0.8,3,1.4,6.4,1.6,9.5c0.2,3-1.2,4-2.1,6.4c-0.1,0.2-0.2,0.4-0.3,0.6c0.4,0.7,0.6,1.6,0.4,2.7
								c-0.8,5.7-1.8,11.3-1.5,17.1c0.3,5.5,1.2,11,1.4,16.5c0.4,10.6,1.4,21.8-0.6,32.3c-0.1,0.7-0.4,1.3-0.7,1.8
								c0.6,0.8,1,1.7,1.1,2.9c0.5,6.7,0.2,13.4,0.9,20C377.6,452.2,378.6,457.9,379.2,463.7"/>
						</g>
						<g>
							<defs>
								<rect id="SVGID_25_" x="208.4" y="131.1" width="316.2" height="553.9"/>
							</defs>
							<clipPath id="SVGID_26_">
								<use xlink:href="#SVGID_25_"  style="overflow:visible;"/>
							</clipPath>
							<path class="st14" d="M376.7,187.6c1.1,3.4-1.4,5.7-4.1,6.1c-0.7,0.1-1.5,0.1-2.2-0.1c-1.4-0.4-2.7-1.4-3.3-3.3
								c-1-3-2.7-6.1-3.3-9.2c-0.6-3.5,0.8-7,0.5-10.5c-0.4-4.5,0.6-8.5,1.3-12.9c0.7-4.6,1-9.1,1-13.7c0-2.8,1.9-4.4,4-4.7
								c0.7-0.1,1.4-0.1,2.1,0c2.1,0.4,3.9,2,3.9,4.7c0,4.4-0.3,8.8-0.9,13.2c-0.5,3.9-1.7,7.9-1.6,11.8c0.1,1.9,0.4,3.8,0.2,5.7
								c-0.1,1.2-0.9,3.2-0.8,4.4c0.1,1.3,1.2,2.4,1.7,3.6C375.9,184.2,376.1,185.9,376.7,187.6"/>
						</g>
						<g>
							<defs>
								<rect id="SVGID_27_" x="208.4" y="131.1" width="316.2" height="553.9"/>
							</defs>
							<clipPath id="SVGID_28_">
								<use xlink:href="#SVGID_27_"  style="overflow:visible;"/>
							</clipPath>
							<path class="st15" d="M375.7,232.2c0.1,2.5,0.2,5.6-1.3,7.7c-0.6,0.8-1.3,1.4-2,1.8c-0.7,0.4-1.5,0.5-2.2,0.5
								c-3.5,0-6.9-3.6-4.4-7.3c-1.1,1.6,0-0.9-0.1-2.1c-0.1-0.8-0.3-1.1-0.5-1.8c-0.8-3.2-1.5-5.3-0.9-8.8
								c1.2-6.6,2.6-14.1,1.1-20.8c-0.5-2.1,0.4-3.9,1.7-4.9c0.7-0.9,1.8-1.6,3.3-1.8c0.1,0,0.3,0,0.5,0c0.6,0,1.2,0.1,1.7,0.3
								c2.6,0.9,3.6,3.8,2.9,6.3c1,6.9,0.3,14.4-1,21.1c-0.4,2.3-0.5,3.4,0.3,5.6C375.2,229.4,375.6,230.6,375.7,232.2"/>
						</g>
						<g>
							<defs>
								<rect id="SVGID_29_" x="208.4" y="131.1" width="316.2" height="553.9"/>
							</defs>
							<clipPath id="SVGID_30_">
								<use xlink:href="#SVGID_29_"  style="overflow:visible;"/>
							</clipPath>
							<path class="st16" d="M370.9,673.6c2.9,0.7,4,3.6,3.5,6.1c0,2.2-1.1,4.3-3.5,4.9c-0.4,0.1-0.8,0.2-1.3,0.2
								c-0.5,0-0.9-0.1-1.3-0.2c-2.8-0.7-3.9-3.6-3.4-6c0-2.1,1.1-4.3,3.4-4.9c0.4-0.1,0.9-0.2,1.4-0.2
								C370.1,673.5,370.6,673.5,370.9,673.6"/>
						</g>
						<g>
							<defs>
								<rect id="SVGID_31_" x="208.4" y="131.1" width="316.2" height="553.9"/>
							</defs>
							<clipPath id="SVGID_32_">
								<use xlink:href="#SVGID_31_"  style="overflow:visible;"/>
							</clipPath>
							<path class="st17" d="M372.8,138.6v0.5c-0.7-0.1-1.4-0.2-2.1,0v-0.5C370.6,138.6,372.8,138.6,372.8,138.6z"/>
						</g>
						<g>
							<defs>
								<rect id="SVGID_33_" x="208.4" y="131.1" width="316.2" height="553.9"/>
							</defs>
							<clipPath id="SVGID_34_">
								<use xlink:href="#SVGID_33_"  style="overflow:visible;"/>
							</clipPath>
							<path class="st18" d="M372.6,194.8v0.3c-0.5-0.2-1.1-0.3-1.7-0.3c-0.2,0-0.3,0-0.5,0v-0.4
								C371.1,194.5,371.8,194.6,372.6,194.8"/>
						</g>
						<g>
							<defs>
								<rect id="SVGID_35_" x="208.4" y="131.1" width="316.2" height="553.9"/>
							</defs>
							<clipPath id="SVGID_36_">
								<use xlink:href="#SVGID_35_"  style="overflow:visible;"/>
							</clipPath>
							<path class="st19" d="M372.6,193.6v1.1c-0.7-0.2-1.5-0.3-2.2-0.4l0-0.8C371.1,193.7,371.8,193.7,372.6,193.6"/>
						</g>
						<g>
							<defs>
								<rect id="SVGID_37_" x="208.4" y="131.1" width="316.2" height="553.9"/>
							</defs>
							<clipPath id="SVGID_38_">
								<use xlink:href="#SVGID_37_"  style="overflow:visible;"/>
							</clipPath>
							<path class="st20" d="M372.4,242.3v0.8c-0.8-0.1-1.5,0-2.2,0.3v-0.6c0,0,0,0,0,0C370.9,242.6,371.7,242.5,372.4,242.3"/>
						</g>
						<g>
							<defs>
								<rect id="SVGID_39_" x="208.4" y="131.1" width="316.2" height="553.9"/>
							</defs>
							<clipPath id="SVGID_40_">
								<use xlink:href="#SVGID_39_"  style="overflow:visible;"/>
							</clipPath>
							<path class="st21" d="M372.4,241.7v0.6c-0.8,0.2-1.5,0.3-2.2,0.4v-0.6C370.9,242.2,371.7,242,372.4,241.7"/>
						</g>
						<g>
							<defs>
								<rect id="SVGID_41_" x="208.4" y="131.1" width="316.2" height="553.9"/>
							</defs>
							<clipPath id="SVGID_42_">
								<use xlink:href="#SVGID_41_"  style="overflow:visible;"/>
							</clipPath>
							<path class="st22" d="M371.3,572.9v0.7h-2.5V573C369.6,573.2,370.5,573.2,371.3,572.9"/>
						</g>
						<g>
							<defs>
								<rect id="SVGID_43_" x="208.4" y="131.1" width="316.2" height="553.9"/>
							</defs>
							<clipPath id="SVGID_44_">
								<use xlink:href="#SVGID_43_"  style="overflow:visible;"/>
							</clipPath>
							<polygon class="st23" points="371.3,573.7 370.9,673.1 368.3,673.1 368.7,573.7 							"/>
						</g>
						<g>
							<defs>
								<rect id="SVGID_45_" x="208.4" y="131.1" width="316.2" height="553.9"/>
							</defs>
							<clipPath id="SVGID_46_">
								<use xlink:href="#SVGID_45_"  style="overflow:visible;"/>
							</clipPath>
							<path class="st24" d="M370.9,673.1v0.5c-0.4-0.1-0.8-0.1-1.2-0.1c-0.5,0-1,0.1-1.4,0.2v-0.6L370.9,673.1L370.9,673.1z"/>
						</g>
						<g>
							<defs>
								<rect id="SVGID_47_" x="208.4" y="131.1" width="316.2" height="553.9"/>
							</defs>
							<clipPath id="SVGID_48_">
								<use xlink:href="#SVGID_47_"  style="overflow:visible;"/>
							</clipPath>
							<path class="st25" d="M370.9,684.6v0.4h-2.6v-0.4c0.4,0.1,0.9,0.2,1.3,0.2C370.1,684.8,370.5,684.7,370.9,684.6"/>
						</g>
						<g>
							<defs>
								<rect id="SVGID_49_" x="208.4" y="131.1" width="316.2" height="553.9"/>
							</defs>
							<clipPath id="SVGID_50_">
								<use xlink:href="#SVGID_49_"  style="overflow:visible;"/>
							</clipPath>
							<path class="st26" d="M370.6,138.6v0.5c-2.1,0.4-4,2-4,4.7c0,4.6-0.3,9.2-1,13.7c-0.7,4.4-1.7,8.4-1.3,12.9
								c0.3,3.6-1.1,7-0.5,10.5c0.6,3.1,2.3,6.2,3.3,9.2c0.6,1.8,1.9,2.9,3.3,3.3l0,0.8c-6.1-1-12.4-0.6-18,1.2
								c-10.5,3.5-19.5,11.5-22.5,22.3c-2.7,9.8-1.5,20.3,4.9,28.5c0,0.1,0.7,0.9,0.7,0.9l9.5-9.2c0,0,8.7,7.7,25.1,4.8v0.6
								c-1.8,0.6-3.1,2.1-3,4.5c0.2,5.6-0.2,11-1.1,16.5c-0.9,5.3-2.6,10.8-2.3,16.2c0.3,5.2,2.3,9.9,2.5,15.1
								c0.2,5.3-1.2,10.2-1.3,15.4c0,1.2,0.3,2.2,0.8,3c-0.2,0.5-0.4,1.1-0.5,1.8c-0.3,3.1-1.1,6.1-1.1,9.2c0,3,0.9,6,1.6,8.9
								c0.8,3.3,1.6,6.4,2,9.8c0.4,2.9-0.2,3.4-1.2,6.1c-0.6,1.6-0.4,3,0.4,4.1c-0.3,0.5-0.5,1.2-0.6,1.9c-0.7,5-1.6,10.1-1.6,15.2
								c0.1,5.6,1.1,11.1,1.4,16.6c0.5,10.1,1.7,21.4-0.1,31.4c-0.3,1.7,0.1,3.1,1,4.1c-0.6,0.8-1,1.8-0.9,3.2
								c0.6,9,1.1,17.7,1.9,26.6c-1.5,0.4-2.7,1.5-3,3.5c-0.9,5.2,0.5,9.9,0.8,15.1c0.3,5.5-0.3,11-0.3,16.5c0,1.1,0.4,2.1,1.1,3
								c-0.2,0.7-0.2,1.4,0,2.2c0.7,4.3,0.1,8.6,0.2,12.9c0.1,3.8,0.6,7.6,0.8,11.4c0.4,7.8-1.9,15.9-4.4,23.3c-0.5,1.6-0.3,3,0.5,4
								c-0.1,0.7-0.1,1.4,0.1,2.2c1.7,7,0.9,14.2,1.1,21.4c0.1,2.8,1.9,4.3,4,4.7v0.7h-48.4v99.4h48v0.6c-2.3,0.6-3.5,2.8-3.4,4.9
								c-0.5,2.5,0.6,5.3,3.4,6v0.4h-88.8v-3.8c-3.8-2.4-4.4-8.8-4.4-8.8l-2.7-8.9l1.4-521.9v-10.6h5.8v7.5L370.6,138.6L370.6,138.6
								z M313.9,188l-2-16v-23.2h-38.1V189l6.5-1l0.7-13.6h25.9l2,13.6H313.9z"/>
						</g>
						<g>
							<defs>
								<rect id="SVGID_51_" x="208.4" y="131.1" width="316.2" height="553.9"/>
							</defs>
							<clipPath id="SVGID_52_">
								<use xlink:href="#SVGID_51_"  style="overflow:visible;"/>
							</clipPath>
							<path class="st27" d="M370.4,194.3v0.4c-1.5,0.1-2.6,0.8-3.3,1.8c-1.3,1.1-2.1,2.8-1.7,4.9c1.4,6.7,0.1,14.2-1.1,20.8
								c-0.6,3.5,0,5.6,0.9,8.8c0.2,0.8,0.4,1.1,0.5,1.8c0.1,1.1-1,3.6,0.1,2.1c-2.5,3.7,0.9,7.3,4.4,7.3v0.6c0,0,0,0,0,0
								c-16.5,3-25.1-4.8-25.1-4.8l-9.5,9.2c0,0-0.7-0.8-0.7-0.9c-6.4-8.2-7.6-18.7-4.9-28.5c3-10.8,12-18.8,22.5-22.3
								C358,193.7,364.3,193.3,370.4,194.3"/>
						</g>
						<g>
							<defs>
								<rect id="SVGID_53_" x="208.4" y="131.1" width="316.2" height="553.9"/>
							</defs>
							<clipPath id="SVGID_54_">
								<use xlink:href="#SVGID_53_"  style="overflow:visible;"/>
							</clipPath>
							<polygon class="st28" points="368.7,573.7 368.3,673.1 320.3,673.1 320.3,573.7 							"/>
						</g>
						<g>
							<defs>
								<rect id="SVGID_55_" x="208.4" y="131.1" width="316.2" height="553.9"/>
							</defs>
							<clipPath id="SVGID_56_">
								<use xlink:href="#SVGID_55_"  style="overflow:visible;"/>
							</clipPath>
							<path class="st29" d="M311.8,172l2,16h-5.1l-2-13.6h-25.9l-0.7,13.6l-6.5,1v-40.2h38.1L311.8,172L311.8,172z M307.1,168.9
								v-17.4h-27.6l1.4,17.4H307.1z"/>
						</g>
						<g>
							<defs>
								<rect id="SVGID_57_" x="208.4" y="131.1" width="316.2" height="553.9"/>
							</defs>
							<clipPath id="SVGID_58_">
								<use xlink:href="#SVGID_57_"  style="overflow:visible;"/>
							</clipPath>
							<polygon class="st30" points="307.1,151.5 307.1,168.9 280.9,168.9 279.5,151.5 							"/>
						</g>
						<g>
							<defs>
								<rect id="SVGID_59_" x="208.4" y="131.1" width="316.2" height="553.9"/>
							</defs>
							<clipPath id="SVGID_60_">
								<use xlink:href="#SVGID_59_"  style="overflow:visible;"/>
							</clipPath>
							<polygon class="st31" points="273.7,141.7 272.3,663.5 228.1,663.5 223.7,141.7 							"/>
						</g>
						<g>
							<defs>
								<rect id="SVGID_61_" x="208.4" y="131.1" width="316.2" height="553.9"/>
							</defs>
							<clipPath id="SVGID_62_">
								<use xlink:href="#SVGID_61_"  style="overflow:visible;"/>
							</clipPath>
							<path class="st32" d="M224.2,225.5l3,357.8l-6.8-3.9l-5.1,2.6c0,0,9.5,5.1-0.9,0c-10.4-5.1,0.5-18.6,0.5-18.6l4.9,3.4
								l0.2-13.3l-3.8,3.2c-0.3-0.2-0.6-0.4-0.9-0.7c-9-6.3-0.3-17.9-0.3-17.9l4.1,3.1l0.3-14.6l-4.8,3.4c-10-7.8-0.3-19.4-0.3-19.4
								l4.4,2.9l-0.3-12.9l-4.8,1.9c-8.2-9.4-0.2-23.1-0.2-23.1l4.1,5.1l-0.2-14l-4.8,2c-5.8-8.7,0.5-18.7,0.5-18.7l3.1,2.2v-7.8
								l-3.5,2.5c-6.6-6.5,0.9-11.6,0.9-11.6l2.9,1.3l-0.3-7l-3.4,2.7c-7.6-13,0-23.6,0-23.6l3.4,1.5v-7.8l-3.3,1.8
								c-6.6-12.2,0-22.7,0-22.7l3.6,1.8l0.2-8.2l-3.7,1.8c-5-8.4,0-21.4,0-21.4l4.1,2.1l0.2-8.4l-3.9,1.5c-6.3-9.9,0-21.3,0-21.3
								l3.8,1.4l-0.1-8.2l-3.6,1.6c-10.9-9.5,0-20.7,0-20.7l2.9,2.3v-8.5l-3.1,2c-11.2-16.2-0.1-25.9-0.1-25.9l3.4,1.4v-6.2
								l-3.2,1.4c-9.5-11.2,0-24,0-24l3.1,1.1l0.1-4.5l-3.1,1.4c-6.5-11.6,0-28.6,0-28.6L224.2,225.5z"/>
						</g>
						<g>
							<defs>
								<rect id="SVGID_63_" x="208.4" y="131.1" width="316.2" height="553.9"/>
							</defs>
							<clipPath id="SVGID_64_">
								<use xlink:href="#SVGID_63_"  style="overflow:visible;"/>
							</clipPath>
							<path class="st33" d="M216.3,556.7c2.1,1.5,3.1,2.1,3.3,2.3C219.2,558.7,216.3,556.7,216.3,556.7L216.3,556.7z"/>
						</g>
					</g>
				</g>
			</g>
		</g>
		<g>
			<defs>
				<rect id="SVGID_65_" x="6.5" y="48.1" width="720" height="720"/>
			</defs>
			<clipPath id="SVGID_66_">
				<use xlink:href="#SVGID_65_"  style="overflow:visible;"/>
			</clipPath>
			<path class="st34" d="M370.6,138.6h-91.1v-7.5h-5.8v10.6h-50l4.4,521.9h44.3l2.7,8.9c0,0,0.7,6.5,4.4,8.8v3.8h88.8"/>
		</g>
		<g>
			<defs>
				<rect id="SVGID_67_" x="6.5" y="48.1" width="720" height="720"/>
			</defs>
			<clipPath id="SVGID_68_">
				<use xlink:href="#SVGID_67_"  style="overflow:visible;"/>
			</clipPath>
			<path class="st35" d="M505.8,585.6l-0.7,78h-44.3l-2.7,8.9c0,0-0.7,6.5-4.4,8.8v3.8h-82.8h-2.6"/>
		</g>
		<g>
			<defs>
				<rect id="SVGID_69_" x="6.5" y="48.1" width="720" height="720"/>
			</defs>
			<clipPath id="SVGID_70_">
				<use xlink:href="#SVGID_69_"  style="overflow:visible;"/>
			</clipPath>
			<polyline class="st36" points="370.6,138.6 372.8,138.6 453.7,138.6 453.7,131.1 459.5,131.1 459.5,141.7 509.5,141.7 
				508.8,227.8 			"/>
		</g>
		<g>
			<defs>
				<rect id="SVGID_71_" x="6.5" y="48.1" width="720" height="720"/>
			</defs>
			<clipPath id="SVGID_72_">
				<use xlink:href="#SVGID_71_"  style="overflow:visible;"/>
			</clipPath>
			<line class="st37" x1="273.7" y1="141.7" x2="272.3" y2="663.5"/>
		</g>
		<g>
			<defs>
				<rect id="SVGID_73_" x="6.5" y="48.1" width="720" height="720"/>
			</defs>
			<clipPath id="SVGID_74_">
				<use xlink:href="#SVGID_73_"  style="overflow:visible;"/>
			</clipPath>
			<line class="st38" x1="459.5" y1="148.8" x2="459.5" y2="141.7"/>
		</g>
		<g>
			<defs>
				<rect id="SVGID_75_" x="6.5" y="48.1" width="720" height="720"/>
			</defs>
			<clipPath id="SVGID_76_">
				<use xlink:href="#SVGID_75_"  style="overflow:visible;"/>
			</clipPath>
			<line class="st39" x1="460.8" y1="663.5" x2="459.6" y2="188.9"/>
		</g>
		<g>
			<defs>
				<rect id="SVGID_77_" x="6.5" y="48.1" width="720" height="720"/>
			</defs>
			<clipPath id="SVGID_78_">
				<use xlink:href="#SVGID_77_"  style="overflow:visible;"/>
			</clipPath>
			<polygon class="st40" points="273.7,148.8 311.8,148.8 311.8,172 313.9,188 308.8,188 306.7,174.4 280.9,174.4 280.2,188 
				273.7,189 			"/>
		</g>
		<g>
			<defs>
				<rect id="SVGID_79_" x="6.5" y="48.1" width="720" height="720"/>
			</defs>
			<clipPath id="SVGID_80_">
				<use xlink:href="#SVGID_79_"  style="overflow:visible;"/>
			</clipPath>
			<polygon class="st41" points="279.5,151.5 280.9,168.9 307.1,168.9 307.1,151.5 			"/>
		</g>
		<g>
			<defs>
				<rect id="SVGID_81_" x="6.5" y="48.1" width="720" height="720"/>
			</defs>
			<clipPath id="SVGID_82_">
				<use xlink:href="#SVGID_81_"  style="overflow:visible;"/>
			</clipPath>
			<polygon class="st42" points="459.6,188.9 459.9,189 459.9,148.8 459.5,148.8 421.7,148.8 421.7,172 419.7,188 424.8,188 
				426.9,174.4 452.7,174.4 453.4,188 			"/>
		</g>
		<g>
			<defs>
				<rect id="SVGID_83_" x="6.5" y="48.1" width="720" height="720"/>
			</defs>
			<clipPath id="SVGID_84_">
				<use xlink:href="#SVGID_83_"  style="overflow:visible;"/>
			</clipPath>
			<polygon class="st43" points="454.1,151.5 452.7,168.9 426.5,168.9 426.5,151.5 			"/>
		</g>
		<g>
			<defs>
				<rect id="SVGID_85_" x="6.5" y="48.1" width="720" height="720"/>
			</defs>
			<clipPath id="SVGID_86_">
				<use xlink:href="#SVGID_85_"  style="overflow:visible;"/>
			</clipPath>
			<path class="st44" d="M513.5,561.2c0.6-0.4,3.2-2.2,3.2-2.2l0,0l-3.8-3.2l0.2,13.3l4.9-3.4c0,0,10.9,13.4,0.5,18.5
				c-10.4,5.1-0.9,0-0.9,0l-5.1-2.5l-6.8,3.9"/>
		</g>
		<g>
			<defs>
				<rect id="SVGID_87_" x="6.5" y="48.1" width="720" height="720"/>
			</defs>
			<clipPath id="SVGID_88_">
				<use xlink:href="#SVGID_87_"  style="overflow:visible;"/>
			</clipPath>
			<path class="st45" d="M508.8,227.8l10.7-6.1c0,0,6.5,17,0,28.6l-3.1-1.4l0,4.5l3.1-1.1c0,0,9.5,12.8,0,24l-3.2-1.4v6.2l3.4-1.4
				c0,0,11.2,9.7,0,25.9l-3.1-2v8.5l2.9-2.3c0,0,10.9,11.1,0,20.7l-3.6-1.6l-0.1,8.2l3.8-1.4c0,0,6.3,11.4,0,21.3l-4-1.5l0.2,8.4
				l4.1-2.1c0,0,5,13,0,21.4l-3.7-1.8l0.2,8.2l3.6-1.8c0,0,6.6,10.5,0,22.7l-3.3-1.8v7.8l3.4-1.5c0,0,7.6,10.6,0,23.6l-3.4-2.7
				l-0.3,7l2.9-1.3c0,0,7.5,5.1,0.9,11.6l-3.5-2.5v7.8l3.2-2.2c0,0,6.3,10,0.5,18.7l-4.8-2l-0.2,14l4.1-5.1c0,0,8,13.8-0.2,23.1
				l-4.8-1.9l-0.3,12.9l4.4-2.9c0,0,9.7,11.6-0.3,19.4l-4.8-3.4l0.3,14.6l4.1-3.1c0,0,8.7,11.6-0.3,17.9c-0.3,0.2-0.7,0.5-1,0.7
				c-1.9,1.3-2.8,2-3.2,2.2l0,0c0,0,0,0,0,0c-0.1,0-0.1,0.1-0.1,0.1"/>
		</g>
		<g>
			<defs>
				<rect id="SVGID_89_" x="6.5" y="48.1" width="720" height="720"/>
			</defs>
			<clipPath id="SVGID_90_">
				<use xlink:href="#SVGID_89_"  style="overflow:visible;"/>
			</clipPath>
			<path class="st46" d="M219.6,559c-0.4-0.3-3.3-2.3-3.3-2.3l0,0l3.8-3.2l-0.2,13.3l-4.9-3.4c0,0-10.9,13.5-0.5,18.6
				c10.4,5.1,0.9,0,0.9,0l5.1-2.6l6.8,3.9"/>
		</g>
		<g>
			<defs>
				<rect id="SVGID_91_" x="6.5" y="48.1" width="720" height="720"/>
			</defs>
			<clipPath id="SVGID_92_">
				<use xlink:href="#SVGID_91_"  style="overflow:visible;"/>
			</clipPath>
			<path class="st47" d="M224.2,225.5l-10.7-6.1c0,0-6.5,17,0,28.6l3.1-1.4l-0.1,4.5l-3.1-1.1c0,0-9.5,12.8,0,24l3.2-1.4v6.2
				l-3.4-1.4c0,0-11.2,9.7,0.1,25.9l3.1-2v8.5l-2.9-2.3c0,0-10.9,11.1,0,20.7l3.6-1.6l0.1,8.2l-3.8-1.4c0,0-6.3,11.4,0,21.3l3.9-1.5
				l-0.2,8.4l-4.1-2.1c0,0-5,13,0,21.4l3.7-1.8l-0.2,8.2l-3.6-1.8c0,0-6.6,10.5,0,22.7l3.3-1.8v7.8l-3.4-1.5c0,0-7.6,10.6,0,23.6
				l3.4-2.7l0.3,7l-2.9-1.3c0,0-7.5,5.1-0.9,11.6l3.5-2.5v7.8l-3.1-2.2c0,0-6.3,10-0.5,18.7l4.8-2l0.2,14l-4.1-5.1
				c0,0-8,13.8,0.2,23.1l4.8-1.9l0.3,12.9l-4.4-2.9c0,0-9.7,11.6,0.3,19.4l4.8-3.4l-0.3,14.6l-4.1-3.1c0,0-8.7,11.6,0.3,17.9
				c0.3,0.2,0.7,0.5,0.9,0.7c2.1,1.5,3.1,2.1,3.3,2.3l0,0c0,0,0,0,0,0"/>
		</g>
		<g>
			<defs>
				<rect id="SVGID_93_" x="6.5" y="48.1" width="720" height="720"/>
			</defs>
			<clipPath id="SVGID_94_">
				<use xlink:href="#SVGID_93_"  style="overflow:visible;"/>
			</clipPath>
			<polygon class="st48" points="371.3,573.7 419.7,573.7 419.7,673.1 370.9,673.1 368.3,673.1 320.3,673.1 320.3,573.7 
				368.7,573.7 			"/>
		</g>
		<g>
			<defs>
				<rect id="SVGID_95_" x="6.5" y="48.1" width="720" height="720"/>
			</defs>
			<clipPath id="SVGID_96_">
				<use xlink:href="#SVGID_95_"  style="overflow:visible;"/>
			</clipPath>
			<path class="st49" d="M370.2,242.8c0.7-0.1,1.5-0.3,2.2-0.4c3.7-0.9,7.7-2.2,12.1-4.3c0,0,9.5,8.5,9.5,8.5
				c-0.1-0.1,1.9-4.2,2-4.4c1.4-3.7,2.5-7.5,3-11.4c0.7-5.4,0.2-10.9-1.7-16c-4-10.6-13.9-17.5-24.8-19.9c-0.7-0.2-1.5-0.3-2.2-0.4
				c-6.1-1-12.3-0.6-18,1.2c-10.5,3.5-19.5,11.5-22.5,22.3c-2.7,9.8-1.5,20.3,4.9,28.5c0,0.1,0.7,0.9,0.7,0.9l9.5-9.2
				C345,238,353.7,245.7,370.2,242.8"/>
		</g>
	</g>
</g>
<g id="Layer_1">
	<g>
		<g>
			<defs>
				<rect id="SVGID_97_" x="-6.5" y="-48.1" width="720" height="720"/>
			</defs>
			<clipPath id="SVGID_98_">
				<use xlink:href="#SVGID_97_"  style="overflow:visible;"/>
			</clipPath>
			<g class="st50">
				<g>
					<defs>
						<rect id="SVGID_99_" x="237.1" y="27.6" width="258.2" height="532.7"/>
					</defs>
					<clipPath id="SVGID_100_">
						<use xlink:href="#SVGID_99_"  style="overflow:visible;"/>
					</clipPath>
					<g class="st51">
						<g>
							<defs>
								<rect id="SVGID_101_" x="237.1" y="27.6" width="258.2" height="532.7"/>
							</defs>
							<clipPath id="SVGID_102_">
								<use xlink:href="#SVGID_101_"  style="overflow:visible;"/>
							</clipPath>
							<polygon class="st52" points="407.4,363.8 446.9,390.2 446.9,390.2 454.1,399.9 447.1,433.1 416.9,449.5 384.7,445.2 
								367.3,412.3 378.2,381 404.5,362.7 407.4,363.8 							"/>
						</g>
						<g>
							<defs>
								<rect id="SVGID_103_" x="237.1" y="27.6" width="258.2" height="532.7"/>
							</defs>
							<clipPath id="SVGID_104_">
								<use xlink:href="#SVGID_103_"  style="overflow:visible;"/>
							</clipPath>
							<polygon class="st53" points="430.9,286.7 435.4,312 400.9,318.1 396.4,292.9 							"/>
						</g>
						<g>
							<defs>
								<rect id="SVGID_105_" x="237.1" y="27.6" width="258.2" height="532.7"/>
							</defs>
							<clipPath id="SVGID_106_">
								<use xlink:href="#SVGID_105_"  style="overflow:visible;"/>
							</clipPath>
							<polygon class="st54" points="412.8,347.5 454.8,365.9 446.9,390.2 446.9,390.2 434.9,373.9 407.4,363.8 407.4,363.8 							
								"/>
						</g>
						<g>
							<defs>
								<rect id="SVGID_107_" x="237.1" y="27.6" width="258.2" height="532.7"/>
							</defs>
							<clipPath id="SVGID_108_">
								<use xlink:href="#SVGID_107_"  style="overflow:visible;"/>
							</clipPath>
							<polygon class="st55" points="407.4,363.8 434.9,373.9 446.9,390.2 							"/>
						</g>
						<g>
							<defs>
								<rect id="SVGID_109_" x="237.1" y="27.6" width="258.2" height="532.7"/>
							</defs>
							<clipPath id="SVGID_110_">
								<use xlink:href="#SVGID_109_"  style="overflow:visible;"/>
							</clipPath>
							<polygon class="st56" points="392.3,263.8 392.3,263.8 387.5,264.5 387.4,263.9 							"/>
						</g>
						<g>
							<defs>
								<rect id="SVGID_111_" x="237.1" y="27.6" width="258.2" height="532.7"/>
							</defs>
							<clipPath id="SVGID_112_">
								<use xlink:href="#SVGID_111_"  style="overflow:visible;"/>
							</clipPath>
							<polygon class="st57" points="376.9,240.4 376.8,246.8 364.2,247.1 364.1,238.9 374.1,238.7 							"/>
						</g>
						<g>
							<defs>
								<rect id="SVGID_113_" x="237.1" y="27.6" width="258.2" height="532.7"/>
							</defs>
							<clipPath id="SVGID_114_">
								<use xlink:href="#SVGID_113_"  style="overflow:visible;"/>
							</clipPath>
							<path class="st58" d="M371,152.6l4.8,6l-0.2,27.7l-4.1,5.5l-8.1,0.1l0-1c3.1-0.4,5.7-4.1,4-7.2c0,0,0,0,0,0
								c0-0.1-0.1-0.1-0.1-0.3c0,0,0,0,0,0c0,0,0,0,0,0c0-0.1,0-0.3,0-0.4c0.1-1-0.1-2.3-0.1-3.3c0-1.7,0-3.4-0.1-5
								c-0.1-6.1,2-11.6-0.2-17.6c-0.7-2-2.3-3.1-4-3.3l0-1L371,152.6z"/>
						</g>
						<g>
							<defs>
								<rect id="SVGID_115_" x="237.1" y="27.6" width="258.2" height="532.7"/>
							</defs>
							<clipPath id="SVGID_116_">
								<use xlink:href="#SVGID_115_"  style="overflow:visible;"/>
							</clipPath>
							<path class="st59" d="M373.9,483.8c1.8,6.1-0.1,12.1-0.9,18.2c-0.8,6.9,0,13.9,0.6,20.8c0.6,6.9,0.4,13.7-0.3,20.6
								c-0.3,3-2.7,4.5-5,4.7c0,0-0.1,0-0.1,0c-2.6,0.2-5.2-1.4-4.9-4.8c0.8-6.9,0.9-13.7,0.3-20.6c-0.5-6.3-1.3-12.6-0.8-18.9
								c0.4-6,3.3-12.9,1-18.7c-0.8-2.1-2-3.8-2.1-6.1c-0.1-2.7,1.2-5,0.7-7.7c-0.6-3.4,1.9-5.8,4.6-6.2c2.2-0.4,4.5,0.7,5,3.5
								c0.6,3.2,0.3,5.6,0,8.8C371.9,479.8,373.2,481.3,373.9,483.8"/>
						</g>
						<g>
							<defs>
								<rect id="SVGID_117_" x="237.1" y="27.6" width="258.2" height="532.7"/>
							</defs>
							<clipPath id="SVGID_118_">
								<use xlink:href="#SVGID_117_"  style="overflow:visible;"/>
							</clipPath>
							<path class="st60" d="M371.5,208.3c0.3,1.8,1.1,4.8,3.4,6.1c3.3,1.9-1.4,3.8-1.4,3.8l0.6,20.6l-10,0.2l0-1.4
								c2.2-0.3,4.3-1.9,4.5-4.8c0.4-7.7,1-15.4,0.9-23.1c0-0.3,0-0.6-0.1-0.9L371.5,208.3z"/>
						</g>
						<g>
							<defs>
								<rect id="SVGID_119_" x="237.1" y="27.6" width="258.2" height="532.7"/>
							</defs>
							<clipPath id="SVGID_120_">
								<use xlink:href="#SVGID_119_"  style="overflow:visible;"/>
							</clipPath>
							<path class="st61" d="M369.3,208.7c-0.2-0.9-0.5-1.6-1-2.2c0.1-0.3,0.1-0.6,0.1-1c0-2.7-0.3-5.4-0.3-8.2c0-2.5-2-4.8-4.5-5
								l0-0.4l8.1-0.1l-0.2,15.1c0,0,0,0.5,0.2,1.3L369.3,208.7z"/>
						</g>
						<g>
							<defs>
								<rect id="SVGID_121_" x="237.1" y="27.6" width="258.2" height="532.7"/>
							</defs>
							<clipPath id="SVGID_122_">
								<use xlink:href="#SVGID_121_"  style="overflow:visible;"/>
							</clipPath>
							<path class="st62" d="M368.3,549.9c5.9,0.4,6,9.4,0.1,10l0,0.4h-0.2l0-0.4c-0.1,0-0.2,0-0.3,0c-6.5,0-6.4-10,0-10
								c0.1,0,0.1,0,0.2,0v-0.4l0.1,0L368.3,549.9z"/>
						</g>
						<g>
							<defs>
								<rect id="SVGID_123_" x="237.1" y="27.6" width="258.2" height="532.7"/>
							</defs>
							<clipPath id="SVGID_124_">
								<use xlink:href="#SVGID_123_"  style="overflow:visible;"/>
							</clipPath>
							<path class="st63" d="M368.3,548.2l0,1.3l-0.1,0l0-1.3C368.2,548.2,368.3,548.2,368.3,548.2"/>
						</g>
						<g>
							<defs>
								<rect id="SVGID_125_" x="237.1" y="27.6" width="258.2" height="532.7"/>
							</defs>
							<clipPath id="SVGID_126_">
								<use xlink:href="#SVGID_125_"  style="overflow:visible;"/>
							</clipPath>
							<path class="st64" d="M368.2,256.3c-0.1,1.4-0.2,2.9-0.7,4.2c-0.6,1.6-1.7,2.8-3.1,3.3c-0.1,0.1-0.3,0.1-0.4,0.1
								c-0.8,0.2-1.7,0.3-2.7,0c-2.5-0.6-4.4-3.7-3.5-6.2c0.1-0.2,0.3-1.3,0.3-1.1c0-0.4,0-0.9,0-1.3c0-1.4,0.1-2.8,0.3-4.2
								c0.3-2.4,3-3.7,5.2-3.6c0.1,0,0.3,0,0.4,0c0.2,0,0.3,0,0.5,0.1c2.9,0.7,3.9,3.6,3.5,6.1c0.2-1.4,0.1,0.4,0.1,0.7
								C368.2,255.1,368.2,255.7,368.2,256.3"/>
						</g>
						<g>
							<defs>
								<rect id="SVGID_127_" x="237.1" y="27.6" width="258.2" height="532.7"/>
							</defs>
							<clipPath id="SVGID_128_">
								<use xlink:href="#SVGID_127_"  style="overflow:visible;"/>
							</clipPath>
							<path class="st65" d="M369,268.8c-0.2-2.2-1.8-4.3-4.6-4.4v0l23-0.4l0.1,0.5l4.9-0.6l-0.4,34.5l-27,1l0-0.8
								c2.7-0.4,5.3-2.7,4.5-6.2c-0.7-2.8,0.8-6.4,0.9-9.3c0.1-3.7-0.3-7.3-0.2-11C370.1,270.6,369.7,269.5,369,268.8"/>
						</g>
						<g>
							<defs>
								<rect id="SVGID_129_" x="237.1" y="27.6" width="258.2" height="532.7"/>
							</defs>
							<clipPath id="SVGID_130_">
								<use xlink:href="#SVGID_129_"  style="overflow:visible;"/>
							</clipPath>
							<path class="st66" d="M367.5,183.7c0.2,0.4-0.1,0.4-0.1-0.3C367.4,183.5,367.5,183.6,367.5,183.7
								C367.5,183.7,367.5,183.7,367.5,183.7"/>
						</g>
						<g>
							<defs>
								<rect id="SVGID_131_" x="237.1" y="27.6" width="258.2" height="532.7"/>
							</defs>
							<clipPath id="SVGID_132_">
								<use xlink:href="#SVGID_131_"  style="overflow:visible;"/>
							</clipPath>
							<path class="st67" d="M368.2,112.6c-0.5-5.8-2.6-10.6-1.4-16.4c1.3-6-0.1-12.1,0.5-18.1c0-0.2,0-0.4,0-0.6h0.1l3.5,75.1
								l-8.1,0.1l0-0.8c2.5-0.1,4.8-1.6,4.7-4.8c-0.1-4.4-2.3-9.1-1.4-13.4c0.9-4.8,1.7-8.5,1.3-13.5c-0.1-1.4-0.7-2.6-1.6-3.4
								C367.4,116.2,368.4,114.8,368.2,112.6"/>
						</g>
						<g>
							<defs>
								<rect id="SVGID_133_" x="237.1" y="27.6" width="258.2" height="532.7"/>
							</defs>
							<clipPath id="SVGID_134_">
								<use xlink:href="#SVGID_133_"  style="overflow:visible;"/>
							</clipPath>
							<path class="st68" d="M372.1,468.7c-0.5-2.9-2.8-3.9-5-3.5V465l34.2-1.5l3.6,84.4l-36.6,1.6l0-1.3c2.3-0.2,4.7-1.8,5-4.7
								c0.8-6.9,0.9-13.7,0.3-20.6c-0.6-6.9-1.5-13.9-0.6-20.8c0.7-6.1,2.6-12.1,0.9-18.2c-0.7-2.5-2-4-1.8-6.3
								C372.4,474.4,372.7,471.9,372.1,468.7"/>
						</g>
						<g>
							<defs>
								<rect id="SVGID_135_" x="237.1" y="27.6" width="258.2" height="532.7"/>
							</defs>
							<clipPath id="SVGID_136_">
								<use xlink:href="#SVGID_135_"  style="overflow:visible;"/>
							</clipPath>
							<path class="st69" d="M367.3,179.7c0,1,0.2,2.3,0.1,3.3c0,0.2,0,0.3,0,0.4c0-0.1-0.1-0.1-0.1-0.2c0.1,0.1,0.1,0.1,0.1,0.2
								c0,0,0,0,0,0c0,0.6,0.3,0.7,0.1,0.3c1.7,3.1-0.9,6.8-4,7.2c-0.2,0-0.3,0-0.5,0c-1.2,0-2.4-0.4-3.4-1.5
								c-2.9-2.9-2.2-8.2-2.3-12c0-2.4-0.2-4.8,0.1-7.1c0.4-3.8,1.4-6.9,0-10.7c-1.4-3.8,1.9-6.2,5-6.1c0.2,0,0.4,0,0.6,0.1
								c1.7,0.3,3.3,1.3,4,3.3c2.2,5.9,0.1,11.5,0.2,17.6C367.2,176.4,367.2,178,367.3,179.7"/>
						</g>
						<g>
							<defs>
								<rect id="SVGID_137_" x="237.1" y="27.6" width="258.2" height="532.7"/>
							</defs>
							<clipPath id="SVGID_138_">
								<use xlink:href="#SVGID_137_"  style="overflow:visible;"/>
							</clipPath>
							<path class="st70" d="M367.3,183.4C367.4,183.4,367.3,183.4,367.3,183.4c0-0.1-0.1-0.1-0.1-0.2
								C367.3,183.3,367.3,183.4,367.3,183.4"/>
						</g>
						<g>
							<defs>
								<rect id="SVGID_139_" x="237.1" y="27.6" width="258.2" height="532.7"/>
							</defs>
							<clipPath id="SVGID_140_">
								<use xlink:href="#SVGID_139_"  style="overflow:visible;"/>
							</clipPath>
							<path class="st71" d="M363.3,543.4c-0.4,3.4,2.2,4.9,4.9,4.8l0,1.3l-47.6,2.1l-3.6-84.4l50.1-2.2v0.2
								c-2.7,0.4-5.2,2.8-4.6,6.2c0.5,2.7-0.8,5-0.7,7.7c0,2.3,1.2,4,2.1,6.1c2.4,5.8-0.5,12.8-1,18.7c-0.5,6.3,0.3,12.6,0.8,18.9
								C364.2,529.7,364.1,536.5,363.3,543.4"/>
						</g>
						<g>
							<defs>
								<rect id="SVGID_141_" x="237.1" y="27.6" width="258.2" height="532.7"/>
							</defs>
							<clipPath id="SVGID_142_">
								<use xlink:href="#SVGID_141_"  style="overflow:visible;"/>
							</clipPath>
							<path class="st72" d="M367.1,464.3l0,0.7l-50.1,2.2l3.6,84.4l47.6-2.1v0.4c-0.1,0-0.1,0-0.2,0c-6.4,0-6.5,10,0,10
								c0.1,0,0.2,0,0.3,0l0,0.4v0.1l-84.6-0.4l-46.6-151.8l7.8-97.1l65.2-49l1.8,0.2c-0.1,3.5-0.1,7.3-0.2,10.9
								c-0.1,2.9-0.1,5.7-0.2,8.3c-0.2,8.1-0.3,14.2-0.3,14.2l-18.6,1.4l2.3,35.8l42.1,0.5l-0.2-33.1l27.7-1v0.2
								c-2.6,0.3-4.5,2.3-4.6,5c0,0.1,0,0.3,0,0.3c0,0.2-0.1,0.4-0.1,0.6c-0.2,0.6-0.4,1.3-0.5,1.9c-0.4,1.9-0.4,3.7,0,5.6
								c0.2,1,0.8,1.8,1.5,2.4c-4.1,5.4-4.6,13-2.4,19.3c1.1,3.1,4.3,5.8,4.4,9.1c0.1,2.4-1.2,5.1-1.7,7.4c-0.3,1.5-0.5,3-0.7,4.5
								c-0.7,0.8-1,1.9-0.9,3.3c0.9,7.3-0.2,13.8-0.7,21c-0.4,6.9,3.5,13.6,0.5,20.4c-0.7,1.6-0.6,3.1,0,4.4
								c-2.3,1.9-2.3,5.8-0.2,7.8c-1.4,1.4-2.1,3.6-1.1,5.9c2.2,5,0.5,11.8,1.8,17.2c1.2,5.4,4,11.2,2.5,16.8
								c-0.4,1.4-0.1,2.6,0.4,3.6c-2.5,2.8-1.3,8.5,3.6,8.5C366.7,464.3,366.9,464.3,367.1,464.3 M347.5,394.4l-19.2-26l-30.4-11.2
								l-26.3,18.2l-10.9,31.3l17.4,32.9l32.1,4.3l30.3-16.4L347.5,394.4z"/>
						</g>
						<g>
							<defs>
								<rect id="SVGID_143_" x="237.1" y="27.6" width="258.2" height="532.7"/>
							</defs>
							<clipPath id="SVGID_144_">
								<use xlink:href="#SVGID_143_"  style="overflow:visible;"/>
							</clipPath>
							<path class="st73" d="M364.6,299.5c0.1,0,0.2,0,0.3,0h0c2.6-0.1,5.1,2.4,5,5c-0.1,1.5-0.3,2.9-0.7,4.3
								c-0.1,0.4-0.2,0.9-0.3,1.3c0,0.1,0,0.1,0,0.2v0.1c0.4,1.8-0.1,3.4-1.2,4.6c1.7,1.8,2.4,4.7,0.4,7.1
								c-3.9,4.8,1.2,11.1,3.2,15.2c3.4,7-0.8,13.8-1.1,20.9c0,0.8-0.2,1.5-0.5,2.1c0.4,3.6,0.5,7.3,0.3,11
								c-0.3,4.1-1.5,8.1-0.9,12.3c1.1,7.9,2.3,14.1-1,21.7c-0.3,0.6-0.6,1.1-1,1.5c0.5,1.6,0.3,3.6-0.7,5c0,0-0.1,0.1-0.1,0.1
								c0,0.1-0.1,0.1-0.1,0.2c0.3,0.3,0.5,0.7,0.7,1.2c3,6.8,1.4,13.9,3.1,21c1.7,6.9,4,13.5,2.1,20.6c-0.3,1-0.7,1.7-1.3,2.3
								c1.2,2.8-0.1,6.8-3.8,7.1c-0.2,0-0.4,0-0.6,0c-4.9,0-6-5.7-3.6-8.5c-0.6-1-0.8-2.2-0.4-3.6c1.5-5.6-1.3-11.4-2.5-16.8
								c-1.2-5.4,0.5-12.2-1.8-17.2c-1-2.3-0.3-4.4,1.1-5.9c-2.1-2-2.1-5.9,0.2-7.8c-0.6-1.3-0.7-2.8,0-4.4c3-6.8-1-13.5-0.5-20.4
								c0.5-7.2,1.6-13.8,0.7-21c-0.2-1.4,0.2-2.5,0.9-3.3c0.1-1.5,0.4-3,0.7-4.5c0.5-2.3,1.8-5,1.7-7.4c-0.1-3.3-3.3-6-4.4-9.1
								c-2.2-6.3-1.7-13.9,2.4-19.3c-0.8-0.6-1.3-1.5-1.5-2.4c-0.4-1.9-0.4-3.7,0-5.6c0.1-0.6,0.3-1.3,0.5-1.9
								c0-0.2,0.1-0.4,0.1-0.6c0-0.1,0-0.2,0-0.3C360,301.8,361.9,299.8,364.6,299.5"/>
						</g>
						<g>
							<defs>
								<rect id="SVGID_145_" x="237.1" y="27.6" width="258.2" height="532.7"/>
							</defs>
							<clipPath id="SVGID_146_">
								<use xlink:href="#SVGID_145_"  style="overflow:visible;"/>
							</clipPath>
							<path class="st74" d="M378.2,381l-10.9,31.3l17.4,32.9l32.1,4.3l30.3-16.4l6.9-33.1l-7.1-9.7l7.9-24.3l-42-18.4l-5.4,16.3
								l-2.9-1.1L378.2,381z M368,405.4c3.3-7.6,2.2-13.8,1-21.7c-0.6-4.1,0.6-8.2,0.9-12.3c0.3-3.7,0.1-7.3-0.3-11
								c0.3-0.6,0.5-1.3,0.5-2.1c0.3-7.2,4.4-13.9,1.1-20.9c-2-4.1-7.1-10.3-3.2-15.2c1.9-2.4,1.3-5.4-0.4-7.1
								c1.1-1.2,1.5-2.9,1.2-4.6v-0.1c0-0.1,0-0.1,0-0.2c0.1-0.4,0.2-0.9,0.3-1.3c0.4-1.4,0.6-2.8,0.7-4.3c0.1-2.6-2.4-5.1-5-5h0
								v-0.2l27-1l0.4-34.5l25.9-3.4l66.6,47.1l10.5,96.9l-42.3,153l-84.6,2.8l0-0.4c5.8-0.5,5.8-9.6-0.1-10l0-0.4l36.6-1.6
								l-3.6-84.4l-34.2,1.5l0-0.7c3.7-0.4,5-4.3,3.8-7.1c0.6-0.6,1-1.3,1.3-2.3c1.9-7.1-0.4-13.7-2.1-20.6
								c-1.8-7.1-0.1-14.2-3.1-21c-0.2-0.5-0.4-0.8-0.7-1.2c0.1-0.1,0.1-0.1,0.1-0.2c0,0,0.1-0.1,0.1-0.1c1-1.4,1.3-3.3,0.7-5
								C367.4,406.5,367.8,406,368,405.4 M435.4,312l-4.5-25.3l-34.5,6.2l4.5,25.3L435.4,312z"/>
						</g>
						<g>
							<defs>
								<rect id="SVGID_147_" x="237.1" y="27.6" width="258.2" height="532.7"/>
							</defs>
							<clipPath id="SVGID_148_">
								<use xlink:href="#SVGID_147_"  style="overflow:visible;"/>
							</clipPath>
							<path class="st75" d="M364.9,298.4l0,0.8l-0.3,0l0-0.8C364.7,298.4,364.8,298.4,364.9,298.4"/>
						</g>
						<g>
							<defs>
								<rect id="SVGID_149_" x="237.1" y="27.6" width="258.2" height="532.7"/>
							</defs>
							<clipPath id="SVGID_150_">
								<use xlink:href="#SVGID_149_"  style="overflow:visible;"/>
							</clipPath>
							<path class="st76" d="M364.9,299.5c-0.1,0-0.2,0-0.3,0v-0.2l0.3,0V299.5z"/>
						</g>
						<g>
							<defs>
								<rect id="SVGID_151_" x="237.1" y="27.6" width="258.2" height="532.7"/>
							</defs>
							<clipPath id="SVGID_152_">
								<use xlink:href="#SVGID_151_"  style="overflow:visible;"/>
							</clipPath>
							<path class="st77" d="M364.7,247.7c-0.2,0-0.3-0.1-0.5-0.1l0-0.6l12.6-0.2l7.2,0.3l3.3,16.8l-23,0.4l0-0.5
								c1.4-0.5,2.5-1.7,3.1-3.3c0.5-1.3,0.6-2.8,0.7-4.2c0-0.6,0-1.1,0-1.7c0-0.3,0.1-2.1,0-0.7
								C368.6,251.3,367.6,248.4,364.7,247.7"/>
						</g>
						<g>
							<defs>
								<rect id="SVGID_153_" x="237.1" y="27.6" width="258.2" height="532.7"/>
							</defs>
							<clipPath id="SVGID_154_">
								<use xlink:href="#SVGID_153_"  style="overflow:visible;"/>
							</clipPath>
							<path class="st78" d="M364.4,263.8l0,0.5l-0.4,0l0-0.4C364.2,263.9,364.3,263.9,364.4,263.8"/>
						</g>
						<g>
							<defs>
								<rect id="SVGID_155_" x="237.1" y="27.6" width="258.2" height="532.7"/>
							</defs>
							<clipPath id="SVGID_156_">
								<use xlink:href="#SVGID_155_"  style="overflow:visible;"/>
							</clipPath>
							<path class="st79" d="M364,264.4c0.1,0,0.1,0,0.2,0c0.1,0,0.1,0,0.2,0c2.8,0.1,4.3,2.1,4.6,4.4c0.7,0.8,1.1,1.8,1.1,3.2
								c-0.1,3.7,0.3,7.3,0.2,11c-0.1,2.9-1.5,6.5-0.9,9.3c0.8,3.5-1.8,5.8-4.5,6.2c-0.1,0-0.2,0-0.3,0c-2.1,0.2-4.2-0.9-4.8-3.5
								c-0.9-3.7,0.1-6.7,0.5-10.4c0.4-4.1-0.3-8.3-0.2-12.5C358.4,269.2,359.8,264.5,364,264.4"/>
						</g>
						<g>
							<defs>
								<rect id="SVGID_157_" x="237.1" y="27.6" width="258.2" height="532.7"/>
							</defs>
							<clipPath id="SVGID_158_">
								<use xlink:href="#SVGID_157_"  style="overflow:visible;"/>
							</clipPath>
							<path class="st80" d="M364.2,264.4c-0.1,0-0.1,0-0.2,0v0l0.4,0v0C364.4,264.4,364.3,264.4,364.2,264.4"/>
						</g>
						<g>
							<defs>
								<rect id="SVGID_159_" x="237.1" y="27.6" width="258.2" height="532.7"/>
							</defs>
							<clipPath id="SVGID_160_">
								<use xlink:href="#SVGID_159_"  style="overflow:visible;"/>
							</clipPath>
							<path class="st81" d="M364.2,247.1l0,0.6c-0.1,0-0.3,0-0.4,0l0-0.5H364.2z"/>
						</g>
						<g>
							<defs>
								<rect id="SVGID_161_" x="237.1" y="27.6" width="258.2" height="532.7"/>
							</defs>
							<clipPath id="SVGID_162_">
								<use xlink:href="#SVGID_161_"  style="overflow:visible;"/>
							</clipPath>
							<polygon class="st82" points="364.1,238.9 364.2,247.1 363.8,247.1 363.7,238.9 							"/>
						</g>
						<g>
							<defs>
								<rect id="SVGID_163_" x="237.1" y="27.6" width="258.2" height="532.7"/>
							</defs>
							<clipPath id="SVGID_164_">
								<use xlink:href="#SVGID_163_"  style="overflow:visible;"/>
							</clipPath>
							<path class="st83" d="M364.1,237.6l0,1.4h-0.4l0-1.3C363.8,237.6,363.9,237.6,364.1,237.6"/>
						</g>
						<g>
							<defs>
								<rect id="SVGID_165_" x="237.1" y="27.6" width="258.2" height="532.7"/>
							</defs>
							<clipPath id="SVGID_166_">
								<use xlink:href="#SVGID_165_"  style="overflow:visible;"/>
							</clipPath>
							<path class="st84" d="M359.7,294.9c0.6,2.7,2.7,3.7,4.8,3.5l0,0.8l-27.7,1l0-4.2l1.1-31.2l3,0.3l0.1-0.4l23-0.5v0
								c-4.3,0.1-5.6,4.8-4,7.7c-0.1,4.1,0.6,8.4,0.2,12.5C359.9,288.2,358.9,291.2,359.7,294.9"/>
						</g>
						<g>
							<defs>
								<rect id="SVGID_167_" x="237.1" y="27.6" width="258.2" height="532.7"/>
							</defs>
							<clipPath id="SVGID_168_">
								<use xlink:href="#SVGID_167_"  style="overflow:visible;"/>
							</clipPath>
							<polygon class="st85" points="363.7,238.9 363.8,247.1 351.2,247.3 350.9,240.8 353.6,239.1 							"/>
						</g>
						<g>
							<defs>
								<rect id="SVGID_169_" x="237.1" y="27.6" width="258.2" height="532.7"/>
							</defs>
							<clipPath id="SVGID_170_">
								<use xlink:href="#SVGID_169_"  style="overflow:visible;"/>
							</clipPath>
							<path class="st86" d="M363.5,192.4c2.5,0.1,4.5,2.5,4.5,5c0,2.7,0.3,5.4,0.3,8.2c0,0.3,0,0.7-0.1,1c0.5,0.6,0.9,1.3,1,2.2
								c0,0.3,0.1,0.6,0.1,0.9c0.1,7.7-0.5,15.4-0.8,23.1c-0.1,2.9-2.2,4.5-4.5,4.8c-0.1,0-0.3,0-0.4,0c-2.6,0.1-5.3-1.5-5.1-4.8
								c0.4-7.7,1-15.4,0.8-23.1c0-0.4,0-0.7,0.1-1c-0.7-0.9-1.1-2-1.1-3.1c0-2.7-0.3-5.4-0.3-8.2c0-2.8,2.3-4.8,4.9-5
								c0,0,0,0,0.1,0C363.2,192.4,363.3,192.4,363.5,192.4"/>
						</g>
						<g>
							<defs>
								<rect id="SVGID_171_" x="237.1" y="27.6" width="258.2" height="532.7"/>
							</defs>
							<clipPath id="SVGID_172_">
								<use xlink:href="#SVGID_171_"  style="overflow:visible;"/>
							</clipPath>
							<path class="st87" d="M363,192l0.5,0l0,0.4c-0.1,0-0.3,0-0.5,0c0,0,0,0-0.1,0L363,192z"/>
						</g>
						<g>
							<defs>
								<rect id="SVGID_173_" x="237.1" y="27.6" width="258.2" height="532.7"/>
							</defs>
							<clipPath id="SVGID_174_">
								<use xlink:href="#SVGID_173_"  style="overflow:visible;"/>
							</clipPath>
							<path class="st88" d="M363,152.8l0,1c-0.2,0-0.4-0.1-0.6-0.1l0-0.9L363,152.8z"/>
						</g>
						<g>
							<defs>
								<rect id="SVGID_175_" x="237.1" y="27.6" width="258.2" height="532.7"/>
							</defs>
							<clipPath id="SVGID_176_">
								<use xlink:href="#SVGID_175_"  style="overflow:visible;"/>
							</clipPath>
							<path class="st89" d="M363.5,192l-0.5,0l0-1c0.2,0,0.4,0,0.5,0L363.5,192z"/>
						</g>
						<g>
							<defs>
								<rect id="SVGID_177_" x="237.1" y="27.6" width="258.2" height="532.7"/>
							</defs>
							<clipPath id="SVGID_178_">
								<use xlink:href="#SVGID_177_"  style="overflow:visible;"/>
							</clipPath>
							<path class="st90" d="M362.4,152c0.2,0,0.4,0,0.6,0l0,0.8l-0.6,0L362.4,152z"/>
						</g>
						<g>
							<defs>
								<rect id="SVGID_179_" x="237.1" y="27.6" width="258.2" height="532.7"/>
							</defs>
							<clipPath id="SVGID_180_">
								<use xlink:href="#SVGID_179_"  style="overflow:visible;"/>
							</clipPath>
							<path class="st91" d="M354.3,152.9l8.1-0.1l0,0.9c-3.2-0.2-6.4,2.3-5,6.1c1.4,3.7,0.4,6.9,0,10.7c-0.3,2.4-0.1,4.8-0.1,7.1
								c0,3.7-0.6,9.1,2.3,12c1.1,1.1,2.3,1.5,3.4,1.5l0,1l-8.1,0.1l-4.2-5.4l-0.9-27.7L354.3,152.9z"/>
						</g>
						<g>
							<defs>
								<rect id="SVGID_181_" x="237.1" y="27.6" width="258.2" height="532.7"/>
							</defs>
							<clipPath id="SVGID_182_">
								<use xlink:href="#SVGID_181_"  style="overflow:visible;"/>
							</clipPath>
							<path class="st92" d="M361.4,264c1,0.2,1.9,0.2,2.7,0l0,0.4l-23,0.5l2.9-17l7.2-0.5l12.6-0.2l0,0.5c-2.2-0.1-4.9,1.2-5.2,3.6
								c-0.2,1.4-0.3,2.8-0.3,4.2c0,0.4,0,0.9,0,1.3c0-0.2-0.2,0.9-0.3,1.1C357,260.3,358.9,263.4,361.4,264"/>
						</g>
						<g>
							<defs>
								<rect id="SVGID_183_" x="237.1" y="27.6" width="258.2" height="532.7"/>
							</defs>
							<clipPath id="SVGID_184_">
								<use xlink:href="#SVGID_183_"  style="overflow:visible;"/>
							</clipPath>
							<path class="st93" d="M360.5,28.3c0.3,0,0.6,0,0.8,0c2.4,0.1,4.6,1.8,4.5,4.8c-0.1,4.1,0.7,8.1,0,12.2
								c-0.2,1.3-1.1,2.4-2.3,3c2.8,1.6,3.1,6,0.8,8.1c2,1.7,2.2,4.9,0.7,7c1,1.6,1,3.7,0.2,5.3c1.2,1.5,1.4,3.7,0.7,5.5
								c0.9,0.7,1.5,1.8,1.5,3.2c0,0.2,0,0.4,0,0.6c-0.6,6,0.8,12.2-0.5,18.1c-1.3,5.8,0.8,10.6,1.4,16.4c0.2,2.2-0.8,3.6-2.3,4.3
								c0.9,0.8,1.5,1.9,1.6,3.4c0.4,4.9-0.4,8.7-1.3,13.5c-0.8,4.3,1.3,9,1.4,13.4c0.1,3.2-2.3,4.8-4.7,4.8c-0.2,0-0.4,0-0.6,0
								c-2.3-0.2-4.6-1.8-4.7-4.8c-0.1-4.5-2-8.8-1.6-13.3c0.2-2.5,1.4-4.7,1.6-7.2c0.2-2.1-0.1-4.3-0.2-6.4
								c-0.2-2.2,0.9-3.6,2.3-4.3c-0.9-0.8-1.5-1.9-1.6-3.4c-0.5-5.7-2.9-10.6-1.7-16.5c1.3-6.1,0.3-11.9,0.9-18.1
								c0.1-0.9,0.4-1.6,0.8-2.3c-1.6-1.6-1.9-4.2-0.9-6.2c-1.4-1.8-1.5-4.6-0.1-6.4c-1.2-2-1-4.9,0.7-6.6c-1-0.8-1.6-2.1-1.7-3.4
								l0-1.1c0.2-1.5,0.9-2.9,2.3-3.7c-1.9-1.1-2.7-3.4-2.3-5.7c0.5-3.1-0.4-6.5-0.4-9.6C355.9,30.1,358.2,28.5,360.5,28.3"/>
						</g>
						<g>
							<defs>
								<rect id="SVGID_185_" x="237.1" y="27.6" width="258.2" height="532.7"/>
							</defs>
							<clipPath id="SVGID_186_">
								<use xlink:href="#SVGID_185_"  style="overflow:visible;"/>
							</clipPath>
							<path class="st94" d="M365.8,45.4c0.7-4.1-0.1-8.1,0-12.2c0.1-3.1-2.1-4.7-4.5-4.8l0-0.7l-0.8,0.1v-0.1l6.1,0.3l1.7,18.9
								l-2.2,0.5l1.4,30.2h-0.1c0-1.5-0.6-2.5-1.5-3.2c0.7-1.8,0.5-4-0.7-5.5c0.8-1.6,0.8-3.8-0.2-5.3c1.5-2.1,1.2-5.3-0.7-7
								c2.3-2.2,2-6.5-0.8-8.1C364.7,47.7,365.6,46.7,365.8,45.4"/>
						</g>
						<g>
							<defs>
								<rect id="SVGID_187_" x="237.1" y="27.6" width="258.2" height="532.7"/>
							</defs>
							<clipPath id="SVGID_188_">
								<use xlink:href="#SVGID_187_"  style="overflow:visible;"/>
							</clipPath>
							<path class="st95" d="M360.5,27.7l0.8-0.1l0,0.7c-0.3,0-0.5,0-0.8,0L360.5,27.7z"/>
						</g>
						<g>
							<defs>
								<rect id="SVGID_189_" x="237.1" y="27.6" width="258.2" height="532.7"/>
							</defs>
							<clipPath id="SVGID_190_">
								<use xlink:href="#SVGID_189_"  style="overflow:visible;"/>
							</clipPath>
							<path class="st96" d="M363.7,238.9l-10,0.2l0-20.6c0,0-4.8-1.7-1.5-3.7c3.3-2,3.4-7.5,3.4-7.5l-0.6-15.1l8.1-0.1l0,0.4
								c-2.7,0.1-5,2.2-4.9,5c0,2.7,0.3,5.4,0.3,8.2c0,1.1,0.4,2.2,1.1,3.1c0,0.3-0.1,0.6-0.1,1c0.1,7.7-0.5,15.4-0.8,23.1
								c-0.2,3.4,2.5,5,5.1,4.8L363.7,238.9z"/>
						</g>
						<g>
							<defs>
								<rect id="SVGID_191_" x="237.1" y="27.6" width="258.2" height="532.7"/>
							</defs>
							<clipPath id="SVGID_192_">
								<use xlink:href="#SVGID_191_"  style="overflow:visible;"/>
							</clipPath>
							<path class="st97" d="M357.4,78.1c-0.6,6.1,0.4,12-0.9,18c-1.3,5.9,1.2,10.8,1.7,16.5c0.1,1.4,0.8,2.6,1.6,3.4
								c-1.5,0.7-2.5,2.1-2.3,4.3c0.2,2.1,0.5,4.3,0.2,6.4c-0.3,2.5-1.4,4.7-1.6,7.2c-0.4,4.5,1.5,8.8,1.6,13.3
								c0.1,3,2.3,4.6,4.7,4.8l0,0.8l-8.1,0.1l1.9-99.7c0.1,1.3,0.7,2.6,1.7,3.4c-1.7,1.7-2,4.6-0.7,6.6c-1.3,1.8-1.3,4.6,0.1,6.4
								c-1,2-0.7,4.6,0.9,6.2C357.7,76.4,357.4,77.2,357.4,78.1"/>
						</g>
						<g>
							<defs>
								<rect id="SVGID_193_" x="237.1" y="27.6" width="258.2" height="532.7"/>
							</defs>
							<clipPath id="SVGID_194_">
								<use xlink:href="#SVGID_193_"  style="overflow:visible;"/>
							</clipPath>
							<path class="st98" d="M354,47.1l1.1-18.9l5.3-0.4l0,0.6c-2.3,0.2-4.6,1.8-4.7,4.8c-0.1,3.1,0.9,6.5,0.4,9.6
								c-0.4,2.2,0.4,4.5,2.3,5.7c-1.4,0.8-2.1,2.2-2.3,3.7l0.1-4.6L354,47.1z"/>
						</g>
						<g>
							<defs>
								<rect id="SVGID_195_" x="237.1" y="27.6" width="258.2" height="532.7"/>
							</defs>
							<clipPath id="SVGID_196_">
								<use xlink:href="#SVGID_195_"  style="overflow:visible;"/>
							</clipPath>
							<polygon class="st99" points="328.3,368.3 347.5,394.4 340.5,427.5 310.3,443.9 278.1,439.6 260.7,406.7 271.6,375.4 
								297.9,357.2 							"/>
						</g>
						<g>
							<defs>
								<rect id="SVGID_197_" x="237.1" y="27.6" width="258.2" height="532.7"/>
							</defs>
							<clipPath id="SVGID_198_">
								<use xlink:href="#SVGID_197_"  style="overflow:visible;"/>
							</clipPath>
							<polygon class="st100" points="341,264.8 341,265.2 338,264.9 							"/>
						</g>
						<g>
							<defs>
								<rect id="SVGID_199_" x="237.1" y="27.6" width="258.2" height="532.7"/>
							</defs>
							<clipPath id="SVGID_200_">
								<use xlink:href="#SVGID_199_"  style="overflow:visible;"/>
							</clipPath>
							<polygon class="st101" points="338,264.9 336.9,296 325.5,296 325.3,281.8 325.1,273 324.9,263.6 							"/>
						</g>
						<g>
							<defs>
								<rect id="SVGID_201_" x="237.1" y="27.6" width="258.2" height="532.7"/>
							</defs>
							<clipPath id="SVGID_202_">
								<use xlink:href="#SVGID_201_"  style="overflow:visible;"/>
							</clipPath>
							<path class="st102" d="M336.9,300.3l0.2,33.1l-42.1-0.6l-2.3-35.8l18.6-1.4c0,0,0.1-6.1,0.3-14.2l13.7,0.4l0.3,14.2l11.4,0
								l-0.1,4.2L336.9,300.3z"/>
						</g>
						<g>
							<defs>
								<rect id="SVGID_203_" x="237.1" y="27.6" width="258.2" height="532.7"/>
							</defs>
							<clipPath id="SVGID_204_">
								<use xlink:href="#SVGID_203_"  style="overflow:visible;"/>
							</clipPath>
							<polygon class="st103" points="336.9,296 336.9,300.3 336.7,300.3 							"/>
						</g>
						<g>
							<defs>
								<rect id="SVGID_205_" x="237.1" y="27.6" width="258.2" height="532.7"/>
							</defs>
							<clipPath id="SVGID_206_">
								<use xlink:href="#SVGID_205_"  style="overflow:visible;"/>
							</clipPath>
							<path class="st104" d="M325.1,273l0.2,8.8l-13.7-0.4c0.1-2.6,0.1-5.4,0.2-8.3L325.1,273z"/>
						</g>
						<g>
							<defs>
								<rect id="SVGID_207_" x="237.1" y="27.6" width="258.2" height="532.7"/>
							</defs>
							<clipPath id="SVGID_208_">
								<use xlink:href="#SVGID_207_"  style="overflow:visible;"/>
							</clipPath>
							<path class="st105" d="M324.3,263.3c0,0.1,0,0.1,0,0.2c0,1.2-0.6,2.5-1.5,3.3c-0.9,0.9-2.3,1.5-3.5,1.5h-1.9
								c-1.4,0-2.6-0.6-3.5-1.5s-1.4-2.2-1.5-3.5c0-0.3,0-0.6,0.1-1c0.2-1,0.7-1.9,1.4-2.6c0.9-0.9,2.3-1.5,3.5-1.5h1.9
								c1.4,0,2.6,0.6,3.5,1.5C323.8,260.6,324.2,262,324.3,263.3"/>
						</g>
						<g>
							<defs>
								<rect id="SVGID_209_" x="237.1" y="27.6" width="258.2" height="532.7"/>
							</defs>
							<clipPath id="SVGID_210_">
								<use xlink:href="#SVGID_209_"  style="overflow:visible;"/>
							</clipPath>
							<path class="st106" d="M317.7,192.4c0.2-0.3,0.2,2.2,0.1,6.1C317.6,195,317.5,192.6,317.7,192.4"/>
						</g>
						<g>
							<defs>
								<rect id="SVGID_211_" x="237.1" y="27.6" width="258.2" height="532.7"/>
							</defs>
							<clipPath id="SVGID_212_">
								<use xlink:href="#SVGID_211_"  style="overflow:visible;"/>
							</clipPath>
							<path class="st107" d="M324.6,243.5l0.4,20.1l-0.6-0.1c0-0.1,0-0.1,0-0.2c-0.1-1.3-0.5-2.6-1.5-3.5c-1-0.9-2.2-1.5-3.5-1.5
								h-1.9c-1.3,0-2.6,0.6-3.5,1.5c-0.6,0.6-1.2,1.6-1.4,2.6l-0.6-0.1c0.2-10.6,0.4-19.5,0.3-19.4L324.6,243.5z"/>
						</g>
						<g>
							<defs>
								<rect id="SVGID_213_" x="237.1" y="27.6" width="258.2" height="532.7"/>
							</defs>
							<clipPath id="SVGID_214_">
								<use xlink:href="#SVGID_213_"  style="overflow:visible;"/>
							</clipPath>
							<path class="st108" d="M312.5,262.3c-0.1,0.3-0.1,0.7-0.1,1c0,1.3,0.5,2.6,1.5,3.5c1,0.9,2.2,1.5,3.5,1.5h1.9
								c1.3,0,2.6-0.6,3.5-1.5c0.8-0.8,1.4-2.1,1.5-3.3l0.6,0.1l0.2,9.4l-13.4,0.1c0.1-3.6,0.1-7.3,0.2-10.9L312.5,262.3z"/>
						</g>
						<g>
							<defs>
								<rect id="SVGID_215_" x="237.1" y="27.6" width="258.2" height="532.7"/>
							</defs>
							<clipPath id="SVGID_216_">
								<use xlink:href="#SVGID_215_"  style="overflow:visible;"/>
							</clipPath>
							<path class="st109" d="M324.6,243.5l-12.4-0.7c0.2-0.3,3.9-5.2,3.9-5.2s1.4-26.8,1.7-39.1c0.8,12.3,3.3,38.6,3.3,38.6l3.4,3
								L324.6,243.5z"/>
						</g>
					</g>
				</g>
			</g>
		</g>
	</g>
	<polyline class="st110" points="311.9,262.2 310.1,262 244.9,311 237.1,408.1 283.7,559.9 368.3,560.3 	"/>
	<line class="st110" x1="338" y1="264.9" x2="324.9" y2="263.6"/>
	<g>
		<g>
			<defs>
				<rect id="SVGID_217_" x="-6.5" y="-48.1" width="720" height="720"/>
			</defs>
			<clipPath id="SVGID_218_">
				<use xlink:href="#SVGID_217_"  style="overflow:visible;"/>
			</clipPath>
			<path class="st111" d="M356.2,53.2l-1.9,99.7l-4.6,6.1l0.9,27.7l4.2,5.4l0.6,15.1c0,0-0.1,5.5-3.4,7.5c-3.3,2,1.5,3.7,1.5,3.7
				l0,20.6l-2.8,1.8l0.3,6.4l-7.2,0.5l-2.9,17"/>
		</g>
		<g>
			<defs>
				<rect id="SVGID_219_" x="-6.5" y="-48.1" width="720" height="720"/>
			</defs>
			<clipPath id="SVGID_220_">
				<use xlink:href="#SVGID_219_"  style="overflow:visible;"/>
			</clipPath>
			<polyline class="st112" points="360.5,27.7 355.2,28.1 354,47.1 356.3,47.5 356.2,52.1 			"/>
		</g>
		<g>
			<defs>
				<rect id="SVGID_221_" x="-6.5" y="-48.1" width="720" height="720"/>
			</defs>
			<clipPath id="SVGID_222_">
				<use xlink:href="#SVGID_221_"  style="overflow:visible;"/>
			</clipPath>
			<polyline class="st113" points="392.3,263.8 418.2,260.4 484.8,307.5 495.3,404.4 453,557.5 368.5,560.2 			"/>
		</g>
		<g>
			<defs>
				<rect id="SVGID_223_" x="-6.5" y="-48.1" width="720" height="720"/>
			</defs>
			<clipPath id="SVGID_224_">
				<use xlink:href="#SVGID_223_"  style="overflow:visible;"/>
			</clipPath>
			<path class="st114" d="M360.5,27.6l6.1,0.3l1.7,18.9l-2.2,0.5l1.4,30.2l3.5,75.1l4.8,6l-0.2,27.7l-4.1,5.5l-0.2,15.1
				c0,0,0,0.5,0.2,1.3c0.3,1.8,1.1,4.8,3.4,6.1c3.3,1.9-1.4,3.8-1.4,3.8l0.6,20.6l2.8,1.7l-0.1,6.4l7.2,0.3l3.3,16.8"/>
		</g>
		<g>
			<defs>
				<rect id="SVGID_225_" x="-6.5" y="-48.1" width="720" height="720"/>
			</defs>
			<clipPath id="SVGID_226_">
				<use xlink:href="#SVGID_225_"  style="overflow:visible;"/>
			</clipPath>
			<polyline class="st115" points="354.3,152.9 362.4,152.8 363,152.8 371,152.6 			"/>
		</g>
		<g>
			<defs>
				<rect id="SVGID_227_" x="-6.5" y="-48.1" width="720" height="720"/>
			</defs>
			<clipPath id="SVGID_228_">
				<use xlink:href="#SVGID_227_"  style="overflow:visible;"/>
			</clipPath>
			<polyline class="st116" points="354.9,192.1 363,192 363.5,192 371.5,191.8 			"/>
		</g>
		<g>
			<defs>
				<rect id="SVGID_229_" x="-6.5" y="-48.1" width="720" height="720"/>
			</defs>
			<clipPath id="SVGID_230_">
				<use xlink:href="#SVGID_229_"  style="overflow:visible;"/>
			</clipPath>
			<polyline class="st117" points="353.6,239.1 363.7,238.9 364.1,238.9 374.1,238.7 			"/>
		</g>
		<g>
			<defs>
				<rect id="SVGID_231_" x="-6.5" y="-48.1" width="720" height="720"/>
			</defs>
			<clipPath id="SVGID_232_">
				<use xlink:href="#SVGID_231_"  style="overflow:visible;"/>
			</clipPath>
			<polyline class="st118" points="351.2,247.3 363.8,247.1 364.2,247.1 376.8,246.8 			"/>
		</g>
		<g>
			<defs>
				<rect id="SVGID_233_" x="-6.5" y="-48.1" width="720" height="720"/>
			</defs>
			<clipPath id="SVGID_234_">
				<use xlink:href="#SVGID_233_"  style="overflow:visible;"/>
			</clipPath>
			<line class="st119" x1="336.9" y1="296" x2="338" y2="264.9"/>
		</g>
		<g>
			<defs>
				<rect id="SVGID_235_" x="-6.5" y="-48.1" width="720" height="720"/>
			</defs>
			<clipPath id="SVGID_236_">
				<use xlink:href="#SVGID_235_"  style="overflow:visible;"/>
			</clipPath>
			<polyline class="st120" points="392.3,263.8 392.3,263.8 391.9,298.3 364.9,299.3 364.6,299.3 336.9,300.3 			"/>
		</g>
		<g>
			<defs>
				<rect id="SVGID_237_" x="-6.5" y="-48.1" width="720" height="720"/>
			</defs>
			<clipPath id="SVGID_238_">
				<use xlink:href="#SVGID_237_"  style="overflow:visible;"/>
			</clipPath>
			<path class="st121" d="M317.8,198.5c0.8,12.3,3.3,38.6,3.3,38.6l3.4,3l0.1,3.4l0.4,20.1l0.2,9.4l0.2,8.8l0.3,14.2l11.4,0l0,4.2
				l0.2,33.1l-42.1-0.5l-2.3-35.8l18.6-1.4c0,0,0.1-6.1,0.3-14.2c0.1-2.6,0.1-5.4,0.2-8.3c0.1-3.6,0.1-7.3,0.2-10.9
				c0.2-10.6,0.4-19.5,0.3-19.4"/>
		</g>
		<g>
			<defs>
				<rect id="SVGID_239_" x="-6.5" y="-48.1" width="720" height="720"/>
			</defs>
			<clipPath id="SVGID_240_">
				<use xlink:href="#SVGID_239_"  style="overflow:visible;"/>
			</clipPath>
			<path class="st122" d="M317.8,198.5c0.1-3.9,0.1-6.4-0.1-6.1C317.5,192.6,317.6,195,317.8,198.5z"/>
		</g>
		<g>
			<defs>
				<rect id="SVGID_241_" x="-6.5" y="-48.1" width="720" height="720"/>
			</defs>
			<clipPath id="SVGID_242_">
				<use xlink:href="#SVGID_241_"  style="overflow:visible;"/>
			</clipPath>
			<path class="st123" d="M312.2,242.8C312.2,242.8,312.2,242.8,312.2,242.8c0.3-0.3,3.9-5.2,3.9-5.2s1.4-26.8,1.7-39.1"/>
		</g>
		<g>
			<defs>
				<rect id="SVGID_243_" x="-6.5" y="-48.1" width="720" height="720"/>
			</defs>
			<clipPath id="SVGID_244_">
				<use xlink:href="#SVGID_243_"  style="overflow:visible;"/>
			</clipPath>
			<line class="st124" x1="312.2" y1="242.8" x2="324.6" y2="243.5"/>
		</g>
		<g>
			<defs>
				<rect id="SVGID_245_" x="-6.5" y="-48.1" width="720" height="720"/>
			</defs>
			<clipPath id="SVGID_246_">
				<use xlink:href="#SVGID_245_"  style="overflow:visible;"/>
			</clipPath>
			<polyline class="st125" points="407.4,363.8 412.8,347.5 454.8,365.9 446.9,390.2 			"/>
		</g>
		<g>
			<defs>
				<rect id="SVGID_247_" x="-6.5" y="-48.1" width="720" height="720"/>
			</defs>
			<clipPath id="SVGID_248_">
				<use xlink:href="#SVGID_247_"  style="overflow:visible;"/>
			</clipPath>
			<polygon class="st126" points="435.4,312 400.9,318.1 396.4,292.9 430.9,286.7 			"/>
		</g>
		<g>
			<defs>
				<rect id="SVGID_249_" x="-6.5" y="-48.1" width="720" height="720"/>
			</defs>
			<clipPath id="SVGID_250_">
				<use xlink:href="#SVGID_249_"  style="overflow:visible;"/>
			</clipPath>
			<line class="st127" x1="311.7" y1="273.1" x2="325.1" y2="273"/>
		</g>
		<g>
			<defs>
				<rect id="SVGID_251_" x="-6.5" y="-48.1" width="720" height="720"/>
			</defs>
			<clipPath id="SVGID_252_">
				<use xlink:href="#SVGID_251_"  style="overflow:visible;"/>
			</clipPath>
			<line class="st128" x1="311.5" y1="281.4" x2="325.3" y2="281.8"/>
		</g>
		<g>
			<defs>
				<rect id="SVGID_253_" x="-6.5" y="-48.1" width="720" height="720"/>
			</defs>
			<clipPath id="SVGID_254_">
				<use xlink:href="#SVGID_253_"  style="overflow:visible;"/>
			</clipPath>
			<polygon class="st129" points="367.1,465 401.3,463.5 404.9,547.9 368.3,549.5 368.2,549.5 320.6,551.5 316.9,467.2 			"/>
		</g>
		<g>
			<defs>
				<rect id="SVGID_255_" x="-6.5" y="-48.1" width="720" height="720"/>
			</defs>
			<clipPath id="SVGID_256_">
				<use xlink:href="#SVGID_255_"  style="overflow:visible;"/>
			</clipPath>
			<polygon class="st130" points="328.3,368.3 347.5,394.4 340.5,427.5 310.3,443.9 278.1,439.6 260.7,406.7 271.6,375.4 
				297.9,357.2 			"/>
		</g>
		<g>
			<defs>
				<rect id="SVGID_257_" x="-6.5" y="-48.1" width="720" height="720"/>
			</defs>
			<clipPath id="SVGID_258_">
				<use xlink:href="#SVGID_257_"  style="overflow:visible;"/>
			</clipPath>
			<polygon class="st131" points="407.4,363.8 434.9,373.9 446.9,390.2 446.9,390.2 454.1,399.9 447.1,433.1 416.9,449.5 
				384.7,445.2 367.3,412.3 378.2,381 404.5,362.7 407.4,363.8 			"/>
		</g>
	</g>
</g>
</svg>
