<?xml version="1.0" encoding="utf-8"?>
<!-- Generator: Adobe Illustrator 16.0.0, SVG Export Plug-In . SVG Version: 6.00 Build 0)  -->
<!DOCTYPE svg PUBLIC "-//W3C//DTD SVG 1.1//EN" "http://www.w3.org/Graphics/SVG/1.1/DTD/svg11.dtd">
<svg version="1.1" id="Layer_1" xmlns="http://www.w3.org/2000/svg" xmlns:xlink="http://www.w3.org/1999/xlink" x="0px" y="0px"
	 width="720px" height="720px" viewBox="0 0 720 720" enable-background="new 0 0 720 720" xml:space="preserve">
<g>
	<defs>
		<rect id="SVGID_1_" width="720" height="720"/>
	</defs>
	<clipPath id="SVGID_2_">
		<use xlink:href="#SVGID_1_"  overflow="visible"/>
	</clipPath>
	<g clip-path="url(#SVGID_2_)">
		<defs>
			<rect id="SVGID_3_" x="243.635" y="75.626" width="258.2" height="532.74"/>
		</defs>
		<clipPath id="SVGID_4_">
			<use xlink:href="#SVGID_3_"  overflow="visible"/>
		</clipPath>
		<g clip-path="url(#SVGID_4_)">
			<defs>
				<rect id="SVGID_5_" x="243.635" y="75.626" width="258.2" height="532.74"/>
			</defs>
			<clipPath id="SVGID_6_">
				<use xlink:href="#SVGID_5_"  overflow="visible"/>
			</clipPath>
			<polygon clip-path="url(#SVGID_6_)" fill="#CEC18D" points="413.905,411.866 453.405,438.276 453.415,438.286 460.565,447.977 
				453.636,481.126 423.386,497.536 391.235,493.236 373.825,460.356 384.677,429.017 411.006,410.796 413.896,411.856 			"/>
			<polygon clip-path="url(#SVGID_6_)" fill="#CEC18D" points="437.355,334.776 441.865,360.037 407.405,366.196 402.896,340.937 
							"/>
			<polygon clip-path="url(#SVGID_6_)" fill="#CEC18D" points="419.346,395.576 461.315,413.946 453.415,438.286 453.405,438.276 
				441.355,421.956 413.905,411.866 413.896,411.856 			"/>
			<polygon clip-path="url(#SVGID_6_)" fill="#CEC18D" points="413.905,411.866 441.355,421.956 453.405,438.276 			"/>
			<polygon clip-path="url(#SVGID_6_)" fill="#FEF3B7" points="398.846,311.866 398.846,311.876 393.995,312.506 393.886,311.966 
							"/>
			<polygon clip-path="url(#SVGID_6_)" fill="#191813" points="383.415,288.466 383.315,294.896 370.695,295.116 370.596,286.957 
				380.605,286.776 			"/>
			<path clip-path="url(#SVGID_6_)" fill="#D8CD9E" d="M377.525,200.656l4.771,6l-0.161,27.69l-4.089,5.53l-8.071,0.15l-0.01-1.01
				c3.109-0.44,5.699-4.09,4.04-7.24c0-0.01-0.011-0.02-0.011-0.03c-0.029-0.07-0.069-0.15-0.14-0.25c0,0,0.01-0.01-0.01-0.02
				c0,0,0.01,0,0-0.01c0-0.13,0.01-0.28,0.029-0.45c0.141-0.96-0.09-2.28-0.1-3.25c-0.03-1.67-0.05-3.35-0.07-5.03
				c-0.09-6.07,1.971-11.65-0.199-17.6c-0.73-2.03-2.33-3.07-4.03-3.33l-0.01-1L377.525,200.656z"/>
			<path clip-path="url(#SVGID_6_)" fill="#191813" d="M380.405,531.876c1.76,6.101-0.13,12.101-0.859,18.181
				c-0.841,6.92,0.029,13.93,0.609,20.829c0.58,6.91,0.43,13.711-0.34,20.601c-0.33,2.951-2.67,4.53-5.01,4.74
				c-0.04,0.01-0.09,0.01-0.141,0.01c-2.64,0.189-5.22-1.39-4.85-4.75c0.77-6.89,0.92-13.69,0.34-20.601
				c-0.53-6.279-1.25-12.59-0.8-18.899c0.42-5.99,3.321-12.92,0.97-18.74c-0.84-2.099-2.029-3.78-2.08-6.13
				c-0.068-2.67,1.221-4.95,0.73-7.66c-0.62-3.43,1.93-5.78,4.59-6.2c2.23-0.358,4.52,0.65,5.05,3.54c0.58,3.181,0.271,5.642,0,8.78
				C378.415,527.876,379.665,529.326,380.405,531.876"/>
			<path clip-path="url(#SVGID_6_)" fill="#E8DCAA" d="M378.035,256.356c0.3,1.75,1.15,4.76,3.44,6.08
				c3.32,1.93-1.43,3.75-1.43,3.75l0.56,20.59l-10.01,0.18l-0.021-1.35c2.24-0.28,4.34-1.87,4.471-4.76
				c0.369-7.72,0.96-15.42,0.85-23.15c-0.01-0.32-0.04-0.63-0.089-0.92L378.035,256.356z"/>
			<path clip-path="url(#SVGID_6_)" fill="#FEF3B7" d="M375.806,256.776c-0.16-0.88-0.54-1.6-1.03-2.19c0.06-0.31,0.1-0.64,0.1-0.97
				c-0.02-2.73-0.31-5.45-0.34-8.17c-0.02-2.48-2.04-4.84-4.55-4.98l-0.01-0.44l8.07-0.15l-0.181,15.15c0,0,0.03,0.54,0.17,1.33
				L375.806,256.776z"/>
			<path clip-path="url(#SVGID_6_)" fill="#FEF3B7" d="M374.835,597.906c5.91,0.36,5.95,9.44,0.15,9.95l0.01,0.439h-0.17l-0.01-0.43
				c-0.11,0.01-0.22,0.019-0.34,0.019c-6.45,0-6.44-10,0-10c0.07,0,0.14,0.012,0.21,0.012v-0.36l0.14-0.01L374.835,597.906z"/>
			<path clip-path="url(#SVGID_6_)" fill="#FEF3B7" d="M374.806,596.227l0.021,1.3l-0.141,0.01l-0.021-1.3
				C374.716,596.236,374.766,596.236,374.806,596.227"/>
			<path clip-path="url(#SVGID_6_)" fill="#E8DCAA" d="M374.716,304.346c-0.062,1.41-0.2,2.88-0.7,4.21
				c-0.59,1.6-1.69,2.79-3.101,3.32c-0.119,0.06-0.25,0.1-0.38,0.13c-0.81,0.24-1.71,0.27-2.67,0.05c-2.47-0.57-4.399-3.7-3.49-6.16
				c0.08-0.22,0.301-1.31,0.311-1.11c0.03-0.44,0.04-0.87,0.05-1.31c0.021-1.43,0.12-2.78,0.32-4.21c0.34-2.43,3-3.7,5.24-3.61
				c0.14,0,0.27,0.01,0.409,0.03c0.17,0.01,0.341,0.04,0.5,0.08c2.87,0.66,3.86,3.58,3.489,6.15c0.201-1.36,0.051,0.44,0.051,0.71
				C374.735,303.196,374.745,303.766,374.716,304.346"/>
			<path clip-path="url(#SVGID_6_)" fill="#E8DCAA" d="M375.516,316.806c-0.24-2.22-1.771-4.26-4.59-4.35v-0.05l22.96-0.44
				l0.108,0.54l4.852-0.63l-0.44,34.45l-27.01,0.98l-0.01-0.84c2.72-0.35,5.31-2.71,4.51-6.18c-0.651-2.78,0.83-6.38,0.89-9.28
				c0.07-3.67-0.279-7.34-0.2-11.01C376.615,318.646,376.195,317.586,375.516,316.806"/>
			<path clip-path="url(#SVGID_6_)" fill="#FEF3B7" d="M374.006,231.776c0.189,0.44-0.131,0.37-0.15-0.28
				c0.05,0.08,0.1,0.17,0.14,0.25C373.995,231.756,374.006,231.767,374.006,231.776"/>
			<path clip-path="url(#SVGID_6_)" fill="#E8DCAA" d="M374.705,160.676c-0.529-5.8-2.649-10.63-1.37-16.41
				c1.32-5.97-0.069-12.11,0.521-18.14c0.02-0.19,0.03-0.38,0.03-0.56h0.091l3.549,75.09l-8.06,0.15l-0.011-0.76
				c2.46-0.05,4.82-1.65,4.74-4.82c-0.11-4.39-2.26-9.14-1.439-13.43c0.92-4.77,1.68-8.53,1.27-13.46
				c-0.12-1.45-0.729-2.56-1.6-3.36C373.886,164.276,374.905,162.856,374.705,160.676"/>
			<path clip-path="url(#SVGID_6_)" fill="#191813" d="M378.615,516.796c-0.53-2.89-2.819-3.899-5.05-3.54v-0.18l34.2-1.479
				l3.64,84.35l-36.58,1.58l-0.021-1.3c2.341-0.21,4.681-1.79,5.011-4.74c0.77-6.89,0.92-13.69,0.34-20.601
				c-0.58-6.899-1.45-13.909-0.609-20.829c0.729-6.08,2.619-12.08,0.859-18.181c-0.74-2.55-1.99-4-1.79-6.3
				C378.886,522.437,379.195,519.977,378.615,516.796"/>
			<path clip-path="url(#SVGID_6_)" fill="#D8CD9E" d="M373.775,227.766c0.01,0.97,0.24,2.29,0.1,3.25
				c-0.02,0.17-0.029,0.32-0.029,0.45c-0.04-0.06-0.08-0.14-0.141-0.21c0.051,0.08,0.092,0.15,0.141,0.22
				c0.02,0.01,0.01,0.02,0.01,0.02c0.02,0.65,0.34,0.72,0.15,0.28c1.659,3.15-0.931,6.8-4.04,7.24
				c-0.169,0.03-0.341,0.04-0.521,0.04c-1.17,0.04-2.37-0.39-3.439-1.48c-2.87-2.92-2.209-8.24-2.25-11.98
				c-0.03-2.39-0.181-4.76,0.079-7.14c0.431-3.77,1.381-6.95,0.03-10.66c-1.38-3.78,1.86-6.21,5.021-6.05
				c0.199,0.01,0.39,0.03,0.59,0.06c1.7,0.26,3.3,1.3,4.03,3.33c2.17,5.95,0.109,11.53,0.199,17.6
				C373.726,224.416,373.745,226.096,373.775,227.766"/>
			<path clip-path="url(#SVGID_6_)" fill="#FEF3B7" d="M373.846,231.466c0.01,0.01,0,0.01,0,0.01c-0.05-0.07-0.09-0.14-0.141-0.22
				C373.766,231.326,373.806,231.406,373.846,231.466"/>
			<path clip-path="url(#SVGID_6_)" fill="#191813" d="M369.815,591.486c-0.37,3.36,2.21,4.939,4.85,4.75l0.021,1.3l-47.62,2.061
				l-3.65-84.351l50.15-2.17v0.18c-2.66,0.42-5.21,2.771-4.59,6.2c0.49,2.71-0.8,4.99-0.73,7.66c0.05,2.349,1.24,4.03,2.08,6.13
				c2.351,5.82-0.55,12.75-0.97,18.74c-0.45,6.31,0.27,12.62,0.8,18.899C370.735,577.796,370.585,584.597,369.815,591.486"/>
			<path clip-path="url(#SVGID_6_)" fill="#E8DCAA" d="M373.556,512.366l0.01,0.71l-50.15,2.17l3.65,84.351l47.62-2.061v0.359
				c-0.07,0-0.14-0.01-0.21-0.01c-6.44,0-6.45,10,0,10c0.12,0,0.23-0.01,0.34-0.02l0.01,0.43v0.07l-84.6-0.4l-46.59-151.77
				l7.78-97.15l65.23-48.95l1.79,0.18c-0.07,3.53-0.15,7.25-0.22,10.86c-0.06,2.88-0.12,5.7-0.18,8.31
				c-0.17,8.09-0.31,14.23-0.31,14.23l-18.56,1.35l2.29,35.81l42.14,0.55l-0.2-33.06l27.67-1v0.21c-2.62,0.28-4.55,2.29-4.65,4.97
				c-0.01,0.15-0.02,0.26-0.02,0.33c-0.05,0.2-0.09,0.41-0.14,0.62c-0.16,0.65-0.36,1.29-0.5,1.94c-0.41,1.93-0.44,3.66-0.021,5.59
				c0.21,0.96,0.79,1.81,1.55,2.44c-4.069,5.37-4.609,12.971-2.399,19.29c1.09,3.08,4.31,5.771,4.43,9.07
				c0.09,2.36-1.2,5.07-1.68,7.37c-0.32,1.5-0.54,3-0.69,4.51c-0.68,0.78-1.05,1.891-0.88,3.311c0.88,7.26-0.22,13.819-0.68,21.02
				c-0.43,6.91,3.489,13.61,0.52,20.37c-0.689,1.58-0.56,3.09,0.03,4.36c-2.26,1.87-2.32,5.779-0.17,7.76
				c-1.37,1.439-2.06,3.59-1.06,5.86c2.22,5,0.55,11.77,1.76,17.159c1.22,5.42,3.96,11.181,2.51,16.78
				c-0.37,1.41-0.15,2.63,0.41,3.61c-2.49,2.79-1.311,8.5,3.56,8.5C373.155,512.396,373.355,512.386,373.556,512.366
				 M353.956,442.416l-19.2-26.02l-30.36-11.16l-26.33,18.229l-10.85,31.33l17.42,32.88l32.14,4.301l30.26-16.4L353.956,442.416z"/>
			<path clip-path="url(#SVGID_6_)" fill="#E8DCAA" d="M371.065,347.536c0.11-0.01,0.22-0.02,0.33-0.03h0.02
				c2.63-0.12,5.091,2.38,5,5c-0.06,1.45-0.319,2.86-0.689,4.26c-0.12,0.43-0.23,0.87-0.33,1.31c0,0.06,0,0.11-0.01,0.19v0.13
				c0.359,1.77-0.091,3.44-1.19,4.63c1.66,1.79,2.35,4.72,0.41,7.14c-3.87,4.84,1.229,11.09,3.21,15.181
				c3.38,7-0.79,13.779-1.06,20.949c-0.03,0.811-0.221,1.521-0.521,2.13c0.38,3.65,0.55,7.32,0.26,10.99
				c-0.33,4.1-1.55,8.15-0.939,12.271c1.149,7.899,2.319,14.13-1.021,21.729c-0.26,0.6-0.59,1.09-0.96,1.47
				c0.55,1.641,0.3,3.561-0.71,4.95c-0.03,0.04-0.06,0.08-0.1,0.12c-0.04,0.06-0.09,0.12-0.141,0.18
				c0.271,0.33,0.521,0.711,0.721,1.171c3.029,6.829,1.359,13.949,3.13,21.029c1.72,6.87,3.99,13.5,2.14,20.61
				c-0.25,0.97-0.7,1.72-1.27,2.28c1.18,2.81-0.09,6.75-3.79,7.14c-0.2,0.02-0.4,0.03-0.61,0.03c-4.87,0-6.05-5.71-3.56-8.5
				c-0.561-0.98-0.78-2.2-0.41-3.61c1.45-5.6-1.29-11.36-2.51-16.78c-1.21-5.39,0.46-12.159-1.761-17.159
				c-1-2.271-0.31-4.421,1.061-5.86c-2.15-1.98-2.09-5.89,0.17-7.76c-0.59-1.271-0.72-2.78-0.03-4.36
				c2.97-6.76-0.95-13.46-0.52-20.37c0.46-7.2,1.56-13.76,0.68-21.02c-0.17-1.42,0.2-2.53,0.88-3.311c0.15-1.51,0.37-3.01,0.69-4.51
				c0.479-2.3,1.77-5.01,1.68-7.37c-0.12-3.3-3.34-5.99-4.43-9.07c-2.21-6.319-1.67-13.92,2.399-19.29
				c-0.76-0.63-1.34-1.479-1.55-2.439c-0.42-1.93-0.39-3.66,0.021-5.59c0.14-0.65,0.34-1.29,0.5-1.94c0.05-0.21,0.09-0.42,0.14-0.62
				c0-0.07,0.01-0.18,0.02-0.33C366.516,349.826,368.445,347.816,371.065,347.536"/>
			<path clip-path="url(#SVGID_6_)" fill="#E8DCAA" d="M384.676,429.016l-10.851,31.341l17.41,32.88l32.15,4.3l30.25-16.41
				l6.93-33.149l-7.15-9.69l7.9-24.34l-41.971-18.37l-5.449,16.28l-2.89-1.061L384.676,429.016z M374.535,453.416
				c3.34-7.6,2.17-13.83,1.021-21.729c-0.61-4.12,0.609-8.171,0.939-12.271c0.29-3.67,0.12-7.34-0.26-10.99
				c0.3-0.609,0.49-1.319,0.521-2.13c0.27-7.17,4.439-13.949,1.06-20.949c-1.98-4.091-7.08-10.341-3.21-15.181
				c1.94-2.42,1.25-5.35-0.41-7.14c1.101-1.19,1.55-2.86,1.19-4.63v-0.13c0.01-0.08,0.01-0.13,0.01-0.19
				c0.1-0.44,0.21-0.88,0.33-1.31c0.369-1.4,0.63-2.81,0.689-4.26c0.091-2.62-2.369-5.12-5-5h-0.02v-0.2l27.01-0.98l0.439-34.45
				l25.891-3.38l66.59,47.09l10.51,96.9l-42.289,153.02l-84.551,2.79l-0.01-0.439c5.8-0.51,5.76-9.591-0.15-9.95l-0.01-0.38
				l36.58-1.58l-3.64-84.35l-34.2,1.479l-0.01-0.71c3.7-0.39,4.97-4.33,3.789-7.14c0.57-0.561,1.021-1.311,1.271-2.28
				c1.851-7.11-0.42-13.74-2.14-20.61c-1.771-7.08-0.101-14.2-3.131-21.029c-0.199-0.46-0.449-0.841-0.72-1.171
				c0.051-0.06,0.101-0.12,0.141-0.18c0.04-0.04,0.069-0.08,0.1-0.12c1.01-1.39,1.26-3.31,0.71-4.95
				C373.945,454.506,374.275,454.016,374.535,453.416 M441.865,360.036l-4.51-25.26l-34.46,6.16l4.51,25.26L441.865,360.036z"/>
			<path clip-path="url(#SVGID_6_)" fill="#FEF3B7" d="M371.386,346.466l0.01,0.84l-0.33,0.02l-0.02-0.83
				C371.165,346.496,371.275,346.486,371.386,346.466"/>
			<path clip-path="url(#SVGID_6_)" fill="#FEF3B7" d="M371.396,347.506c-0.11,0.01-0.22,0.02-0.33,0.03v-0.21l0.33-0.02V347.506z"
				/>
			<path clip-path="url(#SVGID_6_)" fill="#E8DCAA" d="M371.205,295.766c-0.159-0.04-0.33-0.07-0.5-0.08l-0.01-0.57l12.62-0.22
				l7.23,0.28l3.34,16.79l-22.96,0.44l-0.011-0.53c1.41-0.53,2.511-1.72,3.101-3.32c0.5-1.33,0.64-2.8,0.7-4.21
				c0.029-0.58,0.02-1.15,0.029-1.72c0-0.27,0.15-2.07-0.05-0.71C375.065,299.346,374.075,296.426,371.205,295.766"/>
			<path clip-path="url(#SVGID_6_)" fill="#FEF3B7" d="M370.915,311.876l0.011,0.53l-0.38,0.01l-0.011-0.41
				C370.665,311.976,370.796,311.936,370.915,311.876"/>
			<path clip-path="url(#SVGID_6_)" fill="#E8DCAA" d="M370.546,312.456c0.06-0.01,0.119-0.01,0.18-0.01c0.07,0,0.14,0,0.2,0.01
				c2.819,0.09,4.349,2.13,4.59,4.35c0.68,0.78,1.1,1.84,1.069,3.19c-0.079,3.67,0.271,7.34,0.2,11.01c-0.06,2.9-1.54,6.5-0.89,9.28
				c0.8,3.47-1.79,5.83-4.51,6.18c-0.111,0.02-0.221,0.03-0.34,0.03c-2.091,0.16-4.181-0.89-4.801-3.55
				c-0.859-3.72,0.12-6.69,0.511-10.35c0.43-4.09-0.25-8.34-0.171-12.46C364.936,317.226,366.256,312.576,370.546,312.456"/>
			<path clip-path="url(#SVGID_6_)" fill="#FEF3B7" d="M370.726,312.446c-0.061,0-0.12,0-0.18,0.01v-0.04l0.38-0.01v0.05
				C370.865,312.446,370.796,312.446,370.726,312.446"/>
			<path clip-path="url(#SVGID_6_)" fill="#FEF3B7" d="M370.695,295.116l0.01,0.57c-0.14-0.02-0.27-0.03-0.409-0.03l-0.011-0.54
				H370.695z"/>
			<polygon clip-path="url(#SVGID_6_)" fill="#FEF3B7" points="370.596,286.956 370.695,295.116 370.285,295.116 370.165,286.956 
							"/>
			<path clip-path="url(#SVGID_6_)" fill="#FEF3B7" d="M370.575,285.606l0.021,1.35h-0.431l-0.02-1.3
				C370.285,285.646,370.436,285.636,370.575,285.606"/>
			<path clip-path="url(#SVGID_6_)" fill="#E8DCAA" d="M366.245,342.946c0.62,2.66,2.71,3.71,4.801,3.55l0.02,0.83l-27.67,1
				l-0.02-4.23l1.1-31.17l3.01,0.31l0.06-0.37l23.001-0.45v0.04c-4.29,0.12-5.61,4.771-3.961,7.68
				c-0.079,4.12,0.601,8.37,0.171,12.46C366.365,336.256,365.386,339.227,366.245,342.946"/>
			<polygon clip-path="url(#SVGID_6_)" fill="#191813" points="370.165,286.956 370.285,295.116 357.665,295.336 357.385,288.896 
				360.145,287.136 			"/>
			<path clip-path="url(#SVGID_6_)" fill="#E8DCAA" d="M369.985,240.466c2.51,0.14,4.53,2.5,4.55,4.98
				c0.03,2.72,0.32,5.44,0.34,8.17c0,0.33-0.04,0.66-0.1,0.97c0.49,0.59,0.87,1.31,1.03,2.19c0.05,0.29,0.08,0.6,0.09,0.92
				c0.111,7.73-0.48,15.43-0.849,23.15c-0.132,2.89-2.231,4.48-4.472,4.76c-0.14,0.03-0.29,0.04-0.43,0.05
				c-2.61,0.15-5.26-1.46-5.099-4.81c0.368-7.72,0.96-15.42,0.849-23.15c0-0.36,0.03-0.69,0.08-1.01
				c-0.679-0.87-1.09-1.96-1.101-3.07c-0.02-2.73-0.31-5.45-0.34-8.17c-0.02-2.79,2.271-4.84,4.931-4.99
				c0.02-0.01,0.05-0.01,0.069-0.01C369.686,240.437,369.835,240.437,369.985,240.466"/>
			<path clip-path="url(#SVGID_6_)" fill="#FEF3B7" d="M369.455,240.036l0.521-0.01l0.009,0.44c-0.15-0.03-0.3-0.03-0.45-0.02
				c-0.02,0-0.05,0-0.069,0.01L369.455,240.036z"/>
			<path clip-path="url(#SVGID_6_)" fill="#FEF3B7" d="M369.466,200.806l0.01,1c-0.2-0.03-0.391-0.05-0.59-0.06l-0.021-0.93
				L369.466,200.806z"/>
			<path clip-path="url(#SVGID_6_)" fill="#FEF3B7" d="M369.976,240.026l-0.521,0.01l-0.009-0.98c0.18,0,0.351-0.01,0.521-0.04
				L369.976,240.026z"/>
			<path clip-path="url(#SVGID_6_)" fill="#FEF3B7" d="M368.855,200.036c0.2,0.02,0.4,0.02,0.6,0.01l0.011,0.76l-0.601,0.01
				L368.855,200.036z"/>
			<path clip-path="url(#SVGID_6_)" fill="#D8CD9E" d="M360.795,200.966l8.07-0.15l0.021,0.93c-3.16-0.16-6.4,2.271-5.021,6.05
				c1.351,3.71,0.4,6.89-0.03,10.66c-0.26,2.38-0.109,4.75-0.079,7.14c0.039,3.74-0.62,9.06,2.25,11.98
				c1.069,1.09,2.27,1.52,3.439,1.48l0.01,0.98l-8.08,0.15l-4.24-5.41l-0.94-27.68L360.795,200.966z"/>
			<path clip-path="url(#SVGID_6_)" fill="#E8DCAA" d="M367.865,312.056c0.96,0.22,1.86,0.19,2.67-0.05l0.011,0.41l-23,0.45
				l2.9-17.05l7.22-0.48l12.62-0.22l0.011,0.54c-2.241-0.09-4.9,1.18-5.241,3.61c-0.199,1.43-0.299,2.78-0.319,4.21
				c-0.01,0.44-0.02,0.87-0.05,1.31c-0.01-0.2-0.23,0.89-0.311,1.11C363.466,308.356,365.396,311.486,367.865,312.056"/>
			<path clip-path="url(#SVGID_6_)" fill="#E8DCAA" d="M366.995,76.376c0.271-0.02,0.551-0.02,0.82,0c2.37,0.14,4.59,1.75,4.51,4.81
				c-0.109,4.14,0.71,8.09-0.01,12.22c-0.23,1.33-1.15,2.37-2.32,2.99c2.811,1.62,3.07,5.98,0.811,8.13
				c1.97,1.68,2.22,4.94,0.74,7.01c0.96,1.57,1.02,3.69,0.189,5.33c1.18,1.49,1.41,3.69,0.67,5.46c0.891,0.7,1.48,1.78,1.48,3.24
				c0,0.18-0.011,0.37-0.03,0.56c-0.59,6.03,0.8,12.17-0.521,18.14c-1.279,5.78,0.841,10.61,1.37,16.41
				c0.2,2.18-0.819,3.6-2.279,4.3c0.87,0.8,1.479,1.91,1.6,3.36c0.41,4.93-0.35,8.69-1.27,13.46c-0.82,4.29,1.329,9.04,1.439,13.43
				c0.08,3.17-2.28,4.77-4.74,4.82c-0.199,0.01-0.399,0.01-0.6-0.01c-2.34-0.19-4.58-1.79-4.66-4.81
				c-0.11-4.5-1.979-8.77-1.58-13.31c0.22-2.5,1.359-4.73,1.65-7.2c0.24-2.09-0.061-4.29-0.24-6.38c-0.18-2.17,0.85-3.61,2.31-4.3
				c-0.869-0.79-1.5-1.91-1.63-3.36c-0.529-5.74-2.949-10.63-1.699-16.5c1.279-6.05,0.25-11.93,0.85-18.05
				c0.09-0.88,0.369-1.64,0.76-2.28c-1.56-1.57-1.85-4.22-0.85-6.18c-1.41-1.78-1.47-4.56-0.15-6.4
				c-1.229-2.01-0.979-4.94,0.74-6.59c-1-0.85-1.56-2.12-1.67-3.43l0.02-1.13c0.17-1.5,0.931-2.92,2.28-3.71
				c-1.92-1.13-2.7-3.41-2.31-5.65c0.529-3.07-0.431-6.46-0.351-9.57C362.405,78.166,364.655,76.566,366.995,76.376"/>
			<path clip-path="url(#SVGID_6_)" fill="#E8DCAA" d="M372.315,93.406c0.72-4.13-0.1-8.08,0.01-12.22
				c0.08-3.06-2.14-4.67-4.51-4.81l-0.01-0.69l-0.82,0.07v-0.13l6.14,0.34l1.66,18.9l-2.24,0.47l1.431,30.23h-0.09
				c0-1.46-0.591-2.54-1.48-3.24c0.74-1.77,0.51-3.97-0.67-5.46c0.83-1.64,0.771-3.76-0.19-5.33c1.48-2.07,1.23-5.33-0.739-7.01
				c2.26-2.15,2-6.51-0.811-8.13C371.165,95.776,372.085,94.736,372.315,93.406"/>
			<path clip-path="url(#SVGID_6_)" fill="#FEF3B7" d="M366.985,75.756l0.82-0.07l0.01,0.69c-0.269-0.02-0.55-0.02-0.82,0
				L366.985,75.756z"/>
			<path clip-path="url(#SVGID_6_)" fill="#E8DCAA" d="M370.165,286.956l-10.021,0.18l-0.029-20.6c0,0-4.789-1.69-1.53-3.7
				c3.271-2.02,3.4-7.51,3.4-7.51l-0.61-15.14l8.08-0.15l0.011,0.42c-2.66,0.15-4.95,2.2-4.931,4.99c0.03,2.72,0.32,5.44,0.34,8.17
				c0.011,1.11,0.421,2.2,1.101,3.07c-0.05,0.32-0.081,0.65-0.081,1.01c0.111,7.73-0.479,15.43-0.849,23.15
				c-0.16,3.35,2.489,4.96,5.099,4.81L370.165,286.956z"/>
			<path clip-path="url(#SVGID_6_)" fill="#E8DCAA" d="M363.855,126.126c-0.6,6.12,0.43,12-0.85,18.05
				c-1.25,5.87,1.17,10.76,1.699,16.5c0.129,1.45,0.761,2.57,1.629,3.36c-1.459,0.69-2.488,2.13-2.309,4.3
				c0.18,2.09,0.48,4.29,0.24,6.38c-0.29,2.47-1.432,4.7-1.65,7.2c-0.399,4.54,1.469,8.81,1.58,13.31c0.08,3.02,2.32,4.62,4.66,4.81
				l0.01,0.78l-8.069,0.15l1.89-99.72c0.11,1.31,0.67,2.58,1.67,3.43c-1.72,1.65-1.97,4.58-0.74,6.59
				c-1.319,1.84-1.26,4.62,0.15,6.4c-1,1.96-0.71,4.61,0.85,6.18C364.226,124.486,363.945,125.246,363.855,126.126"/>
			<path clip-path="url(#SVGID_6_)" fill="#E8DCAA" d="M360.545,95.136l1.131-18.94l5.31-0.44l0.01,0.62
				c-2.34,0.19-4.59,1.79-4.67,4.81c-0.08,3.11,0.88,6.5,0.351,9.57c-0.391,2.24,0.39,4.52,2.31,5.65
				c-1.35,0.79-2.11,2.21-2.28,3.71l0.09-4.57L360.545,95.136z"/>
			<polygon clip-path="url(#SVGID_6_)" fill="#CEC18D" points="334.755,416.396 353.956,442.417 347.035,475.576 316.775,491.977 
				284.635,487.676 267.215,454.796 278.065,423.466 304.396,405.236 			"/>
			<polygon clip-path="url(#SVGID_6_)" fill="#FEF3B7" points="347.545,312.866 347.485,313.236 344.476,312.926 			"/>
			<polygon clip-path="url(#SVGID_6_)" fill="#FEF3B7" points="344.476,312.926 343.375,344.096 332.005,344.076 331.755,329.876 
				331.596,321.036 331.436,311.606 			"/>
			<path clip-path="url(#SVGID_6_)" fill="#CEC18D" d="M343.396,348.326l0.2,33.061l-42.14-0.551l-2.29-35.81l18.56-1.35
				c0,0,0.14-6.14,0.31-14.23l13.72,0.43l0.25,14.2l11.37,0.02l-0.15,4.24L343.396,348.326z"/>
			<polygon clip-path="url(#SVGID_6_)" fill="#FEF3B7" points="343.375,344.096 343.396,348.326 343.226,348.336 			"/>
			<path clip-path="url(#SVGID_6_)" fill="#191813" d="M331.595,321.036l0.16,8.84l-13.72-0.43c0.06-2.61,0.12-5.43,0.18-8.31
				L331.595,321.036z"/>
			<path clip-path="url(#SVGID_6_)" fill="#CEC18D" d="M330.795,311.316c0,0.07,0,0.14-0.01,0.22c-0.02,1.18-0.64,2.5-1.46,3.31
				c-0.9,0.91-2.25,1.47-3.53,1.47h-1.87c-1.36,0-2.56-0.57-3.54-1.47c-0.98-0.9-1.41-2.24-1.46-3.53
				c-0.02-0.32,0.02-0.65,0.09-0.98c0.2-0.96,0.72-1.91,1.37-2.56c0.91-0.9,2.25-1.46,3.54-1.46h1.87c1.35,0,2.56,0.57,3.53,1.46
				C330.315,308.676,330.735,310.026,330.795,311.316"/>
			<path clip-path="url(#SVGID_6_)" fill="#FEF3B7" d="M324.206,240.446c0.2-0.26,0.21,2.2,0.11,6.1
				C324.096,243.036,324.025,240.687,324.206,240.446"/>
			<path clip-path="url(#SVGID_6_)" fill="#CEC18D" d="M331.076,291.536l0.36,20.07l-0.65-0.07c0.01-0.08,0.01-0.15,0.01-0.22
				c-0.06-1.29-0.48-2.64-1.47-3.54c-0.97-0.89-2.18-1.46-3.53-1.46h-1.87c-1.29,0-2.63,0.56-3.54,1.46
				c-0.65,0.65-1.17,1.6-1.37,2.56l-0.58-0.06c0.21-10.56,0.36-19.51,0.29-19.41L331.076,291.536z"/>
			<path clip-path="url(#SVGID_6_)" fill="#CEC18D" d="M319.016,310.336c-0.07,0.33-0.11,0.66-0.09,0.98
				c0.05,1.29,0.48,2.63,1.46,3.53c0.98,0.9,2.18,1.47,3.54,1.47h1.87c1.28,0,2.63-0.56,3.53-1.47c0.82-0.81,1.44-2.13,1.46-3.31
				l0.65,0.07l0.16,9.43l-13.38,0.1c0.07-3.61,0.15-7.33,0.22-10.86L319.016,310.336z"/>
			<path clip-path="url(#SVGID_6_)" fill="#191813" d="M331.076,291.536l-12.35-0.67c0.24-0.31,3.91-5.21,3.91-5.21
				s1.38-26.76,1.68-39.11c0.76,12.25,3.33,38.61,3.33,38.61l3.37,2.95L331.076,291.536z"/>
		</g>
	</g>
</g>
<polyline fill="none" stroke="#000000" stroke-miterlimit="10" points="318.436,310.276 316.646,310.096 251.416,359.046 
	243.635,456.196 290.226,607.966 374.825,608.366 "/>
<line fill="none" stroke="#000000" stroke-miterlimit="10" x1="344.476" y1="312.926" x2="331.436" y2="311.606"/>
<g>
	<defs>
		<rect id="SVGID_7_" width="720" height="720"/>
	</defs>
	<clipPath id="SVGID_8_">
		<use xlink:href="#SVGID_7_"  overflow="visible"/>
	</clipPath>
	<path clip-path="url(#SVGID_8_)" fill="none" stroke="#000000" stroke-miterlimit="10" d="M362.686,101.246l-1.89,99.72
		l-4.601,6.13l0.94,27.68l4.239,5.41l0.611,15.14c0,0-0.13,5.49-3.4,7.51c-3.26,2.01,1.53,3.7,1.53,3.7l0.03,20.6l-2.76,1.76
		l0.28,6.44l-7.22,0.48l-2.9,17.05"/>
	<polyline clip-path="url(#SVGID_8_)" fill="none" stroke="#000000" stroke-miterlimit="10" points="366.985,75.756 361.676,76.196 
		360.545,95.136 362.797,95.546 362.705,100.116 	"/>
	<polyline clip-path="url(#SVGID_8_)" fill="none" stroke="#000000" stroke-miterlimit="10" points="398.846,311.876 
		424.735,308.496 491.324,355.586 501.835,452.486 459.546,605.506 374.995,608.296 	"/>
	<path clip-path="url(#SVGID_8_)" fill="none" stroke="#000000" stroke-miterlimit="10" d="M366.985,75.626l6.14,0.34l1.66,18.9
		l-2.238,0.47l1.429,30.23l3.55,75.09l4.771,6l-0.161,27.69l-4.089,5.53l-0.182,15.15c0,0,0.03,0.54,0.17,1.33
		c0.3,1.75,1.15,4.76,3.44,6.08c3.321,1.93-1.429,3.75-1.429,3.75l0.559,20.59l2.81,1.69l-0.1,6.43l7.231,0.28l3.339,16.79"/>
	<polyline clip-path="url(#SVGID_8_)" fill="none" stroke="#000000" stroke-miterlimit="10" points="360.795,200.966 
		368.865,200.816 369.466,200.806 377.525,200.656 	"/>
	<polyline clip-path="url(#SVGID_8_)" fill="none" stroke="#000000" stroke-miterlimit="10" points="361.375,240.186 
		369.455,240.036 369.976,240.026 378.046,239.876 	"/>
	<polyline clip-path="url(#SVGID_8_)" fill="none" stroke="#000000" stroke-miterlimit="10" points="360.146,287.136 
		370.165,286.956 370.596,286.956 380.605,286.776 	"/>
	<polyline clip-path="url(#SVGID_8_)" fill="none" stroke="#000000" stroke-miterlimit="10" points="357.666,295.336 
		370.285,295.116 370.695,295.116 383.315,294.896 	"/>
	
		<line clip-path="url(#SVGID_8_)" fill="none" stroke="#000000" stroke-miterlimit="10" x1="343.375" y1="344.096" x2="344.476" y2="312.926"/>
	<polyline clip-path="url(#SVGID_8_)" fill="none" stroke="#000000" stroke-miterlimit="10" points="398.846,311.866 
		398.846,311.876 398.405,346.326 371.396,347.306 371.065,347.326 343.396,348.326 	"/>
	<path clip-path="url(#SVGID_8_)" fill="none" stroke="#000000" stroke-miterlimit="10" d="M324.315,246.546
		c0.76,12.25,3.33,38.61,3.33,38.61l3.37,2.95l0.06,3.43l0.36,20.07l0.16,9.43l0.16,8.84l0.25,14.2l11.37,0.02l0.02,4.23l0.2,33.06
		l-42.14-0.55l-2.29-35.81l18.56-1.35c0,0,0.14-6.14,0.31-14.23c0.06-2.61,0.12-5.43,0.18-8.31c0.07-3.61,0.15-7.33,0.22-10.86
		c0.21-10.56,0.36-19.51,0.29-19.41"/>
	<path clip-path="url(#SVGID_8_)" fill="none" stroke="#000000" stroke-miterlimit="10" d="M324.315,246.546
		c0.1-3.9,0.09-6.36-0.11-6.1C324.025,240.687,324.095,243.037,324.315,246.546z"/>
	<path clip-path="url(#SVGID_8_)" fill="none" stroke="#000000" stroke-miterlimit="10" d="M318.715,290.876c0,0,0-0.01,0.01-0.01
		c0.24-0.31,3.91-5.21,3.91-5.21s1.38-26.76,1.68-39.11"/>
	
		<line clip-path="url(#SVGID_8_)" fill="none" stroke="#000000" stroke-miterlimit="10" x1="318.726" y1="290.866" x2="331.076" y2="291.536"/>
	<polyline clip-path="url(#SVGID_8_)" fill="none" stroke="#000000" stroke-miterlimit="10" points="413.896,411.856 
		419.346,395.576 461.315,413.946 453.415,438.286 	"/>
	<polygon clip-path="url(#SVGID_8_)" fill="none" stroke="#000000" stroke-miterlimit="10" points="441.865,360.036 
		407.405,366.196 402.896,340.936 437.355,334.776 	"/>
	
		<line clip-path="url(#SVGID_8_)" fill="none" stroke="#000000" stroke-miterlimit="10" x1="318.215" y1="321.136" x2="331.595" y2="321.036"/>
	
		<line clip-path="url(#SVGID_8_)" fill="none" stroke="#000000" stroke-miterlimit="10" x1="318.036" y1="329.446" x2="331.755" y2="329.876"/>
	<polygon clip-path="url(#SVGID_8_)" fill="none" stroke="#000000" stroke-miterlimit="10" points="373.565,513.076 
		407.766,511.598 411.405,595.946 374.825,597.526 374.686,597.536 327.065,599.598 323.416,515.246 	"/>
	<polygon clip-path="url(#SVGID_8_)" fill="none" stroke="#000000" stroke-miterlimit="10" points="334.755,416.396 
		353.956,442.417 347.035,475.576 316.775,491.977 284.635,487.676 267.215,454.796 278.065,423.466 304.396,405.236 	"/>
	<polygon clip-path="url(#SVGID_8_)" fill="none" stroke="#000000" stroke-miterlimit="10" points="413.905,411.866 
		441.355,421.956 453.405,438.276 453.415,438.286 460.565,447.977 453.636,481.126 423.386,497.536 391.235,493.236 
		373.825,460.356 384.677,429.017 411.006,410.796 413.896,411.856 	"/>
</g>
</svg>
