<?xml version="1.0" encoding="utf-8"?>
<!-- Generator: Adobe Illustrator 25.0.1, SVG Export Plug-In . SVG Version: 6.00 Build 0)  -->
<svg version="1.1" id="Layer_1" xmlns="http://www.w3.org/2000/svg" xmlns:xlink="http://www.w3.org/1999/xlink" x="0px" y="0px"
	 width="286.7px" height="515px" viewBox="0 0 286.7 515" style="enable-background:new 0 0 286.7 515;" xml:space="preserve">
<style type="text/css">
	.st0{fill:#1A1A1A;}
	.st1{fill:none;stroke:#000000;stroke-miterlimit:10;}
	.st2{fill:#4D4D4D;}
	.st3{fill:#333333;}
	.st4{clip-path:url(#SVGID_2_);fill:#333333;}
	.st5{clip-path:url(#SVGID_4_);fill:none;stroke:#000000;stroke-miterlimit:10;}
	.st6{clip-path:url(#SVGID_6_);fill:none;}
	.st7{clip-path:url(#SVGID_8_);fill:none;stroke:#1A1A1A;stroke-miterlimit:10;}
	.st8{clip-path:url(#SVGID_10_);fill:#1A1A1A;}
	.st9{clip-path:url(#SVGID_12_);fill:none;stroke:#000000;stroke-miterlimit:10;}
	.st10{clip-path:url(#SVGID_14_);fill:none;stroke:#808080;stroke-miterlimit:10;}
	.st11{clip-path:url(#SVGID_16_);fill:none;stroke:#808080;stroke-miterlimit:10;}
	.st12{clip-path:url(#SVGID_18_);fill:none;stroke:#808080;stroke-miterlimit:10;}
	.st13{clip-path:url(#SVGID_20_);fill:none;stroke:#1A1A1A;stroke-miterlimit:10;}
	.st14{clip-path:url(#SVGID_22_);fill:none;}
	.st15{clip-path:url(#SVGID_24_);fill:none;stroke:#808080;stroke-miterlimit:10;}
	.st16{clip-path:url(#SVGID_26_);fill:none;}
	.st17{clip-path:url(#SVGID_28_);fill:none;stroke:#808080;stroke-miterlimit:10;}
	.st18{clip-path:url(#SVGID_30_);fill:#1A1A1A;}
	.st19{clip-path:url(#SVGID_32_);fill:none;stroke:#808080;stroke-miterlimit:10;}
	.st20{clip-path:url(#SVGID_34_);fill:none;}
	.st21{clip-path:url(#SVGID_36_);fill:none;stroke:#808080;stroke-miterlimit:10;}
	.st22{clip-path:url(#SVGID_38_);fill:none;stroke:#333333;stroke-miterlimit:10;}
	.st23{clip-path:url(#SVGID_40_);fill:none;stroke:#333333;stroke-miterlimit:10;}
	.st24{clip-path:url(#SVGID_42_);fill:none;}
	.st25{clip-path:url(#SVGID_44_);fill:none;stroke:#4D4D4D;stroke-miterlimit:10;}
	.st26{clip-path:url(#SVGID_46_);fill:none;}
	.st27{clip-path:url(#SVGID_48_);fill:none;stroke:#4D4D4D;stroke-miterlimit:10;}
	.st28{clip-path:url(#SVGID_50_);fill:none;}
	.st29{clip-path:url(#SVGID_52_);fill:none;stroke:#4D4D4D;stroke-miterlimit:10;}
	.st30{clip-path:url(#SVGID_54_);fill:none;}
	.st31{clip-path:url(#SVGID_56_);fill:none;stroke:#4D4D4D;stroke-miterlimit:10;}
	.st32{clip-path:url(#SVGID_58_);fill:#111111;}
	.st33{clip-path:url(#SVGID_60_);fill:none;stroke:#808080;stroke-miterlimit:10;}
	.st34{clip-path:url(#SVGID_62_);fill:#111111;}
	.st35{clip-path:url(#SVGID_64_);fill:none;stroke:#808080;stroke-miterlimit:10;}
	.st36{fill:none;}
	.st37{display:none;}
	.st38{display:inline;}
	.st39{clip-path:url(#SVGID_66_);fill:#333333;}
	.st40{clip-path:url(#SVGID_68_);fill:none;stroke:#000000;stroke-width:3;stroke-miterlimit:10;}
	.st41{clip-path:url(#SVGID_70_);fill:none;stroke:#000000;stroke-width:2;stroke-miterlimit:10;}
	.st42{clip-path:url(#SVGID_72_);fill:none;stroke:#000000;stroke-width:2;stroke-miterlimit:10;}
	.st43{clip-path:url(#SVGID_74_);fill:none;stroke:#666666;stroke-width:0.75;stroke-miterlimit:10;}
	.st44{clip-path:url(#SVGID_76_);fill:none;stroke:#666666;stroke-width:0.75;stroke-miterlimit:10;}
	.st45{clip-path:url(#SVGID_78_);fill:none;stroke:#666666;stroke-width:0.75;stroke-miterlimit:10;}
	.st46{clip-path:url(#SVGID_80_);fill:none;stroke:#666666;stroke-width:0.75;stroke-miterlimit:10;}
	.st47{clip-path:url(#SVGID_82_);fill:none;stroke:#666666;stroke-miterlimit:10;}
	.st48{clip-path:url(#SVGID_84_);fill:none;stroke:#666666;stroke-miterlimit:10;}
	.st49{clip-path:url(#SVGID_86_);fill:none;stroke:#666666;stroke-miterlimit:10;}
	.st50{clip-path:url(#SVGID_88_);fill:none;stroke:#666666;stroke-miterlimit:10;}
	.st51{clip-path:url(#SVGID_90_);fill:none;stroke:#666666;stroke-miterlimit:10;}
</style>
<g id="Layer_1_1_">
	<polygon class="st0" points="61.5,16.5 32.7,16.5 45.4,26.2 	"/>
	<polygon class="st1" points="61.5,16.5 32.7,16.5 45.4,26.2 	"/>
	<polyline class="st1" points="231.3,23.7 215.4,14.8 243.4,14.8 244.3,14.8 	"/>
	<polyline class="st2" points="15.7,10 25.3,515 33.2,515 30.6,363 23.3,304.3 26.9,255.9 29.3,253.6 24.8,10.3 16.8,10.5 	"/>
	<polyline class="st1" points="15.7,10 25.3,515 33.2,515 30.6,363 23.3,304.3 26.9,255.9 29.3,253.6 24.8,10.3 16.8,10.5 	"/>
	<polyline class="st2" points="262.3,7.4 264.1,512.5 256.1,512.6 255.4,360.6 261.3,301.8 256.6,253.4 254.2,251.3 253.2,7.9 
		261.2,8 	"/>
	<polyline class="st1" points="262.3,7.4 264.1,512.5 256.1,512.6 255.4,360.6 261.3,301.8 256.6,253.4 254.2,251.3 253.2,7.9 
		261.2,8 	"/>
	<polyline class="st3" points="45.4,26.2 45.5,27.1 61.5,119.5 26.9,125.5 24.8,10.3 	"/>
	<polyline class="st1" points="45.4,26.2 45.5,27.1 61.5,119.5 26.9,125.5 24.8,10.3 	"/>
	<g>
		<g>
			<g>
				<g>
					<defs>
						<polyline id="SVGID_1_" points="-205,614.3 -205,-87.3 496.6,-77.3 496.6,624.3 						"/>
					</defs>
					<clipPath id="SVGID_2_">
						<use xlink:href="#SVGID_1_"  style="overflow:visible;"/>
					</clipPath>
					<path class="st4" d="M61.9,119.9l32,5.2l23.5-7.6l1.5-1.7l42,1l16.2,0.2h1.7l22.9,8.1l24.9,2.1l26.7-3.7c0,0,0.5-115.4,0-115.6
						c-0.5-0.2-17.8,12.8-17.8,12.8l-4,3.3l-17.3-10.1l-7.4-4.2l-31.3-9.8l-75,1l-28.7,9.9L46,25.9"/>
				</g>
			</g>
		</g>
		<g>
			<g>
				<g>
					<defs>
						<polyline id="SVGID_3_" points="-205,614.3 -205,-87.3 496.6,-77.3 496.6,624.3 						"/>
					</defs>
					<clipPath id="SVGID_4_">
						<use xlink:href="#SVGID_3_"  style="overflow:visible;"/>
					</clipPath>
					<path class="st5" d="M61.9,119.9l32,5.2l23.5-7.6l1.5-1.7l42,1l16.2,0.2h1.7l22.9,8.1l24.9,2.1l26.7-3.7c0,0,0.5-115.4,0-115.6
						c-0.5-0.2-17.8,12.8-17.8,12.8l-4,3.3l-17.3-10.1l-7.4-4.2l-31.3-9.8l-75,1l-28.7,9.9L46,25.9"/>
				</g>
			</g>
		</g>
		<g>
			<g>
				<g>
					<defs>
						<polyline id="SVGID_5_" points="-205,614.3 -205,-87.3 496.6,-77.3 496.6,624.3 						"/>
					</defs>
					<clipPath id="SVGID_6_">
						<use xlink:href="#SVGID_5_"  style="overflow:visible;"/>
					</clipPath>
					<line class="st6" x1="45.9" y1="25.9" x2="61.9" y2="119.9"/>
				</g>
			</g>
		</g>
		<g>
			<g>
				<g>
					<defs>
						<polyline id="SVGID_7_" points="-205,614.3 -205,-87.3 496.6,-77.3 496.6,624.3 						"/>
					</defs>
					<clipPath id="SVGID_8_">
						<use xlink:href="#SVGID_7_"  style="overflow:visible;"/>
					</clipPath>
					<line class="st7" x1="45.9" y1="25.9" x2="61.9" y2="119.9"/>
				</g>
			</g>
		</g>
		<g>
			<g>
				<g>
					<defs>
						<polyline id="SVGID_9_" points="-205,614.3 -205,-87.3 496.6,-77.3 496.6,624.3 						"/>
					</defs>
					<clipPath id="SVGID_10_">
						<use xlink:href="#SVGID_9_"  style="overflow:visible;"/>
					</clipPath>
					<polygon class="st8" points="245.1,14 237.3,19.2 231.3,23.7 225.7,20.7 214.6,14.2 229.9,14.1 					"/>
				</g>
			</g>
		</g>
		<g>
			<g>
				<g>
					<defs>
						<polyline id="SVGID_11_" points="-205,614.3 -205,-87.3 496.6,-77.3 496.6,624.3 						"/>
					</defs>
					<clipPath id="SVGID_12_">
						<use xlink:href="#SVGID_11_"  style="overflow:visible;"/>
					</clipPath>
					<polygon class="st9" points="245.1,14 237.3,19.2 231.3,23.7 225.7,20.7 214.6,14.2 229.9,14.1 					"/>
				</g>
			</g>
		</g>
		<g>
			<g>
				<g>
					<defs>
						<polyline id="SVGID_13_" points="-205,614.3 -205,-87.3 496.6,-77.3 496.6,624.3 						"/>
					</defs>
					<clipPath id="SVGID_14_">
						<use xlink:href="#SVGID_13_"  style="overflow:visible;"/>
					</clipPath>
					<polyline class="st10" points="100.4,0.9 118.8,115.8 177,117 201.7,125.1 206.7,9.7 					"/>
				</g>
			</g>
		</g>
		<g>
			<g>
				<g>
					<defs>
						<polyline id="SVGID_15_" points="-205,614.3 -205,-87.3 496.6,-77.3 496.6,624.3 						"/>
					</defs>
					<clipPath id="SVGID_16_">
						<use xlink:href="#SVGID_15_"  style="overflow:visible;"/>
					</clipPath>
					<line class="st11" x1="175.4" y1="0" x2="178.8" y2="117"/>
				</g>
			</g>
		</g>
		<g>
			<g>
				<g>
					<defs>
						<polyline id="SVGID_17_" points="-205,614.3 -205,-87.3 496.6,-77.3 496.6,624.3 						"/>
					</defs>
					<clipPath id="SVGID_18_">
						<use xlink:href="#SVGID_17_"  style="overflow:visible;"/>
					</clipPath>
					<line class="st12" x1="94.9" y1="124.8" x2="71.1" y2="11.2"/>
				</g>
			</g>
		</g>
		<g>
			<g>
				<g>
					<defs>
						<polyline id="SVGID_19_" points="-205,614.3 -205,-87.3 496.6,-77.3 496.6,624.3 						"/>
					</defs>
					<clipPath id="SVGID_20_">
						<use xlink:href="#SVGID_19_"  style="overflow:visible;"/>
					</clipPath>
					<line class="st13" x1="226.6" y1="126.5" x2="231.3" y2="23.7"/>
				</g>
			</g>
		</g>
		<g>
			<g>
				<g>
					<defs>
						<polyline id="SVGID_21_" points="-205,614.3 -205,-87.3 496.6,-77.3 496.6,624.3 						"/>
					</defs>
					<clipPath id="SVGID_22_">
						<use xlink:href="#SVGID_21_"  style="overflow:visible;"/>
					</clipPath>
					<line class="st14" x1="228.8" y1="512" x2="228.8" y2="513.1"/>
				</g>
			</g>
		</g>
		<g>
			<g>
				<g>
					<defs>
						<polyline id="SVGID_23_" points="-205,614.3 -205,-87.3 496.6,-77.3 496.6,624.3 						"/>
					</defs>
					<clipPath id="SVGID_24_">
						<use xlink:href="#SVGID_23_"  style="overflow:visible;"/>
					</clipPath>
					<line class="st15" x1="228.8" y1="512" x2="228.8" y2="513.1"/>
				</g>
			</g>
		</g>
		<g>
			<g>
				<g>
					<defs>
						<polyline id="SVGID_25_" points="-205,614.3 -205,-87.3 496.6,-77.3 496.6,624.3 						"/>
					</defs>
					<clipPath id="SVGID_26_">
						<use xlink:href="#SVGID_25_"  style="overflow:visible;"/>
					</clipPath>
					<line class="st16" x1="226.6" y1="130" x2="228.8" y2="509.1"/>
				</g>
			</g>
		</g>
		<g>
			<g>
				<g>
					<defs>
						<polyline id="SVGID_27_" points="-205,614.3 -205,-87.3 496.6,-77.3 496.6,624.3 						"/>
					</defs>
					<clipPath id="SVGID_28_">
						<use xlink:href="#SVGID_27_"  style="overflow:visible;"/>
					</clipPath>
					<line class="st17" x1="226.6" y1="130" x2="228.8" y2="509.1"/>
				</g>
			</g>
		</g>
		<g>
			<g>
				<g>
					<defs>
						<polyline id="SVGID_29_" points="-205,614.3 -205,-87.3 496.6,-77.3 496.6,624.3 						"/>
					</defs>
					<clipPath id="SVGID_30_">
						<use xlink:href="#SVGID_29_"  style="overflow:visible;"/>
					</clipPath>
					<polyline class="st18" points="226.6,127.2 201.7,125.1 177,117 120,115.9 94.9,124.8 61.9,119.9 26.9,125.5 29.3,253.6 
						26.9,255.9 23.3,304.3 30.6,363 33.2,515 90.3,515.1 92.5,509.6 195,509.6 197,513.6 256.1,512.6 255.4,360.6 261.3,301.8 
						256.6,253.4 254.2,251.3 253.2,123.5 226.6,127.2 226.6,130 					"/>
				</g>
			</g>
		</g>
		<g>
			<g>
				<g>
					<defs>
						<polyline id="SVGID_31_" points="-205,614.3 -205,-87.3 496.6,-77.3 496.6,624.3 						"/>
					</defs>
					<clipPath id="SVGID_32_">
						<use xlink:href="#SVGID_31_"  style="overflow:visible;"/>
					</clipPath>
					<polyline class="st19" points="226.6,127.2 201.7,125.1 177,117 120,115.9 94.9,124.8 61.9,119.9 26.9,125.5 29.3,253.6 
						26.9,255.9 23.3,304.3 30.6,363 33.2,515 90.3,515.1 92.5,509.6 195,509.6 197,513.6 256.1,512.6 255.4,360.6 261.3,301.8 
						256.6,253.4 254.2,251.3 253.2,123.5 226.6,127.2 226.6,130 					"/>
				</g>
			</g>
		</g>
		<g>
			<g>
				<g>
					<defs>
						<polyline id="SVGID_33_" points="-205,614.3 -205,-87.3 496.6,-77.3 496.6,624.3 						"/>
					</defs>
					<clipPath id="SVGID_34_">
						<use xlink:href="#SVGID_33_"  style="overflow:visible;"/>
					</clipPath>
					<line class="st20" x1="226.6" y1="126.5" x2="226.6" y2="127.2"/>
				</g>
			</g>
		</g>
		<g>
			<g>
				<g>
					<defs>
						<polyline id="SVGID_35_" points="-205,614.3 -205,-87.3 496.6,-77.3 496.6,624.3 						"/>
					</defs>
					<clipPath id="SVGID_36_">
						<use xlink:href="#SVGID_35_"  style="overflow:visible;"/>
					</clipPath>
					<line class="st21" x1="226.6" y1="126.5" x2="226.6" y2="127.2"/>
				</g>
			</g>
		</g>
		<g>
			<g>
				<g>
					<defs>
						<polyline id="SVGID_37_" points="-205,614.3 -205,-87.3 496.6,-77.3 496.6,624.3 						"/>
					</defs>
					<clipPath id="SVGID_38_">
						<use xlink:href="#SVGID_37_"  style="overflow:visible;"/>
					</clipPath>
					<line class="st22" x1="61.3" y1="120.4" x2="61.3" y2="515.1"/>
				</g>
			</g>
		</g>
		<g>
			<g>
				<g>
					<defs>
						<polyline id="SVGID_39_" points="-205,614.3 -205,-87.3 496.6,-77.3 496.6,624.3 						"/>
					</defs>
					<clipPath id="SVGID_40_">
						<use xlink:href="#SVGID_39_"  style="overflow:visible;"/>
					</clipPath>
					<line class="st23" x1="226.5" y1="127.5" x2="226.5" y2="512.6"/>
				</g>
			</g>
		</g>
		<g>
			<g>
				<g>
					<defs>
						<polyline id="SVGID_41_" points="-205,614.3 -205,-87.3 496.6,-77.3 496.6,624.3 						"/>
					</defs>
					<clipPath id="SVGID_42_">
						<use xlink:href="#SVGID_41_"  style="overflow:visible;"/>
					</clipPath>
					<line class="st24" x1="94.2" y1="124.8" x2="92.1" y2="509.6"/>
				</g>
			</g>
		</g>
		<g>
			<g>
				<g>
					<defs>
						<polyline id="SVGID_43_" points="-205,614.3 -205,-87.3 496.6,-77.3 496.6,624.3 						"/>
					</defs>
					<clipPath id="SVGID_44_">
						<use xlink:href="#SVGID_43_"  style="overflow:visible;"/>
					</clipPath>
					<line class="st25" x1="94.2" y1="124.8" x2="92.1" y2="509.6"/>
				</g>
			</g>
		</g>
		<g>
			<g>
				<g>
					<defs>
						<polyline id="SVGID_45_" points="-205,614.3 -205,-87.3 496.6,-77.3 496.6,624.3 						"/>
					</defs>
					<clipPath id="SVGID_46_">
						<use xlink:href="#SVGID_45_"  style="overflow:visible;"/>
					</clipPath>
					<line class="st26" x1="119.6" y1="115.2" x2="117.4" y2="511.9"/>
				</g>
			</g>
		</g>
		<g>
			<g>
				<g>
					<defs>
						<polyline id="SVGID_47_" points="-205,614.3 -205,-87.3 496.6,-77.3 496.6,624.3 						"/>
					</defs>
					<clipPath id="SVGID_48_">
						<use xlink:href="#SVGID_47_"  style="overflow:visible;"/>
					</clipPath>
					<line class="st27" x1="119.6" y1="115.2" x2="117.4" y2="511.9"/>
				</g>
			</g>
		</g>
		<g>
			<g>
				<g>
					<defs>
						<polyline id="SVGID_49_" points="-205,614.3 -205,-87.3 496.6,-77.3 496.6,624.3 						"/>
					</defs>
					<clipPath id="SVGID_50_">
						<use xlink:href="#SVGID_49_"  style="overflow:visible;"/>
					</clipPath>
					<line class="st28" x1="176.2" y1="117" x2="174" y2="511.9"/>
				</g>
			</g>
		</g>
		<g>
			<g>
				<g>
					<defs>
						<polyline id="SVGID_51_" points="-205,614.3 -205,-87.3 496.6,-77.3 496.6,624.3 						"/>
					</defs>
					<clipPath id="SVGID_52_">
						<use xlink:href="#SVGID_51_"  style="overflow:visible;"/>
					</clipPath>
					<line class="st29" x1="176.2" y1="117" x2="174" y2="511.9"/>
				</g>
			</g>
		</g>
		<g>
			<g>
				<g>
					<defs>
						<polyline id="SVGID_53_" points="-205,614.3 -205,-87.3 496.6,-77.3 496.6,624.3 						"/>
					</defs>
					<clipPath id="SVGID_54_">
						<use xlink:href="#SVGID_53_"  style="overflow:visible;"/>
					</clipPath>
					<line class="st30" x1="197.9" y1="124.8" x2="195.8" y2="509.6"/>
				</g>
			</g>
		</g>
		<g>
			<g>
				<g>
					<defs>
						<polyline id="SVGID_55_" points="-205,614.3 -205,-87.3 496.6,-77.3 496.6,624.3 						"/>
					</defs>
					<clipPath id="SVGID_56_">
						<use xlink:href="#SVGID_55_"  style="overflow:visible;"/>
					</clipPath>
					<line class="st31" x1="197.9" y1="124.8" x2="195.8" y2="509.6"/>
				</g>
			</g>
		</g>
		<g>
			<g>
				<g>
					<defs>
						<polyline id="SVGID_57_" points="-205,614.3 -205,-87.3 496.6,-77.3 496.6,624.3 						"/>
					</defs>
					<clipPath id="SVGID_58_">
						<use xlink:href="#SVGID_57_"  style="overflow:visible;"/>
					</clipPath>
					<polyline class="st32" points="262.6,8.2 278.6,59.5 286.7,488 264.1,512.5 					"/>
				</g>
			</g>
		</g>
		<g>
			<g>
				<g>
					<defs>
						<polyline id="SVGID_59_" points="-205,614.3 -205,-87.3 496.6,-77.3 496.6,624.3 						"/>
					</defs>
					<clipPath id="SVGID_60_">
						<use xlink:href="#SVGID_59_"  style="overflow:visible;"/>
					</clipPath>
					<polyline class="st33" points="262.6,8.2 278.6,59.5 286.7,488 264.1,512.5 					"/>
				</g>
			</g>
		</g>
		<g>
			<g>
				<g>
					<defs>
						<polyline id="SVGID_61_" points="-205,614.3 -205,-87.3 496.6,-77.3 496.6,624.3 						"/>
					</defs>
					<clipPath id="SVGID_62_">
						<use xlink:href="#SVGID_61_"  style="overflow:visible;"/>
					</clipPath>
					<polyline class="st34" points="14.1,12.5 -1.5,63.9 0.9,492.7 25.3,514.4 					"/>
				</g>
			</g>
		</g>
		<g>
			<g>
				<g>
					<defs>
						<line id="SVGID_63_" x1="-205" y1="614.3" x2="-205" y2="-87.3"/>
					</defs>
					<clipPath id="SVGID_64_">
						<use xlink:href="#SVGID_63_"  style="overflow:visible;"/>
					</clipPath>
					<polyline class="st35" points="14.1,12.5 -1.5,63.9 0.9,492.7 25.3,514.4 					"/>
				</g>
			</g>
		</g>
		<g>
			<g>
				<g>
					<path class="st36" d="M-205,614.3"/>
				</g>
				<g>
					<path class="st36" d="M-205,614.3"/>
					<path class="st36" d="M496.6,614.3"/>
					<polygon class="st1" points="-1,62.7 14.3,10.3 24.3,10.3 44.8,25.8 45.5,26.1 70.4,11.2 100.1,1 175.6,0 206.5,9.6 
						231.4,23.7 252.9,7.7 262.7,7.7 278.4,59.2 286.7,488 263.3,513 255.9,513 197.3,513 195.1,509.7 92.6,509.7 90.6,515 
						25.9,515 0.7,492.4 					"/>
				</g>
			</g>
		</g>
	</g>
</g>
<g id="Layer_2_1_" class="st37">
	<g class="st38">
		<g>
			<g>
				<g>
					<defs>
						<rect id="SVGID_65_" x="-205" y="-159.3" width="701.6" height="701.6"/>
					</defs>
					<clipPath id="SVGID_66_">
						<use xlink:href="#SVGID_65_"  style="overflow:visible;"/>
					</clipPath>
					<path class="st39" d="M80.7,524.4h122.4l31.3-18.7l25.5-191l-6.7-45.5l-73.1-80.8l-19.4-29L149.4-67.7l-8.7-2.8v-9.7h0.9h1.2
						l-2.1-71.9c0,0-6.7-3.5-11.2,0l-0.7,72.2l2.6-0.2l0.9-0.1v9.5l-10,2.5l-5,225.9l-20.9,34.8l-69.9,75.6l-4.5,48l10.7,83.1
						l17.9,109L80.7,524.4z"/>
				</g>
			</g>
		</g>
		<g>
			<g>
				<g>
					<defs>
						<rect id="SVGID_67_" x="-205" y="-159.3" width="701.6" height="701.6"/>
					</defs>
					<clipPath id="SVGID_68_">
						<use xlink:href="#SVGID_67_"  style="overflow:visible;"/>
					</clipPath>
					<path class="st40" d="M80.7,524.4h122.4l31.3-18.7l25.5-191l-6.7-45.5l-73.1-80.8l-19.4-29L149.4-67.7l-8.7-2.8v-9.7h0.9h1.2
						l-2.1-71.9c0,0-6.7-3.5-11.2,0l-0.7,72.2l2.6-0.2l0.9-0.1v9.5l-10,2.5l-5,225.9l-20.9,34.8l-69.9,75.6l-4.5,48l10.7,83.1
						l17.9,109L80.7,524.4z"/>
				</g>
			</g>
		</g>
		<g>
			<g>
				<g>
					<defs>
						<rect id="SVGID_69_" x="-205" y="-159.3" width="701.6" height="701.6"/>
					</defs>
					<clipPath id="SVGID_70_">
						<use xlink:href="#SVGID_69_"  style="overflow:visible;"/>
					</clipPath>
					<line class="st41" x1="133" y1="-80.2" x2="140.4" y2="-80.2"/>
				</g>
			</g>
		</g>
		<g>
			<g>
				<g>
					<defs>
						<rect id="SVGID_71_" x="-205" y="-159.3" width="701.6" height="701.6"/>
					</defs>
					<clipPath id="SVGID_72_">
						<use xlink:href="#SVGID_71_"  style="overflow:visible;"/>
					</clipPath>
					<line class="st42" x1="133" y1="-70.9" x2="140.4" y2="-70.9"/>
				</g>
			</g>
		</g>
		<g>
			<g>
				<g>
					<defs>
						<rect id="SVGID_73_" x="-205" y="-159.3" width="701.6" height="701.6"/>
					</defs>
					<clipPath id="SVGID_74_">
						<use xlink:href="#SVGID_73_"  style="overflow:visible;"/>
					</clipPath>
					<polyline class="st43" points="137.2,145.6 137.4,145.9 138.1,147.5 					"/>
				</g>
			</g>
		</g>
		<g>
			<g>
				<g>
					<defs>
						<rect id="SVGID_75_" x="-205" y="-159.3" width="701.6" height="701.6"/>
					</defs>
					<clipPath id="SVGID_76_">
						<use xlink:href="#SVGID_75_"  style="overflow:visible;"/>
					</clipPath>
					<polyline class="st44" points="134.5,-153.6 138.1,145.6 118,157.5 					"/>
				</g>
			</g>
		</g>
		<g>
			<g>
				<g>
					<defs>
						<rect id="SVGID_77_" x="-205" y="-159.3" width="701.6" height="701.6"/>
					</defs>
					<clipPath id="SVGID_78_">
						<use xlink:href="#SVGID_77_"  style="overflow:visible;"/>
					</clipPath>
					<polyline class="st45" points="160.4,159.7 138.1,145.6 138,145.9 137.2,147.5 95,240.4 44.2,296.5 44.2,335.3 71.8,489.2 
						88,498.9 142.4,498.9 138.1,147 					"/>
				</g>
			</g>
		</g>
		<g>
			<g>
				<g>
					<defs>
						<rect id="SVGID_79_" x="-205" y="-159.3" width="701.6" height="701.6"/>
					</defs>
					<clipPath id="SVGID_80_">
						<use xlink:href="#SVGID_79_"  style="overflow:visible;"/>
					</clipPath>
					<polyline class="st46" points="138,145.9 189.8,240.4 240.5,296.5 240.5,335.3 213,489.2 196.8,498.9 142.3,498.9 138.1,146.2 
											"/>
				</g>
			</g>
		</g>
		<g>
			<g>
				<g>
					<defs>
						<rect id="SVGID_81_" x="-205" y="-159.3" width="701.6" height="701.6"/>
					</defs>
					<clipPath id="SVGID_82_">
						<use xlink:href="#SVGID_81_"  style="overflow:visible;"/>
					</clipPath>
					<line class="st47" x1="189.3" y1="240.4" x2="189" y2="199.2"/>
				</g>
			</g>
		</g>
		<g>
			<g>
				<g>
					<defs>
						<rect id="SVGID_83_" x="-205" y="-159.3" width="701.6" height="701.6"/>
					</defs>
					<clipPath id="SVGID_84_">
						<use xlink:href="#SVGID_83_"  style="overflow:visible;"/>
					</clipPath>
					<line class="st48" x1="95" y1="240.4" x2="189.8" y2="240.4"/>
				</g>
			</g>
		</g>
		<g>
			<g>
				<g>
					<defs>
						<rect id="SVGID_85_" x="-205" y="-159.3" width="701.6" height="701.6"/>
					</defs>
					<clipPath id="SVGID_86_">
						<use xlink:href="#SVGID_85_"  style="overflow:visible;"/>
					</clipPath>
					<line class="st49" x1="94.5" y1="196.5" x2="94.5" y2="240.4"/>
				</g>
			</g>
		</g>
		<g>
			<g>
				<g>
					<defs>
						<rect id="SVGID_87_" x="-205" y="-159.3" width="701.6" height="701.6"/>
					</defs>
					<clipPath id="SVGID_88_">
						<use xlink:href="#SVGID_87_"  style="overflow:visible;"/>
					</clipPath>
					<polygon class="st50" points="139.3,240.4 44.2,296.5 44.2,335.3 141.9,462.7 240.5,335.3 240.5,296.5 					"/>
				</g>
			</g>
		</g>
		<g>
			<g>
				<g>
					<defs>
						<rect id="SVGID_89_" x="-205" y="-159.3" width="701.6" height="701.6"/>
					</defs>
					<clipPath id="SVGID_90_">
						<use xlink:href="#SVGID_89_"  style="overflow:visible;"/>
					</clipPath>
					<polyline class="st51" points="67.5,465.2 217.3,465.2 215.1,477.7 69.7,477.7 					"/>
				</g>
			</g>
		</g>
	</g>
</g>
</svg>
