<?xml version="1.0" encoding="utf-8"?>
<!-- Generator: Adobe Illustrator 16.0.0, SVG Export Plug-In . SVG Version: 6.00 Build 0)  -->
<!DOCTYPE svg PUBLIC "-//W3C//DTD SVG 1.1//EN" "http://www.w3.org/Graphics/SVG/1.1/DTD/svg11.dtd">
<svg version="1.1" id="Layer_1" xmlns="http://www.w3.org/2000/svg" xmlns:xlink="http://www.w3.org/1999/xlink" x="0px" y="0px"
	 width="720px" height="720px" viewBox="0 0 720 720" enable-background="new 0 0 720 720" xml:space="preserve">
<polygon fill="#656840" points="203.127,47.124 262.833,26.839 262.833,47.124 439.65,47.124 439.65,26.839 497.441,44.828 
	512.751,47.124 512.751,86.543 523.084,141.273 524.998,296.66 521.554,680.914 457.256,689.716 252.116,687.803 216.17,683.472 
	188.584,680.148 184.375,286.326 186.67,144.335 196.238,86.543 190.498,47.89 "/>
<polygon fill="#8E926B" points="184.442,282.104 252.116,687.803 457.256,689.716 524.998,315.795 523.084,141.273 187.177,141.273 
	"/>
<polyline fill="#4D4D4D" points="203.494,47.3 205.165,12.773 262.259,13.368 262.121,26.494 203.253,46.839 "/>
<polyline fill="none" stroke="#000000" stroke-miterlimit="10" points="203.494,47.3 205.165,12.773 262.259,13.368 262.121,26.494 
	203.253,46.839 "/>
<polygon fill="#4D4D4D" points="439.459,25.882 439.459,10.957 495.911,10.957 495.911,43.679 "/>
<polygon fill="none" stroke="#000000" stroke-miterlimit="10" points="439.459,25.882 439.459,10.957 495.911,10.957 
	495.911,43.679 "/>
<polygon fill="#87AC74" points="252.116,687.803 457.256,689.716 457.256,705.6 252.116,709.044 "/>
<polyline fill="#6A6B5C" points="262.258,20.142 297.181,20.142 297.181,47.124 262.832,47.124 "/>
<rect x="403.962" y="20.142" fill="#6A6B5C" width="35.688" height="26.982"/>
<polygon fill="#E7E000" points="275.08,20.142 270.486,13.061 285.795,13.061 281.204,20.142 "/>
<polygon fill="#E7E000" points="418.744,20.142 414.151,13.061 429.461,13.061 424.868,20.142 "/>
<polygon fill="#D40005" points="213.396,683.138 206.499,694.162 232.655,694.162 229.115,685.031 "/>
<polygon fill="#D40005" points="496.926,684.204 503.823,695.229 477.667,695.229 481.207,686.098 "/>
<g>
	<defs>
		<rect id="SVGID_1_" width="720" height="720"/>
	</defs>
	<clipPath id="SVGID_2_">
		<use xlink:href="#SVGID_1_"  overflow="visible"/>
	</clipPath>
	<path clip-path="url(#SVGID_2_)" fill="#46472C" d="M412.638,141.219c-1.979,0.531-3.558,1.181-5.393-0.392
		c-3.403-2.918-2.902-8.403-2.59-12.399c0.288-3.665,0.172-7.225,0.086-10.903c0-11.677-0.549-23.381-0.861-35.054
		c-0.12-4.52,2.033-9.153,5.795-11.734c4.542-3.116,10.717-2.079,15.879-1.945c4.497,0.117,8.934,0.292,13.43-0.045
		c8.145-0.609,10.75,6.402,11.215,13.292c0.52,7.712,0.024,15.599,0.028,23.326l0.015,29.927c0,1.941,0.635,3.85-0.698,5.59
		c-0.963,1.255-2.671,1.728-4.251,1.661c-1.58-0.068-3.101-0.586-4.639-0.956c-3.968-0.955-8.076-0.707-12.121-0.746
		c-2.725-0.027-5.448-0.083-8.173-0.144c-2.437-0.054-4.914-0.176-7.302,0.413C412.916,141.145,412.775,141.182,412.638,141.219"/>
	<path clip-path="url(#SVGID_2_)" fill="none" stroke="#4B4E30" stroke-miterlimit="10" d="M412.638,141.219
		c-1.979,0.531-3.558,1.181-5.393-0.392c-3.403-2.918-2.902-8.403-2.59-12.399c0.288-3.665,0.172-7.225,0.086-10.903
		c0-11.677-0.549-23.381-0.861-35.054c-0.12-4.52,2.033-9.153,5.795-11.734c4.542-3.116,10.717-2.079,15.879-1.945
		c4.497,0.117,8.934,0.292,13.43-0.045c8.145-0.609,10.75,6.402,11.215,13.292c0.52,7.712,0.024,15.599,0.028,23.326l0.015,29.927
		c0,1.941,0.635,3.85-0.698,5.59c-0.963,1.255-2.671,1.728-4.251,1.661c-1.58-0.068-3.101-0.586-4.639-0.956
		c-3.968-0.955-8.076-0.707-12.121-0.746c-2.725-0.027-5.448-0.083-8.173-0.144c-2.437-0.054-4.914-0.176-7.302,0.413
		C412.916,141.145,412.775,141.182,412.638,141.219z"/>
	<polygon clip-path="url(#SVGID_2_)" fill="#7D7F49" points="408.791,95.682 408.791,81.874 409.613,77.765 411.257,76.121 
		413.887,73.655 416.682,72.505 422.27,72.505 432.298,72.505 435.914,72.505 439.53,73.162 442.653,76.285 444.955,81.052 
		444.955,88.614 444.955,129.708 444.955,132.503 442.817,134.475 438.051,135.462 429.832,135.462 422.764,135.462 
		413.065,135.462 409.942,132.832 408.791,126.75 	"/>
	<polygon clip-path="url(#SVGID_2_)" fill="none" stroke="#4B4E30" stroke-miterlimit="10" points="408.791,95.682 408.791,81.874 
		409.613,77.765 411.257,76.121 413.887,73.655 416.682,72.505 422.27,72.505 432.298,72.505 435.914,72.505 439.53,73.162 
		442.653,76.285 444.955,81.052 444.955,88.614 444.955,129.708 444.955,132.503 442.817,134.475 438.051,135.462 429.832,135.462 
		422.764,135.462 413.065,135.462 409.942,132.832 408.791,126.75 	"/>
	<polygon clip-path="url(#SVGID_2_)" fill="#8C8E61" points="413.229,97.819 420.462,90.587 437.394,90.587 443.476,97.819 
		443.476,120.003 436.735,127.901 422.6,127.901 414.052,120.668 	"/>
	<polygon clip-path="url(#SVGID_2_)" fill="none" stroke="#4B4E30" stroke-miterlimit="10" points="413.229,97.819 420.462,90.587 
		437.394,90.587 443.476,97.819 443.476,120.003 436.735,127.901 422.6,127.901 414.052,120.668 	"/>
	<path clip-path="url(#SVGID_2_)" fill="#C8D1A6" d="M419.969,94.326h17.425c1.264,0-0.666,7.239-0.968,7.752
		c-2.028,3.44-6.636,5.256-10.505,4.599c-5.552-0.943-6.667-7.478-5.746-12.351"/>
	<path clip-path="url(#SVGID_2_)" fill="none" stroke="#4B4E30" stroke-miterlimit="10" d="M419.969,94.326h17.425
		c1.264,0-0.666,7.239-0.968,7.752c-2.028,3.44-6.636,5.256-10.505,4.599c-5.552-0.943-6.667-7.478-5.746-12.351"/>
	<path clip-path="url(#SVGID_2_)" fill="#46472C" d="M265.202,141.219c-1.979,0.531-3.558,1.181-5.393-0.392
		c-3.403-2.918-2.902-8.403-2.588-12.399c0.287-3.665,0.171-7.225,0.085-10.903c0-11.677-0.549-23.381-0.861-35.054
		c-0.121-4.52,2.033-9.153,5.795-11.734c4.541-3.116,10.716-2.079,15.879-1.945c4.496,0.117,8.933,0.292,13.429-0.045
		c8.144-0.609,10.75,6.402,11.215,13.292c0.52,7.712,0.024,15.599,0.028,23.326c0.005,9.976,0.01,19.952,0.015,29.927
		c0.001,1.941,0.635,3.85-0.699,5.59c-0.962,1.255-2.67,1.728-4.25,1.661c-1.581-0.068-3.101-0.586-4.639-0.956
		c-3.968-0.955-8.076-0.707-12.121-0.746c-2.725-0.027-5.449-0.083-8.173-0.144c-2.436-0.054-4.913-0.176-7.302,0.413
		C265.479,141.145,265.34,141.182,265.202,141.219"/>
	<path clip-path="url(#SVGID_2_)" fill="none" stroke="#4B4E30" stroke-miterlimit="10" d="M265.202,141.219
		c-1.979,0.531-3.558,1.181-5.393-0.392c-3.403-2.918-2.902-8.403-2.588-12.399c0.287-3.665,0.171-7.225,0.085-10.903
		c0-11.677-0.549-23.381-0.861-35.054c-0.121-4.52,2.033-9.153,5.795-11.734c4.541-3.116,10.716-2.079,15.879-1.945
		c4.496,0.117,8.933,0.292,13.429-0.045c8.144-0.609,10.75,6.402,11.215,13.292c0.52,7.712,0.024,15.599,0.028,23.326
		c0.005,9.976,0.01,19.952,0.015,29.927c0.001,1.941,0.635,3.85-0.699,5.59c-0.962,1.255-2.67,1.728-4.25,1.661
		c-1.581-0.068-3.101-0.586-4.639-0.956c-3.968-0.955-8.076-0.707-12.121-0.746c-2.725-0.027-5.449-0.083-8.173-0.144
		c-2.436-0.054-4.913-0.176-7.302,0.413C265.479,141.145,265.34,141.182,265.202,141.219z"/>
	<polygon clip-path="url(#SVGID_2_)" fill="#7D7F49" points="261.355,95.682 261.355,81.874 262.178,77.765 263.821,76.121 
		266.452,73.655 269.246,72.505 274.834,72.505 284.861,72.505 288.479,72.505 292.095,73.162 295.217,76.285 297.52,81.052 
		297.52,88.614 297.52,129.708 297.52,132.503 295.381,134.475 290.615,135.462 282.396,135.462 275.328,135.462 265.629,135.462 
		262.506,132.832 261.355,126.75 	"/>
	<polygon clip-path="url(#SVGID_2_)" fill="none" stroke="#4B4E30" stroke-miterlimit="10" points="261.355,95.682 261.355,81.874 
		262.178,77.765 263.821,76.121 266.452,73.655 269.246,72.505 274.834,72.505 284.861,72.505 288.479,72.505 292.095,73.162 
		295.217,76.285 297.52,81.052 297.52,88.614 297.52,129.708 297.52,132.503 295.381,134.475 290.615,135.462 282.396,135.462 
		275.328,135.462 265.629,135.462 262.506,132.832 261.355,126.75 	"/>
	<polygon clip-path="url(#SVGID_2_)" fill="#8C8E61" points="265.794,97.819 273.026,90.587 289.958,90.587 296.04,97.819 
		296.04,120.003 289.3,127.901 275.164,127.901 266.616,120.668 	"/>
	<polygon clip-path="url(#SVGID_2_)" fill="none" stroke="#4B4E30" stroke-miterlimit="10" points="265.794,97.819 273.026,90.587 
		289.958,90.587 296.04,97.819 296.04,120.003 289.3,127.901 275.164,127.901 266.616,120.668 	"/>
	<path clip-path="url(#SVGID_2_)" fill="#C8D1A6" d="M272.533,94.326h17.424c1.265,0-0.665,7.239-0.967,7.752
		c-2.028,3.44-6.636,5.256-10.505,4.599c-5.552-0.943-6.667-7.478-5.746-12.351"/>
	<path clip-path="url(#SVGID_2_)" fill="none" stroke="#4B4E30" stroke-miterlimit="10" d="M272.533,94.326h17.424
		c1.265,0-0.665,7.239-0.967,7.752c-2.028,3.44-6.636,5.256-10.505,4.599c-5.552-0.943-6.667-7.478-5.746-12.351"/>
	<polygon clip-path="url(#SVGID_2_)" fill="#50685B" points="274.079,451.771 350.517,451.771 350.517,602.166 274.079,602.166 
		274.079,461.917 	"/>
	<polygon clip-path="url(#SVGID_2_)" fill="none" stroke="#8E8D68" stroke-miterlimit="10" points="274.079,451.771 
		350.517,451.771 350.517,602.166 274.079,602.166 274.079,461.917 	"/>
	<line clip-path="url(#SVGID_2_)" fill="#DBDBB9" x1="352.477" y1="451.771" x2="352.477" y2="602.166"/>
	
		<line clip-path="url(#SVGID_2_)" fill="none" stroke="#35352A" stroke-miterlimit="10" x1="352.477" y1="451.771" x2="352.477" y2="602.166"/>
	<rect x="354.124" y="451.771" clip-path="url(#SVGID_2_)" fill="#50685B" width="78.242" height="150.396"/>
	
		<rect x="354.124" y="451.771" clip-path="url(#SVGID_2_)" fill="none" stroke="#8E8D68" stroke-miterlimit="10" width="78.242" height="150.396"/>
	
		<line clip-path="url(#SVGID_2_)" fill="none" stroke="#8E8D68" stroke-miterlimit="10" x1="413.876" y1="461.917" x2="432.366" y2="461.917"/>
	
		<line clip-path="url(#SVGID_2_)" fill="none" stroke="#8E8D68" stroke-miterlimit="10" x1="428.082" y1="481.76" x2="354.124" y2="481.76"/>
	
		<line clip-path="url(#SVGID_2_)" fill="none" stroke="#8E8D68" stroke-miterlimit="10" x1="412.975" y1="505.435" x2="431.238" y2="505.435"/>
	
		<line clip-path="url(#SVGID_2_)" fill="none" stroke="#8E8D68" stroke-miterlimit="10" x1="354.124" y1="512.425" x2="426.277" y2="512.425"/>
	
		<line clip-path="url(#SVGID_2_)" fill="none" stroke="#8E8D68" stroke-miterlimit="10" x1="354.124" y1="543.315" x2="426.277" y2="543.315"/>
	
		<line clip-path="url(#SVGID_2_)" fill="none" stroke="#8E8D68" stroke-miterlimit="10" x1="413.876" y1="548.953" x2="432.366" y2="548.953"/>
	
		<line clip-path="url(#SVGID_2_)" fill="none" stroke="#8E8D68" stroke-miterlimit="10" x1="428.082" y1="573.756" x2="354.124" y2="573.756"/>
	
		<line clip-path="url(#SVGID_2_)" fill="none" stroke="#8E8D68" stroke-miterlimit="10" x1="413.876" y1="592.245" x2="431.238" y2="592.245"/>
	
		<line clip-path="url(#SVGID_2_)" fill="none" stroke="#8E8D68" stroke-miterlimit="10" x1="294.597" y1="461.917" x2="274.078" y2="461.917"/>
	
		<line clip-path="url(#SVGID_2_)" fill="none" stroke="#8E8D68" stroke-miterlimit="10" x1="280.167" y1="481.76" x2="350.517" y2="481.76"/>
	
		<line clip-path="url(#SVGID_2_)" fill="none" stroke="#8E8D68" stroke-miterlimit="10" x1="294.597" y1="505.435" x2="274.078" y2="505.435"/>
	
		<line clip-path="url(#SVGID_2_)" fill="none" stroke="#8E8D68" stroke-miterlimit="10" x1="280.167" y1="512.425" x2="350.517" y2="512.425"/>
	
		<line clip-path="url(#SVGID_2_)" fill="none" stroke="#8E8D68" stroke-miterlimit="10" x1="280.167" y1="543.315" x2="350.517" y2="543.315"/>
	
		<line clip-path="url(#SVGID_2_)" fill="none" stroke="#8E8D68" stroke-miterlimit="10" x1="294.597" y1="548.953" x2="274.078" y2="548.953"/>
	
		<line clip-path="url(#SVGID_2_)" fill="none" stroke="#8E8D68" stroke-miterlimit="10" x1="280.167" y1="574.657" x2="350.517" y2="574.657"/>
	
		<line clip-path="url(#SVGID_2_)" fill="none" stroke="#8E8D68" stroke-miterlimit="10" x1="294.597" y1="592.245" x2="274.078" y2="592.245"/>
</g>
</svg>
