<?xml version="1.0" encoding="utf-8"?>
<!-- Generator: Adobe Illustrator 16.0.0, SVG Export Plug-In . SVG Version: 6.00 Build 0)  -->
<!DOCTYPE svg PUBLIC "-//W3C//DTD SVG 1.1//EN" "http://www.w3.org/Graphics/SVG/1.1/DTD/svg11.dtd">
<svg version="1.1" id="Layer_1" xmlns="http://www.w3.org/2000/svg" xmlns:xlink="http://www.w3.org/1999/xlink" x="0px" y="0px"
	 width="720px" height="720px" viewBox="0 0 720 720" enable-background="new 0 0 720 720" xml:space="preserve">
<g>
	<defs>
		<rect id="SVGID_1_" width="720" height="720"/>
	</defs>
	<clipPath id="SVGID_2_">
		<use xlink:href="#SVGID_1_"  overflow="visible"/>
	</clipPath>
	<g clip-path="url(#SVGID_2_)">
		<defs>
			<rect id="SVGID_3_" x="239.083" y="156.557" width="246.29" height="492.57"/>
		</defs>
		<clipPath id="SVGID_4_">
			<use xlink:href="#SVGID_3_"  overflow="visible"/>
		</clipPath>
		<g clip-path="url(#SVGID_4_)">
			<defs>
				<rect id="SVGID_5_" x="239.083" y="156.557" width="246.29" height="492.57"/>
			</defs>
			<clipPath id="SVGID_6_">
				<use xlink:href="#SVGID_5_"  overflow="visible"/>
			</clipPath>
			<polygon clip-path="url(#SVGID_6_)" fill="#423F39" points="485.373,620.217 485.313,622.767 485.304,620.217 			"/>
			<polygon clip-path="url(#SVGID_6_)" fill="#423F39" points="485.304,620.217 485.313,622.767 485.043,634.477 482.554,648.747 
				433.403,648.747 432.953,639.747 432.953,620.217 			"/>
			<path clip-path="url(#SVGID_6_)" fill="#AB9774" d="M482.554,187.187l2.27,425.2h-31.15v-1h28.591v-21.59v-42.52v-23.23
				c-6.7-3.13-13.011-3.52-17.99-2.97l-0.11-2.14v-287.49l-0.8,0.02v-0.02h-31.37l-1.62-42.67l-0.49-15.56v-15.66h48.061
				L482.554,187.187z"/>
			<path clip-path="url(#SVGID_6_)" fill="#AB9774" d="M482.264,589.797v21.59h-28.591v-21.59
				C453.673,589.797,460.313,594.897,482.264,589.797"/>
			<path clip-path="url(#SVGID_6_)" fill="#AB9774" d="M482.264,547.277v42.52c-21.95,5.101-28.591,0-28.591,0v-42.52
				C453.673,547.277,460.313,552.387,482.264,547.277 M469.533,570.787c0-1.561-1.27-2.83-2.84-2.83c-1.561,0-2.83,1.27-2.83,2.83
				c0,1.57,1.27,2.84,2.83,2.84C468.264,573.627,469.533,572.357,469.533,570.787"/>
			<path clip-path="url(#SVGID_6_)" fill="#AB9774" d="M482.264,524.047v23.23c-21.95,5.109-28.591,0-28.591,0v-23.23
				c0,0,4.2-2.26,10.601-2.97C469.253,520.527,475.563,520.917,482.264,524.047"/>
			<path clip-path="url(#SVGID_6_)" fill="#AB9774" d="M466.693,567.957c1.57,0,2.84,1.27,2.84,2.83c0,1.57-1.27,2.84-2.84,2.84
				c-1.561,0-2.83-1.27-2.83-2.84C463.863,569.227,465.133,567.957,466.693,567.957"/>
			<polygon clip-path="url(#SVGID_6_)" fill="#AB9774" points="464.163,231.447 464.163,518.938 463.363,518.938 463.363,233.447 
							"/>
			<polygon clip-path="url(#SVGID_6_)" fill="#AB9774" points="464.163,231.447 463.363,233.447 463.363,231.467 			"/>
			<polygon clip-path="url(#SVGID_6_)" fill="#393221" points="463.363,231.447 463.354,231.467 432.023,232.117 431.993,231.447 
							"/>
			<polygon clip-path="url(#SVGID_6_)" fill="#393221" points="440.943,289.547 462.894,232.667 446.613,275.367 			"/>
			<path clip-path="url(#SVGID_6_)" fill="#AB9774" d="M463.363,518.938h0.8l0.11,2.14c-6.4,0.71-10.601,2.97-10.601,2.97v23.23
				v42.52v21.59v1h-6.47l1.639-93.449h13.682H463.363z"/>
			<polygon clip-path="url(#SVGID_6_)" fill="#AB9774" points="448.843,518.938 447.203,612.387 446.403,612.387 448.043,518.938 
							"/>
			<polygon clip-path="url(#SVGID_6_)" fill="#AB9774" points="441.163,289.637 441.163,597.807 440.903,289.637 			"/>
			<polygon clip-path="url(#SVGID_6_)" fill="#393221" points="440.943,289.547 446.613,275.367 441.163,289.637 440.903,289.637 
							"/>
			<polygon clip-path="url(#SVGID_6_)" fill="#AB9774" points="430.373,188.777 431.993,231.447 431.703,231.447 			"/>
			<polygon clip-path="url(#SVGID_6_)" fill="#AB9774" points="430.373,188.777 431.703,231.447 429.483,173.217 429.773,173.217 
							"/>
			<polygon clip-path="url(#SVGID_6_)" fill="#AB9774" points="430.373,188.777 429.773,173.217 429.883,173.217 			"/>
			<polygon clip-path="url(#SVGID_6_)" fill="#AB9774" points="429.883,157.557 429.883,173.217 429.773,173.217 429.483,173.217 
				429.443,172.217 429.443,156.557 477.783,156.557 477.943,157.557 			"/>
			<rect x="421.773" y="555.847" clip-path="url(#SVGID_6_)" fill="#1A1A1A" width="0.92" height="36.08"/>
			<rect x="400.053" y="555.847" clip-path="url(#SVGID_6_)" fill="#1A1A1A" width="21.721" height="36.08"/>
			<path clip-path="url(#SVGID_6_)" fill="#665A42" d="M415.283,612.877v20c-10.21,8.76-16.51-0.52-16.51-0.52v-18.971
				C401.753,611.597,415.283,612.877,415.283,612.877"/>
			<rect x="399.774" y="555.847" clip-path="url(#SVGID_6_)" fill="#AB9774" width="0.279" height="36.08"/>
			<path clip-path="url(#SVGID_6_)" fill="#AB9774" d="M400.054,591.927h21.72h0.92v-36.08h-0.92h-21.72h-0.28h-0.63h-0.37h-21.63
				h-0.23h-0.77h-0.37h-21.5h-0.33h-0.8h-0.04h-21.79h-0.54h-0.31h-22.32v36.08h22.32h0.31h0.54h21.79h0.04h0.8h0.33h21.5h0.37h0.77
				h0.23h21.63h0.37h0.63H400.054z M440.903,289.637l0.26,308.169h-156.26V289.637H440.903z"/>
			<rect x="399.143" y="555.847" clip-path="url(#SVGID_6_)" fill="#1A1A1A" width="0.631" height="36.08"/>
			<rect x="398.774" y="555.847" clip-path="url(#SVGID_6_)" fill="#1A1A1A" width="0.369" height="36.08"/>
			<rect x="377.143" y="555.847" clip-path="url(#SVGID_6_)" fill="#1A1A1A" width="21.631" height="36.08"/>
			<rect x="376.914" y="555.847" clip-path="url(#SVGID_6_)" fill="#AB9774" width="0.229" height="36.08"/>
			<rect x="376.143" y="555.847" clip-path="url(#SVGID_6_)" fill="#1A1A1A" width="0.771" height="36.08"/>
			<rect x="375.774" y="555.847" clip-path="url(#SVGID_6_)" fill="#1A1A1A" width="0.369" height="36.08"/>
			<rect x="354.273" y="555.847" clip-path="url(#SVGID_6_)" fill="#1A1A1A" width="21.5" height="36.08"/>
			<polygon clip-path="url(#SVGID_6_)" fill="#393221" points="362.373,173.217 429.483,173.217 431.703,231.447 431.993,231.447 
				432.023,232.117 463.353,231.467 462.913,232.627 462.894,232.667 440.943,289.547 440.903,289.637 284.903,289.637 
				260.653,232.447 292.313,232.447 294.573,173.217 362.083,173.217 			"/>
			<path clip-path="url(#SVGID_6_)" fill="#1E1911" d="M362.273,628.057c3.149-0.01,6.28,0.101,9.359-0.239v2.93h-15.149v-2.74
				c0.09,0.01,0.18,0.01,0.27,0.01C358.593,628.057,360.434,628.067,362.273,628.057"/>
			<path clip-path="url(#SVGID_6_)" fill="#1E1911" d="M356.483,626.147h15.149v1.67c-3.079,0.34-6.21,0.229-9.359,0.239
				c-1.84,0.011-3.68,0-5.52-0.04c-0.09,0-0.18,0-0.27-0.01V626.147z"/>
			<path clip-path="url(#SVGID_6_)" fill="#635847" d="M356.483,626.147v1.859c-3.83-0.12-7.57-0.729-10.91-2.729
				c-2.09-1.261-4.42-3.48-4.88-5.99c-0.09-0.45-0.08-0.869-0.01-1.271c0.67-3.84,5.51-6.829,8.81-8.189
				c4.39-1.83,9.25-2.01,13.95-2.07c5.01-0.06,9.84-0.399,14.68,1.351c3.181,1.14,7.17,3.119,7.931,6.76
				c0.189,0.859,0.149,1.76-0.04,2.62c-0.971,4.27-5.141,6.83-8.99,8.17c-1.78,0.609-3.58,0.96-5.391,1.16v-1.67H356.483z"/>
			<rect x="353.943" y="555.847" clip-path="url(#SVGID_6_)" fill="#AB9774" width="0.33" height="36.08"/>
			<rect x="353.143" y="555.847" clip-path="url(#SVGID_6_)" fill="#1A1A1A" width="0.8" height="36.08"/>
			<rect x="353.103" y="555.847" clip-path="url(#SVGID_6_)" fill="#1A1A1A" width="0.04" height="36.08"/>
			<rect x="331.313" y="555.847" clip-path="url(#SVGID_6_)" fill="#1A1A1A" width="21.79" height="36.08"/>
			<rect x="330.773" y="555.847" clip-path="url(#SVGID_6_)" fill="#AB9774" width="0.54" height="36.08"/>
			<rect x="330.463" y="555.847" clip-path="url(#SVGID_6_)" fill="#1A1A1A" width="0.31" height="36.08"/>
			<rect x="308.143" y="555.847" clip-path="url(#SVGID_6_)" fill="#1A1A1A" width="22.32" height="36.08"/>
			<path clip-path="url(#SVGID_6_)" fill="#665A42" d="M328.993,612.877v20c-10.22,8.76-16.51-0.52-16.51-0.52v-18.971
				C315.453,611.597,328.993,612.877,328.993,612.877"/>
			<path clip-path="url(#SVGID_6_)" fill="#AB9774" d="M294.573,157.557v15.66l-2.26,59.23h-31.66v287.49l-0.17,2.029
				c-9.82-0.75-16.94,3.08-16.94,3.08v23.23v42.52v21.59v1h-4.35l2.27-425.2l4.77-30.63H294.573z"/>
			<polygon clip-path="url(#SVGID_6_)" fill="#423F39" points="291.603,620.217 291.603,639.747 291.163,648.747 242.013,648.747 
				239.523,634.477 239.193,620.217 			"/>
			<path clip-path="url(#SVGID_6_)" fill="#AB9774" d="M275.973,519.938l1.64,93.449h-34.07v-1h28.6v-21.59v-42.52v-23.23
				c-4.11-1.91-8.07-2.81-11.66-3.08l0.17-2.029H275.973z"/>
			<path clip-path="url(#SVGID_6_)" fill="#968468" d="M272.143,590.797v21.59h-28.6v-21.59
				C243.543,590.797,250.183,595.897,272.143,590.797"/>
			<path clip-path="url(#SVGID_6_)" fill="#968468" d="M272.143,548.277v42.52h-28.6v-42.52
				C243.543,548.277,250.183,553.387,272.143,548.277 M259.403,571.787c0-1.561-1.27-2.83-2.84-2.83c-1.56,0-2.83,1.27-2.83,2.83
				c0,1.57,1.27,2.84,2.83,2.84C258.133,574.627,259.403,573.357,259.403,571.787"/>
			<path clip-path="url(#SVGID_6_)" fill="#968468" d="M272.143,525.047v23.23h-28.6v-23.23c0,0,7.12-3.83,16.94-3.08
				C264.073,522.237,268.033,523.137,272.143,525.047"/>
			<path clip-path="url(#SVGID_6_)" fill="#968468" d="M243.543,548.277h28.6C250.184,553.387,243.543,548.277,243.543,548.277"/>
			<path clip-path="url(#SVGID_6_)" fill="#968468" d="M243.543,590.797h28.6C250.184,595.897,243.543,590.797,243.543,590.797"/>
			<path clip-path="url(#SVGID_6_)" fill="#968468" d="M256.563,568.957c1.57,0,2.84,1.27,2.84,2.83c0,1.57-1.27,2.84-2.84,2.84
				c-1.56,0-2.83-1.27-2.83-2.84C253.733,570.227,255.003,568.957,256.563,568.957"/>
			<path clip-path="url(#SVGID_6_)" fill="#72644C" d="M291.603,639.747v-19.531h-52.409l0.33,14.261l2.49,14.271h49.149
				L291.603,639.747z M312.484,632.357c0,0,6.29,9.279,16.509,0.52v-20c0,0-13.54-1.28-16.509,0.51V632.357z M398.773,632.357
				c0,0,6.3,9.279,16.51,0.52v-20c0,0-13.53-1.28-16.51,0.51V632.357z M482.554,648.747l2.489-14.271l0.271-11.71l0.06,11.04
				l-2.72,15.32h-50.05l-0.34-11.229l-70.04,2.71l-70.041-2.71l-0.339,11.229h-50.04l-2.721-15.32l0.111-20.42h4.35h34.07
				l-1.641-93.449h-15.319V232.446l24.25,57.191v308.169h156.259V289.637l5.45-14.27l16.75-41.921v285.491h-0.84h-13.681h-0.8
				l-1.64,93.449h0.8h6.47h31.15h0.44l0.04,7.829h-52.351v19.531l0.45,9H482.554z M386.014,618.487
				c0.189-0.86,0.229-1.761,0.04-2.62c-0.761-3.641-4.75-5.62-7.931-6.76c-4.84-1.75-9.67-1.41-14.68-1.351
				c-4.701,0.061-9.56,0.24-13.951,2.07c-3.299,1.36-8.14,4.35-8.81,8.189c-0.069,0.4-0.08,0.82,0.011,1.271
				c0.46,2.51,2.79,4.729,4.88,5.99c3.339,2,7.08,2.609,10.91,2.729v2.74h15.149v-2.93c1.811-0.2,3.609-0.551,5.391-1.16
				C380.873,625.317,385.043,622.757,386.014,618.487"/>
		</g>
	</g>
</g>
<polyline fill="none" stroke="#3B3321" stroke-miterlimit="10" points="485.313,622.767 485.373,633.807 482.653,649.127 
	432.604,649.127 432.264,637.897 362.224,640.607 362.084,640.617 "/>
<polyline fill="none" stroke="#3B3321" stroke-miterlimit="10" points="477.943,157.557 478.224,157.557 482.993,188.187 
	485.264,612.387 485.304,620.217 "/>
<polyline fill="none" stroke="#3B3321" stroke-miterlimit="10" points="239.193,613.387 239.083,633.807 241.803,649.127 
	291.843,649.127 292.184,637.897 362.224,640.607 362.373,640.617 "/>
<polyline fill="none" stroke="#544D41" stroke-miterlimit="10" points="260.653,232.447 260.653,519.938 275.973,519.938 
	277.613,613.387 "/>
<polyline fill="none" stroke="#544D41" stroke-miterlimit="10" points="277.613,613.387 243.543,613.387 239.193,613.387 
	241.463,188.187 246.233,157.557 294.573,157.557 294.573,173.217 "/>
<polyline fill="none" stroke="#3B3321" stroke-miterlimit="10" points="484.823,612.387 485.264,612.387 485.373,612.387 "/>
<line fill="none" stroke="#000000" stroke-miterlimit="10" x1="463.354" y1="231.467" x2="463.363" y2="231.467"/>
<g>
	<defs>
		<rect id="SVGID_7_" width="720" height="720"/>
	</defs>
	<clipPath id="SVGID_8_">
		<use xlink:href="#SVGID_7_"  overflow="visible"/>
	</clipPath>
	<path clip-path="url(#SVGID_8_)" fill="none" stroke="#665A42" stroke-miterlimit="10" d="M312.483,632.357
		c0,0,6.29,9.279,16.51,0.52v-20c0,0-13.54-1.28-16.51,0.51V632.357z"/>
	<path clip-path="url(#SVGID_8_)" fill="none" stroke="#665A42" stroke-miterlimit="10" d="M398.773,632.357
		c0,0,6.3,9.279,16.51,0.52v-20c0,0-13.531-1.28-16.51,0.51V632.357z"/>
	<path clip-path="url(#SVGID_8_)" fill="none" stroke="#1E1911" stroke-width="0.75" stroke-miterlimit="10" d="M356.483,628.007
		c-3.83-0.12-7.57-0.729-10.91-2.729c-2.09-1.261-4.42-3.48-4.88-5.99c-0.09-0.45-0.08-0.87-0.01-1.271
		c0.67-3.84,5.51-6.829,8.81-8.189c4.39-1.83,9.25-2.01,13.95-2.07c5.01-0.06,9.84-0.399,14.68,1.351
		c3.181,1.14,7.17,3.119,7.931,6.76c0.189,0.859,0.149,1.76-0.04,2.619c-0.971,4.271-5.141,6.831-8.99,8.171
		c-1.78,0.609-3.58,0.96-5.391,1.16"/>
	<polygon clip-path="url(#SVGID_8_)" fill="none" stroke="#1E1911" stroke-width="0.75" stroke-miterlimit="10" points="
		371.633,627.817 371.633,626.147 356.484,626.147 356.484,628.007 356.484,630.747 371.633,630.747 	"/>
	<polygon clip-path="url(#SVGID_8_)" fill="none" stroke="#1E1911" stroke-width="0.75" stroke-miterlimit="10" points="
		239.193,620.217 291.604,620.217 291.604,639.747 291.164,648.747 242.013,648.747 239.523,634.477 	"/>
	<polygon clip-path="url(#SVGID_8_)" fill="none" stroke="#1E1911" stroke-width="0.75" stroke-miterlimit="10" points="
		485.313,622.767 485.373,620.217 485.304,620.217 432.953,620.217 432.953,639.747 433.403,648.747 482.554,648.747 
		485.043,634.477 	"/>
	
		<line clip-path="url(#SVGID_8_)" fill="none" stroke="#000000" stroke-miterlimit="10" x1="284.903" y1="597.807" x2="284.903" y2="289.638"/>
	
		<line clip-path="url(#SVGID_8_)" fill="none" stroke="#000000" stroke-miterlimit="10" x1="441.163" y1="289.637" x2="441.163" y2="597.807"/>
	<polyline clip-path="url(#SVGID_8_)" fill="none" stroke="#544D41" stroke-miterlimit="10" points="446.403,612.387 
		447.203,612.387 453.673,612.387 484.823,612.387 482.554,187.187 477.943,157.557 477.783,156.557 429.443,156.557 
		429.443,172.217 429.483,173.217 431.703,231.447 431.993,231.447 463.363,231.447 463.363,231.467 463.363,233.447 
		463.363,518.938 462.523,518.938 448.842,518.938 448.043,518.938 446.403,612.387 	"/>
	<path clip-path="url(#SVGID_8_)" fill="none" stroke="#000000" stroke-miterlimit="10" d="M453.673,547.277v-23.23
		c0,0,4.2-2.26,10.601-2.97c4.979-0.55,11.29-0.16,17.99,2.97v23.23v42.52v21.59h-28.591v-21.59V547.277z"/>
	<path clip-path="url(#SVGID_8_)" fill="none" stroke="#000000" stroke-miterlimit="10" d="M453.673,547.277
		c0,0,6.641,5.109,28.591,0"/>
	<path clip-path="url(#SVGID_8_)" fill="none" stroke="#000000" stroke-miterlimit="10" d="M453.673,589.797
		c0,0,6.641,5.101,28.591,0"/>
	<path clip-path="url(#SVGID_8_)" fill="none" stroke="#000000" stroke-miterlimit="10" d="M469.533,570.787
		c0,1.57-1.27,2.84-2.84,2.84c-1.561,0-2.83-1.27-2.83-2.84c0-1.561,1.27-2.83,2.83-2.83
		C468.264,567.957,469.533,569.227,469.533,570.787z"/>
	<path clip-path="url(#SVGID_8_)" fill="none" stroke="#000000" stroke-miterlimit="10" d="M243.543,548.277v-23.23
		c0,0,7.12-3.83,16.94-3.08c3.59,0.271,7.55,1.17,11.66,3.08v23.23v42.52v21.59h-28.6v-21.59V548.277z"/>
	<path clip-path="url(#SVGID_8_)" fill="none" stroke="#000000" stroke-miterlimit="10" d="M243.543,548.277c0,0,6.64,5.109,28.6,0"
		/>
	<path clip-path="url(#SVGID_8_)" fill="none" stroke="#000000" stroke-miterlimit="10" d="M243.543,590.797c0,0,6.64,5.101,28.6,0"
		/>
	<path clip-path="url(#SVGID_8_)" fill="none" stroke="#000000" stroke-miterlimit="10" d="M259.403,571.787
		c0,1.57-1.27,2.84-2.84,2.84c-1.56,0-2.83-1.27-2.83-2.84c0-1.561,1.27-2.83,2.83-2.83
		C258.133,568.957,259.403,570.227,259.403,571.787z"/>
	<polyline clip-path="url(#SVGID_8_)" fill="none" stroke="#000000" stroke-miterlimit="10" points="440.903,289.637 
		284.903,289.637 260.653,232.447 	"/>
	<polyline clip-path="url(#SVGID_8_)" fill="none" stroke="#000000" stroke-miterlimit="10" points="464.163,231.447 
		463.363,233.447 446.613,275.367 440.943,289.547 	"/>
	<polyline clip-path="url(#SVGID_8_)" fill="none" stroke="#000000" stroke-miterlimit="10" points="284.903,597.807 
		441.163,597.807 440.903,289.638 440.943,289.546 462.894,232.667 462.913,232.626 	"/>
	
		<line clip-path="url(#SVGID_8_)" fill="none" stroke="#B2A4A4" stroke-width="2" stroke-miterlimit="10" x1="330.773" y1="555.847" x2="330.773" y2="591.927"/>
	<polyline clip-path="url(#SVGID_8_)" fill="none" stroke="#B2A4A4" stroke-width="2" stroke-miterlimit="10" points="
		330.463,591.927 308.144,591.927 308.144,555.847 330.463,555.847 	"/>
	<polygon clip-path="url(#SVGID_8_)" fill="none" stroke="#B2A4A4" stroke-width="2" stroke-miterlimit="10" points="
		330.463,555.847 330.773,555.847 331.313,555.847 353.104,555.847 353.104,591.927 331.313,591.927 330.773,591.927 
		330.463,591.927 	"/>
	<polygon clip-path="url(#SVGID_8_)" fill="none" stroke="#B2A4A4" stroke-width="2" stroke-miterlimit="10" points="
		353.143,555.847 353.943,555.847 354.273,555.847 375.773,555.847 375.773,591.927 354.273,591.927 353.943,591.927 
		353.143,591.927 	"/>
	<polygon clip-path="url(#SVGID_8_)" fill="none" stroke="#B2A4A4" stroke-width="2" stroke-miterlimit="10" points="
		376.144,555.847 376.914,555.847 377.144,555.847 398.773,555.847 398.773,591.927 377.144,591.927 376.914,591.927 
		376.144,591.927 	"/>
	<polygon clip-path="url(#SVGID_8_)" fill="none" stroke="#B2A4A4" stroke-width="2" stroke-miterlimit="10" points="
		399.144,555.847 399.773,555.847 400.054,555.847 421.773,555.847 421.773,591.927 400.054,591.927 399.773,591.927 
		399.144,591.927 	"/>
	<polygon clip-path="url(#SVGID_8_)" fill="#D4CB00" points="258.862,142.553 260.649,157.553 277.245,157.553 279.798,142.553 	"/>
	<polygon clip-path="url(#SVGID_8_)" fill="none" stroke="#AAA700" stroke-miterlimit="10" points="258.862,142.553 
		260.649,157.553 277.245,157.553 279.798,142.553 	"/>
	<polygon clip-path="url(#SVGID_8_)" fill="#D4CB00" points="446.668,141.553 448.455,156.553 465.051,156.553 467.604,141.553 	"/>
	<polygon clip-path="url(#SVGID_8_)" fill="none" stroke="#AAA700" stroke-miterlimit="10" points="446.668,141.553 
		448.455,156.553 465.051,156.553 467.604,141.553 	"/>
	<polygon clip-path="url(#SVGID_8_)" fill="#BF1500" points="278.777,664.128 276.99,649.128 260.395,649.128 257.841,664.128 	"/>
	<polygon clip-path="url(#SVGID_8_)" fill="none" stroke="#AAA700" stroke-miterlimit="10" points="278.777,664.128 276.99,649.128 
		260.395,649.128 257.841,664.128 	"/>
	<polygon clip-path="url(#SVGID_8_)" fill="#BF1500" points="471.352,664.128 469.564,649.128 452.969,649.128 450.416,664.128 	"/>
	<polygon clip-path="url(#SVGID_8_)" fill="none" stroke="#AAA700" stroke-miterlimit="10" points="471.352,664.128 
		469.564,649.128 452.969,649.128 450.416,664.128 	"/>
</g>
</svg>
