<?xml version="1.0" encoding="utf-8"?>
<!-- Generator: Adobe Illustrator 16.0.0, SVG Export Plug-In . SVG Version: 6.00 Build 0)  -->
<!DOCTYPE svg PUBLIC "-//W3C//DTD SVG 1.1//EN" "http://www.w3.org/Graphics/SVG/1.1/DTD/svg11.dtd">
<svg version="1.1" id="Layer_1" xmlns="http://www.w3.org/2000/svg" xmlns:xlink="http://www.w3.org/1999/xlink" x="0px" y="0px"
	 width="720px" height="720px" viewBox="0 0 720 720" enable-background="new 0 0 720 720" xml:space="preserve">
<g>
	<defs>
		<rect id="SVGID_1_" width="720" height="720"/>
	</defs>
	<clipPath id="SVGID_2_">
		<use xlink:href="#SVGID_1_"  overflow="visible"/>
	</clipPath>
	<g clip-path="url(#SVGID_2_)">
		<defs>
			<rect id="SVGID_3_" x="295.204" y="80.135" width="171.299" height="525.57"/>
		</defs>
		<clipPath id="SVGID_4_">
			<use xlink:href="#SVGID_3_"  overflow="visible"/>
		</clipPath>
		<g clip-path="url(#SVGID_4_)">
			<defs>
				<rect id="SVGID_5_" x="295.204" y="80.135" width="171.299" height="525.57"/>
			</defs>
			<clipPath id="SVGID_6_">
				<use xlink:href="#SVGID_5_"  overflow="visible"/>
			</clipPath>
			<path clip-path="url(#SVGID_6_)" fill="#514433" d="M415.488,493.625c12.27,0,22.22,9.939,22.22,22.21
				c0,12.269-9.95,22.21-22.22,22.21c-12.26,0-22.21-9.941-22.21-22.21C393.278,503.564,403.229,493.625,415.488,493.625"/>
			<path clip-path="url(#SVGID_6_)" fill="#60523D" d="M419.318,388.824v30.631h-75.83v-30.631h7.239h61.19H419.318z
				 M410.389,396.354c0-0.92-0.75-1.66-1.66-1.66h-53.361c-0.919,0-1.66,0.74-1.66,1.66c0,0.91,0.741,1.66,1.66,1.66h53.361
				C409.639,398.015,410.389,397.265,410.389,396.354"/>
			<polygon clip-path="url(#SVGID_6_)" fill="#60523D" points="410.979,362.694 411.918,388.824 350.729,388.824 350.729,362.694 
				368.428,362.694 393.278,362.694 			"/>
			<path clip-path="url(#SVGID_6_)" fill="#72644C" d="M408.729,394.694c0.91,0,1.66,0.74,1.66,1.66c0,0.91-0.75,1.66-1.66,1.66
				h-53.36c-0.92,0-1.661-0.75-1.661-1.66c0-0.92,0.741-1.66,1.661-1.66H408.729z"/>
			<path clip-path="url(#SVGID_6_)" fill="#72644C" d="M398.908,605.225h-0.27c-1.41,0.01-2.711,0.02-3.921,0.03
				C396.118,605.225,397.519,605.215,398.908,605.225"/>
			<polygon clip-path="url(#SVGID_6_)" fill="#72644C" points="385.108,93.075 388.178,339.885 373.538,339.885 376.599,93.075 			
				"/>
			<polygon clip-path="url(#SVGID_6_)" fill="#72644C" points="386.128,80.135 386.128,93.075 385.107,93.075 376.599,93.075 
				375.578,93.075 375.578,80.135 380.857,80.135 			"/>
			<path clip-path="url(#SVGID_6_)" fill="#72644C" d="M382.769,605.645c0.59-0.05,0.779-0.11-1.101-0.18
				c1.86-0.07,5.681-0.141,12.98-0.21c-3.63,0.08-7.271,0.25-10.9,0.39h-0.109H382.769z"/>
			<path clip-path="url(#SVGID_6_)" fill="#72644C" d="M381.668,605.465c1.88,0.069,1.69,0.13,1.101,0.18h-2.25
				c-0.591-0.05-0.78-0.11,1.1-0.18H381.668z"/>
			<path clip-path="url(#SVGID_6_)" fill="#72644C" d="M380.519,605.645h2.25c-0.311,0.021-0.729,0.04-1.021,0.05h-0.03
				C381.448,605.694,380.898,605.675,380.519,605.645"/>
			<path clip-path="url(#SVGID_6_)" fill="#72644C" d="M381.878,605.705c0,0-0.05,0-0.13-0.011c0.29-0.01,0.71-0.029,1.021-0.05
				h0.87C383.048,605.665,382.468,605.685,381.878,605.705"/>
			<path clip-path="url(#SVGID_6_)" fill="#72644C" d="M380.519,605.645h-2.45h-0.11c-3.97-0.15-7.939-0.34-11.91-0.41
				c9.011,0.07,13.5,0.15,15.57,0.23C379.738,605.534,379.928,605.595,380.519,605.645"/>
			<path clip-path="url(#SVGID_6_)" fill="#66584A" d="M350.728,486.284c17.84,0,32.3,14.46,32.3,32.301
				c0,17.839-14.46,32.3-32.3,32.3c-17.84,0-32.3-14.461-32.3-32.3C318.428,500.744,332.888,486.284,350.728,486.284
				 M350.728,514.694c7.23-1.529,4.51-12,4.51-12h-11.75C342.218,505.244,343.488,516.225,350.728,514.694"/>
			<path clip-path="url(#SVGID_6_)" fill="#60523D" d="M373.538,339.885h14.64c0,0,4.08-0.34,4.25,5.28c0.171,5.61,0,16.34,0,16.34
				l0.851,1.19h-24.851l0.851-1.19c0,0-0.17-10.73,0-16.34C369.448,339.545,373.538,339.885,373.538,339.885"/>
			<path clip-path="url(#SVGID_6_)" fill="#72644C" d="M365.958,605.234c-0.43,0-0.859-0.01-1.31-0.01
				C365.088,605.225,365.519,605.225,365.958,605.234"/>
			<path clip-path="url(#SVGID_6_)" fill="#AF9B84" d="M355.238,502.694c0,0,2.72,10.471-4.51,12c-7.24,1.53-8.51-9.45-7.24-12
				H355.238z"/>
			<path clip-path="url(#SVGID_6_)" fill="#60523D" d="M316.128,534.605c-14.81-26.041-4.59-54.381-4.59-54.381l13.27-48.77h56.6
				h0.47h56.589l13.281,48.77c0,0,10.21,28.34-4.6,54.381l-20.932,52.089c0,0-0.988,18.21-27.309,18.53
				c-1.39-0.01-2.79,0-4.191,0.03h-0.068c-7.3,0.069-11.12,0.14-12.98,0.21h-0.05c-2.07-0.08-6.56-0.16-15.57-0.23h-0.09
				c-0.439-0.01-0.87-0.01-1.31-0.01c-0.12,0-0.24,0-0.36-0.01c-26.24-0.351-27.22-18.521-27.22-18.521L316.128,534.605z
				 M437.708,515.835c0-12.271-9.951-22.21-22.22-22.21c-12.26,0-22.21,9.939-22.21,22.21s9.95,22.21,22.21,22.21
				C427.757,538.045,437.708,528.105,437.708,515.835 M383.028,518.585c0-17.841-14.46-32.301-32.3-32.301
				c-17.84,0-32.3,14.46-32.3,32.301c0,17.84,14.46,32.3,32.3,32.3C368.568,550.885,383.028,536.425,383.028,518.585"/>
			<path clip-path="url(#SVGID_6_)" fill="#72644C" d="M421.148,602.385c-5.51,3.35-12.21,3.13-18.42,2.91
				c-1.271-0.04-2.54-0.07-3.82-0.07c26.32-0.319,27.31-18.53,27.31-18.53l20.931-52.09c14.81-26.04,4.6-54.38,4.6-54.38
				l-13.28-48.77h-56.591h-0.469h-56.6l-13.27,48.77c0,0-10.22,28.34,4.59,54.38l20.94,52.09c0,0,0.98,18.17,27.22,18.521
				c-1.77,0-3.54,0.02-5.31,0.08c-6.21,0.22-12.91,0.439-18.42-2.91c-2.47-1.5-5.15-3.78-6.34-6.5
				c-0.04-0.09-29.62-67.42-37.11-87.32c-7.49-19.92,9.53-73.359,9.53-73.359l28.6-65.36l15.49-7.149v26.129h-7.24v30.631h75.83
				v-30.631h-7.4l-0.939-26.129l15.489,7.149l28.601,65.36c0,0,17.02,53.439,9.53,73.359c-7.48,19.9-37.07,87.23-37.11,87.32
				C426.298,598.604,423.618,600.885,421.148,602.385"/>
		</g>
	</g>
	<path clip-path="url(#SVGID_2_)" fill="none" stroke="#000000" stroke-miterlimit="10" d="M378.068,605.645
		c0.59,0.021,1.17,0.04,1.76,0.061"/>
	<path clip-path="url(#SVGID_2_)" fill="none" stroke="#000000" stroke-miterlimit="10" d="M366.048,605.234
		c3.971,0.07,7.94,0.26,11.91,0.41"/>
	<path clip-path="url(#SVGID_2_)" fill="none" stroke="#000000" stroke-miterlimit="10" d="M364.648,605.225
		c0.439,0,0.87,0,1.31,0.01"/>
	<path clip-path="url(#SVGID_2_)" fill="none" stroke="#000000" stroke-miterlimit="10" d="M380.858,80.135h-5.28v12.94h1.021
		l-3.061,246.81c0,0-4.09-0.34-4.26,5.28c-0.17,5.61,0,16.34,0,16.34l-0.851,1.19h-17.699l-15.49,7.149l-28.6,65.36
		c0,0-17.02,53.439-9.53,73.359c7.49,19.9,37.07,87.23,37.11,87.32c1.19,2.72,3.87,5,6.34,6.5c5.51,3.35,12.21,3.13,18.42,2.91
		c1.77-0.061,3.54-0.08,5.31-0.08"/>
	<path clip-path="url(#SVGID_2_)" fill="none" stroke="#000000" stroke-miterlimit="10" d="M383.639,605.645
		c-0.591,0.021-1.171,0.04-1.761,0.061"/>
	<path clip-path="url(#SVGID_2_)" fill="none" stroke="#000000" stroke-miterlimit="10" d="M394.648,605.255
		c-3.63,0.08-7.271,0.25-10.9,0.39"/>
	<path clip-path="url(#SVGID_2_)" fill="none" stroke="#000000" stroke-miterlimit="10" d="M380.858,80.135h5.27v12.94h-1.02
		l3.069,246.81c0,0,4.08-0.34,4.25,5.28c0.171,5.61,0,16.34,0,16.34l0.851,1.19h17.7l15.489,7.149l28.601,65.36
		c0,0,17.019,53.439,9.53,73.359c-7.48,19.9-37.07,87.23-37.11,87.32c-1.19,2.72-3.87,5-6.34,6.5c-5.51,3.35-12.21,3.13-18.42,2.91
		c-1.271-0.04-2.54-0.07-3.82-0.07c-1.39-0.01-2.79,0-4.19,0.03"/>
	
		<line clip-path="url(#SVGID_2_)" fill="none" stroke="#000000" stroke-miterlimit="10" x1="376.599" y1="93.075" x2="385.108" y2="93.075"/>
	
		<line clip-path="url(#SVGID_2_)" fill="none" stroke="#000000" stroke-miterlimit="10" x1="373.538" y1="339.885" x2="388.178" y2="339.885"/>
	
		<line clip-path="url(#SVGID_2_)" fill="none" stroke="#000000" stroke-miterlimit="10" x1="368.428" y1="362.694" x2="393.278" y2="362.694"/>
	<polyline clip-path="url(#SVGID_2_)" fill="none" stroke="#000000" stroke-miterlimit="10" points="377.958,605.645 
		378.068,605.645 380.519,605.645 382.769,605.645 383.639,605.645 383.748,605.645 	"/>
	
		<line clip-path="url(#SVGID_2_)" fill="none" stroke="#000000" stroke-miterlimit="10" x1="411.918" y1="388.824" x2="410.979" y2="362.694"/>
	
		<line clip-path="url(#SVGID_2_)" fill="none" stroke="#000000" stroke-miterlimit="10" x1="350.728" y1="362.694" x2="350.728" y2="388.824"/>
	<polygon clip-path="url(#SVGID_2_)" fill="none" stroke="#000000" stroke-miterlimit="10" points="411.918,388.824 
		419.318,388.824 419.318,419.455 343.488,419.455 343.488,388.824 350.728,388.824 	"/>
	<path clip-path="url(#SVGID_2_)" fill="none" stroke="#000000" stroke-miterlimit="10" d="M408.729,398.015h-53.36
		c-0.92,0-1.661-0.75-1.661-1.66c0-0.92,0.741-1.66,1.661-1.66h53.36c0.91,0,1.66,0.74,1.66,1.66
		C410.389,397.265,409.639,398.015,408.729,398.015z"/>
	<path clip-path="url(#SVGID_2_)" fill="none" stroke="#000000" stroke-miterlimit="10" d="M381.748,605.694
		c0.08,0.011,0.13,0.011,0.13,0.011"/>
	<path clip-path="url(#SVGID_2_)" fill="none" stroke="#000000" stroke-miterlimit="10" d="M381.618,605.465
		c-1.88,0.069-1.69,0.13-1.1,0.18c0.38,0.03,0.93,0.049,1.199,0.049"/>
	<path clip-path="url(#SVGID_2_)" fill="none" stroke="#000000" stroke-miterlimit="10" d="M381.878,431.455h56.59l13.28,48.771
		c0,0,10.21,28.339-4.6,54.379l-20.931,52.09c0,0-0.989,18.21-27.31,18.531h-0.27c-1.41,0.009-2.711,0.019-3.921,0.029h-0.069
		c-7.3,0.069-11.12,0.14-12.98,0.21"/>
	<path clip-path="url(#SVGID_2_)" fill="none" stroke="#000000" stroke-miterlimit="10" d="M381.878,431.455h-0.47h-56.6
		l-13.27,48.771c0,0-10.22,28.339,4.59,54.379l20.94,52.09c0,0,0.98,18.17,27.22,18.521c0.12,0.011,0.24,0.011,0.36,0.011
		c0.45,0,0.88,0.009,1.31,0.009h0.09c9.011,0.07,13.5,0.15,15.57,0.23h0.05c1.88,0.069,1.689,0.13,1.101,0.18
		c-0.311,0.021-0.73,0.04-1.021,0.05h-0.03c-0.18,0.011-0.31,0.011-0.31,0.011"/>
	<circle clip-path="url(#SVGID_2_)" fill="none" stroke="#000000" stroke-miterlimit="10" cx="350.728" cy="518.585" r="32.3"/>
	<path clip-path="url(#SVGID_2_)" fill="none" stroke="#000000" stroke-miterlimit="10" d="M343.488,502.694h11.75
		c0,0,2.72,10.471-4.51,12C343.488,516.225,342.218,505.244,343.488,502.694z"/>
	<path clip-path="url(#SVGID_2_)" fill="none" stroke="#000000" stroke-miterlimit="10" d="M437.708,515.835
		c0,12.271-9.95,22.21-22.22,22.21c-12.26,0-22.21-9.939-22.21-22.21s9.95-22.21,22.21-22.21
		C427.758,493.625,437.708,503.564,437.708,515.835z"/>
</g>
</svg>
