<?xml version="1.0" encoding="utf-8"?>
<!-- Generator: Adobe Illustrator 16.0.0, SVG Export Plug-In . SVG Version: 6.00 Build 0)  -->
<!DOCTYPE svg PUBLIC "-//W3C//DTD SVG 1.1//EN" "http://www.w3.org/Graphics/SVG/1.1/DTD/svg11.dtd">
<svg version="1.1" id="Layer_1" xmlns="http://www.w3.org/2000/svg" xmlns:xlink="http://www.w3.org/1999/xlink" x="0px" y="0px"
	 width="720px" height="720px" viewBox="0 0 720 720" enable-background="new 0 0 720 720" xml:space="preserve">
<g>
	<defs>
		<rect id="SVGID_1_" width="720" height="720"/>
	</defs>
	<clipPath id="SVGID_2_">
		<use xlink:href="#SVGID_1_"  overflow="visible"/>
	</clipPath>
	<g clip-path="url(#SVGID_2_)">
		<defs>
			<rect id="SVGID_3_" x="255.276" y="79.729" width="208.494" height="562.421"/>
		</defs>
		<clipPath id="SVGID_4_">
			<use xlink:href="#SVGID_3_"  overflow="visible"/>
		</clipPath>
		<g clip-path="url(#SVGID_4_)">
			<defs>
				<rect id="SVGID_5_" x="255.276" y="79.729" width="208.494" height="562.421"/>
			</defs>
			<clipPath id="SVGID_6_">
				<use xlink:href="#SVGID_5_"  overflow="visible"/>
			</clipPath>
			<path clip-path="url(#SVGID_6_)" fill="#9B755C" d="M405.56,517.13v-15l2.04-0.13v-2.24h9.391v2.5l1.72,0.12l-0.32,14.94
				c0,0,3.07,5.359,4.79-0.19V502.7l2.04-0.32v-2.62h1.37c6.601,0,12,5.4,12,12v16.87c0,6.601-5.399,12-12,12h-29.72
				c-6.601,0-12-5.399-12-12v-16.87c0-6.6,5.399-12,12-12h3.01v1.41h1.28v15.96C401.16,517.13,403.2,523.89,405.56,517.13"/>
			<path clip-path="url(#SVGID_6_)" fill="#C18E65" d="M425.22,497.47h4.38c6.6,0,12,5.4,12,12v21.45c0,6.6-5.4,12-12,12h-3.01
				v-2.29c6.601,0,12-5.399,12-12v-16.87c0-6.6-5.399-12-12-12h-1.37V497.47z"/>
			<polygon clip-path="url(#SVGID_6_)" fill="#C18E65" points="425.22,497.47 425.22,499.76 416.99,499.76 416.99,497.62 			"/>
			<polygon clip-path="url(#SVGID_6_)" fill="#C18E65" points="425.22,497.47 416.99,497.62 416.99,497.47 			"/>
			<path clip-path="url(#SVGID_6_)" fill="#C18E65" d="M423.18,502.7v14.43c-1.72,5.55-4.79,0.19-4.79,0.19l0.32-14.94l-1.72-0.12
				v-2.5h8.229v2.62L423.18,502.7z"/>
			<polygon clip-path="url(#SVGID_6_)" fill="#9B755C" points="412.68,597.4 420.76,629.38 385.69,641.3 357.229,642.14 
				357.12,642.05 			"/>
			<polygon clip-path="url(#SVGID_6_)" fill="#C18E65" points="416.99,497.62 416.99,499.76 407.6,499.76 407.6,497.78 			"/>
			<polygon clip-path="url(#SVGID_6_)" fill="#C18E65" points="416.99,497.47 416.99,497.62 407.6,497.78 407.6,497.47 			"/>
			<path clip-path="url(#SVGID_6_)" fill="#C18E65" d="M401.16,517.13v-15.96h-1.28v-1.41h7.72V502l-2.04,0.13v15
				C403.2,523.89,401.16,517.13,401.16,517.13"/>
			<polygon clip-path="url(#SVGID_6_)" fill="#C18E65" points="407.6,499.76 399.88,499.76 399.88,497.92 407.6,497.781 			"/>
			<path clip-path="url(#SVGID_6_)" fill="#C18E65" d="M393.86,497.47H407.6v0.311l-7.719,0.14v1.84h-3.011c-6.601,0-12,5.4-12,12
				v16.87c0,6.601,5.399,12,12,12h29.72v2.29H393.86c-6.601,0-12-5.4-12-12v-21.45C381.86,502.87,387.26,497.47,393.86,497.47"/>
			<path clip-path="url(#SVGID_6_)" fill="#C18E65" d="M369.88,99.83c-0.04-0.27-0.1-0.53-0.17-0.79c-0.05-0.56-0.19-1.1-0.41-1.62
				l0.01-0.6l2.601,5.75l-2.88,6.09l0.01-0.68c0.14-0.25,0.25-0.51,0.34-0.78c0-0.01,0.01-0.01,0.01-0.02
				c0.521-0.89,0.771-1.93,0.73-2.97C370.62,102.8,370.54,101.16,369.88,99.83"/>
			<path clip-path="url(#SVGID_6_)" fill="#C18E65" d="M367.99,93.89l0.85-9.7c-0.57-0.7-1.149-1.3-1.74-1.81
				c0.341,0.21,0.641,0.41,0.92,0.6c0.341,0.62,0.811,1.16,1.421,1.57c-0.49,1.12-0.61,2.42-0.311,3.62v0.01
				c-0.29,0.85-0.36,1.77-0.229,2.66c-0.36,0.72-0.591,1.53-0.561,2.271c0.05,1.05,0.36,2.14,0.99,2.99l-0.021,0.72L367.99,93.89z"
				/>
			<polygon clip-path="url(#SVGID_6_)" fill="#CEA386" points="366.48,215.99 366.97,241.81 365.87,241.82 			"/>
			<path clip-path="url(#SVGID_6_)" fill="#CEA386" d="M366.97,241.81l2.901,5.96l0.849,61.78l2.21,2.39l1.87,3.91v51.92
				c0,0,2.21,6.12,0,8.68l0.17,2.381h8.17l5.96,10.04h42.381v6.3h-5.609v9.87h10.719l9.19,31.15h4.77v10.56h-1.71l12.94,43.57
				c0,0,5.279,28.43-1.36,41.02c0,0-1.87,16.851-21.79,44.771c-6.83,9.569-16.37,16.43-25.95,21.29
				c-18.35,9.33-36.859,11.39-36.859,11.39s-15.801-0.04-18.58-0.05l0.019-0.78c2.231,0.35,4.57-0.66,5.2-3.52
				c0.76-3.421,1.83-6.351,0.23-9.73c-0.631-1.33-2.99-4.03-1-5.41c3.17-2.2,2.609-6.229,0.5-8.27
				c-0.091-1.49-0.761-2.94-2.021-3.811c0.63-1.279,0.689-2.859-0.259-4.47c-1.491-2.54,0.369-8.19,0.689-11.01
				c0.601-5.4-0.379-10.791,0.26-16.181c0.671-5.64,1.581-10.93,1.4-16.64c-0.109-3.26-0.18-6.53-0.21-9.79
				c0.08-0.07,0.17-0.12,0.25-0.2c3.811-3.62,1.94-8.439-1.189-11.56c0.38-0.521,0.67-1.18,0.84-2c1.08-5.3,0.25-10.12-0.41-15.29
				c-0.11-1.73-0.04-3.42,0.66-4.2c2.14-2.431,1.479-5.38-0.29-7.11c0.33-2.14,0.66-4.289,0.689-6.489
				c0.011-0.95-0.01-1.91-0.06-2.87c1.41-1.59,2.3-3.72,2.34-6.211c0.021-1.64-0.36-3.289-0.64-4.899
				c-0.369-2.08-0.15-1.95,0.64-3.77c1.61-3.66,2.43-7.521,3.96-11.2c1.58-3.8-1.859-6.08-5.12-5.97
				c0.101-0.82,0.181-1.65,0.19-2.511c0.02-1.609-0.58-2.819-1.5-3.63c0.1-0.38,0.189-0.75,0.28-1.13
				c1.47-0.399,2.77-1.51,3.42-3.37c0.06-0.16,0.12-0.33,0.18-0.5c0.46-1.319,0.37-2.479-0.09-3.43c0.02-0.4,0.03-0.82,0.01-1.22
				c-0.089-2.65-0.62-5.04,0.07-7.69c1.229-4.75,3.81-8.59,4.341-13.63c1.148-10.93-4.131-21.65-1.271-32.5
				c0.841-3.17-1.149-5.37-3.569-5.97c0.029-1.811-0.181-3.57-0.59-5.42c0.52-0.75,0.819-1.65,0.77-2.7
				c-0.11-2.01-0.44-3.79-1.13-5.45c0.12-0.73,0.27-1.5,0.439-2.39c0.681-3.579-0.039-6.72-0.22-10.29
				c-0.16-3.42,0.851-6.72,1.54-10.03c1.601-7.78-0.05-15.17-0.2-22.98c-0.08-4.42,0.971-8.48,1.38-12.85
				c0.211-2.25,0.07-4.5-0.02-6.76c1.13-1.82,1.23-4.35-0.69-7.09c-0.42-0.6-0.909-1.07-1.438-1.43
				c0.089-0.28,0.169-0.55,0.269-0.82c0.351-1.07,0.78-2.11,1.141-3.17c0.87-2.56,1.319-5.11,1.38-7.82
				c0.12-5.25-1.101-10.37-0.67-15.64c0.16-1.96-0.66-3.32-1.891-4.08l0.021-1.04L366.97,241.81z M441.6,509.47
				c0-6.6-5.399-12-12-12h-4.38h-8.229H407.6H393.86c-6.601,0-12,5.4-12,12v21.45c0,6.6,5.399,12,12,12h32.729h3.01
				c6.601,0,12-5.4,12-12V509.47z"/>
			<path clip-path="url(#SVGID_6_)" fill="#CEA386" d="M366.2,422.79c0.46,0.95,0.55,2.11,0.09,3.431
				c-0.06,0.169-0.12,0.339-0.18,0.5c-0.65,1.859-1.95,2.97-3.42,3.369c-0.091,0.381-0.181,0.75-0.28,1.131
				c0.92,0.81,1.52,2.02,1.5,3.629c-0.009,0.86-0.09,1.69-0.19,2.511c3.261-0.11,6.7,2.17,5.12,5.97c-1.53,3.68-2.35,7.54-3.96,11.2
				c-0.79,1.819-1.01,1.69-0.64,3.77c0.279,1.61,0.661,3.26,0.64,4.9c-0.04,2.49-0.93,4.62-2.34,6.21c0.05,0.96,0.07,1.92,0.06,2.87
				c-0.029,2.2-0.359,4.35-0.689,6.489c1.77,1.73,2.43,4.681,0.29,7.11c-0.7,0.78-0.771,2.47-0.66,4.2
				c0.66,5.17,1.49,9.99,0.41,15.29c-0.17,0.82-0.46,1.479-0.84,2c3.13,3.12,5,7.939,1.189,11.56c-0.08,0.08-0.17,0.13-0.25,0.2
				c0.03,3.26,0.102,6.53,0.21,9.79c0.181,5.71-0.729,11-1.399,16.64c-0.641,5.391,0.34,10.78-0.261,16.181
				c-0.319,2.819-2.18,8.47-0.689,11.01c0.95,1.61,0.89,3.19,0.26,4.47c1.26,0.87,1.93,2.32,2.021,3.811
				c2.109,2.04,2.67,6.069-0.5,8.27c-1.991,1.38,0.369,4.08,1,5.41c1.6,3.38,0.529,6.31-0.23,9.73c-0.63,2.859-2.97,3.869-5.2,3.52
				c-0.15-0.02-0.3-0.05-0.44-0.09c-2.5-0.58-4.72-2.86-4-6.09c0.57-2.59,0.82-2.49-0.37-4.7c-0.99-1.86-1.42-3.94-1.4-6.04
				c0.02-2.66,0.77-5.01,2.16-7c-0.75-1.36-0.86-3.07-0.34-4.53c-0.6-0.39-1.15-0.95-1.59-1.71c-2.33-3.96-1.65-8.63-1.07-12.97
				c0.7-5.26,0.39-10.24,0.4-15.521c0.01-6.229,1.84-12.27,1.71-18.529c-0.09-4.16-0.2-8.311-0.24-12.46
				c-1.21-1.08-2.2-2.4-2.78-3.811c-2.07-5.029-2.49-12.64-2.18-17.99c0.27-4.699,1.62-8.92,3.98-12.68
				c0.01-0.24,0.01-0.47,0.02-0.71c0.23-3.899,0.94-7.49,1.22-11.24c-0.11-0.04-0.22-0.06-0.33-0.1
				c-13.55-5.2-2.18-22.069,1.09-32.68c-0.98-0.801-1.59-2.051-1.48-3.75c0.19-2.88,1.15-5.431,1.56-8.24
				c0.4-2.75-0.3-5.74-0.41-8.51c-0.26-6.591,0.17-13.21-1.23-19.71c-0.32-1.48-0.02-2.761,0.63-3.771
				c-1.44-6.77-4.34-13.649-2.16-20.58c0.56-1.8,1.46-3.31,2.68-4.609c-0.59-4.931-1.25-9.85-1.33-14.75
				c-0.02-1.12,0.29-2.04,0.77-2.77c-0.04-1.16,0.1-2.28,0.43-3.33c-3.24-5.54-5.94-11.22-3.46-17.92c0.61-1.65,1.47-3.21,2.2-4.76
				c-1.44-1.02-2.21-2.76-1.29-4.97c0.72-1.74,1.43-2.98,1.9-4.45c-0.61-1.77-1.17-3.46-1.16-5.44c0.01-2.42,0.86-4.75,0.87-7.17
				c0-0.42,0.05-0.81,0.13-1.17c-0.28-0.76-0.4-1.64-0.27-2.58c0.24-1.79-0.85-3.23-1.23-4.91c-0.31-1.36-0.38-2.89-0.37-4.27
				c0.03-3.7,0.94-7.39,1.29-11.07c0.06-0.58,0.2-1.09,0.39-1.57c-0.39-0.65-0.65-1.42-0.71-2.32c-0.11-1.59-0.14-2.94-0.39-4.48
				c-0.25-1.5-0.31-2.74-0.07-4.24c0.35-2.13,1.22-5.31,0.45-7.25c-0.53-1.32-0.19-2.79,0.6-3.97c-0.92-2.09-1.27-4.13-1.09-6.47
				c0.18-2.24,0.12-4.29,1.34-6.09c0.24-0.36,0.53-0.7,0.88-1.04c0.49-0.47,1.06-0.83,1.67-1.07h0.01l3.71-0.02
				c0.61,0.23,1.19,0.6,1.68,1.09c0.07,0.07,0.14,0.14,0.2,0.22c1.78-1.26,4.3-1.36,6.01-0.31c1.23,0.76,2.052,2.12,1.891,4.08
				c-0.431,5.27,0.79,10.39,0.67,15.64c-0.061,2.71-0.509,5.26-1.38,7.82c-0.36,1.06-0.79,2.1-1.141,3.17
				c-0.1,0.27-0.18,0.54-0.27,0.82c0.531,0.36,1.02,0.83,1.439,1.43c1.921,2.74,1.82,5.27,0.69,7.09c0.09,2.26,0.23,4.51,0.02,6.76
				c-0.409,4.37-1.46,8.43-1.38,12.85c0.15,7.81,1.801,15.2,0.2,22.98c-0.688,3.31-1.7,6.61-1.54,10.03
				c0.181,3.57,0.9,6.71,0.22,10.29c-0.17,0.89-0.319,1.66-0.439,2.39c0.689,1.66,1.02,3.44,1.13,5.45c0.05,1.05-0.25,1.95-0.77,2.7
				c0.409,1.85,0.619,3.61,0.59,5.42c2.42,0.6,4.41,2.8,3.569,5.97c-2.859,10.85,2.42,21.57,1.271,32.5
				c-0.53,5.04-3.11,8.88-4.34,13.63c-0.69,2.65-0.16,5.04-0.07,7.69C366.23,421.971,366.22,422.39,366.2,422.79 M366.13,423.7
				C366.08,424.82,366.64,424.71,366.13,423.7"/>
			<path clip-path="url(#SVGID_6_)" fill="#CEA386" d="M366.13,423.7C366.64,424.71,366.08,424.82,366.13,423.7"/>
			<path clip-path="url(#SVGID_6_)" fill="#C18E65" d="M366.36,176.09v0.01c-0.301,1.52-0.67,3.06-0.08,4.57
				c0.029,0.09,0.069,0.17,0.109,0.26c-0.05,0.32-0.09,0.67-0.09,1.03c0.01,1.85,0.01,3.7,0,5.55c-0.01,1.98,0.47,3.9,0.51,5.87
				c0,0.2,0.021,0.39,0.04,0.57c-0.279,0.91-0.319,1.9-0.13,2.83c-0.149,0.46-0.229,0.94-0.229,1.45v0.13
				c0,0.31,0.02,0.61,0.09,0.92v0.01c-0.26,0.99-0.23,2.07,0.06,3.04v0.01c-0.43,1.22-0.399,2.62,0.061,3.82
				c-0.101,0.43-0.141,0.87-0.141,1.31v0.03v0.03c-0.02,0.34,0,0.67,0.04,1.01v0.05c-0.029,0.3-0.02,0.6,0,0.89
				c-0.1,0.61-0.1,1.24-0.01,1.84l-0.109,4.67l-1.32-69.66h0.04c0.01,1.27,0.16,2.57,0.41,3.81c0.01,0.05,0.1,0.57,0.18,1.02v0.01
				c-0.23,0.83-0.26,1.74-0.08,2.69c0.04,0.18,0.08,0.36,0.12,0.54c-0.01,0.06-0.01,0.12-0.021,0.16c-0.14,0.65-0.239,1.31-0.3,1.97
				c-0.129,1.26,0.05,2.52,0.48,3.7c-0.05,0.3-0.09,0.6-0.08,0.92c0.02,0.48,0.08,0.98,0.16,1.45c-0.021,0.07-0.03,0.13-0.04,0.16
				c-0.181,0.76-0.24,1.57-0.149,2.34c0.049,0.56,0.129,1.11,0.229,1.66c0.01,0.04,0,0.08,0,0.13c0.01,0.15,0.021,0.31,0.04,0.46
				v0.02c-0.12,0.6-0.131,1.2-0.03,1.8c0,0.34-0.021,0.69-0.05,1.03c-0.181,0.63-0.21,1.26-0.07,1.89c0.02,0.49,0.12,0.94,0.33,1.37
				v0.01c-0.03,0.22-0.04,0.42-0.03,0.64c0.021,0.34,0.081,0.69,0.15,1.04C366.39,175.45,366.35,175.77,366.36,176.09"/>
			<path clip-path="url(#SVGID_6_)" fill="#C18E65" d="M367.37,120.19c-0.17,0.79-0.18,1.62-0.021,2.41
				c-0.179,0.89-0.148,1.84,0.102,2.71c-1.71,1.11-2.392,3.27-2.05,5.22c-0.221,0.97-0.181,2,0.109,2.94
				c-0.279,0.61-0.43,1.25-0.359,1.89c0.08,0.74,0.189,1.47,0.31,2.2c0.01,0.22,0.021,0.45,0.01,0.67
				c-0.01,0.05-0.01,0.09-0.02,0.14v0.01c-0.07,0.35-0.11,0.72-0.11,1.13c0,2.27-0.17,4.55-0.14,6.82h-0.04l-0.4-21.12h1.87
				l0.679-12.93l1.722-3.62l-0.03,1.19c-0.54,0.73-0.86,1.61-0.96,2.53c-0.481,1.01-0.62,2.18-0.29,3.37
				c0.02,0.05,0.04,0.1,0.05,0.15c-0.02,0.03-0.04,0.06-0.05,0.09c-0.63,1.07-0.901,2.65-0.51,3.85
				C367.28,119.96,367.32,120.08,367.37,120.19"/>
			<path clip-path="url(#SVGID_6_)" fill="#CEA386" d="M361.17,96.18c0.811-0.93,2.01-1.56,3.62-1.56h0.069
				c0.171,0,0.331,0,0.49,0.02c2,0.15,3.311,1.3,3.95,2.78c0.22,0.52,0.36,1.06,0.41,1.62c0.07,0.26,0.13,0.52,0.17,0.79
				c0.66,1.33,0.74,2.97,0.24,4.38c0.04,1.04-0.21,2.08-0.73,2.97c0,0.01-0.01,0.01-0.01,0.02c-0.09,0.27-0.2,0.53-0.34,0.78
				c-0.75,1.38-2.15,2.38-4.19,2.38c-3.529,0-5.13-3-4.79-5.71c0.08-0.68,0.29-1.35,0.62-1.94c-0.109-0.26-0.2-0.54-0.25-0.82
				c0-0.01-0.01-0.01-0.01-0.02c-0.14-0.32-0.25-0.67-0.32-1.02c-0.04-0.2-0.08-0.41-0.1-0.61
				C359.85,98.79,360.24,97.28,361.17,96.18"/>
			<path clip-path="url(#SVGID_6_)" fill="#CEA386" d="M365.85,242.86c-1.71-1.05-4.229-0.95-6.01,0.31
				c-0.06-0.08-0.13-0.15-0.199-0.22c-0.491-0.49-1.071-0.86-1.681-1.09l7.912-0.04L365.85,242.86z"/>
			<path clip-path="url(#SVGID_6_)" fill="#C18E65" d="M359.57,79.75c2.459-0.14,5.081,0.5,7.53,2.63
				C365.25,81.24,362.54,79.94,359.57,79.75"/>
			<path clip-path="url(#SVGID_6_)" fill="#C18E65" d="M351.95,82.38c2.47-2.15,5.12-2.78,7.59-2.63
				C356.55,79.92,353.82,81.23,351.95,82.38"/>
			<path clip-path="url(#SVGID_6_)" fill="#CEA386" d="M358.21,101.96c0.3,0.78,0.41,1.63,0.34,2.47c-0.19,2.33-1.79,4.53-4.81,4.53
				c-1.88,0-3.2-0.85-3.98-2.05c-0.24-0.36-0.42-0.75-0.56-1.16c-1.32-1.65-1.47-4.18-0.43-6.02c0.14-0.73,0.43-1.43,0.87-2.03
				c0.79-1.11,2.08-1.87,3.85-1.87C357.2,95.83,358.77,99.15,358.21,101.96"/>
			<path clip-path="url(#SVGID_6_)" fill="#CEA386" d="M357.96,241.86l-3.71,0.02C355.44,241.41,356.77,241.39,357.96,241.86"/>
			<path clip-path="url(#SVGID_6_)" fill="#CEA386" d="M357.26,607.96l-0.02,0.78h-0.41l-0.01-0.87
				C356.96,607.91,357.11,607.94,357.26,607.96"/>
			<path clip-path="url(#SVGID_6_)" fill="#C18E65" d="M357.24,608.74v0.05c0-0.021-0.15-0.03-0.41-0.05H357.24z"/>
			<polygon clip-path="url(#SVGID_6_)" fill="#C18E65" points="357.24,642.15 357.13,642.15 357.23,642.14 			"/>
			<polygon clip-path="url(#SVGID_6_)" fill="#C18E65" points="357.23,642.14 357.13,642.15 357,642.14 357.12,642.05 			"/>
			<polygon clip-path="url(#SVGID_6_)" fill="#C18E65" points="357.13,642.15 356.99,642.15 357,642.14 			"/>
			<polygon clip-path="url(#SVGID_6_)" fill="#9B755C" points="306.36,597.4 357.12,642.05 357,642.14 333.35,641.3 298.29,629.38 
							"/>
			<path clip-path="url(#SVGID_6_)" fill="#CEA386" d="M351.67,242.63l0.36-0.73l2.21-0.02c-0.61,0.24-1.18,0.6-1.67,1.07
				c-0.35,0.34-0.64,0.68-0.88,1.04L351.67,242.63z"/>
			<polygon clip-path="url(#SVGID_6_)" fill="#C18E65" points="352.03,241.9 351.67,242.63 351.66,241.9 			"/>
			<path clip-path="url(#SVGID_6_)" fill="#CEA386" d="M351.73,112.28l-1.96-4.14l-0.01-1.23c0.78,1.2,2.1,2.05,3.98,2.05
				c3.02,0,4.62-2.2,4.81-4.53l1.51,0.22c-0.339,2.71,1.261,5.71,4.79,5.71c2.04,0,3.44-1,4.19-2.38l-0.01,0.68l-1.721,3.62
				l-0.68,12.93h-1.87l0.4,21.12l1.32,69.66l-0.61,25.83l-7.91,0.04c-1.19-0.47-2.52-0.45-3.71,0.02h-0.01l-2.21,0.02l0.04-0.09
				l2.22-116.6h-1.88L351.73,112.28z"/>
			<path clip-path="url(#SVGID_6_)" fill="#CEA386" d="M360.681,102.71c-0.33,0.59-0.54,1.26-0.62,1.94l-1.51-0.22
				c0.07-0.84-0.04-1.69-0.34-2.47c0.56-2.81-1.01-6.13-4.72-6.13c-1.77,0-3.06,0.76-3.85,1.87h-0.01l-0.01-0.63l1.43-3.18
				l-0.85-9.7c0.56-0.69,1.13-1.28,1.71-1.78c0.01-0.01,0.02-0.02,0.04-0.03c1.87-1.15,4.6-2.46,7.59-2.63h0.03
				c2.97,0.19,5.68,1.49,7.529,2.63c0.591,0.51,1.17,1.11,1.74,1.81l-0.85,9.7l1.319,2.93l-0.01,0.6c-0.64-1.48-1.95-2.63-3.95-2.78
				c-0.159-0.02-0.319-0.02-0.489-0.02h-0.07c-1.609,0-2.81,0.63-3.62,1.56c-0.939,1.1-1.33,2.61-1.17,4.06
				c0.01,0.2,0.05,0.41,0.101,0.61c0.069,0.35,0.18,0.7,0.319,1.02c0,0.01,0.011,0.01,0.011,0.02
				C360.48,102.17,360.57,102.45,360.681,102.71"/>
			<path clip-path="url(#SVGID_6_)" fill="#C18E65" d="M354.29,125.21l-2.22,116.6l-0.04,0.09h-0.37c0.05-0.26,0.06-0.51,0.07-0.77
				c0.1-0.57,0.1-1.17,0.02-1.74c0.06-0.56,0.03-1.13-0.08-1.67c0.05-0.45,0.04-0.91-0.01-1.35c0.02-0.39,0-0.79-0.05-1.18
				c0.02-0.37,0-0.74-0.05-1.1c0.24-0.96,0.24-1.99-0.03-2.94c0.27-0.99,0.27-2.05,0-3.03c0.3-1.02,0.33-2.15,0.04-3.18
				c0.28-0.99,0.28-2.07,0-3.05c0.33-1.14,0.32-2.39-0.08-3.5c0.37-1.02,0.41-2.15,0.17-3.2c0.41-1.2,0.41-2.58-0.02-3.77
				c0.44-1.16,0.48-2.49,0.1-3.68c0.44-1.09,0.5-2.34,0.21-3.49c0.3-1.08,0.27-2.28-0.09-3.35c0.48-1.19,0.53-2.58,0.13-3.81
				c0.3-0.9,0.37-1.89,0.2-2.84c0.23-0.93,0.24-1.94,0-2.86c0.31-1.08,0.3-2.26-0.04-3.32c0.19-0.76,0.21-1.56,0.08-2.33
				c0.35-0.98,0.43-2.07,0.21-3.1c0.33-1.15,0.29-2.41-0.12-3.53c0.19-0.78,0.24-1.62,0.09-2.42c0.17-0.78,0.19-1.61,0.04-2.39
				c0.29-0.85,0.38-1.79,0.25-2.69c0.28-0.94,0.3-1.96,0.07-2.91v-0.01c0.03-0.35,0.04-0.7,0.01-1.05c0.23-0.76,0.29-1.58,0.19-2.37
				c0.12-0.79,0.09-1.6-0.11-2.37c0.06-0.47,0.07-0.95,0.03-1.42c0.2-0.84,0.21-1.74,0.01-2.58c0.23-0.85,0.25-1.76,0.07-2.63v-0.01
				c0.19-0.84,0.19-1.72,0-2.56c0.08-0.63,0.06-1.28-0.08-1.9c0.17-0.74,0.2-1.51,0.08-2.27v-0.01c0.08-0.81-0.01-1.64-0.27-2.4
				c0.48-1.07,0.6-2.32,0.35-3.48c0.2-0.71,0.24-1.47,0.15-2.2c0.16-0.76,0.17-1.55,0.02-2.3c0.35-0.99,0.4-2.11,0.16-3.14
				c0.12-0.53,0.18-1.08,0.14-1.63c0.21-0.95,0.17-1.97-0.11-2.9c0.14-0.68,0.15-1.39,0.04-2.08c-0.02-0.35-0.07-0.7-0.15-1.04
				c-0.21-1.17-0.77-2.26-1.72-3.01c0.08-0.73,0.02-1.49-0.19-2.2c0.08-0.6,0.08-1.2-0.03-1.8c0.16-0.86,0.12-1.76-0.12-2.59
				c0.13-0.77,0.1-1.57-0.09-2.33c0.08-0.66,0.05-1.34-0.1-1.98v-0.02c-0.01-0.24-0.05-0.5-0.1-0.73c0.04-1.1-0.23-2.2-0.81-3.11
				c-0.06-0.23-0.14-0.46-0.23-0.67c-0.04-0.17-0.07-0.35-0.12-0.51l-0.02-1.26l1.96,4.14l0.68,12.93H354.29z"/>
			<path clip-path="url(#SVGID_6_)" fill="#C18E65" d="M349.61,85.42c0.38-0.57,0.64-1.23,0.76-1.92c0.45-0.23,0.85-0.51,1.19-0.87
				c0.01,0,0.01-0.01,0.02-0.01c0.1-0.07,0.21-0.14,0.33-0.21c-0.58,0.5-1.15,1.09-1.71,1.78l0.85,9.7l-1.43,3.18l-0.02-1.2
				c0.84-1.2,1.11-2.8,0.81-4.25c0.33-1.26,0.22-2.66-0.34-3.83C350.09,86.98,349.94,86.16,349.61,85.42"/>
			<path clip-path="url(#SVGID_6_)" fill="#CEA386" d="M351.48,300.629c-0.13,0.94-0.01,1.821,0.27,2.58
				c-0.08,0.36-0.13,0.75-0.13,1.17c-0.01,2.42-0.86,4.75-0.87,7.17c-0.01,1.98,0.55,3.671,1.16,5.441
				c-0.47,1.469-1.18,2.71-1.9,4.449c-0.92,2.21-0.15,3.951,1.29,4.971c-0.73,1.549-1.59,3.11-2.2,4.759
				c-2.48,6.701,0.22,12.38,3.46,17.92c-0.33,1.051-0.47,2.17-0.43,3.33c-0.48,0.73-0.79,1.65-0.77,2.77
				c0.08,4.9,0.74,9.82,1.33,14.751c-1.22,1.3-2.12,2.811-2.68,4.609c-2.18,6.931,0.72,13.811,2.16,20.58
				c-0.65,1.01-0.95,2.29-0.63,3.771c1.4,6.5,0.97,13.119,1.23,19.71c0.11,2.77,0.81,5.76,0.41,8.51c-0.41,2.81-1.37,5.36-1.56,8.24
				c-0.11,1.699,0.5,2.949,1.48,3.75c-3.27,10.609-14.64,27.479-1.09,32.68c0.11,0.04,0.22,0.06,0.33,0.1
				c-0.28,3.75-0.99,7.341-1.22,11.24c-0.01,0.24-0.01,0.47-0.02,0.71c-2.36,3.76-3.71,7.98-3.98,12.68
				c-0.31,5.351,0.11,12.961,2.18,17.99c0.58,1.41,1.57,2.73,2.78,3.811c0.04,4.149,0.15,8.3,0.24,12.46
				c0.13,6.26-1.7,12.3-1.71,18.529c-0.01,5.28,0.3,10.261-0.4,15.521c-0.58,4.34-1.26,9.01,1.07,12.97
				c0.44,0.76,0.99,1.32,1.59,1.71c-0.52,1.46-0.41,3.17,0.34,4.53c-1.39,1.99-2.14,4.34-2.16,7c-0.02,2.1,0.41,4.18,1.4,6.04
				c1.19,2.21,0.94,2.11,0.37,4.7c-0.72,3.229,1.5,5.51,4,6.09l0.01,0.87c-2.17-0.09-13.61,0.05-13.61,0.05s-18.51-2.06-36.86-11.39
				c-9.58-4.86-19.12-11.721-25.95-21.29c-19.91-27.92-21.78-44.771-21.78-44.771c-6.64-12.589-1.37-41.02-1.37-41.02l12.94-43.569
				h-1.7V436.19h4.76l9.2-31.15h10.72v-9.87h-5.62v-6.3h42.39l5.95-10.04h8.17l0.17-2.38c-2.21-2.561,0-8.681,0-8.681v-51.919
				l1.88-3.911l2.21-2.39l0.85-61.779l2.49-5.141l0.02,1.361c-1.22,1.8-1.16,3.849-1.34,6.09c-0.18,2.339,0.17,4.379,1.09,6.469
				c-0.79,1.181-1.13,2.651-0.6,3.971c0.77,1.939-0.1,5.12-0.45,7.25c-0.24,1.5-0.18,2.739,0.07,4.239
				c0.25,1.54,0.28,2.89,0.39,4.481c0.06,0.9,0.32,1.67,0.71,2.32c-0.19,0.48-0.33,0.989-0.39,1.569
				c-0.35,3.681-1.26,7.371-1.29,11.071c-0.01,1.38,0.06,2.909,0.37,4.27C350.63,297.399,351.72,298.839,351.48,300.629
				 M344.65,545.48c0-19.461-15.78-35.229-35.24-35.229c-19.46,0-35.23,15.769-35.23,35.229c0,19.46,15.77,35.239,35.23,35.239
				C328.87,580.72,344.65,564.94,344.65,545.48"/>
			<path clip-path="url(#SVGID_6_)" fill="#C18E65" d="M347.14,102.57l2.48-5.5l0.01,0.63h0.01c-0.44,0.6-0.73,1.3-0.87,2.03
				c-1.04,1.84-0.89,4.37,0.43,6.02c0.14,0.41,0.32,0.8,0.56,1.16l0.01,1.23L347.14,102.57z"/>
			<path clip-path="url(#SVGID_6_)" fill="#C18E65" d="M334.54,527.68l6.72,18.98l-5.7,1.62l-3.23-7.41l-3.3,0.88
				c-0.32-1.35-0.77-2.66-1.33-3.9l3.69-1.398l-2.38-6.301L334.54,527.68z"/>
			<path clip-path="url(#SVGID_6_)" fill="#9B755C" d="M309.41,510.25c19.46,0,35.24,15.77,35.24,35.23
				c0,19.46-15.78,35.24-35.24,35.24s-35.23-15.78-35.23-35.24C274.18,526.02,289.95,510.25,309.41,510.25 M341.26,546.66
				l-6.72-18.979l-5.53,2.47l2.38,6.3l-3.69,1.399c-3.52-7.939-11.47-13.47-20.72-13.47c-12.52,0-22.68,10.16-22.68,22.69
				c0,12.52,10.16,22.68,22.68,22.68c12.53,0,22.68-10.16,22.68-22.68c0-1.83-0.22-3.61-0.63-5.32l3.3-0.88l3.23,7.41L341.26,546.66
				z"/>
			<path clip-path="url(#SVGID_6_)" fill="#C18E65" d="M329.03,541.75c0.41,1.71,0.63,3.49,0.63,5.32
				c0,12.52-10.15,22.68-22.68,22.68c-12.52,0-22.68-10.16-22.68-22.68c0-12.53,10.16-22.69,22.68-22.69
				c9.25,0,17.2,5.53,20.72,13.47l-16.9,6.431c0,0-2.05-2.98-4.6-1.28c-2.55,1.7-1.53,4.85-1.53,4.85s1.87,3.49,4.08,2.471
				c2.22-1.021,2.3-1.62,2.3-1.62l0.26-2.21l0.08-0.021L329.03,541.75z"/>
			<path clip-path="url(#SVGID_6_)" fill="#C18E65" d="M329.03,541.75l-17.64,4.72l-0.59-2.189l16.9-6.431
				C328.26,539.09,328.71,540.4,329.03,541.75"/>
			<path clip-path="url(#SVGID_6_)" fill="#C18E65" d="M310.8,544.28l0.59,2.189l-0.08,0.021l-0.26,2.21c0,0-0.08,0.601-2.3,1.62
				c-2.21,1.02-4.08-2.471-4.08-2.471s-1.02-3.149,1.53-4.85C308.75,541.301,310.8,544.28,310.8,544.28"/>
			<path clip-path="url(#SVGID_6_)" fill="#CEA386" d="M306.36,597.4c18.35,9.33,36.86,11.39,36.86,11.39s11.44-0.14,13.61-0.05
				c0.26,0.02,0.41,0.029,0.41,0.05v-0.05c2.78,0.01,18.581,0.05,18.581,0.05s18.51-2.06,36.859-11.39l-55.56,44.649L306.36,597.4z"
				/>
		</g>
	</g>
</g>
<polyline fill="none" stroke="#000000" stroke-miterlimit="10" points="365.85,242.86 365.871,241.82 366.48,215.99 366.59,211.32 
	"/>
<g>
	<defs>
		<rect id="SVGID_7_" width="720" height="720"/>
	</defs>
	<clipPath id="SVGID_8_">
		<use xlink:href="#SVGID_7_"  overflow="visible"/>
	</clipPath>
	<path clip-path="url(#SVGID_8_)" fill="none" stroke="#000000" stroke-miterlimit="10" d="M351.91,82.41
		c-0.58,0.5-1.15,1.09-1.71,1.78l0.85,9.7l-1.43,3.18l-2.48,5.5l2.63,5.57l1.96,4.14l0.68,12.93h1.88l-2.22,116.6l-0.04,0.09
		l-0.36,0.73l-2.49,5.14l-0.85,61.78l-2.21,2.39l-1.88,3.91v51.919c0,0-2.21,6.12,0,8.681l-0.17,2.38h-8.17l-5.95,10.04h-42.39v6.3
		h5.62v9.87h-10.72l-9.2,31.15h-4.76v10.56h1.7l-12.94,43.57c0,0-5.27,28.43,1.37,41.02c0,0,1.87,16.851,21.78,44.771
		c6.83,9.57,16.37,16.43,25.95,21.29c18.35,9.33,36.86,11.39,36.86,11.39s11.44-0.14,13.61-0.05c0.26,0.02,0.41,0.029,0.41,0.05
		v-0.05l0.02-0.78"/>
	<path clip-path="url(#SVGID_8_)" fill="none" stroke="#000000" stroke-miterlimit="10" d="M359.54,79.75
		c-2.47-0.15-5.12,0.48-7.59,2.63"/>
	<path clip-path="url(#SVGID_8_)" fill="none" stroke="#000000" stroke-miterlimit="10" d="M368.02,82.98
		c-0.279-0.19-0.579-0.39-0.92-0.6c-1.851-1.14-4.56-2.44-7.53-2.63"/>
	<polyline clip-path="url(#SVGID_8_)" fill="none" stroke="#000000" stroke-miterlimit="10" points="369.3,97.42 369.31,96.82 
		369.33,96.1 	"/>
	<polyline clip-path="url(#SVGID_8_)" fill="none" stroke="#000000" stroke-miterlimit="10" points="369,109.85 369.03,108.66 
		369.04,107.98 	"/>
	<polygon clip-path="url(#SVGID_8_)" fill="none" stroke="#000000" stroke-miterlimit="10" points="306.36,597.4 298.29,629.38 
		333.35,641.3 357,642.14 357.13,642.15 357.24,642.15 357.23,642.14 357.12,642.05 	"/>
	<path clip-path="url(#SVGID_8_)" fill="none" stroke="#000000" stroke-miterlimit="10" d="M351.91,82.41
		c0.01-0.01,0.02-0.02,0.04-0.03c1.87-1.15,4.6-2.46,7.59-2.63h0.03c2.46-0.14,5.08,0.5,7.529,2.63c0.591,0.51,1.17,1.11,1.74,1.81
		l-0.85,9.7l1.319,2.93l2.601,5.75l-2.88,6.09l-1.721,3.62l-0.68,12.93h-1.87l0.4,21.12l1.32,69.66l0.489,25.82l2.9,5.96l0.85,61.78
		l2.21,2.39l1.87,3.91v51.919c0,0,2.21,6.12,0,8.681l0.17,2.38h8.169l5.961,10.04h42.381v6.3h-5.61v9.87h10.72l9.19,31.15h4.77
		v10.56h-1.71l12.94,43.57c0,0,5.279,28.43-1.36,41.02c0,0-1.87,16.851-21.79,44.771c-6.83,9.57-16.37,16.43-25.95,21.29
		c-18.35,9.33-36.859,11.39-36.859,11.39s-15.8-0.04-18.58-0.05h-0.41"/>
	<polyline clip-path="url(#SVGID_8_)" fill="none" stroke="#000000" stroke-miterlimit="10" points="349.63,97.7 349.62,97.07 
		349.6,95.87 	"/>
	<polyline clip-path="url(#SVGID_8_)" fill="none" stroke="#000000" stroke-miterlimit="10" points="349.79,109.4 349.77,108.14 
		349.76,106.91 	"/>
	<polyline clip-path="url(#SVGID_8_)" fill="none" stroke="#000000" stroke-miterlimit="10" points="351.69,243.99 351.67,242.63 
		351.66,241.9 	"/>
	
		<line clip-path="url(#SVGID_8_)" fill="none" stroke="#000000" stroke-miterlimit="10" x1="356.83" y1="608.74" x2="356.82" y2="607.87"/>
	<polygon clip-path="url(#SVGID_8_)" fill="none" stroke="#000000" stroke-miterlimit="10" points="412.68,597.4 420.76,629.38 
		385.69,641.3 357.229,642.14 357.13,642.15 356.991,642.15 357,642.14 357.12,642.05 	"/>
	<path clip-path="url(#SVGID_8_)" fill="none" stroke="#000000" stroke-miterlimit="10" d="M344.65,545.48
		c0,19.46-15.78,35.239-35.24,35.239c-19.46,0-35.23-15.779-35.23-35.239c0-19.461,15.77-35.229,35.23-35.229
		C328.87,510.251,344.65,526.02,344.65,545.48z"/>
	<path clip-path="url(#SVGID_8_)" fill="none" stroke="#000000" stroke-miterlimit="10" d="M416.99,497.47h8.229h4.381
		c6.601,0,12,5.4,12,12v21.45c0,6.6-5.399,12-12,12h-3.01H393.86c-6.601,0-12-5.4-12-12v-21.45c0-6.6,5.399-12,12-12H407.6"/>
	<path clip-path="url(#SVGID_8_)" fill="none" stroke="#000000" stroke-miterlimit="10" d="M426.59,540.63h-29.72
		c-6.601,0-12-5.399-12-12v-16.87c0-6.6,5.399-12,12-12h3.01h7.72h9.391h8.229h1.37c6.601,0,12,5.4,12,12v16.87
		C438.59,535.23,433.19,540.63,426.59,540.63z"/>
	<path clip-path="url(#SVGID_8_)" fill="none" stroke="#000000" stroke-miterlimit="10" d="M416.99,497.47v0.15v2.14v2.5l1.72,0.12
		l-0.32,14.94c0,0,3.07,5.359,4.79-0.19v-14.431l2.039-0.319v-2.62v-2.29l-8.229,0.15l-9.391,0.16l-7.72,0.14v1.84v1.41h1.28v15.96
		c0,0,2.04,6.76,4.399,0v-15l2.04-0.13v-2.24v-1.979v-0.311"/>
	<path clip-path="url(#SVGID_8_)" fill="none" stroke="#000000" stroke-miterlimit="10" d="M329.03,541.75
		c0.41,1.71,0.63,3.49,0.63,5.32c0,12.52-10.15,22.68-22.68,22.68c-12.52,0-22.68-10.16-22.68-22.68
		c0-12.53,10.16-22.69,22.68-22.69c9.25,0,17.2,5.53,20.72,13.47C328.26,539.09,328.71,540.4,329.03,541.75z"/>
	<path clip-path="url(#SVGID_8_)" fill="none" stroke="#000000" stroke-miterlimit="10" d="M329.03,541.75l3.3-0.88l3.23,7.41
		l5.7-1.62l-6.72-18.98l-5.53,2.471l2.38,6.3l-3.69,1.399l-16.9,6.431c0,0-2.05-2.98-4.6-1.28c-2.55,1.7-1.53,4.85-1.53,4.85
		s1.87,3.49,4.08,2.471c2.22-1.021,2.3-1.62,2.3-1.62l0.26-2.21l0.08-0.021L329.03,541.75z"/>
	<polyline clip-path="url(#SVGID_8_)" fill="none" stroke="#000000" stroke-miterlimit="10" points="354.25,241.88 357.96,241.86 
		365.87,241.82 366.97,241.81 	"/>
	<path clip-path="url(#SVGID_8_)" fill="none" stroke="#000000" stroke-miterlimit="10" d="M351.73,241.13
		c-0.01,0.26-0.02,0.51-0.07,0.77h0.37l2.21-0.02"/>
	
		<line clip-path="url(#SVGID_8_)" fill="none" stroke="#000000" stroke-miterlimit="10" x1="354.25" y1="241.88" x2="354.24" y2="241.88"/>
	
		<line clip-path="url(#SVGID_8_)" fill="none" stroke="#000000" stroke-miterlimit="10" x1="354.29" y1="125.21" x2="364.76" y2="125.21"/>
	
		<line clip-path="url(#SVGID_8_)" fill="none" stroke="#000000" stroke-miterlimit="10" x1="348.33" y1="309.55" x2="370.72" y2="309.55"/>
	
		<line clip-path="url(#SVGID_8_)" fill="none" stroke="#000000" stroke-miterlimit="10" x1="344.07" y1="378.83" x2="374.97" y2="378.83"/>
</g>
</svg>
