<?xml version="1.0" encoding="utf-8"?>
<!-- Generator: Adobe Illustrator 16.0.0, SVG Export Plug-In . SVG Version: 6.00 Build 0)  -->
<!DOCTYPE svg PUBLIC "-//W3C//DTD SVG 1.1//EN" "http://www.w3.org/Graphics/SVG/1.1/DTD/svg11.dtd">
<svg version="1.1" id="Layer_1" xmlns="http://www.w3.org/2000/svg" xmlns:xlink="http://www.w3.org/1999/xlink" x="0px" y="0px"
	 width="720px" height="720px" viewBox="0 0 720 720" enable-background="new 0 0 720 720" xml:space="preserve">
<g>
	<defs>
		<rect id="SVGID_1_" width="720" height="720"/>
	</defs>
	<clipPath id="SVGID_2_">
		<use xlink:href="#SVGID_1_"  overflow="visible"/>
	</clipPath>
	<g clip-path="url(#SVGID_2_)">
		<defs>
			<rect id="SVGID_3_" x="11.58" y="98.7" width="284.97" height="490.444"/>
		</defs>
		<clipPath id="SVGID_4_">
			<use xlink:href="#SVGID_3_"  overflow="visible"/>
		</clipPath>
		<g clip-path="url(#SVGID_4_)">
			<defs>
				<rect id="SVGID_5_" x="11.58" y="98.7" width="284.97" height="490.444"/>
			</defs>
			<clipPath id="SVGID_6_">
				<use xlink:href="#SVGID_5_"  overflow="visible"/>
			</clipPath>
			<path clip-path="url(#SVGID_6_)" fill="#B7AFAB" d="M91.91,187.59c0.82,0.6,1,1.77,0.4,2.59l-6.43,8.8
				c-0.6,0.83-1.77,1.01-2.59,0.41l-4.16-3.04c-0.83-0.61-1.01-1.77-0.41-2.6l6.43-8.8c0.6-0.82,1.77-1,2.6-0.4L91.91,187.59z"/>
			<path clip-path="url(#SVGID_6_)" fill="#B7AFAB" d="M227.67,195.78c0.51,0.89,0.2,2.03-0.68,2.54l-4.46,2.57
				c-0.89,0.52-2.03,0.21-2.54-0.67l-5.45-9.44c-0.51-0.89-0.2-2.03,0.68-2.54l4.46-2.57c0.89-0.52,2.03-0.21,2.54,0.68
				L227.67,195.78z"/>
			<path clip-path="url(#SVGID_6_)" fill="#33231A" d="M83.89,179.91c10.95,0,19.83,8.88,19.83,19.83s-8.88,19.83-19.83,19.83
				s-19.83-8.88-19.83-19.83S72.94,179.91,83.89,179.91 M92.31,190.18c0.6-0.82,0.42-1.99-0.4-2.59l-4.16-3.04
				c-0.83-0.6-2-0.42-2.6,0.4l-6.43,8.8c-0.6,0.83-0.42,1.99,0.41,2.6l4.16,3.04c0.82,0.6,1.99,0.42,2.59-0.41L92.31,190.18z"/>
			<path clip-path="url(#SVGID_6_)" fill="#33231A" d="M225.16,181.31c10.95,0,19.83,8.88,19.83,19.83
				c0,10.95-8.88,19.83-19.83,19.83s-19.83-8.88-19.83-19.83C205.33,190.19,214.21,181.31,225.16,181.31 M226.99,198.32
				c0.88-0.51,1.19-1.65,0.68-2.54l-5.45-9.43c-0.51-0.89-1.65-1.2-2.54-0.68l-4.46,2.57c-0.88,0.51-1.19,1.65-0.68,2.54l5.45,9.44
				c0.51,0.88,1.65,1.19,2.54,0.67L226.99,198.32z"/>
			<path clip-path="url(#SVGID_6_)" fill="#8E684F" d="M99.62,558.53l-4.8,10.34l-6.26,5.37l-6.38,3.51l-6.38,0.44
				c0,0-4.84,9.25-6.31,9.319c-1.23,0.07-5.9,3.17-11.42,0.65c1.35,0.56,2.84,0.88,4.4,0.88c6.24,0,11.3-5.05,11.3-11.29
				s-5.06-11.3-11.3-11.3c-6.24,0-11.3,5.06-11.3,11.3c0,3.24,1.36,6.16,3.55,8.22l-10.08-0.14c2.1-2.05,3.41-4.91,3.41-8.08
				c0-6.24-5.06-11.3-11.3-11.3c-6.24,0-11.3,5.06-11.3,11.3c0,1.45,0.27,2.84,0.78,4.11c0,0-3.35-3.28,0-14.9
				c0,0,1.57-5.229,6.42-8.43h41.12c0,0,5.22,4.729,2.03,11.109l3.7,0.561l5.74-3.75l5.87-7.92H99.62z"/>
			<path clip-path="url(#SVGID_6_)" fill="#8E684F" d="M277.11,566.96c3.22,11.14,0.27,14.61,0.02,14.88
				c0.49-1.27,0.76-2.649,0.76-4.09c0-6.24-5.05-11.3-11.29-11.3c-6.24,0-11.3,5.06-11.3,11.3c0,3.17,1.3,6.02,3.4,8.08l-10.08,0.14
				c2.19-2.06,3.55-4.979,3.55-8.22c0-6.24-5.05-11.3-11.29-11.3s-11.3,5.06-11.3,11.3s5.06,11.29,11.3,11.29
				c1.56,0,3.04-0.32,4.4-0.88c-5.52,2.52-10.19-0.58-11.43-0.65c-1.47-0.069-6.3-9.319-6.3-9.319l-6.38-0.44l-6.39-3.51l-6.25-5.37
				l-4.81-10.34h8.51l5.87,7.92l5.75,3.75l3.7-0.561c-3.19-6.38,2.03-11.109,2.03-11.109h41.12
				C275.55,561.731,277.11,566.96,277.11,566.96"/>
			<path clip-path="url(#SVGID_6_)" fill="#7F5C44" d="M277.12,581.85c-1.64,4.21-5.73,7.19-10.52,7.19c-3.07,0-5.85-1.22-7.89-3.21
				h-0.01c-2.1-2.061-3.4-4.91-3.4-8.08c0-6.24,5.06-11.3,11.3-11.3c6.24,0,11.29,5.06,11.29,11.3c0,1.44-0.27,2.82-0.76,4.09
				C277.12,581.84,277.12,581.85,277.12,581.85"/>
			<path clip-path="url(#SVGID_6_)" fill="#7F5C44" d="M240.88,566.45c6.24,0,11.29,5.06,11.29,11.3c0,3.24-1.36,6.16-3.55,8.22
				c-0.01,0.011-0.01,0.011-0.02,0.021c-0.87,0.75-1.72,1.35-2.56,1.8c-0.24,0.13-0.5,0.25-0.76,0.37c-1.36,0.56-2.84,0.88-4.4,0.88
				c-6.24,0-11.3-5.05-11.3-11.29S234.64,566.45,240.88,566.45"/>
			<path clip-path="url(#SVGID_6_)" fill="#7F5C44" d="M62.47,566.45c6.24,0,11.3,5.06,11.3,11.3s-5.06,11.29-11.3,11.29
				c-1.56,0-3.05-0.32-4.4-0.88c-0.26-0.12-0.51-0.23-0.76-0.37c-0.85-0.46-1.71-1.05-2.58-1.82c0,0-0.01,0.011-0.01,0
				c-2.19-2.06-3.55-4.979-3.55-8.22C51.17,571.51,56.23,566.45,62.47,566.45"/>
			<path clip-path="url(#SVGID_6_)" fill="#7F5C44" d="M44.64,585.83c-2.03,1.99-4.82,3.21-7.89,3.21c-4.79,0-8.88-2.97-10.52-7.18
				c-0.51-1.271-0.78-2.66-0.78-4.11c0-6.24,5.06-11.3,11.3-11.3c6.24,0,11.3,5.06,11.3,11.3
				C48.05,580.92,46.74,583.78,44.64,585.83"/>
			<path clip-path="url(#SVGID_6_)" fill="#7F5C44" d="M168.98,483.22c0.97,2.261,1.51,4.74,1.51,7.351
				c0,10.22-8.29,18.51-18.51,18.51c-10.23,0-18.51-8.29-18.51-18.51c0-2.871,0.65-5.601,1.82-8.03c2.99-6.2,9.34-10.48,16.69-10.48
				c7.16,0,13.37,4.061,16.44,10.011l0.53,1.14L168.98,483.22z"/>
			<polygon clip-path="url(#SVGID_6_)" fill="#8E684F" points="137.46,471.47 136.56,478.49 134.8,482.32 134.39,483.21 
				127.75,486.53 119.2,512.96 108.35,539.39 101.58,554.32 99.62,558.53 91.11,558.53 95.2,553.75 100.75,553.75 100.75,540.5 
				106.56,526.62 116.52,499.04 121.75,484.49 119.07,478.36 121.75,468.79 			"/>
			<path clip-path="url(#SVGID_6_)" fill="#8E684F" d="M208.14,553.75l4.09,4.78h-8.51l-1.96-4.21L195,539.39l-10.86-26.43
				l-8.55-26.43l-6.61-3.311c-0.17-0.39-0.36-0.77-0.56-1.149l-1.64-3.58l-0.89-7.021l15.7-2.68l2.68,9.57l-2.68,6.13l5.24,14.55
				l9.95,27.58l7.94,18.96v8.17H208.14z"/>
			<path clip-path="url(#SVGID_6_)" fill="#C18E65" d="M201.76,554.32l1.96,4.21h-49.36h-0.59H99.62l1.96-4.21l6.77-14.931
				l10.85-26.43l8.55-26.43l6.64-3.32l0.41-0.89l0.49,0.22c-1.17,2.43-1.82,5.16-1.82,8.03c0,10.22,8.28,18.51,18.51,18.51
				c10.22,0,18.51-8.29,18.51-18.51c0-2.61-0.54-5.09-1.51-7.351l6.61,3.311l8.55,26.43L195,539.39L201.76,554.32z"/>
			<polygon clip-path="url(#SVGID_6_)" fill="#C49874" points="295.14,158.7 296.55,535.04 284.8,537.34 284.99,538.43 
				292.02,539.39 283.78,555.47 277.37,558.32 277.37,158.7 			"/>
			<polygon clip-path="url(#SVGID_6_)" fill="#C49874" points="295.14,158.7 277.37,158.7 228.09,158.7 228.09,102.28 287.87,98.7 
				290.93,154.62 			"/>
			<path clip-path="url(#SVGID_6_)" fill="#C18E65" d="M277.37,158.7v399.62l-0.48,0.21h-6.19h-41.12h-17.35l-4.09-4.78h8.34h13.92
				h13.12h13.33h10.39v-38.22h-10.39h-13.33H230.4h-13.92h-11.76v30.05l-7.94-18.96l-9.95-27.58l-5.24-14.55l2.68-6.13l-2.68-9.57
				l-15.7,2.68l0.89,7.021l1.64,3.58c-3.07-5.95-9.28-10.011-16.44-10.011c-7.35,0-13.7,4.28-16.69,10.48l-0.49-0.22l1.76-3.83
				l0.9-7.021l-15.71-2.68l-2.68,9.57l2.68,6.13l-5.23,14.55l-9.96,27.58l-5.81,13.88v-24.97H90.36H77.03H63.9H49.99H38.23v38.22
				h11.76H63.9h13.13h13.33h4.84l-4.09,4.78H73.77H32.65h-1.41l-4.59-2.04V158.7h56.32h145.12H277.37z M273.99,280.49h-1.92v80.3
				h1.92V280.49z M270.92,280.49h-3.44v80.3h3.44V280.49z M268.88,480.15v-49.79h-13.53h-17.36h-17.11h-18.13h-15.32v49.79h15.32
				h18.13h17.11h17.36H268.88z M266.33,280.49h-2.56v80.3h2.56V280.49z M244.99,201.14c0-10.95-8.88-19.83-19.83-19.83
				c-10.95,0-19.83,8.88-19.83,19.83c0,10.95,8.88,19.83,19.83,19.83C236.11,220.97,244.99,212.09,244.99,201.14 M116.52,480.15
				v-49.79h-13.53H85.63H68.52H50.39H35.07v49.79h15.32h18.13h17.11h17.36H116.52z M103.72,199.74c0-10.95-8.88-19.83-19.83-19.83
				c-10.95,0-19.83,8.88-19.83,19.83c0,10.95,8.88,19.83,19.83,19.83C94.84,219.57,103.72,210.69,103.72,199.74 M44.14,280.49h-1.92
				v80.3h1.92V280.49z M41.07,280.49h-3.44v80.3h3.44V280.49z M36.48,280.49h-2.56v80.3h2.56V280.49z"/>
			<rect x="272.07" y="280.49" clip-path="url(#SVGID_6_)" fill="#333333" width="1.92" height="80.3"/>
			<rect x="267.48" y="280.49" clip-path="url(#SVGID_6_)" fill="#333333" width="3.44" height="80.3"/>
			<rect x="255.35" y="430.36" clip-path="url(#SVGID_6_)" fill="#35302C" width="13.53" height="49.79"/>
			<rect x="256.85" y="515.53" clip-path="url(#SVGID_6_)" fill="#35302C" width="10.39" height="38.22"/>
			<rect x="263.77" y="280.49" clip-path="url(#SVGID_6_)" fill="#333333" width="2.56" height="80.3"/>
			<polygon clip-path="url(#SVGID_6_)" fill="#35302C" points="256.85,515.53 256.85,553.75 243.52,553.75 243.52,552.96 
				243.52,515.53 			"/>
			<polygon clip-path="url(#SVGID_6_)" fill="#35302C" points="255.35,430.36 255.35,480.15 237.99,480.15 237.99,479.131 
				237.99,430.36 			"/>
			<polygon clip-path="url(#SVGID_6_)" fill="#35302C" points="243.52,552.96 243.52,553.75 230.4,553.75 230.4,515.53 
				243.52,515.53 			"/>
			<polygon clip-path="url(#SVGID_6_)" fill="#35302C" points="237.99,479.13 237.99,480.151 220.88,480.151 220.88,430.36 
				237.99,430.36 			"/>
			<rect x="216.48" y="515.53" clip-path="url(#SVGID_6_)" fill="#35302C" width="13.92" height="38.22"/>
			<polygon clip-path="url(#SVGID_6_)" fill="#DBA782" points="228.09,102.28 228.09,158.7 82.97,158.7 82.97,102.4 82.97,98.7 
				153.77,98.7 154.36,98.7 228.09,98.7 			"/>
			<rect x="202.75" y="430.36" clip-path="url(#SVGID_6_)" fill="#35302C" width="18.13" height="49.79"/>
			<polygon clip-path="url(#SVGID_6_)" fill="#35302C" points="216.48,515.53 216.48,553.75 208.14,553.75 204.72,545.58 
				204.72,515.53 			"/>
			<polygon clip-path="url(#SVGID_6_)" fill="#35302C" points="204.72,545.58 208.14,553.75 204.72,553.75 			"/>
			<rect x="187.43" y="430.36" clip-path="url(#SVGID_6_)" fill="#35302C" width="15.32" height="49.79"/>
			<rect x="102.99" y="430.36" clip-path="url(#SVGID_6_)" fill="#35302C" width="13.53" height="49.79"/>
			<polygon clip-path="url(#SVGID_6_)" fill="#35302C" points="102.99,430.36 102.99,480.15 85.63,480.15 85.63,479.131 
				85.63,430.36 			"/>
			<polygon clip-path="url(#SVGID_6_)" fill="#35302C" points="100.75,540.5 100.75,553.75 95.2,553.75 			"/>
			<polygon clip-path="url(#SVGID_6_)" fill="#35302C" points="100.75,515.53 100.75,540.5 95.2,553.75 90.36,553.75 90.36,515.53 
							"/>
			<polygon clip-path="url(#SVGID_6_)" fill="#35302C" points="90.36,515.53 90.36,553.75 77.03,553.75 77.03,552.96 77.03,515.53 
							"/>
			<polygon clip-path="url(#SVGID_6_)" fill="#35302C" points="85.63,479.13 85.63,480.151 68.52,480.151 68.52,430.36 
				85.63,430.36 			"/>
			<polygon clip-path="url(#SVGID_6_)" fill="#C49874" points="82.97,102.4 82.97,158.7 26.65,158.7 12.99,158.7 17.2,154.62 
				20.26,98.7 			"/>
			<polygon clip-path="url(#SVGID_6_)" fill="#35302C" points="77.03,552.96 77.03,553.75 63.9,553.75 63.9,515.53 77.03,515.53 			
				"/>
			<rect x="50.39" y="430.36" clip-path="url(#SVGID_6_)" fill="#35302C" width="18.13" height="49.79"/>
			<rect x="49.99" y="515.53" clip-path="url(#SVGID_6_)" fill="#35302C" width="13.91" height="38.22"/>
			<rect x="35.07" y="430.36" clip-path="url(#SVGID_6_)" fill="#35302C" width="15.32" height="49.79"/>
			<rect x="38.23" y="515.53" clip-path="url(#SVGID_6_)" fill="#35302C" width="11.76" height="38.22"/>
			<rect x="42.22" y="280.49" clip-path="url(#SVGID_6_)" fill="#333333" width="1.92" height="80.3"/>
			<rect x="37.63" y="280.49" clip-path="url(#SVGID_6_)" fill="#333333" width="3.44" height="80.3"/>
			<rect x="33.92" y="280.49" clip-path="url(#SVGID_6_)" fill="#333333" width="2.56" height="80.3"/>
			<polygon clip-path="url(#SVGID_6_)" fill="#C49874" points="26.65,158.7 26.65,556.49 24.35,555.47 16.11,539.39 23.14,538.43 
				23.33,537.34 11.58,535.04 12.99,158.7 			"/>
		</g>
	</g>
</g>
<polyline fill="none" stroke="#000000" stroke-miterlimit="10" points="12.99,158.7 26.65,158.7 82.97,158.7 228.09,158.7 
	277.37,158.7 295.14,158.7 "/>
<g>
	<defs>
		<rect id="SVGID_7_" width="720" height="720"/>
	</defs>
	<clipPath id="SVGID_8_">
		<use xlink:href="#SVGID_7_"  overflow="visible"/>
	</clipPath>
	
		<circle clip-path="url(#SVGID_8_)" fill="none" stroke="#000000" stroke-width="0.75" stroke-miterlimit="10" cx="225.16" cy="201.14" r="19.83"/>
	
		<circle clip-path="url(#SVGID_8_)" fill="none" stroke="#000000" stroke-width="0.75" stroke-miterlimit="10" cx="83.89" cy="199.74" r="19.83"/>
	<path clip-path="url(#SVGID_8_)" fill="none" stroke="#000000" stroke-width="0.75" stroke-miterlimit="10" d="M83.29,199.39
		l-4.16-3.04c-0.83-0.61-1.01-1.77-0.41-2.6l6.43-8.8c0.6-0.82,1.77-1,2.6-0.4l4.16,3.04c0.82,0.6,1,1.771,0.4,2.59l-6.43,8.8
		C85.28,199.81,84.11,199.99,83.29,199.39z"/>
	<path clip-path="url(#SVGID_8_)" fill="none" stroke="#000000" stroke-width="0.75" stroke-miterlimit="10" d="M215.22,188.24
		l4.46-2.57c0.89-0.52,2.03-0.21,2.54,0.68l5.45,9.43c0.51,0.89,0.2,2.03-0.68,2.54l-4.46,2.57c-0.89,0.52-2.03,0.21-2.54-0.67
		l-5.45-9.44C214.03,189.89,214.34,188.75,215.22,188.24z"/>
	<polyline clip-path="url(#SVGID_8_)" fill="none" stroke="#000000" stroke-width="0.75" stroke-miterlimit="10" points="
		82.97,98.7 82.97,102.4 82.97,158.7 	"/>
	<polyline clip-path="url(#SVGID_8_)" fill="none" stroke="#000000" stroke-width="0.75" stroke-miterlimit="10" points="
		228.09,98.7 228.09,102.28 228.09,158.7 	"/>
	<polyline clip-path="url(#SVGID_8_)" fill="none" stroke="#000000" stroke-miterlimit="10" points="73.77,558.53 91.11,558.53 
		99.62,558.53 153.77,558.53 	"/>
	<polyline clip-path="url(#SVGID_8_)" fill="none" stroke="#000000" stroke-miterlimit="10" points="82.97,102.4 20.26,98.7 
		17.2,154.62 12.99,158.7 11.58,535.04 23.33,537.34 23.14,538.43 16.11,539.39 24.35,555.47 26.65,556.49 31.24,558.53 
		32.65,558.53 	"/>
	
		<line clip-path="url(#SVGID_8_)" fill="none" stroke="#000000" stroke-miterlimit="10" x1="153.77" y1="98.7" x2="82.97" y2="98.7"/>
	<polyline clip-path="url(#SVGID_8_)" fill="none" stroke="#000000" stroke-miterlimit="10" points="229.58,558.53 212.23,558.53 
		203.72,558.53 154.36,558.53 153.77,558.53 	"/>
	<polyline clip-path="url(#SVGID_8_)" fill="none" stroke="#000000" stroke-miterlimit="10" points="228.08,102.28 228.09,102.28 
		287.87,98.7 290.93,154.62 295.14,158.7 296.55,535.04 284.8,537.34 284.99,538.43 292.02,539.39 283.78,555.47 277.37,558.32 
		276.89,558.529 270.7,558.529 	"/>
	<polyline clip-path="url(#SVGID_8_)" fill="none" stroke="#000000" stroke-miterlimit="10" points="153.77,98.7 154.36,98.7 
		228.09,98.7 	"/>
	<polyline clip-path="url(#SVGID_8_)" fill="none" stroke="#000000" stroke-miterlimit="10" points="26.65,158.7 26.65,556.49 
		26.65,556.55 	"/>
	<polyline clip-path="url(#SVGID_8_)" fill="none" stroke="#000000" stroke-miterlimit="10" points="277.37,158.7 277.37,558.32 
		277.37,558.53 	"/>
	<polyline clip-path="url(#SVGID_8_)" fill="none" stroke="#A39D98" stroke-width="0.75" stroke-miterlimit="10" points="
		85.63,430.36 102.99,430.36 116.52,430.36 116.52,480.15 102.99,480.15 85.63,480.15 68.52,480.15 	"/>
	<polyline clip-path="url(#SVGID_8_)" fill="none" stroke="#A39D98" stroke-width="0.75" stroke-miterlimit="10" points="
		50.39,480.15 35.07,480.15 35.07,430.36 50.39,430.36 68.52,430.36 	"/>
	<polyline clip-path="url(#SVGID_8_)" fill="none" stroke="#A39D98" stroke-width="0.75" stroke-miterlimit="10" points="
		50.39,430.36 50.39,480.15 68.52,480.15 68.52,430.36 85.63,430.36 85.63,479.131 	"/>
	
		<line clip-path="url(#SVGID_8_)" fill="none" stroke="#A39D98" stroke-width="0.75" stroke-miterlimit="10" x1="102.99" y1="480.15" x2="102.99" y2="430.36"/>
	<polyline clip-path="url(#SVGID_8_)" fill="none" stroke="#A39D98" stroke-width="0.75" stroke-miterlimit="10" points="
		237.99,430.36 255.35,430.36 268.88,430.36 268.88,480.15 255.35,480.15 237.99,480.15 220.88,480.15 	"/>
	<polyline clip-path="url(#SVGID_8_)" fill="none" stroke="#A39D98" stroke-width="0.75" stroke-miterlimit="10" points="
		202.75,480.15 187.43,480.15 187.43,430.36 202.75,430.36 220.88,430.36 	"/>
	<polyline clip-path="url(#SVGID_8_)" fill="none" stroke="#A39D98" stroke-width="0.75" stroke-miterlimit="10" points="
		202.75,430.36 202.75,480.15 220.88,480.15 220.88,430.36 237.99,430.36 237.99,479.131 	"/>
	
		<line clip-path="url(#SVGID_8_)" fill="none" stroke="#A39D98" stroke-width="0.75" stroke-miterlimit="10" x1="255.35" y1="480.15" x2="255.35" y2="430.36"/>
	<polyline clip-path="url(#SVGID_8_)" fill="none" stroke="#A39D98" stroke-width="0.75" stroke-miterlimit="10" points="
		77.03,515.53 90.36,515.53 100.75,515.53 100.75,540.5 100.75,553.75 95.2,553.75 90.36,553.75 77.03,553.75 63.9,553.75 	"/>
	<polyline clip-path="url(#SVGID_8_)" fill="none" stroke="#A39D98" stroke-width="0.75" stroke-miterlimit="10" points="
		49.99,553.75 38.23,553.75 38.23,515.53 49.99,515.53 63.9,515.53 	"/>
	<polyline clip-path="url(#SVGID_8_)" fill="none" stroke="#A39D98" stroke-width="0.75" stroke-miterlimit="10" points="
		49.99,515.53 49.99,553.75 63.9,553.75 63.9,515.53 77.03,515.53 77.03,552.96 	"/>
	
		<line clip-path="url(#SVGID_8_)" fill="none" stroke="#A39D98" stroke-width="0.75" stroke-miterlimit="10" x1="90.36" y1="553.75" x2="90.36" y2="515.53"/>
	<polyline clip-path="url(#SVGID_8_)" fill="none" stroke="#A39D98" stroke-width="0.75" stroke-miterlimit="10" points="
		243.52,515.53 256.85,515.53 267.24,515.53 267.24,553.75 256.85,553.75 243.52,553.75 230.4,553.75 	"/>
	<polyline clip-path="url(#SVGID_8_)" fill="none" stroke="#A39D98" stroke-width="0.75" stroke-miterlimit="10" points="
		216.48,553.75 208.14,553.75 204.72,553.75 204.72,545.58 204.72,515.53 216.48,515.53 230.4,515.53 	"/>
	<polyline clip-path="url(#SVGID_8_)" fill="none" stroke="#A39D98" stroke-width="0.75" stroke-miterlimit="10" points="
		216.48,515.53 216.48,553.75 230.4,553.75 230.4,515.53 243.52,515.53 243.52,552.96 	"/>
	
		<line clip-path="url(#SVGID_8_)" fill="none" stroke="#A39D98" stroke-width="0.75" stroke-miterlimit="10" x1="256.85" y1="553.75" x2="256.85" y2="515.53"/>
	<path clip-path="url(#SVGID_8_)" fill="none" stroke="#000000" stroke-miterlimit="10" d="M26.23,581.86
		c-0.51-1.271-0.78-2.66-0.78-4.11c0-6.24,5.06-11.3,11.3-11.3s11.3,5.06,11.3,11.3c0,3.17-1.31,6.03-3.41,8.08
		c-2.03,1.99-4.82,3.21-7.89,3.21C31.96,589.04,27.87,586.07,26.23,581.86z"/>
	<polyline clip-path="url(#SVGID_8_)" fill="none" stroke="#000000" stroke-miterlimit="10" points="54.72,585.97 44.64,585.83 
		44.63,585.83 	"/>
	<path clip-path="url(#SVGID_8_)" fill="none" stroke="#000000" stroke-miterlimit="10" d="M57.31,587.79
		c-0.85-0.46-1.71-1.05-2.58-1.82"/>
	<path clip-path="url(#SVGID_8_)" fill="none" stroke="#000000" stroke-miterlimit="10" d="M26.23,581.86c0,0-3.35-3.28,0-14.9
		c0,0,1.57-5.229,6.42-8.43h41.12c0,0,5.22,4.729,2.03,11.109l3.7,0.561l5.74-3.75l5.87-7.92l4.09-4.78l5.55-13.25l5.81-13.88
		l9.96-27.58l5.23-14.55l-2.68-6.13l2.68-9.57l15.71,2.68l-0.9,7.021l-1.76,3.83l-0.41,0.89l-6.64,3.32l-8.55,26.43l-10.85,26.43
		l-6.77,14.931l-1.96,4.21l-4.8,10.34l-6.26,5.37l-6.38,3.51l-6.38,0.44c0,0-4.84,9.25-6.31,9.319c-1.23,0.07-5.9,3.17-11.42,0.65"
		/>
	<path clip-path="url(#SVGID_8_)" fill="none" stroke="#000000" stroke-miterlimit="10" d="M54.72,585.97
		c-2.19-2.06-3.55-4.979-3.55-8.22c0-6.24,5.06-11.301,11.3-11.301c6.24,0,11.3,5.061,11.3,11.301s-5.06,11.29-11.3,11.29
		c-1.56,0-3.05-0.32-4.4-0.88c-0.26-0.12-0.51-0.23-0.76-0.37c-0.95-0.47-1.82-1.091-2.58-1.82
		C54.73,585.97,54.72,585.98,54.72,585.97z"/>
	<path clip-path="url(#SVGID_8_)" fill="none" stroke="#000000" stroke-miterlimit="10" d="M258.71,585.83
		c2.04,1.99,4.82,3.21,7.89,3.21c4.79,0,8.88-2.98,10.52-7.19"/>
	<path clip-path="url(#SVGID_8_)" fill="none" stroke="#000000" stroke-miterlimit="10" d="M277.13,581.84
		c0.49-1.271,0.76-2.649,0.76-4.09c0-6.24-5.05-11.3-11.29-11.3c-6.24,0-11.3,5.06-11.3,11.3c0,3.17,1.3,6.02,3.4,8.08"/>
	<polyline clip-path="url(#SVGID_8_)" fill="none" stroke="#000000" stroke-miterlimit="10" points="248.62,585.97 258.7,585.83 
		258.71,585.83 	"/>
	<path clip-path="url(#SVGID_8_)" fill="none" stroke="#000000" stroke-miterlimit="10" d="M246.04,587.79
		c0.84-0.45,1.69-1.05,2.56-1.8"/>
	<path clip-path="url(#SVGID_8_)" fill="none" stroke="#000000" stroke-miterlimit="10" d="M277.11,581.86l0.01-0.011
		c0,0,0-0.01,0.01-0.01c0.25-0.27,3.2-3.74-0.02-14.88c0,0-1.56-5.229-6.41-8.43h-41.12c0,0-5.22,4.729-2.03,11.109l-3.7,0.561
		l-5.75-3.75l-5.87-7.92l-4.09-4.78l-3.42-8.17l-7.94-18.96l-9.95-27.58l-5.24-14.55l2.68-6.13l-2.68-9.57l-15.7,2.68l0.89,7.021
		l1.64,3.58l0.53,1.14l0.03,0.01l6.61,3.311l8.55,26.43L195,539.39l6.76,14.931l1.96,4.21l4.81,10.34l6.25,5.37l6.39,3.51l6.38,0.44
		c0,0,4.83,9.25,6.3,9.319c1.24,0.07,5.91,3.17,11.43,0.65"/>
	<path clip-path="url(#SVGID_8_)" fill="none" stroke="#000000" stroke-miterlimit="10" d="M248.62,585.97
		c2.19-2.06,3.55-4.979,3.55-8.22c0-6.24-5.05-11.301-11.29-11.301c-6.24,0-11.3,5.061-11.3,11.301s5.06,11.29,11.3,11.29
		c1.56,0,3.04-0.32,4.4-0.88c0.26-0.12,0.52-0.24,0.76-0.37c0.94-0.48,1.8-1.091,2.56-1.8
		C248.61,585.98,248.61,585.98,248.62,585.97z"/>
	<path clip-path="url(#SVGID_8_)" fill="none" stroke="#000000" stroke-miterlimit="10" d="M168.98,483.22
		c0.97,2.261,1.51,4.74,1.51,7.351c0,10.22-8.29,18.51-18.51,18.51c-10.23,0-18.51-8.29-18.51-18.51c0-2.871,0.65-5.601,1.82-8.03
		c2.99-6.2,9.34-10.48,16.69-10.48c7.16,0,13.37,4.061,16.44,10.011C168.62,482.449,168.81,482.83,168.98,483.22z"/>
	
		<rect x="33.92" y="280.49" clip-path="url(#SVGID_8_)" fill="none" stroke="#000000" stroke-width="0.5" stroke-miterlimit="10" width="2.56" height="80.3"/>
	
		<rect x="37.63" y="280.49" clip-path="url(#SVGID_8_)" fill="none" stroke="#000000" stroke-width="0.5" stroke-miterlimit="10" width="3.44" height="80.3"/>
	
		<rect x="42.22" y="280.49" clip-path="url(#SVGID_8_)" fill="none" stroke="#000000" stroke-width="0.5" stroke-miterlimit="10" width="1.92" height="80.3"/>
	
		<rect x="263.77" y="280.49" clip-path="url(#SVGID_8_)" fill="none" stroke="#000000" stroke-width="0.5" stroke-miterlimit="10" width="2.56" height="80.3"/>
	
		<rect x="267.48" y="280.49" clip-path="url(#SVGID_8_)" fill="none" stroke="#000000" stroke-width="0.5" stroke-miterlimit="10" width="3.44" height="80.3"/>
	
		<rect x="272.07" y="280.49" clip-path="url(#SVGID_8_)" fill="none" stroke="#000000" stroke-width="0.5" stroke-miterlimit="10" width="1.92" height="80.3"/>
	<polygon clip-path="url(#SVGID_8_)" fill="#FFFF00" points="39.192,99.821 60.909,101.103 67.298,90.021 36.404,87.468 	"/>
	<polygon clip-path="url(#SVGID_8_)" fill="#FFFF00" points="266.412,99.821 244.695,101.103 238.306,90.021 269.2,87.468 	"/>
	<polygon clip-path="url(#SVGID_8_)" fill="#FF0000" points="110.702,558.98 119.893,558.98 123.723,566.896 107.893,566.896 	"/>
	<polygon clip-path="url(#SVGID_8_)" fill="#FF0000" points="178.511,558.917 187.702,558.917 191.532,566.832 175.702,566.832 	"/>
</g>
</svg>
