<?xml version="1.0" encoding="UTF-8" standalone="no"?>
<!DOCTYPE svg PUBLIC "-//W3C//DTD SVG 1.1//EN" "http://www.w3.org/Graphics/SVG/1.1/DTD/svg11.dtd">
<svg version="1.1" xmlns="http://www.w3.org/2000/svg" xmlns:xlink="http://www.w3.org/1999/xlink" preserveAspectRatio="xMidYMid meet" viewBox="0 0 640 640" width="640" height="640"><defs><path d="M452.62 311.84C452.62 373.3 402.73 423.19 341.28 423.19C279.82 423.19 229.93 373.3 229.93 311.84C229.93 250.39 279.82 200.5 341.28 200.5C402.73 200.5 452.62 250.39 452.62 311.84Z" id="b35mxFWyE"></path><path d="M412.2 275.67C412.2 298.38 393.13 316.81 369.65 316.81C346.16 316.81 327.09 298.38 327.09 275.67C327.09 252.97 346.16 234.54 369.65 234.54C393.13 234.54 412.2 252.97 412.2 275.67Z" id="buzCUayfr"></path></defs><g><g><g><g><filter id="shadow11317832" x="217.93" y="188.5" width="247.7" height="247.7" filterUnits="userSpaceOnUse" primitiveUnits="userSpaceOnUse"><feFlood></feFlood><feComposite in2="SourceAlpha" operator="in"></feComposite><feGaussianBlur stdDeviation="1"></feGaussianBlur><feOffset dx="1" dy="1" result="afterOffset"></feOffset><feFlood flood-color="#000000" flood-opacity="0.5"></feFlood><feComposite in2="afterOffset" operator="in"></feComposite><feMorphology operator="dilate" radius="4"></feMorphology><feComposite in2="SourceAlpha" operator="out"></feComposite></filter><path d="M452.62 311.84C452.62 373.3 402.73 423.19 341.28 423.19C279.82 423.19 229.93 373.3 229.93 311.84C229.93 250.39 279.82 200.5 341.28 200.5C402.73 200.5 452.62 250.39 452.62 311.84Z" id="b3CEIwwHi9" fill="white" fill-opacity="1" filter="url(#shadow11317832)"></path></g><use xlink:href="#b35mxFWyE" opacity="1" fill="#1c3327" fill-opacity="1"></use></g><g><g><filter id="shadow5685889" x="315.09" y="222.54" width="110.11" height="107.27" filterUnits="userSpaceOnUse" primitiveUnits="userSpaceOnUse"><feFlood></feFlood><feComposite in2="SourceAlpha" operator="in"></feComposite><feGaussianBlur stdDeviation="1"></feGaussianBlur><feOffset dx="1" dy="1" result="afterOffset"></feOffset><feFlood flood-color="#000000" flood-opacity="0.5"></feFlood><feComposite in2="afterOffset" operator="in"></feComposite><feMorphology operator="dilate" radius="4"></feMorphology><feComposite in2="SourceAlpha" operator="out"></feComposite></filter><path d="M412.2 275.67C412.2 298.38 393.13 316.81 369.65 316.81C346.16 316.81 327.09 298.38 327.09 275.67C327.09 252.97 346.16 234.54 369.65 234.54C393.13 234.54 412.2 252.97 412.2 275.67Z" id="d3OisCEjuC" fill="white" fill-opacity="1" filter="url(#shadow5685889)"></path></g><use xlink:href="#buzCUayfr" opacity="1" fill="#224231" fill-opacity="1"></use></g></g></g></svg>