<?xml version="1.0" encoding="utf-8"?>
<!-- Generator: Adobe Illustrator 16.0.0, SVG Export Plug-In . SVG Version: 6.00 Build 0)  -->
<!DOCTYPE svg PUBLIC "-//W3C//DTD SVG 1.1//EN" "http://www.w3.org/Graphics/SVG/1.1/DTD/svg11.dtd">
<svg version="1.1" id="Layer_1" xmlns="http://www.w3.org/2000/svg" xmlns:xlink="http://www.w3.org/1999/xlink" x="0px" y="0px"
	 width="720px" height="720px" viewBox="0 0 720 720" enable-background="new 0 0 720 720" xml:space="preserve">
<g>
	<defs>
		<rect id="SVGID_1_" width="720" height="720"/>
	</defs>
	<clipPath id="SVGID_2_">
		<use xlink:href="#SVGID_1_"  overflow="visible"/>
	</clipPath>
	<g clip-path="url(#SVGID_2_)">
		<defs>
			<rect id="SVGID_3_" x="267.394" y="73.791" width="185.209" height="572.42"/>
		</defs>
		<clipPath id="SVGID_4_">
			<use xlink:href="#SVGID_3_"  overflow="visible"/>
		</clipPath>
		<g clip-path="url(#SVGID_4_)">
			<defs>
				<rect id="SVGID_5_" x="267.394" y="73.791" width="185.209" height="572.42"/>
			</defs>
			<clipPath id="SVGID_6_">
				<use xlink:href="#SVGID_5_"  overflow="visible"/>
			</clipPath>
			<path clip-path="url(#SVGID_6_)" fill="#968A6F" d="M441.323,382.722l11.28,74.81l-1.7,13.28l-19.069,77.609l-13.271,6.811
				l-5.79,10.56l-1.359,55.49l-10.21,9.87l-0.471,2.55c0,0-20.229,11.43-40.49,12.48v-62c5.44,0.609,11.341-0.021,17.521-2.641
				c9.91-3.319,18.23-10.12,23.5-18.95l12.35-9.909l9.36-17.021l15.66-74.729l-7.35-68.42l9.579-9.591l0.141-0.33L441.323,382.722z"
				/>
			<polygon clip-path="url(#SVGID_6_)" fill="#968A6F" points="432.903,379.151 441.004,382.591 440.863,382.922 360.243,382.821 
				360.243,379.151 			"/>
			<polygon clip-path="url(#SVGID_6_)" fill="#968A6F" points="440.863,382.921 431.284,392.512 360.243,392.512 360.243,382.821 
							"/>
			<path clip-path="url(#SVGID_6_)" fill="#968A6F" d="M393.884,345.901c-0.97,0-1.75,0.78-1.75,1.74c0,0.97,0.78,1.75,1.75,1.75
				c0.96,0,1.74-0.78,1.74-1.75C395.624,346.681,394.844,345.901,393.884,345.901 M413.563,345.901c-0.96,0-1.74,0.78-1.74,1.74
				c0,0.97,0.78,1.75,1.74,1.75c0.971,0,1.75-0.78,1.75-1.75C415.313,346.681,414.534,345.901,413.563,345.901 M433.023,345.901
				c-0.96,0-1.739,0.78-1.739,1.74c0,0.97,0.779,1.75,1.739,1.75c0.971,0,1.75-0.78,1.75-1.75
				C434.773,346.681,433.994,345.901,433.023,345.901 M386.544,344.041h52.359l1.78,8.81h-7.66h-72.779v-8.81h24.779H386.544z
				 M374.754,346.221c-0.96,0-1.74,0.79-1.74,1.75s0.78,1.74,1.74,1.74c0.97,0,1.75-0.78,1.75-1.74S375.724,346.221,374.754,346.221
				"/>
			<path clip-path="url(#SVGID_6_)" fill="#A89B83" d="M431.284,392.512l7.35,68.42l-15.66,74.729l-9.36,17.021l-12.35,9.908
				c3.87-6.5,6.1-14.089,6.1-22.198c0-23.96-19.42-43.391-43.39-43.391c-1.26,0-2.5,0.051-3.729,0.16V392.512H431.284z
				 M426.804,483.531c0.12-0.51-0.19-1.03-0.71-1.16c-0.07-0.02-0.15-0.031-0.22-0.031c-0.431,0-0.83,0.302-0.931,0.741l-7.04,29.17
				c-0.119,0.511,0.19,1.03,0.71,1.15c0.511,0.13,1.03-0.19,1.15-0.7L426.804,483.531z M400.504,449.111
				c0-8.04-6.521-14.56-14.55-14.56c-8.04,0-14.561,6.52-14.561,14.56c0,8.03,6.521,14.55,14.561,14.55
				C393.982,463.661,400.504,457.142,400.504,449.111"/>
			<path clip-path="url(#SVGID_6_)" fill="#DDD0BA" d="M433.023,345.901c0.971,0,1.75,0.78,1.75,1.74c0,0.97-0.779,1.75-1.75,1.75
				c-0.96,0-1.739-0.78-1.739-1.75C431.284,346.682,432.063,345.901,433.023,345.901"/>
			<path clip-path="url(#SVGID_6_)" fill="#968A6F" d="M433.023,352.851l-0.12,26.3h-72.66v-3.66h18.07c1.03,0,1.87-0.84,1.87-1.87
				v-15.829c0-1.031-0.84-1.881-1.87-1.881h-18.07v-3.06H433.023z M427.983,370.001v-6.56c0-1.89-1.55-3.44-3.439-3.44h-32.471
				c-1.89,0-3.439,1.551-3.439,3.44v6.56c0,1.9,1.55,3.45,3.439,3.45h32.471C426.434,373.451,427.983,371.901,427.983,370.001"/>
			<path clip-path="url(#SVGID_6_)" fill="#A89B83" d="M427.983,363.441v6.56c0,1.9-1.55,3.45-3.439,3.45h-32.471
				c-1.89,0-3.439-1.55-3.439-3.45v-6.56c0-1.89,1.55-3.44,3.439-3.44h32.471C426.434,360.001,427.983,361.552,427.983,363.441"/>
			<path clip-path="url(#SVGID_6_)" fill="#DDD0BA" d="M424.943,483.081c0.101-0.438,0.5-0.74,0.931-0.74
				c0.069,0,0.149,0.012,0.22,0.03c0.52,0.13,0.83,0.65,0.71,1.16l-7.04,29.17c-0.12,0.51-0.64,0.83-1.15,0.7
				c-0.52-0.12-0.829-0.64-0.71-1.15L424.943,483.081z"/>
			<path clip-path="url(#SVGID_6_)" fill="#DDD0BA" d="M413.563,345.901c0.971,0,1.75,0.78,1.75,1.74c0,0.97-0.779,1.75-1.75,1.75
				c-0.96,0-1.74-0.78-1.74-1.75C411.823,346.682,412.604,345.901,413.563,345.901"/>
			<path clip-path="url(#SVGID_6_)" fill="#DDD0BA" d="M407.363,540.392c0,8.109-2.229,15.699-6.1,22.199l-1.44,1.15
				c-7.56,9.25-15,14.82-22.06,17.8c-4.33,1.45-8.97,2.24-13.79,2.24c-1.26,0-2.5-0.05-3.73-0.16v-7.76
				c0.971,0.08,1.95,0.12,2.94,0.12c17.26,0,31.72-12.021,35.451-28.16c0.609-2.64,0.929-5.39,0.929-8.22s-0.319-5.58-0.929-8.21
				c-3.731-16.141-18.191-28.17-35.451-28.17c-0.99,0-1.97,0.04-2.94,0.119v-6.18c1.23-0.109,2.471-0.16,3.73-0.16
				C387.943,497.001,407.363,516.432,407.363,540.392"/>
			<path clip-path="url(#SVGID_6_)" fill="#968A6F" d="M399.823,563.741l1.44-1.15c-5.27,8.83-13.59,15.631-23.5,18.95
				C384.823,578.562,392.264,572.991,399.823,563.741"/>
			<path clip-path="url(#SVGID_6_)" fill="#A89B83" d="M398.634,531.392c0.61,2.63,0.93,5.38,0.93,8.21s-0.319,5.58-0.93,8.22
				l-2.05-0.29v-3.19l-6.32-0.1c0.25-1.51,0.38-3.06,0.38-4.64c0-1.771-0.16-3.511-0.47-5.19l6.41,0.101v-2.551L398.634,531.392z"/>
			<path clip-path="url(#SVGID_6_)" fill="#A89B83" d="M398.634,531.392l-2.05,0.569h-6.972c-3.148-11.55-13.318-20.21-25.639-21.12
				c-0.21-0.029-0.43-0.039-0.64-0.05c-0.511-0.029-1.021-0.04-1.54-0.04c-0.521,0-1.03,0.011-1.55,0.04v-7.45
				c0.97-0.079,1.949-0.119,2.939-0.119C380.443,503.222,394.903,515.251,398.634,531.392"/>
			<path clip-path="url(#SVGID_6_)" fill="#A89B83" d="M363.974,568.361c12.22-0.9,22.311-9.42,25.561-20.83h7.05l2.05,0.29
				c-3.73,16.14-18.19,28.16-35.45,28.16c-0.99,0-1.97-0.04-2.94-0.12v-7.45c0.521,0.03,1.03,0.04,1.551,0.04
				C362.523,568.451,363.254,568.421,363.974,568.361"/>
			<path clip-path="url(#SVGID_6_)" fill="#DDD0BA" d="M385.954,434.552c8.029,0,14.55,6.521,14.55,14.56
				c0,8.03-6.521,14.55-14.55,14.55c-8.04,0-14.561-6.52-14.561-14.55C371.394,441.072,377.914,434.552,385.954,434.552"/>
			<path clip-path="url(#SVGID_6_)" fill="#968E81" d="M396.584,544.341v3.19h-7.05c0.31-1.07,0.56-2.17,0.729-3.29L396.584,544.341
				z"/>
			<path clip-path="url(#SVGID_6_)" fill="#968E81" d="M396.584,531.961v2.551l-6.41-0.101c-0.15-0.83-0.33-1.649-0.561-2.45
				H396.584z"/>
			<path clip-path="url(#SVGID_6_)" fill="#DDD0BA" d="M393.884,345.901c0.96,0,1.74,0.78,1.74,1.74c0,0.97-0.78,1.75-1.74,1.75
				c-0.97,0-1.75-0.78-1.75-1.75C392.134,346.682,392.914,345.901,393.884,345.901"/>
			<path clip-path="url(#SVGID_6_)" fill="#968A6F" d="M390.174,534.411c0.31,1.68,0.47,3.42,0.47,5.19c0,1.58-0.13,3.13-0.38,4.64
				l-2.229-0.03v-9.83L390.174,534.411z"/>
			<path clip-path="url(#SVGID_6_)" fill="#A89B83" d="M363.974,510.841c12.32,0.91,22.49,9.57,25.64,21.12h-2.09v-1.659h-2.3
				v19.659h2.561l0.119-2.43h1.631c-3.25,11.41-13.341,19.93-25.561,20.83V510.841z"/>
			<path clip-path="url(#SVGID_6_)" fill="#968E81" d="M388.034,534.381v9.83l2.229,0.03c-0.17,1.12-0.42,2.22-0.729,3.29h-1.631
				l-0.119,2.43h-2.561v-19.659h2.3v1.659h2.09c0.23,0.801,0.41,1.62,0.561,2.45L388.034,534.381z"/>
			<path clip-path="url(#SVGID_6_)" fill="#A89B83" d="M385.023,338.042c0.261,2.68,0,6,0,6h-24.78v-9.19h8.7h13.28
				C382.224,334.852,384.773,335.361,385.023,338.042"/>
			<path clip-path="url(#SVGID_6_)" fill="#A89B83" d="M380.184,357.792v15.83c0,1.03-0.84,1.87-1.87,1.87h-18.07v-19.58h18.07
				C379.344,355.912,380.184,356.762,380.184,357.792"/>
			<path clip-path="url(#SVGID_6_)" fill="#DDD0BA" d="M374.754,346.221c0.97,0,1.75,0.79,1.75,1.75s-0.78,1.74-1.75,1.74
				c-0.96,0-1.74-0.78-1.74-1.74S373.794,346.221,374.754,346.221"/>
			<rect x="360.243" y="303.321" clip-path="url(#SVGID_6_)" fill="#968A6F" width="8.7" height="31.53"/>
			<polygon clip-path="url(#SVGID_6_)" fill="#A89B83" points="368.943,300.511 368.943,303.321 360.243,303.321 360.243,299.491 
				366.903,299.491 			"/>
			<path clip-path="url(#SVGID_6_)" fill="#968E81" d="M363.974,510.841v57.521c-0.72,0.06-1.45,0.09-2.18,0.09
				c-0.521,0-1.03-0.01-1.551-0.04v-57.62c0.521-0.029,1.03-0.04,1.551-0.04c0.52,0,1.029,0.011,1.54,0.04
				C363.544,510.802,363.764,510.812,363.974,510.841"/>
			<path clip-path="url(#SVGID_6_)" fill="#968A6F" d="M363.974,583.781c4.82,0,9.46-0.79,13.79-2.24
				c-6.18,2.62-12.08,3.25-17.521,2.641v-0.561C361.474,583.731,362.714,583.781,363.974,583.781"/>
			<path clip-path="url(#SVGID_6_)" fill="#968A6F" d="M360.244,299.491V73.951c0.92,0.33,2.829,1.11,2.829,1.88
				c0,1.02,1.271,208.59,1.271,208.59s1.03,13.03,2.56,15.07H360.244z"/>
			<path clip-path="url(#SVGID_6_)" fill="#968A6F" d="M360.244,646.182v0.029c-0.08,0-0.16-0.01-0.24-0.01
				C360.084,646.191,360.164,646.191,360.244,646.182"/>
			<path clip-path="url(#SVGID_6_)" fill="#968A6F" d="M360.244,584.182v62c-0.08,0.01-0.16,0.01-0.24,0.02
				c-0.08-0.01-0.17-0.01-0.25-0.02v-62.07C359.914,584.142,360.073,584.16,360.244,584.182"/>
			<path clip-path="url(#SVGID_6_)" fill="#968A6F" d="M360.244,583.621v0.561c-0.171-0.021-0.331-0.039-0.49-0.07v-0.53
				C359.924,583.591,360.084,583.611,360.244,583.621"/>
			<path clip-path="url(#SVGID_6_)" fill="#968A6F" d="M360.244,575.861v7.76c-0.16-0.01-0.32-0.031-0.49-0.04v-7.76
				C359.914,575.84,360.084,575.852,360.244,575.861"/>
			<path clip-path="url(#SVGID_6_)" fill="#968A6F" d="M360.244,568.411v7.45c-0.16-0.01-0.331-0.021-0.49-0.04v-7.45
				C359.914,568.391,360.084,568.401,360.244,568.411"/>
			<path clip-path="url(#SVGID_6_)" fill="#968A6F" d="M360.244,510.791v57.62c-0.16-0.01-0.331-0.02-0.49-0.04v-1.149
				L360.244,510.791z"/>
			<path clip-path="url(#SVGID_6_)" fill="#968A6F" d="M360.244,503.341v7.45c-0.16,0.011-0.331,0.021-0.49,0.04v-7.45
				C359.914,503.361,360.084,503.352,360.244,503.341"/>
			<path clip-path="url(#SVGID_6_)" fill="#968A6F" d="M360.244,497.161v6.18c-0.16,0.011-0.331,0.021-0.49,0.04v-6.18
				C359.924,497.191,360.084,497.171,360.244,497.161"/>
			<path clip-path="url(#SVGID_6_)" fill="#968A6F" d="M360.244,392.512v104.649c-0.16,0.01-0.32,0.03-0.49,0.04V392.512H360.244z"
				/>
			<rect x="359.754" y="382.822" clip-path="url(#SVGID_6_)" fill="#968A6F" width="0.49" height="9.689"/>
			<rect x="359.754" y="379.151" clip-path="url(#SVGID_6_)" fill="#968A6F" width="0.49" height="3.67"/>
			<rect x="359.754" y="375.491" clip-path="url(#SVGID_6_)" fill="#968A6F" width="0.49" height="3.66"/>
			<rect x="359.754" y="355.911" clip-path="url(#SVGID_6_)" fill="#968A6F" width="0.49" height="19.58"/>
			<rect x="359.754" y="352.851" clip-path="url(#SVGID_6_)" fill="#968A6F" width="0.49" height="3.06"/>
			<rect x="359.754" y="344.041" clip-path="url(#SVGID_6_)" fill="#968A6F" width="0.49" height="8.81"/>
			<rect x="359.754" y="334.852" clip-path="url(#SVGID_6_)" fill="#968A6F" width="0.49" height="9.19"/>
			<rect x="359.754" y="303.321" clip-path="url(#SVGID_6_)" fill="#968A6F" width="0.49" height="31.53"/>
			<rect x="359.754" y="299.491" clip-path="url(#SVGID_6_)" fill="#968A6F" width="0.49" height="3.83"/>
			<path clip-path="url(#SVGID_6_)" fill="#968A6F" d="M360.244,73.951v225.54h-0.49V73.951c0.1-0.03,0.18-0.06,0.25-0.08
				C360.073,73.891,360.153,73.921,360.244,73.951"/>
			<path clip-path="url(#SVGID_6_)" fill="#968A6F" d="M360.244,73.792v0.16c-0.091-0.03-0.171-0.06-0.24-0.08
				C360.153,73.821,360.244,73.792,360.244,73.792"/>
			<path clip-path="url(#SVGID_6_)" fill="#968A6F" d="M360.244,510.791l-0.49,56.431v-56.391
				C359.914,510.813,360.084,510.802,360.244,510.791"/>
			<path clip-path="url(#SVGID_6_)" fill="#968A6F" d="M360.004,646.201c-0.08,0-0.17,0.01-0.25,0.01v-0.029
				C359.834,646.191,359.924,646.191,360.004,646.201"/>
			<path clip-path="url(#SVGID_6_)" fill="#968A6F" d="M360.004,73.871c-0.07,0.02-0.15,0.05-0.25,0.08v-0.16
				C359.754,73.791,359.844,73.821,360.004,73.871"/>
			<path clip-path="url(#SVGID_6_)" fill="#968A6F" d="M359.754,584.111v62.07c-20.26-1.051-40.48-12.48-40.48-12.48l-0.47-2.55
				l-10.22-9.87l-1.36-55.49l-5.78-10.56l-13.28-6.811l-19.06-77.609l-1.71-13.28l11.28-74.81l8.3,9.79l-9.02,68.25l20.08,78.64
				l12.6,14.64l16.34,9.7c0,0,0.85,1.13,2.43,2.87c5.08,6.7,12.07,11.87,20.15,14.71
				C352.714,582.661,356.124,583.661,359.754,584.111"/>
			<path clip-path="url(#SVGID_6_)" fill="#968A6F" d="M359.754,583.581v0.53c-3.63-0.45-7.04-1.45-10.2-2.79
				C352.794,582.472,356.214,583.241,359.754,583.581"/>
			<path clip-path="url(#SVGID_6_)" fill="#DDD0BA" d="M359.754,575.821v7.76c-3.54-0.34-6.96-1.109-10.2-2.26
				c-9.45-3.96-16.62-10.83-20.15-14.71c-5.53-7.28-8.82-16.37-8.82-26.22c0-22.54,17.19-41.07,39.17-43.19v6.18
				c-15.82,1.48-28.69,13.07-32.08,28.25c-0.58,2.561-0.88,5.23-0.88,7.971c0,2.83,0.32,5.58,0.93,8.22
				C331.204,562.881,344.024,574.352,359.754,575.821"/>
			<path clip-path="url(#SVGID_6_)" fill="#A89B83" d="M359.754,568.371v7.45c-15.73-1.47-28.55-12.94-32.03-28l1.5-0.29h4.83
				c3.26,11.45,13.42,19.99,25.69,20.84H359.754z"/>
			<polygon clip-path="url(#SVGID_6_)" fill="#968A6F" points="359.754,567.222 359.754,568.371 359.744,568.371 			"/>
			<path clip-path="url(#SVGID_6_)" fill="#A89B83" d="M359.754,510.831v56.391l-0.01,1.149c-12.271-0.85-22.43-9.39-25.69-20.84
				h3.85l0.13,2.43h2.55v-19.659h-2.29v1.659h-4.32C337.144,520.371,347.374,511.691,359.754,510.831"/>
			<polygon clip-path="url(#SVGID_6_)" fill="#968A6F" points="359.754,382.821 359.754,392.512 286.974,392.512 278.674,382.722 
							"/>
			<polygon clip-path="url(#SVGID_6_)" fill="#968A6F" points="359.754,379.151 359.754,382.821 278.674,382.722 287.104,379.151 
							"/>
			<path clip-path="url(#SVGID_6_)" fill="#968A6F" d="M359.754,375.491v3.66h-72.65l-0.13-26.3h9.23h63.55v3.06h-13.95
				c-1.03,0-1.87,0.85-1.87,1.881v15.829c0,1.03,0.84,1.87,1.87,1.87H359.754z M335.554,370.001v-6.56c0-1.89-1.55-3.44-3.44-3.44
				h-32.47c-1.89,0-3.44,1.551-3.44,3.44v6.56c0,1.9,1.55,3.45,3.44,3.45h32.47C334.004,373.451,335.554,371.901,335.554,370.001"/>
			<path clip-path="url(#SVGID_6_)" fill="#A89B83" d="M359.754,355.911v19.58h-13.95c-1.03,0-1.87-0.84-1.87-1.87v-15.83
				c0-1.03,0.84-1.88,1.87-1.88H359.754z"/>
			<path clip-path="url(#SVGID_6_)" fill="#A89B83" d="M359.754,334.851v9.19h-24.78c0,0-0.26-3.32,0-6
				c0.25-2.68,2.81-3.19,2.81-3.19h13.27H359.754z"/>
			<rect x="351.054" y="303.321" clip-path="url(#SVGID_6_)" fill="#968A6F" width="8.7" height="31.53"/>
			<polygon clip-path="url(#SVGID_6_)" fill="#A89B83" points="359.754,299.491 359.754,303.321 351.054,303.321 351.054,300.511 
				353.104,299.491 			"/>
			<path clip-path="url(#SVGID_6_)" fill="#968A6F" d="M359.754,73.951v225.54h-6.65c1.53-2.04,2.55-15.07,2.55-15.07
				s1.28-207.57,1.28-208.59C356.934,75.061,358.844,74.281,359.754,73.951"/>
			<path clip-path="url(#SVGID_6_)" fill="#DDD0BA" d="M354.694,345.961c0.96,0,1.75,0.78,1.75,1.74c0,0.97-0.79,1.75-1.75,1.75
				s-1.74-0.78-1.74-1.75C352.954,346.741,353.734,345.961,354.694,345.961"/>
			<path clip-path="url(#SVGID_6_)" fill="#968A6F" d="M337.784,534.381v9.83l-4.46,0.07c-0.25-1.52-0.38-3.08-0.38-4.68
				c0-1.761,0.16-3.48,0.47-5.15L337.784,534.381z"/>
			<path clip-path="url(#SVGID_6_)" fill="#968E81" d="M340.583,530.302v19.659h-2.55l-0.13-2.43h-3.85
				c-0.31-1.05-0.55-2.14-0.73-3.25l4.46-0.07v-9.83l-4.37,0.07c0.14-0.85,0.33-1.68,0.56-2.49h4.32v-1.659H340.583z"/>
			<path clip-path="url(#SVGID_6_)" fill="#DDD0BA" d="M335.554,346.221c0.96,0,1.75,0.79,1.75,1.75s-0.79,1.74-1.75,1.74
				s-1.74-0.78-1.74-1.74S334.594,346.221,335.554,346.221"/>
			<path clip-path="url(#SVGID_6_)" fill="#A89B83" d="M335.554,363.441v6.56c0,1.9-1.55,3.45-3.44,3.45h-32.47
				c-1.89,0-3.44-1.55-3.44-3.45v-6.56c0-1.89,1.55-3.44,3.44-3.44h32.47C334.004,360.001,335.554,361.552,335.554,363.441"/>
			<path clip-path="url(#SVGID_6_)" fill="#968A6F" d="M335.554,346.222c-0.96,0-1.74,0.79-1.74,1.75s0.78,1.74,1.74,1.74
				s1.75-0.78,1.75-1.74S336.514,346.222,335.554,346.222 M354.693,345.961c-0.96,0-1.74,0.78-1.74,1.74c0,0.97,0.78,1.75,1.74,1.75
				c0.96,0,1.75-0.78,1.75-1.75C356.443,346.742,355.654,345.961,354.693,345.961 M315.563,346.222c-0.96,0-1.74,0.79-1.74,1.75
				s0.78,1.74,1.74,1.74c0.97,0,1.75-0.78,1.75-1.74S316.534,346.222,315.563,346.222 M296.204,344.042h38.77h24.78v8.81h-63.55
				v-2.89c0.97,0,1.75-0.78,1.75-1.75c0-0.96-0.78-1.74-1.75-1.74V344.042z"/>
			<path clip-path="url(#SVGID_6_)" fill="#968E81" d="M334.054,547.531h-4.83v-3.189l4.1-0.061
				C333.504,545.392,333.744,546.481,334.054,547.531"/>
			<path clip-path="url(#SVGID_6_)" fill="#968A6F" d="M349.554,581.321c-8.08-2.84-15.07-8.01-20.15-14.71
				C332.934,570.491,340.104,577.361,349.554,581.321"/>
			<path clip-path="url(#SVGID_6_)" fill="#968E81" d="M329.224,531.961h4.75c-0.23,0.811-0.42,1.641-0.56,2.49l-4.19,0.061V531.961
				z"/>
			<path clip-path="url(#SVGID_6_)" fill="#968A6F" d="M324.563,471.741c6.81,0,12.34,5.521,12.34,12.34
				c0,5.74-3.93,10.57-9.24,11.94v-3.15c3.62-1.28,6.22-4.74,6.22-8.79c0-5.149-4.18-9.319-9.32-9.319c-5.15,0-9.32,4.17-9.32,9.319
				c0,3.71,2.18,6.931,5.33,8.42v3.261c-4.86-1.66-8.35-6.261-8.35-11.681C312.224,477.262,317.744,471.741,324.563,471.741"/>
			<path clip-path="url(#SVGID_6_)" fill="#DDD0BA" d="M324.563,474.762c5.14,0,9.32,4.17,9.32,9.319c0,4.05-2.6,7.51-6.22,8.79
				v-2.689h-7.09v2.319c-3.15-1.489-5.33-4.71-5.33-8.42C315.244,478.932,319.414,474.762,324.563,474.762"/>
			<path clip-path="url(#SVGID_6_)" fill="#A89B83" d="M329.224,531.961l-1.55-0.33c3.39-15.18,16.26-26.77,32.08-28.25v7.45
				c-12.38,0.86-22.61,9.54-25.78,21.13H329.224z"/>
			<path clip-path="url(#SVGID_6_)" fill="#A89B83" d="M329.224,544.341v3.19l-1.5,0.29c-0.61-2.64-0.93-5.39-0.93-8.22
				c0-2.74,0.3-5.41,0.88-7.971l1.55,0.33v2.551l4.19-0.061c-0.31,1.67-0.47,3.39-0.47,5.15c0,1.6,0.13,3.16,0.38,4.68
				L329.224,544.341z"/>
			<path clip-path="url(#SVGID_6_)" fill="#968A6F" d="M327.664,492.871v3.15c-0.99,0.26-2.03,0.399-3.1,0.399
				c-1.4,0-2.74-0.229-3.99-0.659v-3.261c1.21,0.58,2.56,0.9,3.99,0.9C325.654,493.401,326.693,493.211,327.664,492.871"/>
			<path clip-path="url(#SVGID_6_)" fill="#968A6F" d="M327.664,490.182v2.689c-0.97,0.34-2.01,0.53-3.1,0.53
				c-1.43,0-2.78-0.32-3.99-0.9v-2.319H327.664z"/>
			<path clip-path="url(#SVGID_6_)" fill="#A89B83" d="M321.374,497.142l-0.48-0.19l3.67,0.101l3.1,0.09v-1.12
				c5.31-1.37,9.24-6.2,9.24-11.94c0-6.819-5.53-12.34-12.34-12.34c-6.82,0-12.34,5.521-12.34,12.34c0,5.42,3.49,10.021,8.35,11.681
				v1.38H321.374z M359.754,392.512v104.689c-21.98,2.12-39.17,20.65-39.17,43.19c0,9.85,3.29,18.939,8.82,26.22
				c-1.58-1.74-2.43-2.87-2.43-2.87l-16.34-9.7l-12.6-14.64l-20.08-78.64l9.02-68.25H359.754z M309.094,514.401
				c0.52-0.12,0.83-0.64,0.71-1.15l-7.04-29.17c-0.1-0.439-0.5-0.74-0.93-0.74c-0.07,0-0.15,0.011-0.22,0.03
				c-0.52,0.13-0.83,0.65-0.71,1.16l7.04,29.17C308.063,514.211,308.583,514.531,309.094,514.401"/>
			<path clip-path="url(#SVGID_6_)" fill="#968A6F" d="M324.563,496.421c1.07,0,2.11-0.14,3.1-0.399v1.12l-3.1-0.09l-3.67-0.101
				l0.48,0.19h-0.8v-1.38C321.823,496.192,323.164,496.421,324.563,496.421"/>
			<path clip-path="url(#SVGID_6_)" fill="#DDD0BA" d="M315.563,346.221c0.97,0,1.75,0.79,1.75,1.75s-0.78,1.74-1.75,1.74
				c-0.96,0-1.74-0.78-1.74-1.74S314.604,346.221,315.563,346.221"/>
			<path clip-path="url(#SVGID_6_)" fill="#DDD0BA" d="M309.804,513.251c0.12,0.511-0.19,1.03-0.71,1.15
				c-0.51,0.13-1.03-0.19-1.15-0.7l-7.04-29.17c-0.12-0.509,0.19-1.03,0.71-1.16c0.07-0.02,0.15-0.03,0.22-0.03
				c0.43,0,0.83,0.301,0.93,0.74L309.804,513.251z"/>
			<path clip-path="url(#SVGID_6_)" fill="#DDD0BA" d="M296.204,346.471c0.97,0,1.75,0.78,1.75,1.74c0,0.97-0.78,1.75-1.75,1.75
				c-0.96,0-1.74-0.78-1.74-1.75C294.463,347.251,295.244,346.471,296.204,346.471"/>
			<path clip-path="url(#SVGID_6_)" fill="#968A6F" d="M296.204,349.961v2.89h-9.23h-7.66l1.79-8.81h15.1v2.43
				c-0.96,0-1.74,0.78-1.74,1.74C294.463,349.182,295.244,349.961,296.204,349.961"/>
		</g>
	</g>
	<path clip-path="url(#SVGID_2_)" fill="none" stroke="#000000" stroke-miterlimit="10" d="M360.004,646.201
		c0.08,0,0.16,0.01,0.24,0.01"/>
	<path clip-path="url(#SVGID_2_)" fill="none" stroke="#000000" stroke-miterlimit="10" d="M359.754,73.951
		c-0.91,0.33-2.82,1.11-2.82,1.88c0,1.02-1.28,208.59-1.28,208.59s-1.02,13.03-2.55,15.07l-2.05,1.02v2.81v31.53h-13.27
		c0,0-2.56,0.51-2.81,3.19c-0.26,2.68,0,6,0,6h-38.77h-15.1l-1.79,8.81h7.66l0.13,26.3l-8.43,3.571l-11.28,74.809l1.71,13.28
		l19.06,77.609l13.28,6.811l5.78,10.56l1.36,55.49l10.22,9.87l0.47,2.55c0,0,20.22,11.43,40.48,12.48"/>
	<path clip-path="url(#SVGID_2_)" fill="none" stroke="#000000" stroke-miterlimit="10" d="M360.244,73.792
		c0,0-0.091,0.03-0.24,0.08"/>
	<path clip-path="url(#SVGID_2_)" fill="none" stroke="#000000" stroke-miterlimit="10" d="M386.544,344.042h52.359l1.78,8.81
		h-7.661l-0.119,26.3l8.101,3.439l0.319,0.131l11.28,74.81l-1.7,13.28l-19.069,77.609l-13.271,6.811l-5.791,10.56l-1.358,55.49
		l-10.21,9.87l-0.472,2.55c0,0-20.229,11.43-40.488,12.48c-0.08,0.01-0.16,0.01-0.24,0.02c-0.08,0-0.17,0.01-0.25,0.01"/>
	<path clip-path="url(#SVGID_2_)" fill="none" stroke="#000000" stroke-miterlimit="10" d="M359.754,73.792c0,0,0.09,0.03,0.25,0.08
		c0.07,0.02,0.15,0.05,0.24,0.08c0.92,0.33,2.829,1.11,2.829,1.88c0,1.02,1.271,208.59,1.271,208.59s1.03,13.03,2.56,15.07
		l2.04,1.02v2.81v31.53h13.28c0,0,2.55,0.51,2.8,3.19c0.261,2.68,0,6,0,6"/>
	<polyline clip-path="url(#SVGID_2_)" fill="none" stroke="#000000" stroke-miterlimit="10" points="353.104,299.491 
		359.753,299.491 360.243,299.491 366.903,299.491 	"/>
	<polyline clip-path="url(#SVGID_2_)" fill="none" stroke="#000000" stroke-miterlimit="10" points="351.054,303.321 
		359.754,303.321 360.244,303.321 368.943,303.321 	"/>
	<polyline clip-path="url(#SVGID_2_)" fill="none" stroke="#000000" stroke-miterlimit="10" points="351.054,334.851 
		359.754,334.851 360.244,334.851 368.943,334.851 	"/>
	<polyline clip-path="url(#SVGID_2_)" fill="none" stroke="#000000" stroke-miterlimit="10" points="334.974,344.042 
		359.753,344.042 360.243,344.042 385.023,344.042 386.544,344.042 	"/>
	<polyline clip-path="url(#SVGID_2_)" fill="none" stroke="#000000" stroke-miterlimit="10" points="286.974,352.851 
		296.204,352.851 359.753,352.851 360.243,352.851 433.023,352.851 	"/>
	<path clip-path="url(#SVGID_2_)" fill="none" stroke="#000000" stroke-miterlimit="10" d="M296.204,346.471
		c0.97,0,1.75,0.78,1.75,1.74c0,0.97-0.78,1.75-1.75,1.75c-0.96,0-1.74-0.78-1.74-1.75
		C294.463,347.251,295.244,346.471,296.204,346.471z"/>
	<path clip-path="url(#SVGID_2_)" fill="none" stroke="#000000" stroke-miterlimit="10" d="M317.313,347.971
		c0,0.96-0.78,1.74-1.75,1.74c-0.96,0-1.74-0.78-1.74-1.74s0.78-1.75,1.74-1.75C316.534,346.221,317.313,347.011,317.313,347.971z"
		/>
	<path clip-path="url(#SVGID_2_)" fill="none" stroke="#000000" stroke-miterlimit="10" d="M337.304,347.971
		c0,0.96-0.79,1.74-1.75,1.74s-1.74-0.78-1.74-1.74s0.78-1.75,1.74-1.75S337.304,347.011,337.304,347.971z"/>
	<path clip-path="url(#SVGID_2_)" fill="none" stroke="#000000" stroke-miterlimit="10" d="M356.444,347.701
		c0,0.97-0.79,1.75-1.75,1.75s-1.74-0.78-1.74-1.75c0-0.96,0.78-1.74,1.74-1.74S356.444,346.741,356.444,347.701z"/>
	<path clip-path="url(#SVGID_2_)" fill="none" stroke="#000000" stroke-miterlimit="10" d="M376.504,347.971
		c0,0.96-0.78,1.74-1.75,1.74c-0.96,0-1.74-0.78-1.74-1.74s0.78-1.75,1.74-1.75C375.724,346.221,376.504,347.011,376.504,347.971z"
		/>
	<path clip-path="url(#SVGID_2_)" fill="none" stroke="#000000" stroke-miterlimit="10" d="M395.624,347.641
		c0,0.97-0.78,1.75-1.74,1.75c-0.97,0-1.75-0.78-1.75-1.75c0-0.96,0.78-1.74,1.75-1.74
		C394.844,345.901,395.624,346.681,395.624,347.641z"/>
	<path clip-path="url(#SVGID_2_)" fill="none" stroke="#000000" stroke-miterlimit="10" d="M415.313,347.641
		c0,0.97-0.779,1.75-1.75,1.75c-0.96,0-1.74-0.78-1.74-1.75c0-0.96,0.78-1.74,1.74-1.74
		C414.534,345.901,415.313,346.681,415.313,347.641z"/>
	<path clip-path="url(#SVGID_2_)" fill="none" stroke="#000000" stroke-miterlimit="10" d="M434.773,347.641
		c0,0.97-0.779,1.75-1.75,1.75c-0.96,0-1.739-0.78-1.739-1.75c0-0.96,0.779-1.74,1.739-1.74
		C433.994,345.901,434.773,346.681,434.773,347.641z"/>
	<polyline clip-path="url(#SVGID_2_)" fill="none" stroke="#000000" stroke-miterlimit="10" points="287.104,379.151 
		359.753,379.151 360.243,379.151 432.903,379.151 	"/>
	<path clip-path="url(#SVGID_2_)" fill="none" stroke="#000000" stroke-miterlimit="10" d="M332.114,373.451h-32.47
		c-1.89,0-3.44-1.55-3.44-3.45v-6.56c0-1.89,1.55-3.44,3.44-3.44h32.47c1.89,0,3.44,1.551,3.44,3.44v6.56
		C335.554,371.901,334.004,373.451,332.114,373.451z"/>
	<path clip-path="url(#SVGID_2_)" fill="none" stroke="#000000" stroke-miterlimit="10" d="M424.544,373.451h-32.471
		c-1.89,0-3.439-1.55-3.439-3.45v-6.56c0-1.89,1.55-3.44,3.439-3.44h32.471c1.89,0,3.438,1.551,3.438,3.44v6.56
		C427.982,371.901,426.434,373.451,424.544,373.451z"/>
	<path clip-path="url(#SVGID_2_)" fill="none" stroke="#000000" stroke-miterlimit="10" d="M360.244,355.911h18.069
		c1.03,0,1.87,0.85,1.87,1.88v15.83c0,1.03-0.84,1.87-1.87,1.87h-18.069h-0.49h-13.95c-1.03,0-1.87-0.84-1.87-1.87v-15.83
		c0-1.03,0.84-1.88,1.87-1.88h13.95H360.244z"/>
	
		<line clip-path="url(#SVGID_2_)" fill="none" stroke="#000000" stroke-miterlimit="10" x1="431.284" y1="392.512" x2="440.863" y2="382.921"/>
	
		<line clip-path="url(#SVGID_2_)" fill="none" stroke="#000000" stroke-miterlimit="10" x1="278.674" y1="382.722" x2="286.974" y2="392.512"/>
	<polyline clip-path="url(#SVGID_2_)" fill="none" stroke="#000000" stroke-miterlimit="10" points="401.264,562.591 
		413.613,552.682 422.974,535.661 438.634,460.932 431.285,392.512 	"/>
	<path clip-path="url(#SVGID_2_)" fill="none" stroke="#000000" stroke-miterlimit="10" d="M349.554,581.321
		c3.16,1.34,6.57,2.34,10.2,2.79c0.16,0.03,0.319,0.05,0.49,0.07c5.439,0.609,11.34-0.021,17.52-2.641"/>
	<path clip-path="url(#SVGID_2_)" fill="none" stroke="#000000" stroke-miterlimit="10" d="M286.974,392.512l-9.02,68.25
		l20.08,78.64l12.6,14.64l16.34,9.699c0,0,0.85,1.131,2.43,2.871"/>
	<path clip-path="url(#SVGID_2_)" fill="none" stroke="#000000" stroke-miterlimit="10" d="M400.504,449.111
		c0,8.03-6.521,14.55-14.55,14.55c-8.04,0-14.561-6.52-14.561-14.55c0-8.04,6.521-14.56,14.561-14.56
		C393.982,434.552,400.504,441.071,400.504,449.111z"/>
	<path clip-path="url(#SVGID_2_)" fill="none" stroke="#000000" stroke-miterlimit="10" d="M320.574,495.762
		c-4.86-1.66-8.35-6.261-8.35-11.681c0-6.819,5.52-12.341,12.34-12.341c6.81,0,12.34,5.521,12.34,12.341
		c0,5.74-3.93,10.57-9.24,11.94"/>
	<path clip-path="url(#SVGID_2_)" fill="none" stroke="#000000" stroke-miterlimit="10" d="M320.574,492.501
		c-3.15-1.489-5.33-4.71-5.33-8.42c0-5.149,4.17-9.319,9.32-9.319c5.14,0,9.32,4.17,9.32,9.319c0,4.05-2.6,7.51-6.22,8.79"/>
	<polyline clip-path="url(#SVGID_2_)" fill="none" stroke="#000000" stroke-miterlimit="10" points="320.894,496.951 
		324.563,497.052 327.664,497.142 327.664,496.021 327.664,492.871 327.664,490.182 320.574,490.182 320.574,492.501 
		320.574,495.762 320.574,497.142 321.374,497.142 	"/>
	<path clip-path="url(#SVGID_2_)" fill="none" stroke="#000000" stroke-miterlimit="10" d="M309.094,514.401
		c-0.51,0.13-1.03-0.19-1.15-0.7l-7.04-29.17c-0.12-0.51,0.19-1.03,0.71-1.16c0.07-0.02,0.15-0.03,0.22-0.03
		c0.43,0,0.83,0.301,0.93,0.74l7.04,29.17C309.924,513.762,309.614,514.281,309.094,514.401z"/>
	<path clip-path="url(#SVGID_2_)" fill="none" stroke="#000000" stroke-miterlimit="10" d="M418.613,513.401
		c0.511,0.13,1.03-0.19,1.15-0.7l7.04-29.17c0.12-0.51-0.19-1.03-0.71-1.16c-0.07-0.02-0.15-0.03-0.22-0.03
		c-0.431,0-0.83,0.301-0.931,0.74l-7.04,29.17C417.784,512.762,418.094,513.281,418.613,513.401z"/>
	<path clip-path="url(#SVGID_2_)" fill="none" stroke="#000000" stroke-miterlimit="10" d="M360.244,497.161
		c1.229-0.109,2.47-0.16,3.729-0.16c23.97,0,43.39,19.431,43.39,43.39c0,8.11-2.229,15.7-6.1,22.2
		c-5.27,8.83-13.59,15.631-23.5,18.95c-4.33,1.45-8.97,2.24-13.79,2.24c-1.26,0-2.5-0.05-3.729-0.16c-0.16-0.01-0.32-0.03-0.49-0.04
		c-3.54-0.34-6.96-1.109-10.2-2.26c-8.08-2.84-15.07-8.01-20.15-14.71c-5.53-7.28-8.82-16.37-8.82-26.221
		c0-22.539,17.19-41.069,39.17-43.189C359.924,497.191,360.084,497.171,360.244,497.161z"/>
	<path clip-path="url(#SVGID_2_)" fill="none" stroke="#000000" stroke-miterlimit="10" d="M398.634,531.392
		c0.61,2.63,0.93,5.38,0.93,8.21s-0.319,5.58-0.93,8.22c-3.73,16.14-18.19,28.16-35.45,28.16c-0.99,0-1.97-0.04-2.939-0.12
		c-0.16-0.01-0.331-0.021-0.49-0.04c-15.73-1.47-28.55-12.94-32.03-28c-0.61-2.64-0.93-5.39-0.93-8.22c0-2.74,0.3-5.41,0.88-7.971
		c3.39-15.18,16.26-26.77,32.08-28.25c0.16-0.02,0.33-0.029,0.49-0.04c0.97-0.079,1.949-0.119,2.939-0.119
		C380.443,503.222,394.903,515.251,398.634,531.392z"/>
	<path clip-path="url(#SVGID_2_)" fill="none" stroke="#000000" stroke-miterlimit="10" d="M333.974,531.961
		c3.17-11.59,13.4-20.27,25.78-21.13c0.16-0.02,0.331-0.029,0.49-0.04c0.521-0.029,1.03-0.04,1.551-0.04
		c0.52,0,1.029,0.011,1.54,0.04c0.21,0.011,0.43,0.021,0.64,0.05c12.32,0.91,22.49,9.57,25.64,21.12"/>
	<path clip-path="url(#SVGID_2_)" fill="none" stroke="#000000" stroke-miterlimit="10" d="M333.324,544.281
		c-0.25-1.52-0.38-3.08-0.38-4.68c0-1.76,0.16-3.48,0.47-5.15"/>
	<path clip-path="url(#SVGID_2_)" fill="none" stroke="#000000" stroke-miterlimit="10" d="M389.534,547.531
		c-3.25,11.41-13.341,19.93-25.561,20.83c-0.72,0.06-1.45,0.09-2.18,0.09c-0.521,0-1.03-0.01-1.551-0.04
		c-0.16-0.01-0.33-0.02-0.489-0.04h-0.011c-12.27-0.85-22.43-9.39-25.689-20.84"/>
	<path clip-path="url(#SVGID_2_)" fill="none" stroke="#000000" stroke-miterlimit="10" d="M390.174,534.411
		c0.31,1.68,0.47,3.42,0.47,5.19c0,1.58-0.13,3.13-0.38,4.64"/>
	<polygon clip-path="url(#SVGID_2_)" fill="none" stroke="#000000" stroke-miterlimit="10" points="329.224,531.961 
		333.974,531.961 338.293,531.961 338.293,530.302 340.583,530.302 340.583,549.961 338.034,549.961 337.904,547.531 
		334.054,547.531 329.224,547.531 329.224,544.341 333.324,544.281 337.784,544.211 337.784,534.381 333.414,534.451 
		329.224,534.512 	"/>
	<polygon clip-path="url(#SVGID_2_)" fill="none" stroke="#000000" stroke-miterlimit="10" points="396.584,531.961 
		389.613,531.961 387.523,531.961 387.523,530.302 385.224,530.302 385.224,549.961 387.784,549.961 387.903,547.531 
		389.534,547.531 396.584,547.531 396.584,544.341 390.264,544.241 388.034,544.211 388.034,534.381 390.174,534.411 
		396.584,534.512 	"/>
	<polyline clip-path="url(#SVGID_2_)" fill="none" stroke="#000000" stroke-miterlimit="10" points="360.244,510.791 
		359.754,567.222 359.744,568.371 	"/>
	<polyline clip-path="url(#SVGID_2_)" fill="none" stroke="#000000" stroke-miterlimit="10" points="363.974,510.841 
		363.974,568.361 363.974,568.371 	"/>
</g>
</svg>
