<?xml version="1.0" encoding="utf-8"?>
<!-- Generator: Adobe Illustrator 16.0.0, SVG Export Plug-In . SVG Version: 6.00 Build 0)  -->
<!DOCTYPE svg PUBLIC "-//W3C//DTD SVG 1.1//EN" "http://www.w3.org/Graphics/SVG/1.1/DTD/svg11.dtd">
<svg version="1.1" id="Layer_1" xmlns="http://www.w3.org/2000/svg" xmlns:xlink="http://www.w3.org/1999/xlink" x="0px" y="0px"
	 width="720px" height="720px" viewBox="0 0 720 720" enable-background="new 0 0 720 720" xml:space="preserve">
<g>
	<defs>
		<rect id="SVGID_1_" width="720" height="720"/>
	</defs>
	<clipPath id="SVGID_2_">
		<use xlink:href="#SVGID_1_"  overflow="visible"/>
	</clipPath>
	<g clip-path="url(#SVGID_2_)">
		<defs>
			<rect id="SVGID_3_" x="189.937" y="121.608" width="312.92" height="539.92"/>
		</defs>
		<clipPath id="SVGID_4_">
			<use xlink:href="#SVGID_3_"  overflow="visible"/>
		</clipPath>
		<g clip-path="url(#SVGID_4_)">
			<defs>
				<rect id="SVGID_5_" x="189.937" y="121.608" width="312.92" height="539.92"/>
			</defs>
			<clipPath id="SVGID_6_">
				<use xlink:href="#SVGID_5_"  overflow="visible"/>
			</clipPath>
			<path clip-path="url(#SVGID_6_)" fill="#231E19" d="M497.711,274.458c0,0,9.019,10.61,3.179,26.67
				c-0.01,0.02-0.021,0.05-0.03,0.07c-4.21,9.9-14.03,16.84-25.46,16.84c-15.29,0-27.68-12.39-27.68-27.68
				c0-15.28,12.39-27.67,27.68-27.67c9.16,0,17.29,4.46,22.312,11.32V274.458z M495.439,289.578c0-11.63-9.43-21.06-21.06-21.06
				s-21.051,9.43-21.051,21.06s9.421,21.06,21.051,21.06S495.439,301.208,495.439,289.578"/>
			<path clip-path="url(#SVGID_6_)" fill="#AF9F7D" d="M500.859,301.198c-0.77,2.11-1.8,4.33-3.149,6.62v282.22l-0.079,0.05
				c-4.932-7.609-13.491-12.64-23.231-12.64c-15.29,0-27.68,12.39-27.68,27.67h-1.79l-0.771-372.36l-0.189-91.92l-3.4-6.63h-0.39
				v-12.6h53.79l3.74,17.02v135.38c-5.021-6.86-13.15-11.32-22.311-11.32c-15.29,0-27.68,12.39-27.68,27.67
				c0,15.29,12.39,27.68,27.68,27.68C486.829,318.038,496.649,311.098,500.859,301.198"/>
			<path clip-path="url(#SVGID_6_)" fill="#9E8B71" d="M502.069,605.118c0-5.54-1.63-10.71-4.439-15.03l0.08-0.05
				c0,0,11.92,15.66-1.7,33.36l0.68,14.3L445,638.208l-0.07-33.09h1.79c0,15.29,12.39,27.68,27.68,27.68
				C489.68,632.798,502.069,620.408,502.069,605.118"/>
			<path clip-path="url(#SVGID_6_)" fill="#231E19" d="M497.63,590.088c2.81,4.32,4.439,9.489,4.439,15.03
				c0,15.29-12.39,27.68-27.67,27.68c-15.29,0-27.68-12.39-27.68-27.68c0-15.28,12.39-27.67,27.68-27.67
				C484.14,577.448,492.699,582.479,497.63,590.088 M494.439,604.349c0-11.63-9.43-21.061-21.06-21.061s-21.051,9.431-21.051,21.061
				s9.421,21.05,21.051,21.05S494.439,615.979,494.439,604.349"/>
			<path clip-path="url(#SVGID_6_)" fill="#897A60" d="M496.689,637.698l-4.42,17.36h-46.64l-2.38,6.47H341.12h-1.28h-90.3
				l-2.38-6.47h-46.64l-4.42-17.36l52.08,0.51c0,0,52.09,13.271,78.64,0h44.94c0,0,44.85,12.8,73.24,0L496.689,637.698z
				 M479.149,648.698l0.8-4.59h-13.27l-1.11,4.59H479.149z M230.56,648.078l-1.1-4.6h-13.28l0.81,4.6H230.56z"/>
			<path clip-path="url(#SVGID_6_)" fill="#9B9189" d="M474.38,268.519c11.63,0,21.06,9.43,21.06,21.06s-9.43,21.06-21.06,21.06
				s-21.051-9.43-21.051-21.06S462.75,268.519,474.38,268.519 M489.89,293.749c0-1.62-1.32-2.93-2.94-2.93s-2.939,1.31-2.939,2.93
				s1.319,2.94,2.939,2.94S489.89,295.369,489.89,293.749 M486.949,280.798c0-1.62-1.31-2.94-2.939-2.94
				c-1.62,0-2.931,1.32-2.931,2.94c0,1.62,1.311,2.93,2.931,2.93C485.64,283.729,486.949,282.418,486.949,280.798 M481.079,302.958
				c0-1.62-1.319-2.94-2.939-2.94s-2.93,1.32-2.93,2.94s1.31,2.93,2.93,2.93S481.079,304.579,481.079,302.958 M482.529,290.358
				c0-4.75-3.85-8.61-8.609-8.61c-4.75,0-8.601,3.86-8.601,8.61c0,4.76,3.851,8.61,8.601,8.61
				C478.68,298.969,482.529,295.119,482.529,290.358 M473.76,277.469c0-1.62-1.311-2.93-2.931-2.93c-1.63,0-2.939,1.31-2.939,2.93
				c0,1.62,1.31,2.94,2.939,2.94C472.449,280.409,473.76,279.088,473.76,277.469 M467.89,299.628c0-1.63-1.32-2.94-2.94-2.94
				s-2.93,1.31-2.93,2.94c0,1.62,1.31,2.93,2.93,2.93S467.89,301.249,467.89,299.628 M464.619,286.668c0-1.62-1.311-2.94-2.93-2.94
				c-1.62,0-2.939,1.32-2.939,2.94s1.319,2.94,2.939,2.94C463.309,289.608,464.619,288.289,464.619,286.668"/>
			<path clip-path="url(#SVGID_6_)" fill="#231E19" d="M486.949,290.818c1.62,0,2.939,1.31,2.939,2.93c0,1.62-1.319,2.94-2.939,2.94
				s-2.939-1.32-2.939-2.94C484.01,292.128,485.329,290.818,486.949,290.818"/>
			<path clip-path="url(#SVGID_6_)" fill="#9B9189" d="M473.38,583.288c11.63,0,21.06,9.431,21.06,21.061s-9.43,21.05-21.06,21.05
				s-21.051-9.42-21.051-21.05S461.75,583.288,473.38,583.288 M488.89,608.519c0-1.63-1.32-2.94-2.94-2.94s-2.939,1.311-2.939,2.94
				c0,1.62,1.319,2.93,2.939,2.93S488.89,610.139,488.89,608.519 M485.949,595.559c0-1.62-1.31-2.94-2.939-2.94
				c-1.62,0-2.931,1.32-2.931,2.94s1.311,2.939,2.931,2.939C484.64,598.498,485.949,597.179,485.949,595.559 M480.079,617.719
				c0-1.62-1.319-2.94-2.939-2.94s-2.93,1.32-2.93,2.94c0,1.619,1.31,2.938,2.93,2.938S480.079,619.338,480.079,617.719
				 M481.529,605.118c0-4.75-3.85-8.6-8.609-8.6c-4.75,0-8.601,3.85-8.601,8.6c0,4.76,3.851,8.61,8.601,8.61
				C477.68,613.729,481.529,609.878,481.529,605.118 M472.76,592.238c0-1.63-1.311-2.94-2.931-2.94c-1.63,0-2.939,1.311-2.939,2.94
				c0,1.62,1.31,2.93,2.939,2.93C471.449,595.168,472.76,593.858,472.76,592.238 M466.89,614.389c0-1.62-1.32-2.94-2.94-2.94
				s-2.93,1.32-2.93,2.94c0,1.619,1.31,2.93,2.93,2.93S466.89,616.008,466.89,614.389 M463.619,601.429
				c0-1.62-1.311-2.931-2.93-2.931c-1.62,0-2.939,1.311-2.939,2.931c0,1.619,1.319,2.939,2.939,2.939
				C462.309,604.368,463.619,603.048,463.619,601.429"/>
			<path clip-path="url(#SVGID_6_)" fill="#231E19" d="M485.949,605.578c1.62,0,2.939,1.311,2.939,2.94
				c0,1.62-1.319,2.93-2.939,2.93s-2.939-1.31-2.939-2.93C483.01,606.889,484.329,605.578,485.949,605.578"/>
			<path clip-path="url(#SVGID_6_)" fill="#231E19" d="M484.01,277.858c1.63,0,2.939,1.32,2.939,2.94s-1.31,2.93-2.939,2.93
				c-1.62,0-2.931-1.31-2.931-2.93S482.39,277.858,484.01,277.858"/>
			<path clip-path="url(#SVGID_6_)" fill="#231E19" d="M483.01,592.618c1.63,0,2.939,1.32,2.939,2.94
				c0,1.621-1.31,2.939-2.939,2.939c-1.62,0-2.931-1.318-2.931-2.939C480.079,593.938,481.39,592.618,483.01,592.618"/>
			<path clip-path="url(#SVGID_6_)" fill="#231E19" d="M478.14,300.018c1.62,0,2.938,1.32,2.938,2.94s-1.318,2.93-2.938,2.93
				s-2.93-1.31-2.93-2.93S476.52,300.018,478.14,300.018"/>
			<path clip-path="url(#SVGID_6_)" fill="#231E19" d="M473.92,281.749c4.76,0,8.609,3.86,8.609,8.61c0,4.76-3.85,8.61-8.609,8.61
				c-4.75,0-8.601-3.85-8.601-8.61C465.319,285.608,469.17,281.749,473.92,281.749 M479.96,290.358c0-3.33-2.71-6.03-6.04-6.03
				s-6.03,2.7-6.03,6.03s2.7,6.04,6.03,6.04S479.96,293.688,479.96,290.358"/>
			<polygon clip-path="url(#SVGID_6_)" fill="#191512" points="479.949,644.108 479.149,648.698 465.569,648.698 466.679,644.108 
							"/>
			<path clip-path="url(#SVGID_6_)" fill="#231E19" d="M477.14,614.778c1.62,0,2.938,1.32,2.938,2.94
				c0,1.619-1.318,2.939-2.938,2.939s-2.93-1.32-2.93-2.939C474.21,616.099,475.52,614.778,477.14,614.778"/>
			<path clip-path="url(#SVGID_6_)" fill="#231E19" d="M472.92,596.519c4.76,0,8.609,3.85,8.609,8.6c0,4.76-3.85,8.61-8.609,8.61
				c-4.75,0-8.601-3.851-8.601-8.61C464.319,600.368,468.17,596.519,472.92,596.519 M478.96,605.118c0-3.33-2.71-6.03-6.04-6.03
				s-6.03,2.7-6.03,6.03c0,3.34,2.7,6.04,6.03,6.04S478.96,608.458,478.96,605.118"/>
			<path clip-path="url(#SVGID_6_)" fill="#9B9189" d="M473.92,284.328c3.33,0,6.04,2.7,6.04,6.03c0,3.33-2.71,6.04-6.04,6.04
				s-6.03-2.71-6.03-6.04C467.89,287.028,470.59,284.328,473.92,284.328"/>
			<path clip-path="url(#SVGID_6_)" fill="#9B9189" d="M472.92,599.088c3.33,0,6.04,2.7,6.04,6.03c0,3.34-2.71,6.04-6.04,6.04
				s-6.03-2.7-6.03-6.04C466.89,601.788,469.59,599.088,472.92,599.088"/>
			<path clip-path="url(#SVGID_6_)" fill="#231E19" d="M470.829,274.538c1.62,0,2.931,1.31,2.931,2.93c0,1.62-1.311,2.94-2.931,2.94
				c-1.63,0-2.939-1.32-2.939-2.94C467.89,275.848,469.199,274.538,470.829,274.538"/>
			<path clip-path="url(#SVGID_6_)" fill="#231E19" d="M469.829,589.298c1.62,0,2.931,1.312,2.931,2.94
				c0,1.621-1.311,2.93-2.931,2.93c-1.63,0-2.939-1.309-2.939-2.93C466.89,590.609,468.199,589.298,469.829,589.298"/>
			<path clip-path="url(#SVGID_6_)" fill="#231E19" d="M464.949,296.688c1.62,0,2.939,1.31,2.939,2.94c0,1.62-1.319,2.93-2.939,2.93
				s-2.93-1.31-2.93-2.93C462.02,297.999,463.329,296.688,464.949,296.688"/>
			<path clip-path="url(#SVGID_6_)" fill="#231E19" d="M463.949,611.448c1.62,0,2.939,1.32,2.939,2.94
				c0,1.619-1.319,2.93-2.939,2.93s-2.93-1.311-2.93-2.93C461.02,612.769,462.329,611.448,463.949,611.448"/>
			<path clip-path="url(#SVGID_6_)" fill="#231E19" d="M461.689,283.729c1.62,0,2.93,1.32,2.93,2.94s-1.31,2.94-2.93,2.94
				s-2.939-1.32-2.939-2.94S460.069,283.729,461.689,283.729"/>
			<path clip-path="url(#SVGID_6_)" fill="#231E19" d="M460.689,598.498c1.62,0,2.93,1.311,2.93,2.931
				c0,1.619-1.31,2.939-2.93,2.939s-2.939-1.32-2.939-2.939C457.75,599.809,459.069,598.498,460.689,598.498"/>
			<path clip-path="url(#SVGID_6_)" fill="#CDBB94" d="M444.93,605.118l0.07,33.091c-28.391,12.799-73.24,0-73.24,0h-44.94
				c-26.55,13.27-78.64,0-78.64,0l0.07-33.141l0.76-372.31h195.148L444.93,605.118z M437.21,629.108v-22.86
				c0-2.439-1.99-4.43-4.421-4.43h-7.649v-5.91h-9.53v5.91h-26.39v-5.91h-0.851h-9.189v5.91h-5.8c-2.431,0-4.42,1.99-4.42,4.43
				v22.86c0,2.43,1.989,4.42,4.42,4.42h3.909h55.5C435.22,633.528,437.21,631.538,437.21,629.108 M325.45,628.688v-22.86
				c0-2.43-1.99-4.42-4.43-4.42h-7.65v-5.91h-9.53v5.91h-26.38v-5.91h-0.85h-9.19v5.91h-5.8c-2.44,0-4.43,1.99-4.43,4.42v22.86
				c0,2.439,1.99,4.43,4.43,4.43h3.9h55.5C323.459,633.118,325.45,631.128,325.45,628.688"/>
			<polygon clip-path="url(#SVGID_6_)" fill="#897A60" points="443.97,140.838 444.158,232.758 249.01,232.758 249.2,140.838 
				252.61,134.208 265.52,134.208 338.439,134.208 339.84,134.208 341.12,134.208 440.18,134.208 440.569,134.208 			"/>
			<path clip-path="url(#SVGID_6_)" fill="#231E19" d="M440.18,134.208h-99.06h-1.28h-1.4v-2.17l1.4-4.47h8.04l1.66,3.32l2.13-0.9
				l3.11-2.42h5.36l1.91,1.91l2.939-0.38l2.94-2.43h6.12l2.17,2.17l2.17,0.39l3.07-2.56h5.619l2.04,1.79l4.591-0.13l3.198-0.63
				l2.171,0.38l0.511,1.28l2.8-0.26l4.86-1.66c0,0,4.34,0.64,4.72,0.89c0.38,0.26,2.3,1.54,2.3,1.54l3.95,0.57l0.64-2.11l7.66-0.51
				l1.28,2.05l3.06,1.53l5.75,1.4L440.18,134.208z"/>
			<path clip-path="url(#SVGID_6_)" fill="#564E4A" d="M437.21,606.248v22.86c0,2.43-1.99,4.42-4.421,4.42h-55.5v-1.551h51.591
				h3.069v-26.439h-6.81v-3.72h7.649C435.22,601.818,437.21,603.809,437.21,606.248"/>
			<polygon clip-path="url(#SVGID_6_)" fill="#282422" points="431.949,605.538 431.949,631.979 428.88,631.979 428.88,630.448 
				428.88,610.528 377.289,610.528 377.289,605.538 389.22,605.538 425.139,605.538 			"/>
			<polygon clip-path="url(#SVGID_6_)" fill="#564E4A" points="428.88,630.448 428.88,631.979 377.289,631.979 377.289,610.528 
				428.88,610.528 			"/>
			<polygon clip-path="url(#SVGID_6_)" fill="#191512" points="425.14,601.818 425.14,605.538 415.609,605.479 415.609,601.818 			
				"/>
			<rect x="415.61" y="595.908" clip-path="url(#SVGID_6_)" fill="#191512" width="9.529" height="5.91"/>
			<polygon clip-path="url(#SVGID_6_)" fill="#564E4A" points="425.14,605.538 389.22,605.538 389.22,601.818 415.609,601.818 
				415.609,605.479 			"/>
			<polygon clip-path="url(#SVGID_6_)" fill="#191512" points="389.22,601.818 389.22,605.538 379.18,605.479 379.18,601.818 			"/>
			<polygon clip-path="url(#SVGID_6_)" fill="#191512" points="389.22,595.908 389.22,601.818 379.18,601.818 379.18,595.908 
				388.369,595.908 			"/>
			<path clip-path="url(#SVGID_6_)" fill="#564E4A" d="M389.22,605.538h-11.931v4.99v21.45v1.55h-3.909
				c-2.432,0-4.42-1.99-4.42-4.42v-22.86c0-2.438,1.988-4.43,4.42-4.43h5.8v3.66L389.22,605.538z"/>
			<polygon clip-path="url(#SVGID_6_)" fill="#231E19" points="338.439,132.038 338.439,134.208 265.52,134.208 268.609,129.098 
				274.049,129.098 275.419,131.648 277.799,129.098 285.97,129.098 288.35,131.648 293.799,129.098 301.97,129.098 
				303.669,131.648 307.419,129.098 314.18,129.098 318.27,131.648 321.459,131.008 324.779,127.568 332.049,127.568 
				334.479,132.038 			"/>
			<path clip-path="url(#SVGID_6_)" fill="#564E4A" d="M325.45,605.828v22.86c0,2.439-1.99,4.43-4.43,4.43h-55.5v-1.55h51.6h3.06
				v-26.45h-6.81v-3.71h7.65C323.459,601.408,325.45,603.398,325.45,605.828"/>
			<polygon clip-path="url(#SVGID_6_)" fill="#282422" points="320.18,605.118 320.18,631.568 317.12,631.568 317.12,630.038 
				317.12,610.118 265.52,610.118 265.52,605.118 277.459,605.118 313.37,605.118 			"/>
			<polygon clip-path="url(#SVGID_6_)" fill="#564E4A" points="317.12,630.038 317.12,631.568 265.52,631.568 265.52,610.118 
				317.12,610.118 			"/>
			<polygon clip-path="url(#SVGID_6_)" fill="#191512" points="313.37,601.408 313.37,605.118 303.839,605.059 303.839,601.408 			
				"/>
			<rect x="303.84" y="595.498" clip-path="url(#SVGID_6_)" fill="#191512" width="9.53" height="5.91"/>
			<polygon clip-path="url(#SVGID_6_)" fill="#564E4A" points="313.37,605.118 277.459,605.118 277.459,601.408 303.839,601.408 
				303.839,605.059 			"/>
			<polygon clip-path="url(#SVGID_6_)" fill="#191512" points="277.459,601.408 277.459,605.118 267.419,605.059 267.419,601.408 
							"/>
			<polygon clip-path="url(#SVGID_6_)" fill="#191512" points="277.459,595.498 277.459,601.408 267.419,601.408 267.419,595.498 
				276.609,595.498 			"/>
			<path clip-path="url(#SVGID_6_)" fill="#564E4A" d="M277.459,605.118h-11.94v5v21.45v1.55h-3.9c-2.44,0-4.43-1.99-4.43-4.43
				v-22.86c0-2.43,1.99-4.42,4.43-4.42h5.8v3.65L277.459,605.118z"/>
			<path clip-path="url(#SVGID_6_)" fill="#AF9F7D" d="M252.609,121.608v12.6l-3.41,6.63l-0.19,91.92l-0.76,372.31l-2.58-0.01
				c0-15.28-12.39-27.67-27.67-27.67c-9.54,0-17.95,4.83-22.92,12.17v-281.74c-0.95-1.62-1.74-3.19-2.39-4.72
				c4.47,9.25,13.95,15.63,24.91,15.63c15.29,0,27.68-12.39,27.68-27.68c0-15.28-12.39-27.67-27.68-27.67
				c-15.19,0-27.52,12.24-27.66,27.39c-0.13-10.11,5.14-16.31,5.14-16.31v-135.83l3.74-17.02H252.609z"/>
			<path clip-path="url(#SVGID_6_)" fill="#9E8B71" d="M248.25,605.068l-0.07,33.14l-52.08-0.51l0.68-14.3
				c-6.23-8.101-7.12-15.771-6.24-21.71c-0.14,1.1-0.21,2.229-0.21,3.37c0,15.29,12.39,27.68,27.67,27.68s27.67-12.39,27.67-27.68
				L248.25,605.068z"/>
			<path clip-path="url(#SVGID_6_)" fill="#231E19" d="M218,577.389c15.28,0,27.67,12.39,27.67,27.67
				c0,15.29-12.39,27.68-27.67,27.68c-15.28,0-27.67-12.39-27.67-27.68c0-1.141,0.07-2.271,0.21-3.37c0-0.07,0.01-0.141,0.03-0.21
				c1.07-6.931,4.51-11.44,4.51-11.44v-0.479C200.05,582.219,208.459,577.389,218,577.389 M238.04,604.278
				c0-11.63-9.42-21.05-21.05-21.05c-11.63,0-21.06,9.42-21.06,21.05s9.43,21.06,21.06,21.06
				C228.62,625.338,238.04,615.908,238.04,604.278"/>
			<path clip-path="url(#SVGID_6_)" fill="#231E19" d="M217.6,263.378c15.29,0,27.68,12.39,27.68,27.67
				c0,15.29-12.39,27.68-27.68,27.68c-10.96,0-20.44-6.38-24.91-15.63c-0.02-0.03-0.03-0.05-0.04-0.08
				c-1.93-4.52-2.67-8.64-2.71-12.25C190.08,275.618,202.409,263.378,217.6,263.378 M237.649,290.268
				c0-11.63-9.43-21.05-21.06-21.05s-21.06,9.42-21.06,21.05s9.43,21.06,21.06,21.06S237.649,301.898,237.649,290.268"/>
			<path clip-path="url(#SVGID_6_)" fill="#9B9189" d="M216.989,583.229c11.63,0,21.05,9.42,21.05,21.05s-9.42,21.06-21.05,21.06
				c-11.63,0-21.06-9.43-21.06-21.06S205.359,583.229,216.989,583.229 M232.489,608.448c0-1.62-1.32-2.93-2.94-2.93
				c-1.62,0-2.93,1.31-2.93,2.93c0,1.63,1.31,2.941,2.93,2.941C231.169,611.39,232.489,610.078,232.489,608.448 M229.549,595.498
				c0-1.62-1.31-2.939-2.93-2.939c-1.63,0-2.94,1.319-2.94,2.939s1.31,2.94,2.94,2.94
				C228.239,598.438,229.549,597.118,229.549,595.498 M223.68,617.658c0-1.62-1.31-2.939-2.94-2.939c-1.62,0-2.93,1.319-2.93,2.939
				s1.31,2.94,2.93,2.94C222.37,620.599,223.68,619.278,223.68,617.658 M225.129,605.059c0-4.75-3.85-8.601-8.6-8.601
				c-4.76,0-8.61,3.851-8.61,8.601c0,4.76,3.85,8.609,8.61,8.609C221.279,613.668,225.129,609.818,225.129,605.059 M216.359,592.168
				c0-1.62-1.31-2.93-2.93-2.93c-1.62,0-2.94,1.31-2.94,2.93c0,1.63,1.32,2.94,2.94,2.94
				C215.049,595.108,216.359,593.798,216.359,592.168 M210.489,614.328c0-1.62-1.31-2.938-2.93-2.938c-1.63,0-2.94,1.318-2.94,2.938
				s1.31,2.93,2.94,2.93C209.18,617.258,210.489,615.948,210.489,614.328 M207.229,601.368c0-1.62-1.32-2.93-2.94-2.93
				s-2.94,1.31-2.94,2.93s1.32,2.94,2.94,2.94S207.229,602.988,207.229,601.368"/>
			<path clip-path="url(#SVGID_6_)" fill="#9B9189" d="M216.59,269.218c11.63,0,21.06,9.42,21.06,21.05s-9.43,21.06-21.06,21.06
				c-11.63,0-21.06-9.43-21.06-21.06S204.959,269.218,216.59,269.218 M232.09,294.438c0-1.62-1.31-2.93-2.93-2.93
				c-1.63,0-2.94,1.31-2.94,2.93c0,1.63,1.31,2.94,2.94,2.94C230.78,297.378,232.09,296.068,232.09,294.438 M229.16,281.488
				c0-1.62-1.32-2.94-2.94-2.94s-2.94,1.32-2.94,2.94s1.32,2.94,2.94,2.94S229.16,283.108,229.16,281.488 M223.28,303.648
				c0-1.62-1.31-2.94-2.93-2.94s-2.94,1.32-2.94,2.94s1.32,2.93,2.94,2.93S223.28,305.269,223.28,303.648 M224.74,291.048
				c0-4.75-3.86-8.6-8.61-8.6s-8.61,3.85-8.61,8.6c0,4.76,3.86,8.61,8.61,8.61S224.74,295.809,224.74,291.048 M215.97,278.158
				c0-1.62-1.32-2.93-2.94-2.93c-1.62,0-2.93,1.31-2.93,2.93c0,1.63,1.31,2.94,2.93,2.94
				C214.649,281.099,215.97,279.789,215.97,278.158 M210.1,300.318c0-1.63-1.32-2.94-2.94-2.94s-2.94,1.31-2.94,2.94
				c0,1.62,1.32,2.93,2.94,2.93S210.1,301.938,210.1,300.318 M206.83,287.358c0-1.62-1.31-2.93-2.94-2.93
				c-1.62,0-2.93,1.31-2.93,2.93s1.31,2.94,2.93,2.94C205.52,290.298,206.83,288.979,206.83,287.358"/>
			<path clip-path="url(#SVGID_6_)" fill="#231E19" d="M229.549,605.519c1.62,0,2.94,1.31,2.94,2.93c0,1.63-1.32,2.94-2.94,2.94
				s-2.93-1.311-2.93-2.94C226.619,606.828,227.929,605.519,229.549,605.519"/>
			<path clip-path="url(#SVGID_6_)" fill="#231E19" d="M229.16,291.508c1.62,0,2.93,1.31,2.93,2.93c0,1.63-1.31,2.94-2.93,2.94
				c-1.63,0-2.94-1.31-2.94-2.94C226.22,292.818,227.53,291.508,229.16,291.508"/>
			<polygon clip-path="url(#SVGID_6_)" fill="#191512" points="229.459,643.479 230.56,648.078 216.989,648.078 216.18,643.479 			
				"/>
			<path clip-path="url(#SVGID_6_)" fill="#231E19" d="M226.62,592.559c1.62,0,2.93,1.319,2.93,2.939s-1.31,2.94-2.93,2.94
				c-1.63,0-2.94-1.32-2.94-2.94S224.99,592.559,226.62,592.559"/>
			<path clip-path="url(#SVGID_6_)" fill="#231E19" d="M226.22,278.548c1.62,0,2.94,1.32,2.94,2.94s-1.32,2.94-2.94,2.94
				s-2.94-1.32-2.94-2.94S224.6,278.548,226.22,278.548"/>
			<path clip-path="url(#SVGID_6_)" fill="#231E19" d="M220.74,614.719c1.63,0,2.94,1.319,2.94,2.938c0,1.621-1.31,2.941-2.94,2.941
				c-1.62,0-2.93-1.32-2.93-2.941C217.81,616.038,219.12,614.719,220.74,614.719"/>
			<path clip-path="url(#SVGID_6_)" fill="#231E19" d="M216.53,596.458c4.75,0,8.6,3.851,8.6,8.601c0,4.76-3.85,8.609-8.6,8.609
				c-4.76,0-8.61-3.85-8.61-8.609C207.919,600.309,211.77,596.458,216.53,596.458 M222.56,605.059c0-3.33-2.7-6.03-6.03-6.03
				c-3.34,0-6.04,2.7-6.04,6.03c0,3.34,2.7,6.04,6.04,6.04C219.859,611.099,222.56,608.398,222.56,605.059"/>
			<path clip-path="url(#SVGID_6_)" fill="#231E19" d="M220.35,300.708c1.62,0,2.93,1.32,2.93,2.94s-1.31,2.93-2.93,2.93
				s-2.94-1.31-2.94-2.93S218.729,300.708,220.35,300.708"/>
			<path clip-path="url(#SVGID_6_)" fill="#231E19" d="M216.13,282.448c4.75,0,8.61,3.85,8.61,8.6c0,4.76-3.86,8.61-8.61,8.61
				s-8.61-3.85-8.61-8.61C207.52,286.298,211.38,282.448,216.13,282.448 M222.16,291.048c0-3.33-2.7-6.03-6.03-6.03
				c-3.33,0-6.03,2.7-6.03,6.03c0,3.34,2.7,6.04,6.03,6.04C219.459,297.088,222.16,294.388,222.16,291.048"/>
			<path clip-path="url(#SVGID_6_)" fill="#9B9189" d="M216.529,599.028c3.33,0,6.03,2.7,6.03,6.03c0,3.34-2.7,6.04-6.03,6.04
				c-3.34,0-6.04-2.7-6.04-6.04C210.489,601.729,213.189,599.028,216.529,599.028"/>
			<path clip-path="url(#SVGID_6_)" fill="#9B9189" d="M216.129,285.018c3.33,0,6.03,2.7,6.03,6.03c0,3.34-2.7,6.04-6.03,6.04
				s-6.03-2.7-6.03-6.04C210.1,287.718,212.799,285.018,216.129,285.018"/>
			<path clip-path="url(#SVGID_6_)" fill="#231E19" d="M213.43,589.238c1.62,0,2.93,1.31,2.93,2.93c0,1.63-1.31,2.94-2.93,2.94
				s-2.94-1.311-2.94-2.94C210.49,590.548,211.81,589.238,213.43,589.238"/>
			<path clip-path="url(#SVGID_6_)" fill="#231E19" d="M213.029,275.229c1.62,0,2.94,1.31,2.94,2.93c0,1.63-1.32,2.94-2.94,2.94
				s-2.93-1.31-2.93-2.94C210.099,276.539,211.409,275.229,213.029,275.229"/>
			<path clip-path="url(#SVGID_6_)" fill="#231E19" d="M207.56,611.389c1.62,0,2.93,1.319,2.93,2.939s-1.31,2.93-2.93,2.93
				c-1.63,0-2.94-1.31-2.94-2.93S205.93,611.389,207.56,611.389"/>
			<path clip-path="url(#SVGID_6_)" fill="#231E19" d="M207.16,297.378c1.62,0,2.94,1.31,2.94,2.94c0,1.62-1.32,2.93-2.94,2.93
				s-2.94-1.31-2.94-2.93C204.22,298.688,205.54,297.378,207.16,297.378"/>
			<path clip-path="url(#SVGID_6_)" fill="#231E19" d="M204.29,598.438c1.62,0,2.94,1.31,2.94,2.93s-1.32,2.94-2.94,2.94
				s-2.94-1.32-2.94-2.94S202.669,598.438,204.29,598.438"/>
			<path clip-path="url(#SVGID_6_)" fill="#231E19" d="M203.89,284.428c1.63,0,2.94,1.31,2.94,2.93c0,1.62-1.31,2.94-2.94,2.94
				c-1.62,0-2.93-1.32-2.93-2.94C200.959,285.738,202.27,284.428,203.89,284.428"/>
		</g>
	</g>
	<path clip-path="url(#SVGID_2_)" fill="none" stroke="#000000" stroke-miterlimit="10" d="M190.54,601.688
		c-0.88,5.939,0.01,13.609,6.24,21.71l-0.68,14.3l4.42,17.36h46.64l2.38,6.47h90.3"/>
	<path clip-path="url(#SVGID_2_)" fill="none" stroke="#000000" stroke-miterlimit="10" d="M192.689,303.098
		c0.65,1.53,1.44,3.1,2.39,4.72v281.74v0.479c0,0-3.44,4.51-4.51,11.44"/>
	<path clip-path="url(#SVGID_2_)" fill="none" stroke="#000000" stroke-miterlimit="10" d="M339.839,134.208h-1.4h-72.92h-12.91
		v-12.6h-53.79l-3.74,17.02v135.83c0,0-5.27,6.2-5.14,16.31c0.04,3.61,0.78,7.73,2.71,12.25"/>
	<path clip-path="url(#SVGID_2_)" fill="none" stroke="#000000" stroke-miterlimit="10" d="M500.859,301.198
		c-0.77,2.11-1.8,4.33-3.149,6.62v282.22c0,0,11.921,15.66-1.7,33.36l0.68,14.3l-4.42,17.36h-46.639l-2.381,6.47H341.119h-1.28"/>
	<path clip-path="url(#SVGID_2_)" fill="none" stroke="#000000" stroke-miterlimit="10" d="M339.839,134.208h1.28h99.061v-12.6
		h53.79l3.74,17.02v135.38v0.45c0,0,9.02,10.61,3.18,26.67"/>
	<path clip-path="url(#SVGID_2_)" fill="none" stroke="#000000" stroke-miterlimit="10" d="M265.52,134.208l3.09-5.11h5.44
		l1.37,2.55l2.38-2.55h8.17l2.38,2.55l5.45-2.55h8.17l1.7,2.55l3.75-2.55h6.76l4.09,2.55l3.19-0.64l3.32-3.44h7.27l2.43,4.47h3.96
		l1.4-4.47h8.04l1.66,3.32l2.13-0.9l3.11-2.42h5.36l1.91,1.91l2.939-0.38l2.94-2.43h6.12l2.17,2.17l2.17,0.39l3.07-2.56h5.619
		l2.04,1.79l4.591-0.13l3.199-0.63l2.17,0.38l0.511,1.28l2.8-0.26l4.859-1.66c0,0,4.341,0.64,4.721,0.89
		c0.38,0.26,2.3,1.54,2.3,1.54l3.95,0.57l0.64-2.11l7.66-0.51l1.28,2.05l3.06,1.53l5.75,1.4l3.57,1.41"/>
	<path clip-path="url(#SVGID_2_)" fill="none" stroke="#000000" stroke-miterlimit="10" d="M189.939,290.768
		c0.14-15.15,12.47-27.39,27.66-27.39c15.29,0,27.68,12.39,27.68,27.67c0,15.29-12.39,27.68-27.68,27.68
		c-10.96,0-20.44-6.38-24.91-15.63c-0.02-0.03-0.03-0.05-0.04-0.08c-1.74-3.62-2.72-7.68-2.72-11.97
		C189.93,290.958,189.93,290.858,189.939,290.768z"/>
	<path clip-path="url(#SVGID_2_)" fill="none" stroke="#000000" stroke-miterlimit="10" d="M237.649,290.268
		c0,11.63-9.43,21.06-21.06,21.06s-21.06-9.43-21.06-21.06s9.43-21.05,21.06-21.05S237.649,278.638,237.649,290.268z"/>
	<path clip-path="url(#SVGID_2_)" fill="none" stroke="#000000" stroke-miterlimit="10" d="M224.74,291.048
		c0,4.76-3.86,8.61-8.61,8.61s-8.61-3.85-8.61-8.61c0-4.75,3.86-8.6,8.61-8.6S224.74,286.298,224.74,291.048z"/>
	<path clip-path="url(#SVGID_2_)" fill="none" stroke="#000000" stroke-miterlimit="10" d="M222.16,291.048
		c0,3.34-2.7,6.04-6.03,6.04c-3.33,0-6.03-2.7-6.03-6.04c0-3.33,2.7-6.03,6.03-6.03C219.459,285.019,222.16,287.718,222.16,291.048z
		"/>
	<path clip-path="url(#SVGID_2_)" fill="none" stroke="#000000" stroke-miterlimit="10" d="M215.97,278.158
		c0,1.63-1.32,2.94-2.94,2.94s-2.93-1.31-2.93-2.94c0-1.62,1.31-2.93,2.93-2.93S215.97,276.538,215.97,278.158z"/>
	<path clip-path="url(#SVGID_2_)" fill="none" stroke="#000000" stroke-miterlimit="10" d="M229.16,281.488
		c0,1.62-1.32,2.94-2.94,2.94s-2.94-1.32-2.94-2.94s1.32-2.94,2.94-2.94S229.16,279.868,229.16,281.488z"/>
	<path clip-path="url(#SVGID_2_)" fill="none" stroke="#000000" stroke-miterlimit="10" d="M232.089,294.438
		c0,1.63-1.31,2.94-2.93,2.94c-1.63,0-2.94-1.31-2.94-2.94c0-1.62,1.31-2.93,2.94-2.93
		C230.779,291.508,232.089,292.818,232.089,294.438z"/>
	<path clip-path="url(#SVGID_2_)" fill="none" stroke="#000000" stroke-miterlimit="10" d="M223.279,303.648
		c0,1.62-1.31,2.93-2.93,2.93c-1.62,0-2.94-1.31-2.94-2.93s1.32-2.94,2.94-2.94C221.969,300.708,223.279,302.028,223.279,303.648z"
		/>
	<path clip-path="url(#SVGID_2_)" fill="none" stroke="#000000" stroke-miterlimit="10" d="M210.1,300.318
		c0,1.62-1.32,2.93-2.94,2.93s-2.94-1.31-2.94-2.93c0-1.63,1.32-2.94,2.94-2.94S210.1,298.688,210.1,300.318z"/>
	<path clip-path="url(#SVGID_2_)" fill="none" stroke="#000000" stroke-miterlimit="10" d="M206.83,287.358
		c0,1.62-1.31,2.94-2.94,2.94c-1.62,0-2.93-1.32-2.93-2.94s1.31-2.93,2.93-2.93C205.52,284.428,206.83,285.738,206.83,287.358z"/>
	<path clip-path="url(#SVGID_2_)" fill="none" stroke="#000000" stroke-miterlimit="10" d="M245.669,605.059
		c0,15.29-12.39,27.68-27.67,27.68c-15.28,0-27.67-12.39-27.67-27.68c0-1.141,0.07-2.271,0.21-3.37c0-0.07,0.01-0.141,0.03-0.21
		c0.56-4.38,2.15-8.431,4.51-11.92c4.97-7.34,13.38-12.17,22.92-12.17C233.279,577.389,245.669,589.778,245.669,605.059z"/>
	<path clip-path="url(#SVGID_2_)" fill="none" stroke="#000000" stroke-miterlimit="10" d="M238.04,604.278
		c0,11.63-9.42,21.06-21.05,21.06c-11.63,0-21.06-9.43-21.06-21.06s9.43-21.05,21.06-21.05
		C228.62,583.229,238.04,592.648,238.04,604.278z"/>
	<path clip-path="url(#SVGID_2_)" fill="none" stroke="#000000" stroke-miterlimit="10" d="M225.129,605.059
		c0,4.76-3.85,8.609-8.6,8.609c-4.76,0-8.61-3.85-8.61-8.609c0-4.75,3.85-8.601,8.61-8.601
		C221.279,596.458,225.129,600.309,225.129,605.059z"/>
	<path clip-path="url(#SVGID_2_)" fill="none" stroke="#000000" stroke-miterlimit="10" d="M222.56,605.059
		c0,3.34-2.7,6.04-6.03,6.04c-3.34,0-6.04-2.7-6.04-6.04c0-3.33,2.7-6.03,6.04-6.03C219.859,599.028,222.56,601.729,222.56,605.059z
		"/>
	<path clip-path="url(#SVGID_2_)" fill="none" stroke="#000000" stroke-miterlimit="10" d="M216.359,592.168
		c0,1.63-1.31,2.94-2.93,2.94c-1.62,0-2.94-1.311-2.94-2.94c0-1.62,1.32-2.93,2.94-2.93
		C215.049,589.238,216.359,590.548,216.359,592.168z"/>
	<path clip-path="url(#SVGID_2_)" fill="none" stroke="#000000" stroke-miterlimit="10" d="M229.549,595.498
		c0,1.62-1.31,2.94-2.93,2.94c-1.63,0-2.94-1.32-2.94-2.94s1.31-2.939,2.94-2.939C228.239,592.559,229.549,593.878,229.549,595.498z
		"/>
	<path clip-path="url(#SVGID_2_)" fill="none" stroke="#000000" stroke-miterlimit="10" d="M232.49,608.448
		c0,1.63-1.32,2.94-2.94,2.94s-2.93-1.311-2.93-2.94c0-1.62,1.31-2.93,2.93-2.93S232.49,606.828,232.49,608.448z"/>
	<path clip-path="url(#SVGID_2_)" fill="none" stroke="#000000" stroke-miterlimit="10" d="M223.68,617.658
		c0,1.62-1.31,2.94-2.94,2.94c-1.62,0-2.93-1.32-2.93-2.94s1.31-2.939,2.93-2.939C222.37,614.719,223.68,616.038,223.68,617.658z"/>
	<path clip-path="url(#SVGID_2_)" fill="none" stroke="#000000" stroke-miterlimit="10" d="M210.49,614.328
		c0,1.62-1.31,2.93-2.93,2.93c-1.63,0-2.94-1.31-2.94-2.93s1.31-2.939,2.94-2.939C209.18,611.389,210.49,612.708,210.49,614.328z"/>
	<path clip-path="url(#SVGID_2_)" fill="none" stroke="#000000" stroke-miterlimit="10" d="M207.229,601.368
		c0,1.62-1.32,2.94-2.94,2.94s-2.94-1.32-2.94-2.94s1.32-2.93,2.94-2.93S207.229,599.748,207.229,601.368z"/>
	<path clip-path="url(#SVGID_2_)" fill="none" stroke="#000000" stroke-miterlimit="10" d="M497.63,590.088
		c2.81,4.32,4.439,9.49,4.439,15.03c0,15.29-12.39,27.68-27.669,27.68c-15.291,0-27.681-12.39-27.681-27.68
		c0-15.28,12.39-27.67,27.681-27.67C484.14,577.448,492.699,582.479,497.63,590.088z"/>
	<path clip-path="url(#SVGID_2_)" fill="none" stroke="#000000" stroke-miterlimit="10" d="M494.439,604.349
		c0,11.63-9.43,21.05-21.06,21.05s-21.051-9.42-21.051-21.05s9.421-21.061,21.051-21.061S494.439,592.719,494.439,604.349z"/>
	<path clip-path="url(#SVGID_2_)" fill="none" stroke="#000000" stroke-miterlimit="10" d="M481.529,605.118
		c0,4.76-3.85,8.61-8.609,8.61c-4.75,0-8.601-3.851-8.601-8.61c0-4.75,3.851-8.6,8.601-8.6
		C477.68,596.519,481.529,600.368,481.529,605.118z"/>
	<path clip-path="url(#SVGID_2_)" fill="none" stroke="#000000" stroke-miterlimit="10" d="M478.96,605.118
		c0,3.34-2.71,6.04-6.04,6.04s-6.03-2.7-6.03-6.04c0-3.33,2.7-6.03,6.03-6.03S478.96,601.788,478.96,605.118z"/>
	<path clip-path="url(#SVGID_2_)" fill="none" stroke="#000000" stroke-miterlimit="10" d="M472.76,592.238
		c0,1.62-1.311,2.93-2.931,2.93c-1.63,0-2.939-1.31-2.939-2.93c0-1.63,1.31-2.94,2.939-2.94
		C471.449,589.298,472.76,590.608,472.76,592.238z"/>
	<path clip-path="url(#SVGID_2_)" fill="none" stroke="#000000" stroke-miterlimit="10" d="M485.949,595.559
		c0,1.62-1.311,2.939-2.939,2.939c-1.621,0-2.931-1.319-2.931-2.939s1.31-2.94,2.931-2.94
		C484.639,592.618,485.949,593.938,485.949,595.559z"/>
	<path clip-path="url(#SVGID_2_)" fill="none" stroke="#000000" stroke-miterlimit="10" d="M488.89,608.519
		c0,1.62-1.32,2.93-2.94,2.93c-1.621,0-2.939-1.31-2.939-2.93c0-1.63,1.318-2.94,2.939-2.94
		C487.569,605.578,488.89,606.889,488.89,608.519z"/>
	<path clip-path="url(#SVGID_2_)" fill="none" stroke="#000000" stroke-miterlimit="10" d="M480.079,617.719
		c0,1.619-1.319,2.938-2.939,2.938s-2.93-1.319-2.93-2.938c0-1.62,1.31-2.94,2.93-2.94S480.079,616.099,480.079,617.719z"/>
	<path clip-path="url(#SVGID_2_)" fill="none" stroke="#000000" stroke-miterlimit="10" d="M466.89,614.389
		c0,1.619-1.32,2.93-2.94,2.93c-1.621,0-2.93-1.311-2.93-2.93c0-1.62,1.309-2.94,2.93-2.94
		C465.569,611.448,466.89,612.769,466.89,614.389z"/>
	<path clip-path="url(#SVGID_2_)" fill="none" stroke="#000000" stroke-miterlimit="10" d="M463.619,601.429
		c0,1.619-1.311,2.939-2.93,2.939c-1.62,0-2.939-1.32-2.939-2.939c0-1.62,1.319-2.931,2.939-2.931
		C462.309,598.498,463.619,599.809,463.619,601.429z"/>
	<path clip-path="url(#SVGID_2_)" fill="none" stroke="#000000" stroke-miterlimit="10" d="M497.71,274.008
		c3.369,4.58,5.359,10.23,5.359,16.35c0,3.82-0.77,7.46-2.18,10.77c-0.01,0.02-0.021,0.05-0.03,0.07
		c-4.21,9.9-14.03,16.84-25.46,16.84c-15.29,0-27.68-12.39-27.68-27.68c0-15.28,12.39-27.67,27.68-27.67
		C484.56,262.688,492.689,267.148,497.71,274.008z"/>
	<path clip-path="url(#SVGID_2_)" fill="none" stroke="#000000" stroke-miterlimit="10" d="M495.439,289.578
		c0,11.63-9.43,21.06-21.06,21.06s-21.051-9.43-21.051-21.06s9.421-21.06,21.051-21.06S495.439,277.948,495.439,289.578z"/>
	<path clip-path="url(#SVGID_2_)" fill="none" stroke="#000000" stroke-miterlimit="10" d="M482.529,290.358
		c0,4.76-3.85,8.61-8.609,8.61c-4.75,0-8.601-3.85-8.601-8.61c0-4.75,3.851-8.61,8.601-8.61
		C478.68,281.749,482.529,285.608,482.529,290.358z"/>
	<path clip-path="url(#SVGID_2_)" fill="none" stroke="#000000" stroke-miterlimit="10" d="M479.96,290.358
		c0,3.33-2.71,6.04-6.04,6.04s-6.03-2.71-6.03-6.04s2.7-6.03,6.03-6.03S479.96,287.028,479.96,290.358z"/>
	<path clip-path="url(#SVGID_2_)" fill="none" stroke="#000000" stroke-miterlimit="10" d="M473.76,277.468
		c0,1.62-1.311,2.94-2.931,2.94c-1.63,0-2.939-1.32-2.939-2.94s1.31-2.93,2.939-2.93C472.449,274.538,473.76,275.848,473.76,277.468
		z"/>
	<path clip-path="url(#SVGID_2_)" fill="none" stroke="#000000" stroke-miterlimit="10" d="M486.949,280.798
		c0,1.62-1.311,2.93-2.939,2.93c-1.621,0-2.931-1.31-2.931-2.93s1.31-2.94,2.931-2.94
		C485.639,277.858,486.949,279.178,486.949,280.798z"/>
	<path clip-path="url(#SVGID_2_)" fill="none" stroke="#000000" stroke-miterlimit="10" d="M489.89,293.749
		c0,1.62-1.32,2.94-2.94,2.94c-1.621,0-2.939-1.32-2.939-2.94s1.318-2.93,2.939-2.93C488.569,290.818,489.89,292.128,489.89,293.749
		z"/>
	<path clip-path="url(#SVGID_2_)" fill="none" stroke="#000000" stroke-miterlimit="10" d="M481.079,302.958
		c0,1.62-1.319,2.93-2.939,2.93s-2.93-1.31-2.93-2.93s1.31-2.94,2.93-2.94S481.079,301.338,481.079,302.958z"/>
	<path clip-path="url(#SVGID_2_)" fill="none" stroke="#000000" stroke-miterlimit="10" d="M467.89,299.628
		c0,1.62-1.32,2.93-2.94,2.93c-1.621,0-2.93-1.31-2.93-2.93c0-1.63,1.309-2.94,2.93-2.94
		C466.569,296.688,467.89,297.999,467.89,299.628z"/>
	<path clip-path="url(#SVGID_2_)" fill="none" stroke="#000000" stroke-miterlimit="10" d="M464.619,286.668
		c0,1.62-1.311,2.94-2.93,2.94c-1.62,0-2.939-1.32-2.939-2.94s1.319-2.94,2.939-2.94
		C463.309,283.729,464.619,285.048,464.619,286.668z"/>
	<polyline clip-path="url(#SVGID_2_)" fill="none" stroke="#000000" stroke-miterlimit="10" points="252.609,134.208 
		249.199,140.838 249.009,232.758 248.25,605.068 248.179,638.209 196.1,637.698 	"/>
	<polyline clip-path="url(#SVGID_2_)" fill="none" stroke="#000000" stroke-miterlimit="10" points="440.569,134.208 
		443.97,140.838 444.159,232.758 444.93,605.118 445,638.209 496.689,637.698 497.079,637.698 	"/>
	
		<line clip-path="url(#SVGID_2_)" fill="none" stroke="#000000" stroke-miterlimit="10" x1="249.009" y1="232.758" x2="444.159" y2="232.758"/>
	<path clip-path="url(#SVGID_2_)" fill="none" stroke="#000000" stroke-miterlimit="10" d="M248.18,638.208
		c0,0,52.09,13.271,78.64,0h44.94c0,0,44.85,12.8,73.24,0"/>
	<polygon clip-path="url(#SVGID_2_)" fill="none" stroke="#000000" stroke-miterlimit="10" points="216.18,643.479 216.99,648.078 
		230.56,648.078 229.459,643.479 	"/>
	<polygon clip-path="url(#SVGID_2_)" fill="none" stroke="#000000" stroke-miterlimit="10" points="479.949,644.108 
		479.149,648.698 465.569,648.698 466.679,644.108 	"/>
	<polygon clip-path="url(#SVGID_2_)" fill="none" stroke="#000000" stroke-miterlimit="10" points="313.37,605.118 320.18,605.118 
		320.18,631.568 317.12,631.568 265.52,631.568 265.52,610.118 265.52,605.118 277.459,605.118 	"/>
	<polyline clip-path="url(#SVGID_2_)" fill="none" stroke="#000000" stroke-miterlimit="10" points="265.52,610.118 317.12,610.118 
		317.12,630.038 317.12,631.568 	"/>
	
		<line clip-path="url(#SVGID_2_)" fill="none" stroke="#000000" stroke-miterlimit="10" x1="277.459" y1="601.408" x2="303.839" y2="601.408"/>
	<path clip-path="url(#SVGID_2_)" fill="none" stroke="#000000" stroke-miterlimit="10" d="M313.37,601.408h7.65
		c2.44,0,4.43,1.99,4.43,4.42v22.86c0,2.439-1.99,4.43-4.43,4.43h-55.5h-3.9c-2.44,0-4.43-1.99-4.43-4.43v-22.86
		c0-2.43,1.99-4.42,4.43-4.42h5.8"/>
	<polygon clip-path="url(#SVGID_2_)" fill="none" stroke="#000000" stroke-miterlimit="10" points="277.459,601.408 
		277.459,605.118 267.419,605.059 267.419,601.408 267.419,595.498 276.609,595.498 277.459,595.498 	"/>
	<polygon clip-path="url(#SVGID_2_)" fill="none" stroke="#000000" stroke-miterlimit="10" points="303.839,601.408 
		303.839,595.498 313.369,595.498 313.369,601.408 313.369,605.118 303.839,605.059 	"/>
	<polygon clip-path="url(#SVGID_2_)" fill="none" stroke="#000000" stroke-miterlimit="10" points="425.14,605.538 431.949,605.538 
		431.949,631.979 428.88,631.979 377.289,631.979 377.289,610.528 377.289,605.538 389.22,605.538 	"/>
	<polyline clip-path="url(#SVGID_2_)" fill="none" stroke="#000000" stroke-miterlimit="10" points="377.289,610.528 
		428.88,610.528 428.88,630.448 428.88,631.979 	"/>
	
		<line clip-path="url(#SVGID_2_)" fill="none" stroke="#000000" stroke-miterlimit="10" x1="389.22" y1="601.818" x2="415.609" y2="601.818"/>
	<path clip-path="url(#SVGID_2_)" fill="none" stroke="#000000" stroke-miterlimit="10" d="M425.14,601.818h7.649
		c2.431,0,4.421,1.99,4.421,4.43v22.86c0,2.43-1.99,4.42-4.421,4.42h-55.5h-3.909c-2.431,0-4.42-1.99-4.42-4.42v-22.86
		c0-2.439,1.989-4.43,4.42-4.43h5.8"/>
	<polygon clip-path="url(#SVGID_2_)" fill="none" stroke="#000000" stroke-miterlimit="10" points="389.22,601.818 389.22,605.538 
		379.18,605.479 379.18,601.818 379.18,595.908 388.369,595.908 389.22,595.908 	"/>
	<polygon clip-path="url(#SVGID_2_)" fill="none" stroke="#000000" stroke-miterlimit="10" points="415.609,601.818 
		415.609,595.908 425.14,595.908 425.14,601.818 425.14,605.538 415.609,605.479 	"/>
</g>
</svg>
