<?xml version="1.0" encoding="utf-8"?>
<!-- Generator: Adobe Illustrator 16.0.0, SVG Export Plug-In . SVG Version: 6.00 Build 0)  -->
<!DOCTYPE svg PUBLIC "-//W3C//DTD SVG 1.1//EN" "http://www.w3.org/Graphics/SVG/1.1/DTD/svg11.dtd">
<svg version="1.1" id="Layer_1" xmlns="http://www.w3.org/2000/svg" xmlns:xlink="http://www.w3.org/1999/xlink" x="0px" y="0px"
	 width="720px" height="720px" viewBox="0 0 720 720" enable-background="new 0 0 720 720" xml:space="preserve">
<polygon fill="#1A1A1A" points="273.486,106.531 243.981,106.531 256.939,116.458 "/>
<polygon fill="none" stroke="#000000" stroke-miterlimit="10" points="273.486,106.531 243.981,106.531 256.939,116.458 "/>
<polyline fill="none" stroke="#000000" stroke-miterlimit="10" points="447.727,113.936 431.386,104.745 460.128,104.745 
	461.131,104.745 "/>
<polyline fill="#4D4D4D" points="226.45,99.893 236.322,618.064 244.492,618.064 241.769,462.105 234.28,401.852 238.024,352.148 
	240.408,349.851 235.812,100.148 227.641,100.404 "/>
<polyline fill="none" stroke="#000000" stroke-miterlimit="10" points="226.45,99.893 236.322,618.064 244.492,618.064 
	241.769,462.105 234.28,401.852 238.024,352.148 240.408,349.851 235.812,100.148 227.641,100.404 "/>
<polyline fill="#4D4D4D" points="479.599,97.224 481.384,615.486 473.216,615.67 472.431,459.689 478.563,399.281 473.701,349.676 
	471.267,347.432 470.244,97.689 478.419,97.762 "/>
<polyline fill="none" stroke="#000000" stroke-miterlimit="10" points="479.599,97.224 481.384,615.486 473.216,615.67 
	472.431,459.689 478.563,399.281 473.701,349.676 471.267,347.432 470.244,97.689 478.419,97.762 "/>
<polyline fill="#333333" points="256.939,116.457 257.097,117.371 273.486,212.233 237.987,218.368 235.812,100.148 "/>
<polyline fill="none" stroke="#000000" stroke-miterlimit="10" points="256.939,116.457 257.097,117.371 273.486,212.233 
	237.987,218.368 235.812,100.148 "/>
<g>
	<defs>
		<rect id="SVGID_1_" width="720" height="720"/>
	</defs>
	<clipPath id="SVGID_2_">
		<use xlink:href="#SVGID_1_"  overflow="visible"/>
	</clipPath>
	<path clip-path="url(#SVGID_2_)" fill="#333333" d="M273.854,212.68l32.809,5.298l24.127-7.787l1.532-1.787l43.149,1.021
		l16.596,0.255h1.787l23.489,8.298l25.532,2.17l27.37-3.83c0,0,0.562-118.407,0-118.629c-0.562-0.222-18.306,13.182-18.306,13.182
		l-4.064,3.384l-17.787-10.362l-7.639-4.319l-32.085-10.02l-76.937,0.977l-29.489,10.128l-26.489,15.51"/>
	<path clip-path="url(#SVGID_2_)" fill="none" stroke="#000000" stroke-miterlimit="10" d="M273.854,212.68l32.809,5.298
		l24.127-7.787l1.532-1.787l43.149,1.021l16.596,0.255h1.787l23.489,8.298l25.532,2.17l27.37-3.83c0,0,0.562-118.407,0-118.629
		c-0.562-0.222-18.306,13.182-18.306,13.182l-4.064,3.384l-17.787-10.362l-7.639-4.319l-32.085-10.02l-76.937,0.977l-29.489,10.128
		l-26.489,15.51"/>
	<line clip-path="url(#SVGID_2_)" fill="#333333" x1="257.45" y1="116.169" x2="273.854" y2="212.68"/>
	
		<line clip-path="url(#SVGID_2_)" fill="none" stroke="#1A1A1A" stroke-miterlimit="10" x1="257.45" y1="116.169" x2="273.854" y2="212.68"/>
	<polygon clip-path="url(#SVGID_2_)" fill="#1A1A1A" points="461.925,103.927 453.948,109.34 447.727,113.936 441.958,110.808 
		430.591,104.185 446.258,104.056 	"/>
	<polygon clip-path="url(#SVGID_2_)" fill="none" stroke="#000000" stroke-miterlimit="10" points="461.925,103.927 453.948,109.34 
		447.727,113.936 441.958,110.808 430.591,104.185 446.258,104.056 	"/>
	<polyline clip-path="url(#SVGID_2_)" fill="none" stroke="#808080" stroke-miterlimit="10" points="313.428,90.531 
		332.322,208.404 392.066,209.68 417.343,217.979 422.449,99.573 	"/>
	
		<line clip-path="url(#SVGID_2_)" fill="none" stroke="#808080" stroke-miterlimit="10" x1="390.364" y1="89.554" x2="393.854" y2="209.68"/>
	
		<line clip-path="url(#SVGID_2_)" fill="none" stroke="#808080" stroke-miterlimit="10" x1="307.74" y1="217.63" x2="283.301" y2="101.084"/>
	
		<line clip-path="url(#SVGID_2_)" fill="none" stroke="#1A1A1A" stroke-miterlimit="10" x1="442.907" y1="219.436" x2="447.727" y2="113.936"/>
	<line clip-path="url(#SVGID_2_)" fill="#1A1A1A" x1="445.157" y1="614.958" x2="445.164" y2="616.127"/>
	
		<line clip-path="url(#SVGID_2_)" fill="none" stroke="#808080" stroke-miterlimit="10" x1="445.157" y1="614.958" x2="445.164" y2="616.127"/>
	<line clip-path="url(#SVGID_2_)" fill="#1A1A1A" x1="442.892" y1="222.962" x2="445.141" y2="612.063"/>
	
		<line clip-path="url(#SVGID_2_)" fill="none" stroke="#808080" stroke-miterlimit="10" x1="442.892" y1="222.962" x2="445.141" y2="612.063"/>
	<polyline clip-path="url(#SVGID_2_)" fill="#1A1A1A" points="442.875,220.148 417.343,217.979 392.066,209.681 333.514,208.488 
		307.74,217.63 273.854,212.681 237.987,218.368 240.407,349.851 238.024,352.148 234.279,401.851 241.769,462.105 244.492,618.064 
		303.088,618.19 305.258,612.574 410.449,612.574 412.492,616.659 473.216,615.669 472.431,459.689 478.563,399.281 
		473.701,349.675 471.267,347.432 470.245,216.318 442.875,220.148 442.892,222.961 	"/>
	<polyline clip-path="url(#SVGID_2_)" fill="none" stroke="#808080" stroke-miterlimit="10" points="442.875,220.148 
		417.343,217.979 392.066,209.681 333.514,208.488 307.74,217.63 273.854,212.681 237.987,218.368 240.407,349.851 238.024,352.148 
		234.279,401.851 241.769,462.105 244.492,618.064 303.088,618.19 305.258,612.574 410.449,612.574 412.492,616.659 
		473.216,615.669 472.431,459.689 478.563,399.281 473.701,349.675 471.267,347.432 470.245,216.318 442.875,220.148 
		442.892,222.961 	"/>
	<line clip-path="url(#SVGID_2_)" fill="#1A1A1A" x1="442.907" y1="219.436" x2="442.875" y2="220.148"/>
	
		<line clip-path="url(#SVGID_2_)" fill="none" stroke="#808080" stroke-miterlimit="10" x1="442.907" y1="219.436" x2="442.875" y2="220.148"/>
	
		<line clip-path="url(#SVGID_2_)" fill="none" stroke="#333333" stroke-miterlimit="10" x1="273.293" y1="213.167" x2="273.293" y2="618.19"/>
	<line clip-path="url(#SVGID_2_)" fill="#1A1A1A" x1="442.812" y1="220.436" x2="442.812" y2="615.67"/>
	
		<line clip-path="url(#SVGID_2_)" fill="none" stroke="#333333" stroke-miterlimit="10" x1="442.812" y1="220.436" x2="442.812" y2="615.67"/>
	<line clip-path="url(#SVGID_2_)" fill="#1A1A1A" x1="307" y1="217.633" x2="304.844" y2="612.571"/>
	
		<line clip-path="url(#SVGID_2_)" fill="none" stroke="#4D4D4D" stroke-miterlimit="10" x1="307" y1="217.633" x2="304.844" y2="612.571"/>
	<line clip-path="url(#SVGID_2_)" fill="#1A1A1A" x1="333.101" y1="207.765" x2="330.877" y2="614.925"/>
	
		<line clip-path="url(#SVGID_2_)" fill="none" stroke="#4D4D4D" stroke-miterlimit="10" x1="333.101" y1="207.765" x2="330.877" y2="614.925"/>
	<line clip-path="url(#SVGID_2_)" fill="#1A1A1A" x1="391.184" y1="209.66" x2="388.971" y2="614.898"/>
	
		<line clip-path="url(#SVGID_2_)" fill="none" stroke="#4D4D4D" stroke-miterlimit="10" x1="391.184" y1="209.66" x2="388.971" y2="614.898"/>
	<line clip-path="url(#SVGID_2_)" fill="#1A1A1A" x1="413.469" y1="217.633" x2="411.313" y2="612.571"/>
	
		<line clip-path="url(#SVGID_2_)" fill="none" stroke="#4D4D4D" stroke-miterlimit="10" x1="413.469" y1="217.633" x2="411.313" y2="612.571"/>
	<polyline clip-path="url(#SVGID_2_)" fill="#111111" points="479.896,98.021 496.237,150.617 504.59,590.361 481.384,615.486 	"/>
	<polyline clip-path="url(#SVGID_2_)" fill="none" stroke="#808080" stroke-miterlimit="10" points="479.896,98.021 
		496.237,150.617 504.59,590.361 481.384,615.486 	"/>
	<polyline clip-path="url(#SVGID_2_)" fill="#111111" points="224.898,102.448 208.867,155.138 211.301,595.212 236.312,617.511 	
		"/>
	<polyline clip-path="url(#SVGID_2_)" fill="none" stroke="#808080" stroke-miterlimit="10" points="224.898,102.448 
		208.867,155.138 211.301,595.212 236.312,617.511 	"/>
	<polygon clip-path="url(#SVGID_2_)" fill="none" stroke="#000000" stroke-miterlimit="10" points="209.356,153.895 
		225.058,100.149 235.271,100.149 256.335,116.107 257.101,116.362 282.632,101.043 313.143,90.576 390.548,89.555 422.292,99.427 
		447.824,113.895 469.909,97.47 479.994,97.47 496.079,150.319 504.59,590.405 480.59,616.022 473.016,616.022 412.846,616.022 
		410.548,612.618 305.356,612.618 303.314,618.064 236.931,618.064 211.058,594.915 	"/>
</g>
</svg>
